<?xml version="1.0" encoding="utf-8"?>
<!-- Generator: Adobe Illustrator 23.0.0, SVG Export Plug-In . SVG Version: 6.00 Build 0)  -->
<svg version="1.0" id="Layer_1" xmlns="http://www.w3.org/2000/svg" xmlns:xlink="http://www.w3.org/1999/xlink" x="0px" y="0px"
	 width="50px" height="50px" viewBox="0 0 50 50" enable-background="new 0 0 50 50" xml:space="preserve">
<g>
	<g opacity="0.25">
		<path fill="#1321A3" d="M34.6,25.9c0.2-0.9,0.3-1.3,0.6-2.2c0.9-3.2,0.7-7.1-2-9.8c-0.9-0.9-2.3,0.1-1.5,1c2,2.5,2.4,5.8,1.8,8.5
			c-0.2,0.8-0.3,1.2-0.4,2c-0.6-0.2-0.9-0.3-1.5-0.4c0.1-1.9-1.3-3.5-3-3.7c0-1.8-1.7-3.5-3.6-3.6c-2,0.1-3.7,1.8-3.7,3.6
			c-1.6,0.2-3.1,1.9-3,3.7c-0.6,0.2-0.9,0.2-1.5,0.4c-0.2-0.8-0.3-1.2-0.4-1.9c-0.6-2.6-0.2-5.8,1.8-8.3c0.8-1-0.5-1.9-1.4-1
			c-2.7,2.8-2.9,6.6-2,9.7c0.2,0.9,0.4,1.3,0.6,2.2C11,27.7,9,29.1,5,32.8c-0.4,0.4-0.5,0.8-0.3,1C4.8,33.9,4.9,34,5,34.1
			c2.2,3,6.8,3.8,10.6,2.5c0.3-0.1,0.5-0.1,0.8-0.2c0.5-0.1,0.7-0.2,1.2-0.3c1.2,4.7,3.3,7.2,5.7,8.3c0,0,0,0,0.1,0
			c0.1,0,0.3-0.2,0.3-0.5c0.1-0.5,0-0.7-0.3-1c-2.2-1.1-4.1-3.6-4.9-7.2c0.5-0.1,0.7-0.2,1.1-0.2c0.8,3.6,2.9,6.1,5.3,6.3
			c2.3,0,4.4-2.6,5.2-6.1c0.5,0.1,0.7,0.1,1.2,0.3c-0.7,3.6-2.6,6.1-4.8,7.1c-0.3,0.3-0.4,0.5-0.3,0.9c0.1,0.3,0.2,0.5,0.4,0.5
			c0.1,0,0.1,0,0.1,0c2.4-1.1,4.5-3.5,5.6-8.2c0.5,0.1,0.7,0.2,1.2,0.4c0.3,0.1,0.5,0.2,0.8,0.3c3.8,1.4,8.4,0.6,10.5-2.5
			c0.1-0.1,0.2-0.2,0.2-0.4c0.3-0.2,0.1-0.7-0.3-1.1C40.8,29.1,38.9,27.7,34.6,25.9z M24.9,19c1.3,0,2,0.9,2.1,1.8
			c-0.8-0.1-1.3-0.1-2.1-0.1c-0.8,0-1.3,0-2.1,0.1C23,19.9,23.6,19,24.9,19z M16.2,35.1c-0.4,0.1-0.6,0.2-0.9,0.3c0,0-0.1,0-0.2,0.1
			c-0.5,0.2-1.7,0.4-3.1,0.4c1.2-0.6,1.8-0.9,3-1.3c0.4-0.1,0.4-0.5,0.3-0.9c-0.1-0.4-0.3-0.7-0.7-0.5c-1.9,0.8-2.9,1.3-4.8,2.5
			c-0.7-0.2-1.2-0.4-1.6-0.6c1.8-1.3,2.7-1.8,4.5-2.7c0.4-0.2,0.4-0.5,0.3-0.9c-0.1-0.4-0.4-0.6-0.8-0.4c-2,1.1-3,1.8-5.1,3.3
			c-0.6-0.6-0.7-1.1-0.7-1.1c4.6-3.8,6.9-5.2,12-6.5c0.5,3.1,0.8,4.6,1.2,7.7C18.2,34.5,17.5,34.7,16.2,35.1z M20.8,34.6
			c-0.3-2.4-0.4-3.7-0.7-6.1c0.5,0.4,1.1,0.3,1.8,0.4c0.6-0.1,1-0.1,1.6-0.1c0.4,0,0.8,0.3,1,0.8c0.1,4.4,0.1,6.5,0.2,10.7
			C22.9,40.1,21.1,37.8,20.8,34.6z M29.1,34.7c-0.3,3.3-2,5.5-3.8,5.6c0-4.2,0-6.4,0.1-10.7c0.2-0.5,0.6-0.8,1-0.8
			c0.6,0,1,0.1,1.6,0.1c0.7-0.1,1.4,0,1.8-0.4C29.5,31,29.4,32.2,29.1,34.7z M30.3,25.2c-0.2,1.2-1.1,2.2-2.1,2
			c-0.6-0.1-0.8-0.1-1.4-0.1c-0.6,0-1.4,0.2-1.8,0.7c-0.4-0.5-1.2-0.8-1.8-0.7c-0.6,0-0.8,0.1-1.4,0.1c-1,0.1-2-0.8-2.1-2
			c-0.2-1.2,0.6-2.4,1.7-2.6c0.3,0,0.4-0.1,0.7-0.1c1.1-0.1,1.7-0.2,2.9-0.2c1.1,0,1.7,0,2.9,0.1c0.3,0,0.4,0,0.7,0.1
			C29.7,22.7,30.4,23.9,30.3,25.2z M42.8,34.5c-2-1.6-3-2.3-5.1-3.5c-0.4-0.2-0.6,0-0.8,0.4c-0.1,0.4-0.1,0.8,0.3,1
			c1.8,1,2.7,1.5,4.5,2.9c-0.4,0.2-1,0.5-1.6,0.6c-1.9-1.2-2.9-1.8-4.8-2.6c-0.4-0.2-0.6,0.1-0.7,0.5c-0.1,0.5,0,0.8,0.3,0.9
			c1.2,0.5,1.8,0.8,3,1.4c-1.5,0-2.6-0.2-3.2-0.4c-0.1,0-0.1,0-0.2-0.1c-0.4-0.1-0.6-0.2-0.9-0.3c-1.3-0.5-2-0.7-3.3-1
			c0.4-3.1,0.6-4.6,1.2-7.8c5,1.4,7.3,2.7,12,6.7C43.5,33.3,43.3,33.9,42.8,34.5z M25,15.9c2.4-0.1,4.8-1.6,5.3-4.1
			c0.4-2.5-2-4.3-5.2-4.3c-3.2,0.1-5.7,2-5.3,4.5C20.1,14.4,22.5,15.8,25,15.9z M25,9c2,0,3.4,1.4,3.3,2.9c-0.2,1.5-1.6,2.3-3.3,2.4
			c-1.7,0-3.1-0.9-3.3-2.3C21.6,10.6,23,9.1,25,9z"/>
	</g>
	<g opacity="0.75">
		<path fill="#0713EA" d="M18.3,25.6c0.6,3.1,0.8,4.6,1.2,7.7c-1.3,0.3-2,0.4-3.3,0.9c-0.4,0.1-0.5,0.2-0.9,0.3c0,0-0.1,0-0.2,0.1
			c-0.5,0.2-1.7,0.4-3.1,0.4c1.2-0.6,1.8-0.9,3-1.3c0.4-0.1,0.4-0.5,0.3-0.9c-0.1-0.4-0.3-0.7-0.7-0.5c-1.9,0.8-2.9,1.3-4.7,2.5
			c-0.7-0.2-1.2-0.4-1.6-0.6c1.8-1.3,2.6-1.8,4.4-2.7c0.4-0.2,0.4-0.5,0.3-0.9c-0.1-0.4-0.4-0.6-0.8-0.4c-2,1.1-3,1.8-5,3.3
			c-0.6-0.6-0.8-1.1-0.8-1.1C11,28.3,13.3,27,18.3,25.6z M23.5,27.7c-0.6,0-1,0.1-1.6,0.1c-0.7-0.1-1.4,0-1.8-0.4
			c0.3,2.5,0.5,3.7,0.7,6.1c0.4,3.2,2.1,5.5,3.8,5.7c-0.1-4.2-0.1-6.4-0.2-10.8C24.3,28,23.9,27.7,23.5,27.7z M26.4,27.7
			c-0.4,0-0.8,0.3-1,0.8c-0.1,4.4-0.1,6.6-0.1,10.8c1.7-0.2,3.4-2.4,3.8-5.6c0.3-2.5,0.4-3.7,0.7-6.2c-0.5,0.4-1.1,0.3-1.8,0.4
			C27.4,27.8,27,27.8,26.4,27.7z M25,13.3c1.7-0.1,3.2-1,3.3-2.4C28.5,9.4,27.1,8.1,25,8c-2.1,0.1-3.5,1.5-3.4,3
			C21.8,12.5,23.2,13.3,25,13.3z M27.1,19.7c-0.1-0.9-0.8-1.8-2.1-1.8c-1.3,0-2,0.9-2.1,1.8c0.9-0.1,1.3-0.1,2.1-0.1
			C25.8,19.7,26.2,19.7,27.1,19.7z M28.6,21.5c-0.3,0-0.5-0.1-0.8-0.1c-1.1-0.1-1.7-0.1-2.9-0.1c-1.2,0-1.7,0-2.9,0.2
			c-0.3,0-0.5,0.1-0.8,0.1c-1.1,0.2-1.9,1.4-1.7,2.6c0.2,1.2,1.2,2.1,2.1,2c0.6-0.1,0.8-0.1,1.4-0.1c0.6,0,1.4,0.2,1.8,0.7
			c0.4-0.5,1.2-0.8,1.8-0.7c0.6,0,0.9,0.1,1.4,0.1c1,0.1,2-0.8,2.1-2C30.5,22.9,29.7,21.7,28.6,21.5z M30.3,33.4
			c1.3,0.3,2,0.5,3.3,1c0.4,0.1,0.5,0.2,0.9,0.3c0,0,0.1,0,0.2,0.1c0.5,0.2,1.7,0.5,3.1,0.4c-1.2-0.6-1.8-0.9-3-1.4
			c-0.4-0.1-0.4-0.5-0.3-0.9c0.1-0.5,0.3-0.7,0.7-0.5c1.9,0.8,2.9,1.4,4.8,2.6c0.7-0.2,1.2-0.4,1.6-0.6c-1.8-1.3-2.7-1.9-4.5-2.9
			c-0.4-0.2-0.4-0.5-0.3-1c0.1-0.4,0.4-0.6,0.8-0.4c2,1.2,3,1.8,5,3.5c0.6-0.6,0.7-1.2,0.7-1.2c-4.6-4-6.8-5.4-11.9-6.7
			C31,28.7,30.8,30.3,30.3,33.4z"/>
	</g>
	<path fill="#030000" d="M34.6,24.9c0.2-0.9,0.4-1.3,0.6-2.2c0.9-3.2,0.7-7-1.9-9.8c-0.9-0.9-2.3,0.1-1.5,1c2,2.5,2.4,5.8,1.7,8.4
		c-0.2,0.8-0.3,1.2-0.5,2c-0.6-0.2-0.9-0.3-1.5-0.4c0.2-1.9-1.3-3.5-3-3.7c0-1.8-1.7-3.5-3.7-3.6c-2,0.1-3.7,1.8-3.7,3.6
		c-1.7,0.2-3.1,1.9-3,3.7c-0.6,0.2-0.9,0.2-1.5,0.4c-0.2-0.8-0.3-1.2-0.5-1.9c-0.6-2.6-0.3-5.8,1.8-8.3c0.8-1-0.5-1.9-1.5-1
		c-2.7,2.8-2.9,6.5-2,9.6c0.3,0.9,0.4,1.3,0.6,2.2c-4.3,1.7-6.3,3.1-10.2,6.8c-0.4,0.4-0.5,0.8-0.2,1C4.9,32.9,5,33,5.1,33.1
		c2.2,3,6.8,3.8,10.6,2.5c0.3-0.1,0.5-0.1,0.8-0.2c0.5-0.1,0.7-0.2,1.2-0.3c1.3,4.7,3.3,7.2,5.7,8.4c0,0,0,0,0.1,0
		c0.1,0,0.2-0.2,0.3-0.5c0.1-0.5,0-0.7-0.3-1c-2.2-1.1-4.1-3.7-4.9-7.2c0.5-0.1,0.7-0.2,1.1-0.2c0.8,3.6,2.9,6.2,5.2,6.3
		c2.3,0,4.4-2.6,5.2-6.2c0.5,0.1,0.7,0.1,1.1,0.3c-0.7,3.6-2.6,6.1-4.8,7.1c-0.3,0.3-0.4,0.5-0.3,0.9c0.1,0.3,0.2,0.5,0.3,0.5
		c0.1,0,0.1,0,0.1,0c2.4-1.1,4.4-3.5,5.6-8.3c0.5,0.1,0.7,0.2,1.2,0.4c0.3,0.1,0.5,0.2,0.8,0.3c3.8,1.4,8.3,0.6,10.5-2.5
		c0.1-0.1,0.2-0.2,0.3-0.4c0.3-0.3,0.1-0.7-0.2-1.1C40.9,28.1,38.9,26.7,34.6,24.9z M25,17.9c1.3,0,2,0.9,2.1,1.8
		c-0.9-0.1-1.3-0.1-2.1-0.1c-0.9,0-1.3,0-2.1,0.1C23,18.9,23.6,18,25,17.9z M16.3,34.2c-0.4,0.1-0.5,0.2-0.9,0.3c0,0-0.1,0-0.2,0.1
		c-0.5,0.2-1.7,0.4-3.1,0.4c1.2-0.6,1.8-0.9,3-1.3c0.4-0.1,0.4-0.5,0.3-0.9c-0.1-0.4-0.3-0.7-0.7-0.5c-1.9,0.8-2.9,1.3-4.7,2.5
		c-0.7-0.2-1.2-0.4-1.6-0.6c1.8-1.3,2.6-1.8,4.4-2.7c0.4-0.2,0.4-0.5,0.3-0.9c-0.1-0.4-0.4-0.6-0.8-0.4c-2,1.1-3,1.8-5,3.3
		c-0.6-0.6-0.8-1.1-0.8-1.1c4.5-3.8,6.8-5.2,11.9-6.5c0.6,3.1,0.8,4.6,1.2,7.7C18.2,33.5,17.6,33.7,16.3,34.2z M20.8,33.6
		c-0.3-2.4-0.4-3.7-0.7-6.1c0.5,0.4,1.1,0.3,1.8,0.4c0.6-0.1,1-0.1,1.6-0.1c0.4,0,0.8,0.3,1,0.8c0.1,4.4,0.1,6.6,0.2,10.8
		C22.9,39.1,21.2,36.8,20.8,33.6z M29.1,33.7c-0.3,3.3-2,5.5-3.8,5.6c0-4.2,0-6.4,0.1-10.8c0.2-0.5,0.6-0.8,1-0.8
		c0.6,0,1,0.1,1.6,0.1c0.7-0.1,1.4,0,1.8-0.4C29.5,30,29.4,31.2,29.1,33.7z M30.3,24.1c-0.2,1.2-1.2,2.2-2.1,2
		c-0.6-0.1-0.8-0.1-1.4-0.1c-0.6,0-1.4,0.2-1.8,0.7c-0.4-0.5-1.2-0.8-1.8-0.7c-0.6,0-0.9,0.1-1.4,0.1c-1,0.1-2-0.8-2.1-2
		c-0.2-1.2,0.6-2.4,1.7-2.6c0.3,0,0.5-0.1,0.8-0.1c1.1-0.1,1.7-0.2,2.9-0.2c1.2,0,1.7,0,2.9,0.1c0.3,0,0.5,0,0.8,0.1
		C29.7,21.7,30.5,22.9,30.3,24.1z M42.7,33.5c-2-1.6-3-2.3-5-3.5c-0.4-0.2-0.6,0-0.8,0.4c-0.1,0.4-0.1,0.8,0.3,1
		c1.8,1,2.7,1.5,4.5,2.9c-0.4,0.2-1,0.5-1.6,0.6c-1.9-1.2-2.8-1.8-4.8-2.6c-0.4-0.2-0.6,0.1-0.7,0.5c-0.1,0.5,0,0.8,0.3,0.9
		c1.2,0.5,1.8,0.8,3,1.4c-1.5,0-2.6-0.2-3.1-0.4c-0.1,0-0.1,0-0.2-0.1c-0.4-0.1-0.5-0.2-0.9-0.3c-1.3-0.5-2-0.7-3.3-1
		c0.4-3.1,0.7-4.6,1.2-7.8c5,1.4,7.3,2.7,11.9,6.7C43.4,32.3,43.2,32.9,42.7,33.5z M25,14.8c2.5-0.1,4.9-1.6,5.4-4.1
		c0.4-2.4-2-4.2-5.3-4.2c-3.2,0.1-5.8,2-5.4,4.4C20.1,13.4,22.5,14.8,25,14.8z M25,8c2.1,0,3.5,1.4,3.3,2.9
		c-0.2,1.5-1.6,2.3-3.3,2.4c-1.7,0-3.2-0.9-3.3-2.3C21.5,9.6,23,8.2,25,8z"/>
</g>
</svg>
