<?xml version="1.0" encoding="utf-8"?>
<!-- Generator: Adobe Illustrator 23.0.0, SVG Export Plug-In . SVG Version: 6.00 Build 0)  -->
<svg version="1.0" id="Layer_1" xmlns="http://www.w3.org/2000/svg" xmlns:xlink="http://www.w3.org/1999/xlink" x="0px" y="0px"
	 viewBox="0 0 50 50" enable-background="new 0 0 50 50" xml:space="preserve">
<path fill="#FFFFFF" d="M4.6,44.2c0.1-0.1,0.2-0.2,0.2-0.3c1.6-2.6,3.1-5.3,4.5-8.2c0.1-0.1,0.1-0.3,0.2-0.4
	c0.2-0.3,0.5-0.3,0.7-0.1c0.3,0.2,0.4,0.5,0.2,0.8c-0.1,0.2-0.1,0.3-0.2,0.5c-1.2,2.4-2.5,4.7-3.8,7c-0.1,0.1-0.1,0.2-0.2,0.4
	c2.5,0.3,5,0.5,7.5,0.7c0-0.6,0-1.2,0-1.8c-0.6-0.2-1.1-0.3-1.7-0.5c-0.1,0-0.3-0.1-0.4-0.2c-0.5-0.3-0.6-1-0.2-1.5
	c0.5-0.5,0.9-1,1.4-1.6c-0.2-0.1-0.4-0.1-0.5-0.2c-0.7-0.3-0.8-1-0.3-1.6c0.4-0.5,0.9-1,1.3-1.5c-0.3-0.1-0.4-0.1-0.6-0.2
	c-0.5-0.2-0.7-0.9-0.3-1.3c0.9-0.9,1.7-2.1,2.3-3.3c0.3-0.6,0.8-0.6,1.2,0c0.7,1.3,1.4,2.4,2.4,3.5c0.4,0.5,0.3,1.2-0.3,1.3
	c-0.2,0.1-0.3,0.1-0.6,0.1c0.4,0.6,0.8,1.1,1.2,1.6c0.2,0.3,0.5,0.5,0.4,1c-0.1,0.5-0.4,0.7-0.8,0.7c-0.1,0-0.2,0.1-0.4,0.1
	c0.5,0.6,0.9,1.1,1.3,1.6c0.5,0.6,0.4,1.4-0.4,1.6c-0.5,0.1-1,0.2-1.5,0.3c-0.2,0-0.4,0.1-0.4,0.4c0,0.5,0,1,0,1.5
	c2.1,0.1,4.2,0.2,6.4,0.2c0-0.9,0-1.7,0-2.6c0-0.1-0.2-0.2-0.3-0.2c-0.7-0.2-1.4-0.3-2.1-0.5c-0.1,0-0.2-0.1-0.3-0.1
	c-0.6-0.3-0.7-1.1-0.2-1.6c0.6-0.7,1.2-1.5,1.9-2.3c-0.3-0.1-0.6-0.2-0.8-0.2c-0.3-0.1-0.6-0.4-0.7-0.8c-0.1-0.4,0.1-0.6,0.3-0.9
	c0.6-0.7,1.1-1.4,1.8-2.2c-0.3-0.1-0.5-0.2-0.7-0.2c-0.7-0.2-0.9-0.8-0.4-1.5c-0.5-1-1-2-1.5-3c0-0.1-0.2-0.2-0.2-0.2
	c-0.1-0.1-0.2-0.1-0.3-0.1c-0.7-0.3-1.4-0.4-2,0.1c-0.4,0.3-0.8,0.2-1.1-0.1c-0.8-0.5-1.5-0.2-2.2,0.1c-0.1,0-0.2,0.2-0.3,0.4
	c-0.7,1.5-1.5,3.1-2.2,4.6c-0.1,0.2-0.1,0.4-0.3,0.4c-0.2,0.1-0.5,0.1-0.7,0c-0.3-0.1-0.4-0.4-0.3-0.8c0-0.1,0.1-0.2,0.2-0.4
	c1.6-3.4,3.2-6.9,4.8-10.4c0.1-0.3,0.4-0.6,0.7-0.8c0.6-0.4,1.4-0.1,1.8,0.6c0.2,0.3,0.4,0.7,0.6,1c0.1-0.2,0.2-0.4,0.3-0.6
	c1.9-4.1,3.9-8.2,6.2-12.4c0.4-0.7,0.9-1.1,1.7-1.2c0.9,0,1.4,0.4,1.8,1.2c1.2,2.4,2.4,4.8,3.5,7.2c0.7,1.5,1.4,3.1,2.1,4.6
	c0,0.1,0.1,0.2,0.1,0.2c0.2,0.4,0.1,0.9-0.2,1.1c-0.3,0.2-0.7,0.1-0.9-0.4c-0.4-0.9-0.9-1.8-1.2-2.7c-0.3-0.7-0.7-1-1.3-1.2
	c-1.1-0.5-2.2-0.5-3.3,0.2c-0.4,0.3-0.9,0.3-1.3,0c-1.1-0.7-2.2-0.7-3.4-0.2c-0.5,0.2-0.9,0.5-1.2,1.1c-0.6,1.4-1.3,2.7-1.9,4.1
	c-0.1,0.1-0.1,0.4,0,0.5c1,1.9,2,3.8,2.9,5.8c0,0.1,0.1,0.1,0.2,0.3c0.6-1,1.2-2,1.7-3c0.1-0.1,0.1-0.2,0.2-0.4
	c0.3-0.6,0.8-0.6,1.1,0c0.4,0.6,0.7,1.3,1.1,1.9c0.6,0.8,1.2,1.6,1.8,2.4c0.1,0.2,0.3,0.6,0.2,0.8c-0.1,0.2-0.3,0.5-0.5,0.6
	c-0.2,0.1-0.5,0.2-0.9,0.3c0.6,0.7,1.1,1.4,1.7,2.1c0.3,0.3,0.5,0.6,0.4,1.1c-0.1,0.5-0.4,0.7-0.8,0.8c-0.2,0-0.4,0.1-0.7,0.2
	c0.6,0.7,1.1,1.4,1.7,2.1c0.3,0.3,0.5,0.6,0.4,1.1c-0.1,0.5-0.5,0.7-0.9,0.8c-0.7,0.2-1.4,0.4-2.2,0.6c0,0.9,0,1.8,0,2.8
	c2.2,0,4.3-0.1,6.5-0.2c0-0.6,0-1.2,0-1.8c-0.6-0.1-1.1-0.2-1.7-0.3c-0.1,0-0.3-0.1-0.4-0.1c-0.6-0.3-0.7-1-0.3-1.5
	c0.4-0.6,0.9-1.1,1.4-1.7c-0.2-0.1-0.4-0.1-0.6-0.2c-0.6-0.2-0.8-1-0.3-1.5c0.4-0.5,0.7-0.9,1.1-1.4c0.1-0.1,0.1-0.2,0.2-0.3
	c-0.2,0-0.3,0-0.4-0.1c-0.2-0.2-0.5-0.3-0.5-0.6c-0.1-0.2,0.1-0.6,0.2-0.8c0.9-1,1.6-2.1,2.3-3.3c0.4-0.8,0.9-0.8,1.3,0
	c0.6,1.2,1.3,2.3,2.2,3.2c0.2,0.2,0.3,0.5,0.2,0.8c0,0.2-0.3,0.4-0.5,0.6c-0.1,0.1-0.3,0.1-0.5,0.2c0.4,0.5,0.8,0.9,1.1,1.4
	c0.2,0.3,0.6,0.5,0.4,1c-0.1,0.5-0.5,0.7-0.9,0.8c-0.1,0-0.1,0.1-0.3,0.1c0.5,0.5,0.9,1,1.3,1.5c0.2,0.2,0.4,0.5,0.3,0.9
	c-0.1,0.4-0.3,0.7-0.7,0.8c-0.6,0.2-1.2,0.4-1.8,0.6c0,0.6,0,1.2,0,1.8c2.3-0.2,4.6-0.4,7-0.7c-0.1-0.2-0.2-0.3-0.2-0.4
	c-3.3-5.5-6-11.3-8.8-17.4c-0.3-0.6-0.3-1,0.1-1.3c0.4-0.3,0.7-0.1,1,0.6c2.9,6.4,5.8,12.6,9.4,18.3c0.1,0.2,0.2,0.3,0.3,0.5
	c0.2,0.4,0,0.8-0.4,0.9c-0.1,0-0.3,0.1-0.4,0.1C31,46.4,19,46.4,5.4,45.3c-0.4,0-0.7-0.1-0.9-0.6C4.6,44.5,4.6,44.4,4.6,44.2z
	 M27,32.3c-0.7-1-1.3-1.9-1.9-2.9c-0.6,0.9-1.3,1.9-1.9,2.9c0.2,0,0.5,0.1,0.7,0.1c0.6,0.1,0.8,0.7,0.4,1.2
	c-0.5,0.8-1.1,1.5-1.6,2.3c-0.1,0.1-0.2,0.2-0.3,0.4c0.4,0.1,0.7,0.1,1,0.2c0.6,0.1,0.7,0.7,0.4,1.2c-0.2,0.3-0.4,0.6-0.6,0.9
	c-0.4,0.6-0.9,1.2-1.3,1.8c2.2,0.7,4.4,0.7,6.6,0c-0.7-0.9-1.3-1.8-1.9-2.7c-0.4-0.6-0.2-1.2,0.4-1.3c0.3-0.1,0.6-0.1,0.9-0.2
	c-0.1-0.2-0.2-0.3-0.3-0.4c-0.5-0.8-1.1-1.5-1.6-2.3c-0.4-0.5-0.2-1.1,0.4-1.2C26.5,32.4,26.7,32.3,27,32.3z M22.8,17.7
	c0.4-0.1,0.7-0.2,1-0.3c0.4-0.2,0.9-0.2,1.3,0.1c1.1,0.7,2.2,0.7,3.4,0c0.3-0.2,0.7-0.1,1-0.1c0.4,0.1,0.8,0.2,1.2,0.4
	c-0.1-0.2-0.1-0.3-0.2-0.4c-1-2.1-2-4.2-3.1-6.3c-0.4-0.7-0.8-0.7-1.2,0c-0.9,1.7-1.8,3.3-2.7,5C23.3,16.6,23.1,17.1,22.8,17.7z
	 M17.9,41.4c-0.1-0.1-0.1-0.2-0.2-0.3c-0.4-0.6-0.9-1.2-1.3-1.8c-0.4-0.6-0.2-1.1,0.4-1.2c0.2,0,0.3-0.1,0.5-0.1
	c-0.4-0.6-0.8-1.2-1.2-1.8c-0.6-0.8-0.3-1.5,0.5-1.5c0,0,0,0,0.1-0.1c-0.4-0.7-0.9-1.3-1.3-2c-0.4,0.7-0.9,1.3-1.3,2
	c0.1,0,0.1,0,0.1,0c0.9,0.2,1,0.7,0.5,1.5c-0.4,0.6-0.8,1.1-1.2,1.7c0.2,0.1,0.4,0.1,0.5,0.2c0.6,0.2,0.7,0.7,0.4,1.2
	c-0.1,0.2-0.3,0.4-0.5,0.7c-0.3,0.4-0.7,0.8-1,1.3C14.6,41.7,16.2,41.8,17.9,41.4z M33,38c0.1,0,0.2,0.1,0.2,0.1
	c1,0.2,1.1,0.6,0.5,1.5c-0.4,0.6-0.8,1.2-1.3,1.8c1.7,0.4,3.3,0.3,5-0.3c-0.1-0.1-0.2-0.3-0.3-0.4c-0.4-0.5-0.8-1-1.2-1.5
	c-0.4-0.6-0.2-1.1,0.4-1.3c0.1,0,0.3-0.1,0.5-0.1c-0.4-0.6-0.8-1-1.1-1.6c-0.7-1-0.6-1.3,0.5-1.7c-0.4-0.6-0.9-1.3-1.3-1.9
	c-0.5,0.7-0.9,1.3-1.4,2c0.1,0,0.1,0,0.1,0c0.8,0,1,0.7,0.5,1.5C33.9,36.7,33.5,37.4,33,38z M17,22.9c0,0-0.1,0-0.1,0
	c-0.6,1.3-1.2,2.6-1.7,3.8c0.5,0.1,0.9,0.2,1.4,0.4c0.4,0.2,0.8,0.2,1.1,0c0.4-0.3,0.9-0.4,1.5-0.2C18.4,25.5,17.7,24.2,17,22.9z
	 M25.8,45.1c0-0.9,0-1.8,0-2.6c-0.4,0-0.8,0-1.2,0c0,0.9,0,1.8,0,2.6C25,45.1,25.4,45.1,25.8,45.1z M15.7,44.8c0-0.6,0-1.1,0-1.7
	c-0.3,0-0.5,0-0.7,0c0,0.6,0,1.1,0,1.7C15.3,44.8,15.5,44.8,15.7,44.8z M35.5,43c-0.3,0-0.5,0-0.7,0c0,0.6,0,1.2,0,1.7
	c0.3,0,0.5,0,0.7,0C35.5,44.2,35.5,43.6,35.5,43z"/>
<path fill="#FFFFFF" d="M8.7,7c1.1-0.1,2.1,0.2,3,0.9C11.9,8,12.2,8.1,12.4,8c1.2-0.1,2.2,0.2,3.1,1c0.1,0.1,0.3,0.2,0.5,0.1
	c1.2-0.1,2.4,0.6,3,1.7c0.6,1.1,0.4,2.5-0.4,3.4c-0.8,0.9-2,1.2-3.1,0.7c-0.2-0.1-0.5-0.1-0.6,0c-0.9,0.4-1.8,0.4-2.7,0.1
	c-0.2-0.1-0.5-0.1-0.6,0c-2.1,1-4.7-0.1-5.8-2.4c-1.1-2.3-0.1-4.9,2.3-5.6C8.1,7.1,8.4,7,8.7,7z M8.9,8.4c-1.2,0.1-2.2,0.9-2.4,2.1
	c-0.2,1.1,0.3,2.4,1.3,3.1c1,0.7,2.3,0.8,3.2,0.2c0.4-0.3,0.7-0.3,1.1,0c0.8,0.5,1.6,0.4,2.3-0.1c0.4-0.3,0.7-0.3,1.1,0
	c0.6,0.5,1.4,0.4,1.9-0.1c0.5-0.5,0.6-1.3,0.3-2c-0.4-0.7-1.1-1.1-1.8-0.8c-0.5,0.2-0.8,0-1.1-0.4c-0.6-0.8-1.5-1.1-2.4-0.8
	c-0.5,0.1-0.8,0-1.2-0.3C10.5,8.6,9.8,8.3,8.9,8.4z"/>
<path fill="#FFFFFF" d="M39.7,3.8C42.5,4,44.3,6.4,43.8,9c-0.5,2.6-2.8,4.6-5.4,4.5c-2.5-0.1-4.5-2.4-4.2-5.1
	C34.4,5.7,36.9,3.6,39.7,3.8z M39.5,5.2c-2-0.2-3.7,1.3-3.9,3.3c-0.2,1.9,1.2,3.6,3,3.6c1.8,0.1,3.5-1.3,3.8-3.2
	C42.8,7,41.5,5.3,39.5,5.2z"/>
</svg>
