<?xml version="1.0" encoding="utf-8"?>
<!-- Generator: Adobe Illustrator 23.0.0, SVG Export Plug-In . SVG Version: 6.00 Build 0)  -->
<svg version="1.0" id="Layer_1" xmlns="http://www.w3.org/2000/svg" xmlns:xlink="http://www.w3.org/1999/xlink" x="0px" y="0px"
	 viewBox="0 0 50 50" enable-background="new 0 0 50 50" xml:space="preserve">
<path fill="#FFFFFF" d="M23.7,47.5c-0.8-0.1-1.6-0.2-2.4-0.4c-4.9-1-9-3.5-12.2-7.5C6.3,36.3,4.5,32.4,3.9,28
	C3,22,4.1,16.6,7.5,11.6c3.1-4.4,7.4-7.4,12.8-8.6c6.7-1.5,12.9,0,18.2,4.2c4.2,3.4,6.7,7.9,7.6,13.2c0.2,0.9,0.2,1.9,0.3,2.8
	c0,0.2,0,0.3,0.1,0.5c0,0.9-0.1,1.7-0.1,2.6c0,0.3-0.1,0.6-0.1,0.9c-0.6,4.7-2.4,8.9-5.5,12.6c-3.3,3.9-7.3,6.4-12.1,7.3
	c-0.8,0.2-1.6,0.2-2.4,0.4C25.4,47.5,24.6,47.5,23.7,47.5z M5.8,25C6.2,35.5,14.1,44.9,25,45.1c10.9-0.3,18.7-9.6,19.1-20.1
	C44.4,14.1,36,5,25,4.9C14,5,5.6,14.1,5.8,25z"/>
<path fill="#FFFFFF" d="M24.9,21.1c-0.6,1.9-1.2,3.8-1.7,5.8c-0.7,2.2-1.3,4.5-2,6.7c-0.2,0.8-0.6,1.1-1.4,1.1c-0.5,0-1,0-1.5,0
	c-0.7,0-1-0.3-1.2-1c-1.7-5.9-3.4-11.8-5.3-17.7c-0.2-0.7,0-0.9,0.6-1c0.9,0,1.8,0,2.7,0c0.7,0,1,0.3,1.2,1
	c0.9,3.5,1.8,7.1,2.7,10.6c0.1,0.3,0.1,0.5,0.3,0.8c0.1-0.3,0.2-0.5,0.3-0.8c1.1-3.5,2.1-7,3.2-10.5c0.3-0.9,0.6-1.1,1.5-1.1
	c0.6,0,1.1,0,1.7,0c0.8,0,1.1,0.2,1.4,1c1.1,3.6,2.2,7.3,3.2,10.9c0.1,0.3,0.2,0.6,0.3,1c0.1-0.4,0.2-0.6,0.3-0.9
	c0.9-3.7,1.9-7.3,2.8-11c0.2-0.8,0.5-1,1.3-1c0.7,0,1.5,0,2.2,0c0.8,0,1,0.3,0.7,1c-1.2,3.8-2.3,7.5-3.4,11.3
	c-0.6,2.1-1.2,4.1-1.8,6.2c-0.2,0.8-0.5,1.1-1.3,1.1c-0.5,0-1.1,0-1.6,0c-0.7,0-1.1-0.3-1.3-1c-1.2-3.9-2.3-7.8-3.5-11.8
	C25.2,21.6,25.1,21.4,24.9,21.1C25,21.1,24.9,21.1,24.9,21.1z"/>
</svg>
