<?xml version="1.0" encoding="utf-8"?>
<!-- Generator: Adobe Illustrator 23.0.0, SVG Export Plug-In . SVG Version: 6.00 Build 0)  -->
<svg version="1.0" id="Layer_1" xmlns="http://www.w3.org/2000/svg" xmlns:xlink="http://www.w3.org/1999/xlink" x="0px" y="0px"
	 viewBox="0 0 50 50" enable-background="new 0 0 50 50" xml:space="preserve">
<path fill="#FFFFFF" d="M37.1,21.5c0.3,0.5,0.7,1,1,1.5c2.3,3.9,4.5,7.9,6,12.3c0.6,1.9,1,3.9,0.4,5.9c-1.3,3.9-5.2,6.4-8.9,5.8
	c-4.2-0.7-7.2-4.1-7-8.2c0.1-1.4,0.6-2.9,1.2-4.3c1.9-4.5,4.5-8.7,7.3-12.9C36.9,21.6,37,21.6,37.1,21.5z M36.2,44.8
	c0.7,0,1.2-0.4,1.3-1c0.1-0.7-0.3-1.2-1.1-1.3c-0.3,0-0.5,0-0.8-0.1c-1.5-0.4-2.4-1.6-2.6-3.3c-0.1-0.9-0.5-1.3-1.3-1.2
	c-0.7,0.1-1.1,0.6-1.1,1.4C30.8,42.2,33.2,44.7,36.2,44.8z"/>
<path fill="#FFFFFF" d="M21.3,44.1c0.1-1.5,0.3-2.9,0.4-4.3c0.1-1.2-0.7-1.7-1.8-1.3c-0.4,0.1-0.7,0.3-1.1,0.4
	c-0.3,0.1-0.5,0.1-0.9,0.1c-0.1-0.2-0.1-0.3-0.2-0.5c-0.5-1.5-1.4-2.8-2.7-3.8c-0.7-0.6-1.3-0.5-1.9,0.2c-0.9,1-1.9,2.1-2.9,3
	c-1.9,1.8-2.8,4-2.2,6.7c0,0.1,0,0.1,0,0.3c-0.2-0.2-0.4-0.3-0.6-0.5c-2.6-2.6-3-6.7-0.8-9.7c0.6-0.9,1.4-1.7,2.3-2.3
	c2.9-2,4-4.6,3.1-8.1c-0.3-1-0.6-1.9-0.9-3c0.2,0.1,0.3,0.2,0.5,0.3c2.5,1.8,4.2,4.2,5.1,7.1c0,0.1,0.1,0.2,0.1,0.4
	c0.2,0.6,0.6,0.9,1.1,0.9c0.6,0,1-0.3,1.2-0.8c0.3-1.2,0.6-2.4,0.8-3.5c0-0.2,0.1-0.4,0.1-0.8c0.6,0.8,1.1,1.3,1.6,2
	c1.8,2.8,2.4,5.8,2.3,9c0,1.6-0.3,3.3-0.7,4.8C23,42,22.3,43.1,21.3,44.1z"/>
<path fill="#FFFFFF" d="M24.7,24.8c0.1-0.3,0.2-0.7,0.3-1c0.7-2,1.4-4.1,2.2-6.1c0.4-1.2,0-1.9-1.4-1.9c-1.9,0-3.8,0-5.7,0
	c-0.2,0-0.5,0-0.8,0c0.1-0.2,0.1-0.4,0.1-0.6c1.3-3.9,2.5-7.8,3.8-11.6c0.1-0.3,0.2-0.5,0.6-0.5c3.2,0,6.4,0,9.7-0.1
	c0.1,0,0.2,0,0.3,0c-0.1,0.2-0.2,0.4-0.3,0.6c-1.5,2.6-3,5.2-4.6,7.8c-0.7,1.2-0.2,2,1.2,2c1.4,0,2.8,0,4.5,0
	c-3.4,3.9-6.6,7.7-9.8,11.4C24.8,24.8,24.7,24.8,24.7,24.8z"/>
<path fill="#FFFFFF" d="M14.4,37.3c0.7,0.8,1.1,1.8,1.3,2.8c0.2,0.9,0.5,1.2,1.4,1.2c0.7,0,1.4,0,2.1,0c0.3,4.1-3,6.5-6.2,5.6
	c-2.2-0.6-3.4-2.9-2.6-5.1c0.3-0.7,0.7-1.3,1.1-1.9C12.4,39.1,13.4,38.2,14.4,37.3z"/>
</svg>
