<?xml version="1.0" encoding="utf-8"?>
<!-- Generator: Adobe Illustrator 23.0.0, SVG Export Plug-In . SVG Version: 6.00 Build 0)  -->
<svg version="1.0" id="Layer_1" xmlns="http://www.w3.org/2000/svg" xmlns:xlink="http://www.w3.org/1999/xlink" x="0px" y="0px"
	 viewBox="0 0 50 50" enable-background="new 0 0 50 50" xml:space="preserve">
<g>
	<path fill="#FFFFFF" d="M41.2,11c-0.4-2.4-2.2-4.4-4.5-4.7c-2-0.3-3.9-0.6-5.9-0.7c-0.3,0-0.4-0.1-0.6-0.4
		c-0.7-1.6-1.8-2.5-3.3-2.5c-1.3-0.1-2.5-0.1-3.8,0c-1.4,0.1-2.5,1-3.3,2.5c-0.2,0.3-0.3,0.4-0.6,0.5c-2,0.1-3.9,0.4-5.9,0.7
		c-0.3,0.1-0.6,0.1-0.9,0.2c-1.8,0.7-3.3,2.5-3.6,4.4C8,16.1,7.5,21.3,7.3,26.5c-0.2,5-0.1,9.9,0.3,14.9c0.1,1.5,1,2.9,2.5,3.9
		c0.4,0.3,0.9,0.5,1.4,0.8c8.4,1.9,18.7,1.9,27.1,0c0,0,0,0,0.1-0.1c2.3-1,3.6-2.7,3.8-4.9C43.2,31.4,42.8,20.6,41.2,11z M23.1,5.2
		c0.6,0,1.3,0,1.9,0c0.6,0,1.2,0,1.9,0c0.8,0,1.4,0.7,1.4,1.5c0,0.8-0.5,1.4-1.3,1.4c-1.3,0-2.6,0-3.9,0c-0.8,0-1.3-0.6-1.3-1.4
		C21.7,5.9,22.3,5.2,23.1,5.2z M39.8,41.7c-0.1,1.1-0.7,1.8-1.9,2c-8.1,1.4-17.7,1.4-25.8,0c-1.2-0.2-1.8-0.9-1.9-2
		C9.7,31.3,10,21,11.2,10.6c0.1-1.2,0.7-1.8,1.9-1.9c2-0.3,4.1-0.5,6.1-0.6c0.3,0,0.4,0.1,0.5,0.3c0.6,1.5,1.7,2.3,3.3,2.2
		c1.4,0,2.7,0,4.1,0c1.6,0,2.7-0.8,3.3-2.2c0.1-0.3,0.2-0.4,0.5-0.3c2,0.1,4.1,0.3,6.1,0.6c1.1,0.1,1.7,0.8,1.8,1.9
		c0.7,5.2,1.1,10.4,1.2,15.6C40.2,31.4,40.1,36.5,39.8,41.7z M22,18.6c0.1-0.5,0.5-0.8,1-0.9c0.2,0,0.3,0,0.5,0c4,0,8,0,12,0.2
		c0.2,0,0.3,0,0.5,0.1c0.6,0.1,1.1,0.7,1.1,1.3c0,0.6-0.4,1.1-1,1.2c-0.2,0-0.4,0-0.6,0c-2,0-3.9-0.1-5.9-0.1c-2.1,0-4.1,0-6.2,0
		C22.4,20.2,21.7,19.5,22,18.6z M21.8,28.2c0-0.8,0.6-1.3,1.5-1.3c4.2,0,8.3,0,12.5-0.1c0.8,0,1.4,0.4,1.5,1.1
		c0.1,0.6-0.3,1.2-1,1.4c-0.2,0.1-0.4,0.1-0.6,0.1c-2.1,0.1-4.2,0.1-6.2,0.1c-2.1,0-4.2,0-6.2,0C22.5,29.5,21.8,28.9,21.8,28.2z
		 M37.3,36.4c0,0.7-0.6,1.3-1.5,1.4c-2.1,0.2-4.2,0.3-6.2,0.4c-2.1,0.1-4.2,0.1-6.2,0.1c-1,0-1.7-0.8-1.4-1.7c0.1-0.5,0.5-0.8,1-0.9
		c0.2,0,0.4,0,0.6,0c4,0,8.1-0.1,12.1-0.4c0.1,0,0.1,0,0.2,0C36.7,35.2,37.3,35.7,37.3,36.4z M12.9,19.9c-0.5-0.5-0.4-1.2,0.1-1.7
		c0.5-0.5,1.3-0.6,1.8-0.1c0.2,0.2,0.5,0.5,0.7,0.8c0.9-0.9,1.7-1.7,2.5-2.5c0.3-0.3,0.7-0.5,1.2-0.5c1,0.1,1.5,1.3,0.7,2.1
		c-1.1,1.1-2.2,2.2-3.3,3.3c-0.7,0.6-1.7,0.6-2.3,0C13.8,20.8,13.3,20.3,12.9,19.9z M20,35c0,0.3-0.1,0.8-0.4,1c-1,1-2,2-3,2.9
		c-0.7,0.7-1.8,0.5-2.6-0.3c-0.5-0.5-0.9-0.9-1.3-1.4c-0.6-0.6-0.6-1.4-0.1-1.8c0.5-0.4,1.3-0.4,1.9,0.2c0.2,0.2,0.5,0.5,0.7,0.8
		c0.9-0.8,1.7-1.5,2.5-2.3c0.4-0.4,0.9-0.5,1.4-0.3C19.7,34,20,34.4,20,35z M19.7,27.1c-1.1,1.1-2.2,2.2-3.3,3.1
		c-0.7,0.6-1.7,0.5-2.4-0.2c-0.5-0.4-0.9-0.9-1.4-1.4c-0.5-0.5-0.5-1.3,0-1.8c0.5-0.5,1.3-0.5,1.9,0.1c0.2,0.2,0.5,0.5,0.7,0.8
		c0.9-0.8,1.7-1.6,2.5-2.4c0.4-0.4,0.8-0.5,1.3-0.4C20,25.3,20.4,26.4,19.7,27.1z"/>
</g>
</svg>
