<?xml version="1.0" encoding="utf-8"?>
<!-- Generator: Adobe Illustrator 23.0.0, SVG Export Plug-In . SVG Version: 6.00 Build 0)  -->
<svg version="1.0" id="Layer_1" xmlns="http://www.w3.org/2000/svg" xmlns:xlink="http://www.w3.org/1999/xlink" x="0px" y="0px"
	 viewBox="0 0 50 50" enable-background="new 0 0 50 50" xml:space="preserve">
<g>
	<g>
		<path fill="#FFFFFF" d="M15.3,47.5c0-0.4,0-0.9,0-1.4c0.4,0,0.8,0.1,1.3,0.1C16.3,31.6,15.8,17,15.1,2.4c6.6-0.5,13.2-0.5,19.8,0
			c-0.7,14.6-1.2,29.2-1.4,43.8c0.4,0,0.9-0.1,1.3-0.1c0,0.5,0,1,0,1.4C28.2,48.1,21.8,48.1,15.3,47.5z M32.2,43.5
			c0.3-13.3,0.6-26.5,1.1-39.8c-5.5-0.3-11-0.3-16.6,0c0.5,13.3,0.8,26.5,1.1,39.8c1.5,0.1,3,0.1,4.5,0.2c0,0.5,0,0.9,0,1.4
			c-1.5,0-3-0.1-4.5-0.2c0,0.5,0,0.9,0,1.4c1.7,0.1,3.4,0.2,5.2,0.2c0-1.4,0-2.8,0-4.2c1.3,0,2.6,0,3.9,0c0,1.4,0,2.8,0,4.2
			c1.7,0,3.5-0.1,5.2-0.2c0-0.5,0-0.9,0-1.4c-1.5,0.1-3,0.1-4.5,0.2c0-0.5,0-0.9,0-1.4C29.2,43.6,30.7,43.5,32.2,43.5z M25.6,43.6
			c-0.5,0-0.9,0-1.3,0c0,1,0,1.9,0,2.8c0.4,0,0.9,0,1.3,0C25.6,45.5,25.6,44.6,25.6,43.6z"/>
		<path fill="#FFFFFF" d="M25.7,7c-0.5,0-0.9,0-1.4,0c0-0.7,0-1.4,0-2.1c0.5,0,0.9,0,1.4,0C25.7,5.6,25.7,6.3,25.7,7z"/>
		<path fill="#FFFFFF" d="M28.7,4.9c0,0.7,0,1.4,0,2.1c-0.5,0-0.9,0-1.4,0c0-0.7,0-1.4,0-2.1C27.8,4.9,28.2,4.9,28.7,4.9z"/>
		<path fill="#FFFFFF" d="M30.2,7.1c0-0.7,0-1.4,0.1-2.1c0.5,0,0.9,0,1.4,0.1c0,0.7,0,1.4-0.1,2.1C31.2,7.1,30.7,7.1,30.2,7.1z"/>
		<path fill="#FFFFFF" d="M18.4,8.6c0.5,0,0.9,0,1.4,0c0,0.7,0,1.4,0,2.1c-0.4,0-0.9,0-1.4,0C18.4,10,18.4,9.3,18.4,8.6z"/>
		<path fill="#FFFFFF" d="M21.4,8.5c0.5,0,0.9,0,1.4,0c0,0.7,0,1.4,0,2.1c-0.5,0-0.9,0-1.4,0C21.4,9.9,21.4,9.2,21.4,8.5z"/>
		<path fill="#FFFFFF" d="M25.7,8.5c0,0.7,0,1.4,0,2.1c-0.5,0-0.9,0-1.4,0c0-0.7,0-1.4,0-2.1C24.8,8.5,25.2,8.5,25.7,8.5z"/>
		<path fill="#FFFFFF" d="M28.7,8.5c0,0.7,0,1.4,0,2.1c-0.5,0-0.9,0-1.4,0c0-0.7,0-1.4,0-2.1C27.7,8.5,28.2,8.5,28.7,8.5z"/>
		<path fill="#FFFFFF" d="M30.1,10.6c0-0.7,0-1.4,0-2.1c0.5,0,0.9,0,1.4,0c0,0.7,0,1.4-0.1,2.1C31.1,10.7,30.6,10.6,30.1,10.6z"/>
		<path fill="#FFFFFF" d="M18.5,14.2c0-0.7,0-1.4-0.1-2.1c0.5,0,0.9,0,1.4,0c0,0.7,0,1.4,0,2.1C19.5,14.2,19,14.2,18.5,14.2z"/>
		<path fill="#FFFFFF" d="M21.4,12.1c0.5,0,0.9,0,1.4,0c0,0.7,0,1.4,0,2.1c-0.4,0-0.9,0-1.4,0C21.4,13.5,21.4,12.8,21.4,12.1z"/>
		<path fill="#FFFFFF" d="M25.7,12.1c0,0.7,0,1.4,0,2.1c-0.5,0-0.9,0-1.4,0c0-0.7,0-1.4,0-2.1C24.8,12.1,25.2,12.1,25.7,12.1z"/>
		<path fill="#FFFFFF" d="M28.6,12.1c0,0.7,0,1.4,0,2.1c-0.4,0-0.9,0-1.4,0c0-0.7,0-1.4,0-2.1C27.7,12.1,28.1,12.1,28.6,12.1z"/>
		<path fill="#FFFFFF" d="M30.1,14.2c0-0.7,0-1.4,0-2.1c0.5,0,0.9,0,1.4,0c0,0.7,0,1.4-0.1,2.1C31,14.2,30.5,14.2,30.1,14.2z"/>
		<path fill="#FFFFFF" d="M18.6,15.7c0.5,0,0.9,0,1.4,0c0,0.7,0,1.4,0,2.1c-0.4,0-0.9,0-1.3,0C18.6,17.1,18.6,16.4,18.6,15.7z"/>
		<path fill="#FFFFFF" d="M22.8,15.7c0,0.7,0,1.4,0,2.1c-0.4,0-0.9,0-1.4,0c0-0.7,0-1.4,0-2.1C21.9,15.7,22.4,15.7,22.8,15.7z"/>
		<path fill="#FFFFFF" d="M24.3,17.8c0-0.7,0-1.4,0-2.1c0.5,0,0.9,0,1.4,0c0,0.7,0,1.4,0,2.1C25.2,17.8,24.8,17.8,24.3,17.8z"/>
		<path fill="#FFFFFF" d="M27.2,15.7c0.5,0,0.9,0,1.4,0c0,0.7,0,1.4,0,2.1c-0.4,0-0.9,0-1.4,0C27.2,17.1,27.2,16.4,27.2,15.7z"/>
		<path fill="#FFFFFF" d="M30,15.7c0.5,0,0.9,0,1.3,0c0,0.7,0,1.4-0.1,2.1c-0.4,0-0.9,0-1.3,0C30,17.1,30,16.4,30,15.7z"/>
		<path fill="#FFFFFF" d="M20,19.3c0,0.7,0,1.4,0,2.1c-0.4,0-0.9,0-1.3,0c0-0.7,0-1.4-0.1-2.1C19.1,19.3,19.6,19.3,20,19.3z"/>
		<path fill="#FFFFFF" d="M21.5,19.3c0.4,0,0.9,0,1.3,0c0,0.7,0,1.4,0,2.1c-0.4,0-0.9,0-1.3,0C21.5,20.7,21.5,20,21.5,19.3z"/>
		<path fill="#FFFFFF" d="M25.7,21.4c-0.4,0-0.9,0-1.3,0c0-0.7,0-1.4,0-2.1c0.4,0,0.9,0,1.3,0C25.7,19.9,25.7,20.6,25.7,21.4z"/>
		<path fill="#FFFFFF" d="M28.5,21.4c-0.5,0-0.9,0-1.3,0c0-0.7,0-1.4,0-2.1c0.4,0,0.9,0,1.3,0C28.5,20,28.5,20.6,28.5,21.4z"/>
		<path fill="#FFFFFF" d="M31.3,19.3c0,0.7,0,1.4-0.1,2.1c-0.4,0-0.9,0-1.3,0c0-0.7,0-1.4,0-2.1C30.4,19.3,30.8,19.3,31.3,19.3z"/>
		<path fill="#FFFFFF" d="M20.1,24.9c-0.4,0-0.9,0-1.3,0c0-0.7,0-1.4,0-2.1c0.4,0,0.9,0,1.3,0C20.1,23.5,20.1,24.2,20.1,24.9z"/>
		<path fill="#FFFFFF" d="M22.9,25c-0.5,0-0.9,0-1.3,0c0-0.7,0-1.4,0-2.1c0.4,0,0.9,0,1.3,0C22.9,23.5,22.9,24.2,22.9,25z"/>
		<path fill="#FFFFFF" d="M25.7,24.9c-0.5,0-0.9,0-1.3,0c0-0.7,0-1.4,0-2.1c0.4,0,0.9,0,1.3,0C25.7,23.5,25.7,24.2,25.7,24.9z"/>
		<path fill="#FFFFFF" d="M28.4,22.9c0,0.7,0,1.4,0,2.1c-0.4,0-0.9,0-1.3,0c0-0.7,0-1.4,0-2.1C27.6,22.8,28,22.9,28.4,22.9z"/>
		<path fill="#FFFFFF" d="M29.9,22.8c0.4,0,0.9,0,1.3,0c0,0.7,0,1.4,0,2.1c-0.4,0-0.9,0-1.3,0C29.9,24.2,29.9,23.6,29.9,22.8z"/>
		<path fill="#FFFFFF" d="M20.2,28.5c-0.4,0-0.9,0-1.3,0c0-0.7,0-1.4,0-2.1c0.4,0,0.9,0,1.3,0C20.2,27.1,20.2,27.8,20.2,28.5z"/>
		<path fill="#FFFFFF" d="M21.6,28.5c0-0.7,0-1.4,0-2.1c0.4,0,0.9,0,1.3,0c0,0.7,0,1.4,0,2.1C22.5,28.5,22.1,28.5,21.6,28.5z"/>
		<path fill="#FFFFFF" d="M25.7,26.4c0,0.7,0,1.4,0,2.1c-0.4,0-0.9,0-1.3,0c0-0.7,0-1.4,0-2.1C24.8,26.4,25.2,26.4,25.7,26.4z"/>
		<path fill="#FFFFFF" d="M28.4,28.5c-0.4,0-0.8,0-1.3,0c0-0.7,0-1.4,0-2.1c0.4,0,0.8,0,1.3,0C28.4,27.1,28.4,27.8,28.4,28.5z"/>
		<path fill="#FFFFFF" d="M29.8,26.4c0.4,0,0.9,0,1.3,0c0,0.7,0,1.4,0,2.1c-0.4,0-0.9,0-1.3,0C29.8,27.8,29.8,27.1,29.8,26.4z"/>
		<path fill="#FFFFFF" d="M20.2,30c0,0.7,0,1.4,0,2.1c-0.4,0-0.8,0-1.3,0c0-0.7,0-1.4,0-2.1C19.4,30,19.8,30,20.2,30z"/>
		<path fill="#FFFFFF" d="M21.7,32.1c0-0.7,0-1.4,0-2.1c0.4,0,0.8,0,1.3,0c0,0.7,0,1.4,0,2.1C22.5,32.1,22.1,32.1,21.7,32.1z"/>
		<path fill="#FFFFFF" d="M24.4,32.1c0-0.7,0-1.4,0-2.1c0.4,0,0.8,0,1.3,0c0,0.7,0,1.4,0,2.1C25.2,32.1,24.8,32.1,24.4,32.1z"/>
		<path fill="#FFFFFF" d="M27.1,30c0.4,0,0.9,0,1.3,0c0,0.7,0,1.4,0,2.1c-0.4,0-0.8,0-1.3,0C27.1,31.4,27.1,30.7,27.1,30z"/>
		<path fill="#FFFFFF" d="M19.8,7.1c-0.5,0-0.9,0-1.4,0.1c0-0.7,0-1.4-0.1-2.1c0.5,0,0.9,0,1.4-0.1C19.7,5.7,19.7,6.3,19.8,7.1z"/>
		<path fill="#FFFFFF" d="M19,33.5c0.4,0,0.8,0,1.3,0c0,0.7,0,1.4,0,2.1c-0.4,0-0.8,0-1.3,0C19,34.9,19,34.3,19,33.5z"/>
		<path fill="#FFFFFF" d="M23,33.6c0,0.7,0,1.4,0,2.1c-0.4,0-0.8,0-1.3,0c0-0.7,0-1.4,0-2.1C22.1,33.6,22.5,33.6,23,33.6z"/>
		<path fill="#FFFFFF" d="M24.4,33.6c0.4,0,0.8,0,1.3,0c0,0.7,0,1.4,0,2.1c-0.4,0-0.8,0-1.3,0C24.4,35,24.4,34.3,24.4,33.6z"/>
		<path fill="#FFFFFF" d="M27,33.6c0.4,0,0.8,0,1.3,0c0,0.7,0,1.4,0,2.1c-0.4,0-0.8,0-1.3,0C27,35,27,34.3,27,33.6z"/>
		<path fill="#FFFFFF" d="M31,35.6c-0.4,0-0.8,0-1.3,0c0-0.7,0-1.4,0-2.1c0.4,0,0.8,0,1.3,0C31,34.2,31,34.9,31,35.6z"/>
		<path fill="#FFFFFF" d="M31.1,30c0,0.7,0,1.4,0,2.1c-0.4,0-0.8,0-1.3,0c0-0.7,0-1.4,0-2.1C30.2,30,30.6,30,31.1,30z"/>
		<path fill="#FFFFFF" d="M23,39.3c-0.4,0-0.8,0-1.2,0c0-0.7,0-1.4,0-2.1c0.4,0,0.8,0,1.2,0C23,37.9,23,38.6,23,39.3z"/>
		<path fill="#FFFFFF" d="M24.4,37.2c0.4,0,0.8,0,1.2,0c0,0.7,0,1.4,0,2.1c-0.4,0-0.8,0-1.2,0C24.4,38.6,24.4,37.9,24.4,37.2z"/>
		<path fill="#FFFFFF" d="M28.3,39.3c-0.4,0-0.8,0-1.3,0c0-0.7,0-1.4,0-2.1c0.4,0,0.8,0,1.3,0C28.3,37.9,28.3,38.6,28.3,39.3z"/>
		<path fill="#FFFFFF" d="M30.9,37.1c0,0.7,0,1.4,0,2.1c-0.4,0-0.8,0-1.3,0c0-0.7,0-1.4,0-2.1C30.1,37.1,30.5,37.1,30.9,37.1z"/>
		<path fill="#FFFFFF" d="M22.7,7c-0.5,0-0.9,0-1.4,0c0-0.7,0-1.4,0-2.1c0.5,0,0.9,0,1.4,0C22.7,5.6,22.7,6.3,22.7,7z"/>
		<path fill="#FFFFFF" d="M19.1,37.1c0.4,0,0.8,0,1.2,0c0,0.7,0,1.4,0,2.1c-0.4,0-0.8,0-1.2,0C19.1,38.5,19.1,37.8,19.1,37.1z"/>
	</g>
</g>
</svg>
