<?xml version="1.0" encoding="utf-8"?>
<!-- Generator: Adobe Illustrator 23.0.0, SVG Export Plug-In . SVG Version: 6.00 Build 0)  -->
<svg version="1.0" id="Layer_1" xmlns="http://www.w3.org/2000/svg" xmlns:xlink="http://www.w3.org/1999/xlink" x="0px" y="0px"
	 viewBox="0 0 50 50" enable-background="new 0 0 50 50" xml:space="preserve">
<path fill="#FFFFFF" d="M3.2,31.4c0-0.2,0-0.3,0-0.5c0.6-0.8,1.1-0.8,1.8-0.3c1.1,0.8,2.5,0.7,3.6-0.2c2-1.6,4.2-1.6,6-0.2
	c1.1,0.9,2.3,0.8,3.4-0.1c0.2-0.2,0.3-0.4,0.3-0.6c0.2-5.3,0.2-10.4,0.1-16.1c0-0.1,0-0.3,0-0.5c-0.2,0-0.4,0-0.5,0
	c-4-0.1-8.1-0.3-12.5-0.6c-0.5,0-0.9-0.2-1.2-0.7c0-0.2,0-0.3,0-0.5c0.3-0.4,0.7-0.6,1.2-0.5c0.4,0.1,0.8,0,1.2,0.1
	c0.5,0,0.9,0,1.4,0.1c0.6-4,3.5-6.8,6.8-7.2c1.6-0.2,3.1,0.2,4.5,1.2c2.2,1.5,3.4,3.8,3.7,6.4c0.8,0,1.6,0,2.4,0
	c0.5-4.3,3.7-7.4,7-7.6c1.7-0.1,3.2,0.4,4.6,1.5c1.8,1.5,2.9,3.4,3.2,5.8c1.4-0.1,2.8-0.1,4.2-0.2c0.5,0,0.9,0.1,1.2,0.5
	c0,0.2,0,0.3,0,0.5c-0.2,0.5-0.6,0.6-1.2,0.7c-1.3,0-2.5,0.1-3.7,0.2c-0.1,0-0.3,0-0.4,0c0,0.1,0,0.1,0,0.1c0,5.9,0.2,11.5,0.5,17.2
	c0,0.1,0,0.2,0.1,0.3c1,1.1,2.7,1.3,3.9,0.5c0.7-0.5,1.3-0.4,1.8,0.3c0,0.2,0,0.3,0,0.5c-0.5,0.3-1,0.8-1.5,1
	c-1.7,0.7-3.6,0.3-5.2-0.9c-1.1-1-2.5-1-3.5-0.2c-1.6,1.5-4.1,1.4-5.8-0.1c-0.9-0.9-2.2-0.9-3.1,0c-1.7,1.5-3.7,1.5-5.5,0
	c-1-0.9-2.2-0.8-3.2,0.1c-1.7,1.5-3.9,1.6-5.6,0.1c-0.3-0.2-0.6-0.4-0.9-0.5c-1-0.3-1.9,0-2.7,0.7C7.9,33.2,4.9,33.2,3.2,31.4z
	 M23.1,26.8c0,1,0,1.9,0,2.8c0,0.1,0.1,0.2,0.1,0.3c1.1,1.1,2.3,1.1,3.4,0.1c1.6-1.4,3.6-1.4,5.3,0.1c0.3,0.2,0.6,0.5,1,0.6
	c0.7,0.3,1.4,0.1,2.1-0.2c0.7-0.4,0.7-0.9,0.6-1.5c-0.1-0.7-0.1-1.4-0.1-2.1c-1,0-1.9,0-2.8,0c-0.6,0-0.9-0.4-0.9-0.9
	c0-0.4,0.4-0.7,0.9-0.7c0.9,0,1.8,0,2.7,0c0-0.5,0-1,0-1.5c-4.4,0-8.3,0-12.3,0c0,0.5,0,1,0,1.5c0.8,0,1.6,0,2.5,0
	c0.6,0,0.9,0.3,0.9,0.7c0,0.5-0.3,0.8-0.9,0.8C24.8,26.8,24,26.8,23.1,26.8z M9.8,10.9c0.5,0,0.9,0,1.3,0.1c0.3,0,0.4,0,0.4-0.3
	c0.7-2.7,3.3-4.1,5.8-2.9C19,8.5,20,10.2,20,12.3c0.1,5.8,0.1,10.9-0.1,16.2c0,0.2,0,0.3,0,0.5c0.6,0,1,0,1.6,0c0-0.1,0-0.3,0-0.4
	c0.1-5.3,0.1-10.5,0-16.3c0-0.4,0-0.9-0.1-1.3c-0.5-3.1-3-5.5-6-5.5C12.7,5.4,10.2,7.8,9.8,10.9z M28.6,11.2c0-0.1,0.1-0.2,0.1-0.3
	c0.6-2.5,3-4.1,5.2-3.4c1.9,0.5,3.2,2.3,3.1,4.5c-0.1,5.9,0,11.2,0.2,16.7c0,0.2,0,0.3,0,0.5c0.6,0,1.1,0,1.7,0c0-0.1,0-0.2,0-0.3
	c-0.2-5.6-0.4-11.2-0.3-17.2c0-2.7-1.7-5.2-4.1-6c-2.5-0.8-5.2,0.3-6.6,2.8c-0.5,0.8-0.8,1.7-0.9,2.7C27.6,11.2,28.1,11.2,28.6,11.2
	z M35.4,12.8C31.1,13,27.2,13,23.1,13c0,0.8,0,1.5,0,2.3c4,0,8,0,12.3-0.2C35.4,14.3,35.4,13.6,35.4,12.8z M35.4,20
	c-4.3,0.1-8.2,0.1-12.2,0.1c0,0.7,0,1.4,0,2.1c4,0,7.9,0,12.3-0.1C35.4,21.4,35.4,20.7,35.4,20z M35.4,18.3c0-0.5,0-1.1,0-1.6
	c-4.3,0.1-8.2,0.2-12.2,0.2c0,0.5,0,1.1,0,1.6C27.2,18.5,31.1,18.5,35.4,18.3z M18.3,11.2C18,10.1,16.9,9.1,15.7,9
	c-1.2,0-2.3,0.8-2.5,2C14.9,11.1,16.6,11.1,18.3,11.2z M30.3,11.2c1.6,0,3.3-0.1,5-0.2c-0.2-1.1-1.3-2-2.5-2
	C31.6,9.1,30.5,10.1,30.3,11.2z"/>
<path fill="#FFFFFF" d="M2.9,37.6c0.6-0.7,1.1-0.8,1.8-0.3c1,0.8,2.4,0.6,3.6-0.3c1.6-1.3,3.4-1.7,5-1c0.4,0.2,0.7,0.4,1,0.7
	c1.1,0.9,2.3,0.9,3.5-0.1c1.8-1.6,3.9-1.6,5.6-0.1c1,1,2.3,1,3.4,0c1.4-1.3,3.3-1.5,4.9-0.4c0.2,0.1,0.4,0.3,0.6,0.5
	c1.2,1.1,2.5,1.1,3.6,0.1c1.3-1.2,3.1-1.3,4.8-0.5c0.5,0.2,0.9,0.6,1.3,0.9c1.1,0.8,2.4,0.9,3.4,0.2c0.7-0.5,1.2-0.5,1.8,0.3
	c0,0.2,0,0.3,0,0.5c-1,1.5-3.6,1.8-5.5,0.8c-0.3-0.2-0.7-0.4-1-0.7c-1.2-1-2.6-1.1-3.6-0.2c-1.7,1.5-4,1.4-5.8-0.2
	c-1.1-1-2.4-1-3.4,0c-1.3,1.2-3.1,1.5-4.6,0.7c-0.3-0.2-0.7-0.5-0.9-0.7c-1-1-2.3-1-3.4,0C17,39.5,14.7,39.6,13,38
	c-1.1-1-2.4-0.9-3.7,0.2c-1.8,1.5-4.3,1.7-6,0.4c-0.2-0.1-0.3-0.3-0.5-0.5C2.9,38,2.9,37.8,2.9,37.6z"/>
<path fill="#FFFFFF" d="M2.6,44.4c0.5-0.7,1-0.8,1.7-0.3c1,0.8,2.3,0.8,3.4-0.2c0.8-0.7,1.6-1.2,2.6-1.3c1.3-0.2,2.5,0.1,3.4,1.1
	c0.7,0.7,1.5,1,2.5,0.7c0.4-0.1,0.8-0.4,1.2-0.7c1.9-1.8,4.1-1.8,5.9,0c1.1,1.1,2.4,1.1,3.5,0c1.8-1.7,4-1.7,5.9,0
	c1.2,1.1,2.5,1.1,3.6,0.1c1.7-1.7,4-1.5,6,0.1c1.2,1,2.5,1.1,3.6,0.1c0.6-0.5,1.1-0.3,1.6,0.4c0,0.2,0,0.3,0,0.5
	c-0.3,0.3-0.6,0.6-1,0.8c-0.5,0.3-1.1,0.4-1.7,0.7c-0.4,0-0.8,0-1.1,0c-1.1-0.2-2-0.8-2.8-1.5c-0.9-0.8-2.3-0.8-3.1,0
	c-0.7,0.7-1.6,1.3-2.6,1.5c-0.4,0-0.8,0-1.1,0c-1.1-0.2-2-0.8-2.8-1.6c-0.9-0.8-2.2-0.8-3,0c-0.8,0.8-1.6,1.3-2.6,1.6
	c-0.4,0-0.8,0-1.2,0c-1-0.3-1.9-0.9-2.7-1.6c-0.8-0.8-2.1-0.8-3,0.1c-0.8,0.8-1.7,1.3-2.8,1.6c-0.4,0-0.8,0-1.1,0
	c-1-0.2-1.8-0.8-2.6-1.5c-0.8-0.8-2.1-0.7-3.1,0c-0.9,0.7-1.8,1.2-2.8,1.5c-0.4,0-0.8,0-1.1,0c-0.1,0-0.2-0.1-0.3-0.1
	c-1-0.2-1.8-0.7-2.4-1.4C2.6,44.8,2.6,44.6,2.6,44.4z"/>
<path fill="#FFFFFF" d="M28.4,26c0-0.4,0.3-0.8,0.7-0.8c0.4,0,0.8,0.3,0.8,0.8c0,0.4-0.3,0.8-0.8,0.8C28.8,26.8,28.4,26.5,28.4,26z"
	/>
</svg>
