<?xml version="1.0" encoding="utf-8"?>
<!-- Generator: Adobe Illustrator 23.0.0, SVG Export Plug-In . SVG Version: 6.00 Build 0)  -->
<svg version="1.0" id="Layer_1" xmlns="http://www.w3.org/2000/svg" xmlns:xlink="http://www.w3.org/1999/xlink" x="0px" y="0px"
	 viewBox="0 0 50 50" enable-background="new 0 0 50 50" xml:space="preserve">
<path fill="#FFFFFF" d="M23.7,47.5c-0.8-0.1-1.6-0.2-2.4-0.4c-4.9-1-9-3.5-12.2-7.5C6.3,36.3,4.5,32.4,3.9,28
	C3,22,4.1,16.6,7.5,11.6c3.1-4.4,7.4-7.4,12.8-8.6c6.7-1.5,12.9,0,18.2,4.2c4.2,3.4,6.7,7.9,7.6,13.2c0.2,0.9,0.2,1.9,0.3,2.8
	c0,0.2,0,0.3,0.1,0.5c0,0.9-0.1,1.7-0.1,2.6c0,0.3-0.1,0.6-0.1,0.9c-0.6,4.7-2.4,8.9-5.5,12.6c-3.3,3.9-7.3,6.4-12.1,7.3
	c-0.8,0.2-1.6,0.2-2.4,0.4C25.4,47.5,24.6,47.5,23.7,47.5z M5.8,25C6.2,35.5,14.1,44.9,25,45.1c10.9-0.3,18.7-9.6,19.1-20.1
	C44.4,14.1,36,5,25,4.9C14,5,5.6,14.1,5.8,25z"/>
<path fill="#FFFFFF" d="M16,33.6c0.6-1.9,1.1-3.7,1.7-5.6c1.3-4.3,2.6-8.6,3.9-12.9c0.1-0.2,0.2-0.3,0.4-0.3c1.8,0,3.6,0,5.4,0
	c0.2,0,0.3,0.1,0.4,0.3c2,6.5,4,12.9,6,19.4c0.1,0.3-0.1,0.5-0.4,0.5c-1.4,0-2.7,0-4.1,0c-0.2,0-0.3-0.1-0.4-0.3
	c-0.5-1.5-0.9-3.1-1.4-4.6c-0.1-0.2-0.2-0.3-0.4-0.3c-1.7,0-3.5,0-5.2,0c-0.2,0-0.3,0.1-0.4,0.3c-0.4,1.5-0.8,3-1.2,4.5
	c0,0.2-0.2,0.3-0.4,0.3c-0.8,0.1-1.6,0-2.3,0.1c-0.8,0.1-1.4-0.2-1.7-1C16,33.9,16,33.8,16,33.6z M22.4,26.5c1.5,0,2.9,0,4.4,0
	c0-0.1,0-0.2-0.1-0.3c-0.4-1.4-0.8-2.8-1.2-4.3c-0.2-0.8-0.4-1.5-0.7-2.3c-0.1-0.3-0.3-0.4-0.5-0.3c-0.1,0.1-0.2,0.2-0.2,0.4
	c-0.6,2.2-1.1,4.3-1.7,6.5C22.4,26.3,22.4,26.4,22.4,26.5z"/>
</svg>
