<?xml version="1.0" encoding="utf-8"?>
<!-- Generator: Adobe Illustrator 23.0.0, SVG Export Plug-In . SVG Version: 6.00 Build 0)  -->
<svg version="1.0" id="Layer_1" xmlns="http://www.w3.org/2000/svg" xmlns:xlink="http://www.w3.org/1999/xlink" x="0px" y="0px"
	 viewBox="0 0 50 50" enable-background="new 0 0 50 50" xml:space="preserve">
<g>
	<g>
		<path fill="#FFFFFF" d="M29.6,36.6c-2.1-1.2-4.2-2.3-6.3-3.4c-2.1-1.1-10.1-5.4-12.5-6.6c-1-0.5-1.5-1.2-1.7-2.3
			c-1.1-5.6,0.3,0.5-1.2-5.1c-0.3-1.1,0-1.8,0.8-2.2c4-2,8.5-4,13.6-6c1-0.4,2-0.4,3,0c5.3,2.1,15.8,7.1,19.7,9.2
			c0.9,0.5,1.2,1.3,0.9,2.5c-1.3,5.6-0.1-0.7-1,4.9c-0.2,1.2-0.7,2-1.7,2.5c-4.3,2.2-8.2,4.2-12.1,6.3c-0.2,0.1-0.5,0.2-0.8,0.3
			C30.1,36.6,29.9,36.6,29.6,36.6z M44.4,21.2c-0.4-0.2-0.8-0.4-1.1-0.6C39.8,18.7,29.7,14,25.1,12c-0.9-0.4-1.6-0.4-2.4,0
			c-4.8,2-9.1,4-13.1,6c-0.5,0.3-0.7,0.7-0.5,1.3c1.4,5.5,0.1-0.6,1.1,4.9c0.1,0.6,0.4,1,1,1.3c4.5,2.2,14.2,7.4,18,9.6
			c0.5,0.3,1,0.3,1.5,0c3.9-2.1,7.8-4.1,12.1-6.3c0.6-0.3,0.9-0.8,1-1.5c0.8-5.5-0.3,0.8,0.9-4.7c0-0.1,0.1-0.2,0.1-0.4
			c-0.2,0.1-0.3,0.1-0.4,0.2c-4.9,2.4-9.3,4.6-13.4,6.7c-0.2,0.1-0.3,0.3-0.3,0.6c-0.1,4.5,0-2.2-0.1,2.3c0,0.2,0,0.3,0,0.5
			c-0.1,0.3-0.3,0.4-0.5,0.4c-0.3,0-0.5-0.2-0.5-0.5c0-0.1,0-0.3,0-0.4c0.1-4.5-0.1,2.2,0-2.3c0-0.3-0.1-0.4-0.3-0.6
			c-2.7-1.5-5.5-2.9-8.4-4.4c-0.7-0.3-7.9-4-8.7-4.3c-0.4-0.2-0.5-0.5-0.5-0.8c0.1-0.3,0.4-0.4,0.8-0.2c0.1,0,0.2,0.1,0.2,0.1
			c4.1,1.9,13.8,6.9,17,8.7c0.2,0.1,0.4,0.1,0.7,0c3.2-1.7,6.6-3.4,10.2-5.1C41.9,22.5,43.1,21.9,44.4,21.2z"/>
	</g>
	<g>
		<path fill="#FFFFFF" d="M5.4,22.5c-0.1-0.1-0.2-0.2-0.2-0.4c-0.1-0.5,0.3,0.5-0.8-3.1c-0.1-0.2-0.1-0.4,0.1-0.5
			c0.3-0.2,0.8,0.1,1,0.5c0,0.1,0,0.1,0.1,0.2C6.7,23,5.3,18,6.2,21.9c0,0.1,0,0.2,0.1,0.2c0.1,0.2,0,0.4-0.2,0.5
			C5.9,22.7,5.7,22.7,5.4,22.5z"/>
		<path fill="#FFFFFF" d="M5.7,17.1c0.4,0.3,0.8,0.6,1.2,0.9c0.2,0.2,0.3,0.5,0.2,0.7c-0.1,0.2-0.4,0.2-0.7,0.1
			c-0.1,0-0.1-0.1-0.2-0.1c-0.3-0.3-0.7-0.5-1-0.8c-0.4-0.3-0.9-0.4-1.1-0.1c-0.2,0.2-0.4,0.5-0.5,0.7c-0.2,0.2-0.5,0.2-0.8,0
			c-0.3-0.2-0.4-0.6-0.2-0.8c0.4-0.5,0.8-1.1,1.2-1.6C3.9,16,4.2,16,4.5,16.2C4.9,16.5,5.3,16.8,5.7,17.1
			C5.7,17.1,5.7,17.1,5.7,17.1z"/>
		<path fill="#FFFFFF" d="M7.3,24.1c-0.2,0.3-0.4,0.5-0.6,0.8c-0.2,0.3-0.4,0.2-0.7,0c-0.6-0.6-1.3-1.1-2-1.7
			c-0.3-0.2-0.4-0.6-0.2-0.8c0.1-0.2,0.4-0.2,0.7,0c0.3,0.3,0.6,0.5,0.9,0.8c0.4,0.4,0.8,0.4,1,0c0.2-0.2,0.4-0.5,0.5-0.7
			c0.2-0.2,0.5-0.2,0.7,0c0.3,0.2,0.3,0.5,0.1,0.8C7.7,23.6,7.5,23.8,7.3,24.1z"/>
	</g>
</g>
</svg>
