<?xml version="1.0" encoding="utf-8"?>
<!-- Generator: Adobe Illustrator 23.0.0, SVG Export Plug-In . SVG Version: 6.00 Build 0)  -->
<svg version="1.0" id="Layer_1" xmlns="http://www.w3.org/2000/svg" xmlns:xlink="http://www.w3.org/1999/xlink" x="0px" y="0px"
	 viewBox="0 0 50 50" enable-background="new 0 0 50 50" xml:space="preserve">
<path fill="#FFFFFF" d="M28.2,2.5c0.8,0.3,1.2,1,1.1,1.9c0,0.4,0,0.8,0,1.1c0,0.9-0.6,1.4-1.4,1.5c-0.2,0-0.4,0-0.7,0
	c0,0.6,0,1.1,0,1.6c1.7,0.2,3.3,0.7,4.9,1.4c1.6,0.7,3,1.6,4.5,2.9c0.2-0.3,0.5-0.6,0.7-0.9c0.7-0.7,0.9-0.7,1.6,0
	c0.5,0.5,1,1.1,1.5,1.6c0.5,0.5,0.5,0.9,0,1.4c-0.3,0.3-0.6,0.6-1,0.9c5.9,7.2,5.2,20.3-1.9,26.6c-6.9,6.4-18,6.5-24.9,0.2
	C5.4,36.6,4.6,23.3,10.5,16c-0.3-0.3-0.7-0.6-1-1c-0.4-0.4-0.4-0.8,0-1.2c0.6-0.6,1.2-1.3,1.8-1.9c0.4-0.5,0.8-0.5,1.3,0
	c0.3,0.3,0.6,0.7,0.9,1c2.8-2.3,5.9-3.7,9.3-4.2c0-0.5,0-1.1,0-1.6c-0.2,0-0.4,0-0.6,0c-1,0-1.6-0.6-1.6-1.6c0-0.3,0-0.6,0-1
	c-0.1-0.9,0.3-1.6,1.1-1.9C23.9,2.5,26.1,2.5,28.2,2.5z M25,10c-9.4,0-17,8.2-17.2,17.9c-0.2,9.7,7.3,18,17.1,18.1
	c9.8,0.1,17.4-8.3,17.2-18C42,18.3,34.5,10,25,10z M27.8,4c-1.9,0-3.8,0-5.7,0c0,0.5,0,1,0,1.4c1.9,0,3.8,0,5.7,0
	C27.8,5,27.8,4.5,27.8,4z"/>
<path fill="#FFFFFF" d="M40.8,27.9C40.9,36.9,34,44.5,25,44.5c-9,0-15.9-7.6-15.8-16.5C9.4,19,16.4,11.5,25,11.5
	C33.6,11.5,40.6,19,40.8,27.9z M39.3,27.9c-0.1-8.2-6.5-15-14.3-15c-7.9,0-14.1,6.8-14.3,15C10.5,36.1,16.8,43,25,43
	C33.1,43,39.5,36.1,39.3,27.9z"/>
<path fill="#FFFFFF" d="M27.7,17.9c0.1-0.5,0.2-0.9,0.4-1.4c3.1,1,5.5,2.9,7,5.9c1.7,3.4,1.9,6.8,0.6,10.3c-0.1,0-0.2,0-0.2-0.1
	c-0.4-0.2-0.7-0.3-1.1-0.5c1.1-2.9,1.1-5.8-0.3-8.7C32.7,20.6,30.5,18.8,27.7,17.9z"/>
<path fill="#FFFFFF" d="M31.3,33.4c-0.3,0.4-0.7,0.7-1.1,1.1c-0.1-0.2-0.2-0.3-0.3-0.4c-1.2-1.3-2.5-2.6-3.7-3.8
	c-0.2-0.2-0.3-0.3-0.5-0.2c-1.2,0.4-2.5-0.3-2.7-1.6c-0.3-1.3,0.5-2.6,1.8-2.7c1.3-0.2,2.4,0.8,2.4,2.1c0,0.2,0,0.5-0.1,0.7
	c-0.2,0.3,0,0.5,0.2,0.7c1.2,1.3,2.4,2.5,3.7,3.8C31,33.2,31.1,33.3,31.3,33.4z"/>
</svg>
