<?xml version="1.0" encoding="utf-8"?>
<!-- Generator: Adobe Illustrator 23.0.0, SVG Export Plug-In . SVG Version: 6.00 Build 0)  -->
<svg version="1.0" id="Layer_1" xmlns="http://www.w3.org/2000/svg" xmlns:xlink="http://www.w3.org/1999/xlink" x="0px" y="0px"
	 viewBox="0 0 50 50" enable-background="new 0 0 50 50" xml:space="preserve">
<path fill="#FFFFFF" d="M3.2,27.7c0.2-0.6,0.7-0.8,1.3-0.8c0.8,0,1.6,0,2.4,0c0-0.9,0-1.7,0-2.5c-0.4,0-0.8,0-1.1,0
	c-0.8,0-1.1-0.5-0.9-1.3c0.2-0.9,0.5-1.7,0.7-2.6c0.1-0.6,0.4-0.8,0.9-0.8c0.7,0,1.3,0,2,0c0.6,0,0.8,0.2,1,0.8
	c0.3,0.9,0.6,1.8,0.8,2.7c0.2,0.7-0.1,1.2-0.8,1.3c-0.4,0-0.8,0-1.2,0c0,0.8,0,1.7,0,2.5c0.6,0,1.2,0,1.7,0c0.2,0,0.3,0,0.5,0
	c1.1,0,1.4,0.2,1.5,1.5c0.1,0,0.2,0,0.4,0c0,0-0.1-0.1-0.1-0.1c0.3-0.6,0.4-1.4,0.8-1.8c0.6-0.6,0.6-1.2,0.6-1.9c0-0.7,0-1.4,0-2.1
	c0.1-1.4,1.1-2.5,2.4-2.6c0.7-0.1,1.4,0,2,0c0.4,0,0.6,0.3,0.7,0.7c0,0.4-0.2,0.7-0.6,0.7c-0.6,0-1.2,0-1.7,0
	c-0.9,0-1.5,0.6-1.5,1.6c0,0.8,0,1.6,0,2.5c0.2,0,0.3,0,0.5,0c1.6,0,3.3,0.1,4.9,0c1.7-0.1,3.2,0.8,3.4,3.1c0.1,0,0.2,0,0.3,0
	c0.8,0,1.7,0,2.4,0c0.2-0.7,0.4-1.3,0.7-1.8c0.5-0.9,1.4-1.3,2.4-1.3c1.8,0,3.6,0,5.3,0c0.1,0,0.3,0,0.4,0c0-1,0.1-2,0-2.9
	c-0.1-0.7-0.7-1.2-1.4-1.2c-1.3,0-2.7,0-4,0c-2.9,0-5.8,0-8.7,0c-0.2,0-0.3,0-0.5,0c-0.3-0.1-0.5-0.4-0.4-0.7
	c0.1-0.2,0.3-0.5,0.5-0.6c0.1-0.1,0.3,0,0.5,0c4.1,0,8.3,0,12.4,0c1.9,0,3,1.3,3,3.3c0,0.8,0,1.6,0,2.4c0,0.2,0,0.4,0.1,0.4
	c0.7,0.6,1,1.4,1.1,2.4c0.3,0,0.6,0,0.9,0c1.5,0,2.6,1.1,2.8,2.7c0.1,1.1,0.1,2.2,0.2,3.2c0,1.4-1,2.6-2.3,2.7c-0.5,0-0.9,0-1.4,0
	c0.3,0.7,0.6,1.4,0.8,2c0.4,1-0.3,2-1.4,1.9c-0.4-0.1-0.7-0.3-1-0.6c-0.9-0.9-1.8-1.9-2.6-2.8c-0.2-0.3-0.4-0.4-0.8-0.3
	c-0.4,0-0.8,0-1.2,0c-0.6,0-0.9-0.2-0.9-0.7c0-0.4,0.3-0.7,0.9-0.7c1.4,0,2.8,0,4.2-0.1c1,0,2,0,2.9-0.1c0.9,0,1.5-0.6,1.4-1.6
	c0-0.9-0.1-1.8-0.1-2.7c-0.1-1-0.6-1.6-1.6-1.6c-9,0.1-18.1,0.1-27.1,0c-0.9,0-1.5,0.6-1.5,1.6c0,0.9-0.1,1.7-0.1,2.6
	c0,1.1,0.5,1.7,1.5,1.7c5.7,0.2,11.4,0.2,17.1,0.2c0.2,0,0.4,0,0.6,0c0.3,0.1,0.5,0.4,0.5,0.7c0,0.3-0.2,0.6-0.5,0.6
	c-0.2,0-0.3,0-0.5,0c-3.7,0-7.5,0-11.2-0.1c-0.3,0-0.6,0.1-0.8,0.4c-0.9,1-1.8,2-2.7,2.9c-0.4,0.4-0.9,0.6-1.5,0.4
	c-0.5-0.2-0.8-0.5-0.9-1.1c0-0.3,0.1-0.7,0.2-1c0.2-0.6,0.5-1.1,0.7-1.8c-0.4,0-0.7,0-1,0c-0.9,0-1.6-0.3-2.2-1
	c-0.1-0.1-0.2-0.1-0.3-0.1c-0.9,0-1.7,0-2.6-0.1c-0.5,0-0.8-0.3-0.8-0.7c0-0.4,0.4-0.6,0.9-0.6c0.7,0,1.5,0,2.2,0.1
	c0.1-1.2,0.1-2.3,0.2-3.5c-0.7,0-1.4,0-2,0c-0.6,0-1-0.2-0.9-0.7c0-0.5,0.3-0.7,1-0.7c0.8,0,1.5,0,2.3,0c0.1,0,0.3,0,0.3-0.1
	c0.4-0.5,0.9-0.8,1.4-1.1c0,0,0-0.1,0.1-0.2c-2,0-4,0-6.1-0.1c-0.1,2.9-0.3,5.8-0.6,8.8c0.2,0,0.3,0,0.5,0c1.5,0.1,2.9,0.1,4.4,0.2
	c0.2,0,0.4,0,0.5,0.1c0.3,0.1,0.5,0.3,0.4,0.7c0,0.3-0.2,0.6-0.6,0.6c-0.1,0-0.3,0-0.4,0c-1.6-0.1-3.3-0.2-4.9-0.2
	c-0.6,0-1.1-0.3-1.2-0.9C2.9,34.2,3.1,30.9,3.2,27.7z M22.2,28.4c0-0.9-0.6-1.6-1.4-1.6c-2,0-3.9,0-5.9,0c-0.8,0-1.4,0.8-1.4,1.6
	C16.4,28.4,19.3,28.4,22.2,28.4z M36.2,28.4c0-0.8-0.5-1.6-1.3-1.6c-2,0-4,0-6,0c-0.8,0-1.4,0.8-1.3,1.6
	C30.5,28.4,33.4,28.4,36.2,28.4z M8.9,23c-0.1-0.3-0.2-0.5-0.2-0.7C8.3,21,8.2,21,7,21c0,0-0.1,0-0.1,0c-0.1,0-0.2,0.1-0.2,0.2
	c-0.2,0.6-0.3,1.2-0.5,1.8C7.1,23,7.9,23,8.9,23z M14.9,37.1c-0.5,0-0.8,0-1.1,0c-0.1,0-0.2,0.1-0.3,0.2c-0.3,0.7-0.6,1.5-0.9,2.2
	c0,0,0.1,0,0.1,0.1C13.4,38.8,14.1,38,14.9,37.1z M34.9,37.1c0.8,0.9,1.5,1.7,2.3,2.4c0-0.2,0-0.3-0.1-0.4c-0.3-0.6-0.5-1.2-0.8-1.8
	c0-0.1-0.2-0.2-0.3-0.2C35.7,37.1,35.4,37.1,34.9,37.1z"/>
<path fill="#FFFFFF" d="M41.1,9.2c1.7,0.1,3.4,0.2,5.1,0.3c1,0.1,1.4,0.6,1.3,1.6c-0.3,2.2-0.5,4.5-0.7,6.7c-0.1,1-0.6,1.5-1.5,1.5
	c-3.3-0.1-6.5-0.1-9.7-0.2c-0.9,0-1.4-0.5-1.4-1.5c0.1-2.3,0.2-4.7,0.3-7c0.1-1,0.6-1.5,1.6-1.5C37.7,9.1,39.4,9.1,41.1,9.2z
	 M35.5,17.6c1.2,0.1,1.2,0.1,2-0.6c1.6-1.3,3.2-2.6,4.8-3.8c1-0.8,1.8-0.7,2.6,0.2c0.2,0.3,0.5,0.5,0.8,0.8c0.1-1.2,0.2-2.3,0.4-3.4
	c-3.5-0.2-6.9-0.4-10.3-0.5C35.7,12.8,35.6,15.2,35.5,17.6z M45.6,16.4c-1.6-0.1-3.2-0.1-4.8-0.2c-0.1,0-0.2,0-0.2,0
	c-0.6,0.4-1.1,0.9-1.8,1.4c2.3,0,4.5,0.1,6.7,0.2C45.5,17.4,45.5,16.9,45.6,16.4z M44.5,15c-0.3-0.3-0.5-0.6-0.8-0.8
	c-0.1-0.1-0.3-0.1-0.4-0.1c-0.4,0.2-0.7,0.5-1,0.7c0.7,0.1,1.3,0.1,1.9,0.2C44.4,15,44.4,15,44.5,15z"/>
<path fill="#FFFFFF" d="M36.4,12.8c0.1-1.1,0.9-1.9,1.9-1.9c1,0,1.8,0.9,1.7,2c-0.1,1-0.9,1.9-1.9,1.9
	C37.1,14.8,36.3,13.9,36.4,12.8z M38.2,12.3c-0.3,0-0.5,0.2-0.5,0.6c0,0.3,0.2,0.5,0.5,0.5c0.3,0,0.5-0.2,0.5-0.5
	C38.7,12.6,38.6,12.4,38.2,12.3z"/>
</svg>
