<?xml version="1.0" encoding="utf-8"?>
<!-- Generator: Adobe Illustrator 23.0.0, SVG Export Plug-In . SVG Version: 6.00 Build 0)  -->
<svg version="1.0" id="Layer_1" xmlns="http://www.w3.org/2000/svg" xmlns:xlink="http://www.w3.org/1999/xlink" x="0px" y="0px"
	 viewBox="0 0 50 50" enable-background="new 0 0 50 50" xml:space="preserve">
<path fill="#FFFFFF" d="M38.1,6c0-0.8-0.1-1.5-0.7-2c-0.3-0.3-0.7-0.5-1-0.7c-4.6-0.6-21.7-0.1-22.8,0c-1.5,0.8-1.8,1.5-1.7,3.1
	c0.6,12.5,0.6,25,0,37.5c-0.1,1.7,0.8,2.7,2.4,3c7.1,0.9,14.2,0.9,21.3,0c1.7-0.2,2.5-1.3,2.5-3C37.5,31.2,37.4,18.6,38.1,6z
	 M36.9,44c0.1,1-0.3,1.4-1.3,1.6c-7,0.9-14.1,0.9-21.1,0c-0.1,0-0.3,0-0.4-0.1c-0.5-0.1-0.9-0.5-0.9-1c0-0.2,0-0.4,0-0.6
	c0.5-12.5,0.5-25.1,0-37.6c0-0.1,0-0.3,0-0.4c0-0.8,0.3-1.2,1.1-1.3c0.9-0.1,17-0.6,21.5,0c0.8,0.1,1.2,0.5,1.2,1.4
	c0,0.3,0,0.5,0,0.8c-0.2,5-0.4,19.3-0.4,19.4C36.4,32,36.6,38,36.9,44z"/>
<path fill="#FFFFFF" d="M31.3,16.5c0,3.8-2.9,6.8-6.3,6.8c-3.4,0-6.2-3.1-6.3-6.8c0-3.8,2.8-7,6.3-7C28.6,9.5,31.3,12.8,31.3,16.5z
	 M30.1,16.4c0-3.1-2.3-5.6-5.1-5.6c-2.8,0-5.1,2.6-5,5.7c0,3,2.3,5.5,5.1,5.5C27.8,22,30.1,19.5,30.1,16.4z"/>
<path fill="#FFFFFF" d="M31.3,33.5c0,3.5-2.3,6.5-5.6,6.9c-3.2,0.4-6.1-2-6.8-5.4c-0.1-0.5,0.1-0.8,0.4-0.9c0.4-0.1,0.6,0.1,0.7,0.6
	c0.6,2.3,1.9,3.8,4.1,4.3c2.4,0.5,4.8-1,5.6-3.5c0.9-2.5,0-5.2-2-6.6c-2.8-2-6.5-0.5-7.6,2.9c0,0.1,0,0.2-0.1,0.2
	c-0.1,0.4-0.4,0.6-0.8,0.5c-0.3-0.1-0.5-0.5-0.4-0.9c0.7-2.5,2.3-4.2,4.7-4.8C27.5,25.9,31.2,29.1,31.3,33.5z"/>
<path fill="#FFFFFF" d="M25,31.1c0.6,0,1.1,0,1.7,0c0.9,0,1.3,0.8,0.9,1.7c-0.5,1.1-1.1,2.2-1.7,3.3c-0.4,0.9-1.4,0.9-1.8,0
	c-0.6-1.1-1.1-2.2-1.7-3.3c-0.4-0.9,0-1.7,0.9-1.7C23.9,31.1,24.4,31.1,25,31.1z M23.6,32.5c0.5,0.9,0.9,1.8,1.4,2.7
	c0.5-1,0.9-1.8,1.4-2.7C25.4,32.5,24.6,32.5,23.6,32.5z"/>
<path fill="#FFFFFF" d="M25,18.9c-0.6,0-1.1,0-1.7,0c-0.8,0-1.3-0.8-0.9-1.6c0.5-1.1,1.1-2.3,1.7-3.4c0.4-0.8,1.4-0.8,1.8,0
	c0.6,1.1,1.1,2.3,1.7,3.4c0.4,0.8-0.1,1.6-0.9,1.6C26.1,18.9,25.6,18.9,25,18.9z M26.4,17.5c-0.5-0.9-0.9-1.8-1.4-2.8
	c-0.5,1-0.9,1.8-1.4,2.8C24.6,17.5,25.4,17.5,26.4,17.5z"/>
</svg>
