<?xml version="1.0" encoding="utf-8"?>
<!-- Generator: Adobe Illustrator 23.0.0, SVG Export Plug-In . SVG Version: 6.00 Build 0)  -->
<svg version="1.0" id="Layer_1" xmlns="http://www.w3.org/2000/svg" xmlns:xlink="http://www.w3.org/1999/xlink" x="0px" y="0px"
	 viewBox="0 0 50 50" enable-background="new 0 0 50 50" xml:space="preserve">
<path fill="#FFFFFF" d="M5.6,45.2C6,32.1,5.3,20.6,3.3,7.7C3.5,7,4.1,6.6,4.9,6.6c1-0.1,2-0.2,3.1-0.3c0.1,0,0.3,0,0.4,0
	C8.3,5.7,8.2,5.3,8.2,4.9C8,4.1,8.5,3.4,9.2,3.3c0.8-0.1,1.4,0.4,1.5,1.3c0.1,0.4,0.1,0.9,0.2,1.3c1.7-0.2,3.4-0.3,5.1-0.4
	c0-0.4-0.1-0.9-0.1-1.3c-0.1-0.9,0.4-1.5,1.2-1.5c0.8,0,1.3,0.5,1.4,1.4c0,0.4,0,0.9,0.1,1.3c1.7-0.1,3.4-0.1,5.1-0.1
	c0-0.5,0-0.9,0-1.4c0-0.8,0.5-1.4,1.3-1.4c0.8,0,1.3,0.6,1.3,1.4c0,0.5,0,0.9,0,1.4c1.7,0,3.4,0.1,5.1,0.1c0-0.4,0-0.8,0.1-1.1
	c0.1-1,0.6-1.6,1.4-1.6c0.8,0.1,1.2,0.7,1.2,1.7C34,4.8,34,5.2,34,5.6c1.7,0.1,3.4,0.2,5.1,0.4c0.1-0.4,0.1-0.9,0.2-1.3
	c0.1-0.8,0.7-1.4,1.5-1.3C41.5,3.4,42,4,41.8,4.9c-0.1,0.4-0.1,0.9-0.2,1.3c1.2,0.1,2.4,0.3,3.6,0.4c1.2,0.1,1.5,0.6,1.3,1.8
	c-1.8,12.4-2.5,23.5-2.2,36c0.1,0.8-0.1,1.3-0.7,1.8c-13,1.2-24.3,1.2-37.3,0C6,45.9,5.7,45.6,5.6,45.2z M8,43.9
	c11.7,0.9,22.3,0.9,34,0c-0.5-9.1-0.2-18.3,0.8-27.4c-12-0.5-23.6-0.5-35.6,0C8.2,25.6,8.5,34.7,8,43.9z M16.2,8.2
	c-1.7,0.1-3.3,0.2-5,0.3c0,0.4,0.1,0.7,0.1,1.1c0.1,0.9-0.4,1.5-1.1,1.5c-0.7,0-1.3-0.5-1.4-1.3C8.8,9.5,8.8,9.1,8.7,8.7
	C7.8,8.8,7,8.9,6.2,9c0.3,1.7,0.5,3.3,0.7,4.9c12.3-0.6,24-0.6,36.2,0c0.2-1.7,0.5-3.3,0.7-4.9c-0.9-0.1-1.7-0.2-2.6-0.3
	c-0.1,0.4-0.1,0.8-0.2,1.2c-0.1,0.8-0.7,1.3-1.4,1.3c-0.7,0-1.2-0.7-1.1-1.4c0-0.4,0.1-0.8,0.1-1.2c-1.7-0.1-3.3-0.2-5-0.3
	c0,0.4-0.1,0.8-0.1,1.2c-0.1,0.8-0.6,1.3-1.3,1.3c-0.7,0-1.2-0.6-1.2-1.4c0-0.4,0-0.8,0.1-1.2c-1.7-0.1-3.3-0.1-5-0.1
	c0,0.4,0,0.8,0,1.2c0,0.9-0.5,1.4-1.2,1.4c-0.7,0-1.2-0.6-1.2-1.5c0-0.4,0-0.8,0-1.2c-1.7,0-3.3,0-5,0.1c0,0.4,0.1,0.9,0.1,1.3
	c0,0.8-0.5,1.3-1.2,1.4c-0.7,0-1.3-0.5-1.3-1.3C16.3,9.1,16.3,8.7,16.2,8.2z"/>
<path fill="#FFFFFF" d="M19.3,25.2c0,0.8,0,1.7,0,2.5c0,0.8-0.4,1.4-1.2,1.4c-1.5,0-2.9,0-4.4,0c-0.7,0-1.2-0.6-1.2-1.4
	c-0.1-1.7-0.1-3.3-0.2-5c0-0.8,0.4-1.4,1.1-1.4c1.5,0,3-0.1,4.5-0.1c0.7,0,1.2,0.5,1.2,1.3C19.3,23.4,19.3,24.3,19.3,25.2z
	 M14.8,26.4c0.8,0,1.5,0,2.2,0c0-0.9,0-1.7-0.1-2.6c-0.8,0-1.5,0-2.2,0C14.8,24.8,14.8,25.6,14.8,26.4z"/>
<path fill="#FFFFFF" d="M25,21.2c0.7,0,1.5,0,2.2,0c0.8,0,1.2,0.6,1.2,1.4c0,1.7,0,3.4-0.1,5c0,0.9-0.5,1.4-1.2,1.4
	c-1.4,0-2.9,0-4.3,0c-0.7,0-1.2-0.6-1.2-1.4c0-1.7,0-3.4-0.1-5.1c0-0.9,0.5-1.4,1.2-1.4C23.5,21.2,24.3,21.2,25,21.2z M26.1,23.9
	c-0.8,0-1.5,0-2.2,0c0,0.9,0,1.7,0,2.6c0.7,0,1.5,0,2.2,0C26.1,25.6,26.1,24.7,26.1,23.9z"/>
<path fill="#FFFFFF" d="M30.7,25.1c0-0.8,0-1.7,0.1-2.5c0-0.8,0.5-1.4,1.3-1.4c1.5,0,3,0,4.4,0.1c0.7,0,1.2,0.6,1.2,1.4
	c-0.1,1.7-0.2,3.3-0.2,5c0,0.8-0.5,1.3-1.2,1.4c-1.5,0-2.9,0-4.4,0c-0.7,0-1.2-0.5-1.2-1.4C30.6,26.8,30.6,26,30.7,25.1z M35.2,23.9
	c-0.8,0-1.5,0-2.2,0c0,0.9,0,1.7-0.1,2.5c0.8,0,1.5,0,2.2,0C35.2,25.6,35.2,24.8,35.2,23.9z"/>
<path fill="#FFFFFF" d="M25,39.5c-0.7,0-1.4,0-2.1,0c-0.8,0-1.2-0.6-1.2-1.5c0-1.7,0-3.3,0-5c0-0.9,0.4-1.4,1.2-1.4
	c1.4,0,2.9,0,4.3,0c0.7,0,1.2,0.5,1.2,1.4c0,1.7,0,3.4,0,5c0,0.9-0.5,1.4-1.2,1.4C26.4,39.5,25.7,39.5,25,39.5z M26.1,36.9
	c0-0.9,0-1.7,0-2.6c-0.7,0-1.5,0-2.2,0c0,0.9,0,1.7,0,2.6C24.6,36.9,25.3,36.9,26.1,36.9z"/>
<path fill="#FFFFFF" d="M33.9,31.6c0.7,0,1.4,0,2.2,0c0.7,0,1.2,0.5,1.2,1.3c0,1.6,0,3.3,0,4.9c0,0.8-0.4,1.4-1.2,1.4
	c-1.4,0.1-2.9,0.2-4.3,0.2c-0.7,0-1.2-0.5-1.2-1.4c0-1.7,0-3.3,0-5c0-0.9,0.5-1.4,1.2-1.4C32.5,31.6,33.2,31.6,33.9,31.6z
	 M32.8,34.2c0,0.9,0,1.7,0,2.5c0.7,0,1.5-0.1,2.2-0.1c0-0.9,0-1.7,0-2.5C34.3,34.2,33.6,34.2,32.8,34.2z"/>
<path fill="#FFFFFF" d="M15.2,36.2c0.6-0.8,1.2-1.7,1.8-2.5c0.2-0.2,0.3-0.5,0.5-0.7c0.4-0.5,1.1-0.6,1.5-0.1
	c0.5,0.4,0.6,1.2,0.2,1.8c-1,1.5-2,2.9-3.1,4.3c-0.4,0.5-1,0.5-1.4,0.1c-0.5-0.5-1.1-1-1.6-1.6c-0.4-0.5-0.5-1.2-0.1-1.7
	c0.4-0.5,1-0.6,1.5-0.1C14.7,35.7,14.9,35.9,15.2,36.2z"/>
</svg>
