<?xml version="1.0" encoding="utf-8"?>
<!-- Generator: Adobe Illustrator 23.0.0, SVG Export Plug-In . SVG Version: 6.00 Build 0)  -->
<svg version="1.0" id="Layer_1" xmlns="http://www.w3.org/2000/svg" xmlns:xlink="http://www.w3.org/1999/xlink" x="0px" y="0px"
	 viewBox="0 0 50 50" enable-background="new 0 0 50 50" xml:space="preserve">
<path fill="#FFFFFF" d="M4.6,28.7c0.4-1,1.1-1.6,2.2-1.6c0.1-0.7,0.1-1.4,0.2-2.1c1-6.1,3.9-10.9,8.6-14.5c0.4-0.3,0.8-0.3,0.9,0.1
	c0.1,0.3,0,0.6-0.3,0.9c-1.1,0.8-2.1,1.7-3,2.8C10,17.8,8.3,22,8,26.9c0,0,0,0.1,0,0.2c11.3,0.1,22.7,0.1,34,0c0-0.1,0-0.2,0-0.3
	c-0.5-8.6-6.3-16.3-14-18c-3.4-0.7-6.6-0.3-9.7,1.4c-0.1,0-0.1,0.1-0.2,0.1c-0.4,0.2-0.7,0.1-0.8-0.3c-0.1-0.3,0-0.7,0.4-0.9
	c1.4-0.8,2.9-1.3,4.5-1.6c0.1,0,0.2-0.1,0.3-0.1c0-1,0.2-1.9,0.9-2.6c0.5-0.4,1-0.7,1.6-0.7c1.4,0,2.2,1.1,2.5,3.2
	c4.3,0.8,7.8,3.1,10.8,6.9c3,3.8,4.6,8,4.9,12.8c0.2,0,0.3,0,0.5,0.1c1,0.2,1.7,1.2,1.7,2.2c0,1-0.7,1.8-1.8,1.8c-0.6,0-1.3,0-2,0
	c0.2,0.8-0.1,1.4-0.6,1.9c-1.8,1.7-3.6,3.4-5.5,5.2c-0.8,0.8-1.8,1.1-2.9,1.1c-1.1,0-2.1,0-3.2,0c-0.5,0-0.8-0.2-0.8-0.6
	c0-0.4,0.3-0.6,0.8-0.6c0.1,0,0.2,0,0.3,0c0.9,0,1.9,0,2.8,0c0.8,0,1.5-0.3,2.1-0.8c1.9-1.8,3.7-3.5,5.5-5.2c0.4-0.4,0.4-0.7-0.1-1
	c-0.7-0.4-1.5-0.4-2.1,0.2c-0.7,0.7-1.5,1.4-2.2,2.1c-0.9,0.9-2.1,1.3-3.4,1.4c-1.8,0-3.6,0-5.4,0c-0.1,0-0.2,0-0.2,0
	c-0.3-0.1-0.5-0.3-0.5-0.6c0-0.3,0.3-0.6,0.6-0.6c1,0,1.9,0,2.9,0c0.8,0,1.7,0,2.5,0c0.7,0,1.2-0.4,1.2-1c0-0.6-0.5-1.1-1.2-1.1
	c-0.1,0-0.2,0-0.3,0c-3.4,0-6.9,0-10.3,0c-0.1,0-0.2,0-0.3,0c0,2.3-0.1,4.5-0.1,6.8c0.2,0,0.4,0,0.5,0c1.6,0,3.2,0,4.7,0
	c0.2,0,0.3,0,0.5,0c0.3,0.1,0.5,0.3,0.5,0.6c0,0.3-0.2,0.5-0.5,0.6c-0.2,0-0.3,0-0.5,0c-1.6,0-3.2,0-4.8,0c-0.2,0-0.3,0-0.5,0
	c0,0.2,0,0.3,0,0.5c0,1.4-0.1,2.7-0.1,4.1c0,1-0.9,1.9-2,1.8c-3.4,0-6.8-0.1-10.2-0.3c-1.1,0-1.8-0.8-1.7-1.9
	c0.1-0.9,0.2-1.7,0.3-2.6c0-0.1,0-0.3,0.1-0.5c-0.8,0-1.5-0.1-2.3-0.1c-0.7,0-1.2-0.3-1.5-0.8c-0.2-0.3-0.3-0.8-0.2-1.2
	c0.3-2.2,0.5-4.5,0.8-6.7c0.1-0.4,0.3-0.9,0.5-1.4c-0.1-0.2-0.2-0.5-0.3-0.9C4.6,29.2,4.6,28.9,4.6,28.7z M20,37.9
	c0.1-1.9,0.1-3.9,0.2-5.8c0-0.6-0.2-0.8-0.7-0.8c-3,0-6,0-8.9-0.1c-0.6,0-0.8,0.2-0.9,0.8c-0.3,3.8-0.7,7.6-1.1,11.4
	c-0.1,0.7,0.1,0.9,0.8,0.9c3.2,0.1,6.4,0.2,9.6,0.3c0.7,0,0.9-0.2,0.9-0.8C19.9,41.8,19.9,39.8,20,37.9z M25,28.4c-6,0-12,0-18-0.1
	c-0.1,0-0.3,0-0.4,0c-0.4,0-0.7,0.3-0.8,0.7c-0.1,0.4,0.1,0.7,0.4,0.9c0.2,0.1,0.3,0.1,0.5,0.1c10.2,0.2,20.3,0.2,30.5,0.1
	c0.2,0,0.4-0.1,0.6-0.2c0.7-0.3,1.4-0.5,2.2-0.2c0.6,0.3,1.2,0.3,1.8,0.3c0.5,0,0.9,0,1.4,0c0.8,0,1.1-0.3,1-0.8
	c-0.1-0.5-0.4-0.8-1.2-0.8C37,28.3,31,28.4,25,28.4z M7.6,39.3c0.3-2.7,0.6-5.4,0.8-8.2c-0.7,0-1.3,0-2,0c-0.6,0-0.8,0.2-0.9,0.8
	c-0.1,0.6-0.1,1.3-0.2,1.9c-0.2,1.6-0.4,3.1-0.5,4.7c-0.1,0.5,0.1,0.7,0.6,0.8C6.1,39.2,6.8,39.3,7.6,39.3z M26.3,7.2
	c0.1-0.7-0.2-1.3-0.7-1.6c-0.5-0.3-1-0.3-1.5,0.1c-0.4,0.3-0.6,0.9-0.5,1.5C24.6,7.2,25.4,7.2,26.3,7.2z M34.7,32.6
	c0.5-0.4,0.9-0.9,1.4-1.3c-0.7,0-1.2,0-1.7,0C34.5,31.7,34.6,32.1,34.7,32.6z"/>
</svg>
