<?xml version="1.0" encoding="utf-8"?>
<!-- Generator: Adobe Illustrator 23.0.0, SVG Export Plug-In . SVG Version: 6.00 Build 0)  -->
<svg version="1.0" id="Layer_1" xmlns="http://www.w3.org/2000/svg" xmlns:xlink="http://www.w3.org/1999/xlink" x="0px" y="0px"
	 viewBox="0 0 50 50" enable-background="new 0 0 50 50" xml:space="preserve">
<g>
	<g>
		<path fill="#FFFFFF" d="M30.1,40.5c-2.1-1.2-4.1-2.3-6.2-3.4c-2.1-1.1-9.8-5.2-12-6.4c-0.9-0.5-1.4-1.2-1.5-2.3
			C9.7,23,9.3,20.3,8,14.7c-0.2-1,0.1-1.8,1-2.2c4.2-1.9,8.8-3.7,13.9-5.8c1-0.4,2-0.4,3,0c5.2,2.3,16,7,20.1,9
			c0.9,0.5,1.2,1.2,1,2.4c-1.2,5.5-1.6,8.1-2.1,13.7c-0.1,1.2-0.6,2-1.5,2.4c-4,2-7.9,4-11.7,6.1c-0.2,0.1-0.5,0.2-0.7,0.3
			C30.6,40.6,30.3,40.6,30.1,40.5z M45.3,16.8c-0.4-0.2-0.8-0.4-1.2-0.6c-3.6-1.8-14-6.3-18.6-8.3c-0.9-0.4-1.6-0.4-2.4,0
			c-4.8,2-9.3,3.8-13.4,5.7c-0.5,0.2-0.7,0.6-0.6,1.3c1.2,5.5,1.6,8.1,2.2,13.5c0.1,0.6,0.3,1,0.9,1.3c4.2,2.1,13.6,7.2,17.4,9.4
			c0.5,0.3,1,0.3,1.5,0c3.8-2.1,7.6-4,11.7-6.1c0.6-0.3,0.9-0.7,0.9-1.4c0.5-5.5,0.8-8,2-13.5c0-0.1,0-0.2,0.1-0.4
			c-0.2,0.1-0.3,0.1-0.4,0.2c-5,2.5-9.5,4.7-13.8,6.9c-0.3,0.1-0.3,0.3-0.4,0.6C31.1,29.9,31,31.6,31,36c0,0.2,0,0.3,0,0.5
			c-0.1,0.3-0.2,0.4-0.5,0.4s-0.4-0.2-0.5-0.5c0-0.1,0-0.3,0-0.4c0-4.5,0.1-6.2,0.2-10.6c0-0.3-0.1-0.4-0.3-0.5
			c-2.8-1.4-5.6-2.9-8.7-4.4c-0.7-0.3-8-4-8.8-4.4c-0.4-0.2-0.5-0.5-0.4-0.8s0.4-0.4,0.8-0.2c0.1,0,0.2,0.1,0.2,0.1
			c4.1,2,14.1,6.9,17.4,8.7c0.3,0.1,0.4,0.1,0.7,0c3.3-1.7,6.8-3.4,10.5-5.2C42.8,18.1,44,17.5,45.3,16.8z"/>
	</g>
	<g>
		<path fill="#FFFFFF" d="M7,26.9c-0.1-0.1-0.2-0.2-0.2-0.4c-0.1-0.5-0.1-0.9-0.2-1.4C6.1,21.5,5.3,18,4.4,14.5
			c-0.1-0.2,0-0.4,0.1-0.5c0.3-0.2,0.8,0.1,1,0.5c0,0.1,0,0.1,0,0.2c0.9,3.9,1.7,7.8,2.2,11.7c0,0.1,0,0.1,0,0.2
			c0,0.2-0.1,0.4-0.2,0.5C7.4,27.1,7.2,27.1,7,26.9z"/>
		<path fill="#FFFFFF" d="M5.8,12.7c0.4,0.3,0.8,0.6,1.1,0.9c0.2,0.2,0.3,0.5,0.2,0.7c-0.1,0.2-0.4,0.2-0.7,0
			c-0.1,0-0.1-0.1-0.2-0.1c-0.3-0.3-0.6-0.5-1-0.8S4.3,13,4.1,13.3c-0.2,0.2-0.4,0.5-0.6,0.7c-0.2,0.2-0.5,0.2-0.8,0
			s-0.4-0.6-0.2-0.8c0.4-0.5,0.9-1,1.3-1.5c0.2-0.2,0.5-0.1,0.7,0.1C5,12.1,5.4,12.4,5.8,12.7L5.8,12.7z"/>
		<path fill="#FFFFFF" d="M8.7,28.5C8.4,28.7,8.2,29,8,29.3s-0.4,0.2-0.7,0c-0.6-0.6-1.1-1.1-1.7-1.7c-0.2-0.2-0.3-0.6-0.1-0.8
			c0.2-0.2,0.4-0.2,0.7,0c0.3,0.3,0.6,0.5,0.8,0.8c0.4,0.3,0.7,0.3,1,0c0.2-0.2,0.4-0.5,0.6-0.7c0.2-0.2,0.5-0.2,0.7,0
			s0.3,0.5,0.1,0.8C9.1,27.9,8.9,28.2,8.7,28.5z"/>
	</g>
</g>
</svg>
