<?xml version="1.0" encoding="utf-8"?>
<!-- Generator: Adobe Illustrator 23.0.0, SVG Export Plug-In . SVG Version: 6.00 Build 0)  -->
<svg version="1.0" id="Layer_1" xmlns="http://www.w3.org/2000/svg" xmlns:xlink="http://www.w3.org/1999/xlink" x="0px" y="0px"
	 viewBox="0 0 50 50" enable-background="new 0 0 50 50" xml:space="preserve">
<path fill="#FFFFFF" d="M2.3,10.5c0-0.1,0.1-0.2,0.1-0.3c0.3-1,1.2-1.8,2.3-1.7c1.2,0.1,2.2,0.8,2.5,2c0.2,1-0.3,2.1-1.2,2.6
	c-0.3,0.1-0.3,0.3-0.3,0.5c0.1,0.5,0.1,0.9,0.1,1.4c0.2,0,0.3,0,0.5,0c0.7,0,0.9,0.2,1,0.9c0,0.7,0.1,1.4,0.1,2.1c0,0.1,0,0.3,0,0.4
	c0.7,0.1,1.3,0,1.9-0.4c0.5-0.4,1.1-0.9,1.5-1.5c2.7-4.2,6.9-5.9,11.8-6c0.1,0,0.3,0,0.4,0c0,0,0.1,0,0.1-0.1c0-0.2,0-0.4,0-0.6
	c0-0.4,0.3-0.7,0.7-0.7c0.4,0,0.6,0.3,0.6,0.7c0,0.1,0,0.3,0,0.4c0,9.2,0,18.4,0,27.7c0,1-0.2,1.2-1.1,1.2c-5.1,0-10.2-0.1-15.2-0.2
	c-0.2,0-0.3,0-0.6,0c0,0.6,0,1.1-0.1,1.6c0,0.7-0.2,0.9-1,0.9c-0.8,0-1.5-0.1-2.3-0.1c-0.6,0-0.8-0.3-0.8-0.9
	C3.7,32.3,3.6,24.1,3,16c0-0.7,0.1-0.9,0.8-0.9c0.2,0,0.3,0,0.5,0c0-0.6-0.1-1.2-0.1-1.8c-0.9-0.3-1.5-0.9-1.9-1.8
	C2.3,11.1,2.3,10.8,2.3,10.5z M23,37.8c0-7.5,0-15,0-22.5c-0.6,0-1.3,0-1.9,0c0.1,7.5,0.1,15,0.1,22.5C21.8,37.8,22.4,37.8,23,37.8z
	 M23,11.9c-1.2,0.1-2.3,0.1-3.4,0.3c-3.2,0.5-5.8,2.1-7.6,4.8c-1.1,1.7-2.5,3-4.7,2.9c0,0.7,0.1,1.3,0.1,2c1,0,1.9-0.2,2.8-0.6
	c1.4-0.6,2.4-1.7,3.3-2.9c0.4-0.6,0.7-1.1,1.2-1.6c1.8-1.7,4.1-2.6,6.6-2.8c0.5,0,1.1,0,1.7,0C23,13.3,23,12.7,23,11.9z M4.4,16.4
	C4.9,24.3,5,32.2,4.7,40.1c0.5,0,1,0,1.4,0.1c0.3-7.9,0.2-15.8-0.2-23.7C5.4,16.4,4.9,16.4,4.4,16.4z M17.3,37.8
	c0.1-7,0-14.1-0.1-21.2c-0.3,0.2-0.6,0.4-0.9,0.6c-0.4,0.2-0.5,0.6-0.5,1c0.2,6.3,0.2,12.6,0.1,18.9c0,0.2,0,0.4,0,0.6
	C16.4,37.8,16.8,37.8,17.3,37.8z M19.8,15.6c-0.3,0.1-0.6,0.2-0.8,0.2c-0.4,0.1-0.5,0.3-0.5,0.7c0.1,6.9,0.2,13.8,0.1,20.8
	c0,0.2,0,0.3,0,0.5c0.5,0,0.9,0,1.3,0C19.9,30.4,19.9,23,19.8,15.6z M7.5,23.2c0.1,4.8,0.1,9.6,0,14.4c0.6,0,1.2,0,1.8,0
	c0.1-4.9,0.1-9.8,0-14.6C8.7,23.1,8.1,23.1,7.5,23.2z M14.6,37.7c0.1-6.1,0.1-12.2-0.1-18.4c-0.4,0.4-0.7,0.8-1,1.2
	c-0.1,0.2-0.3,0.5-0.3,0.7c0.1,5.3,0.1,10.6,0,16c0,0.2,0,0.3,0,0.5C13.7,37.7,14.1,37.7,14.6,37.7z M11.9,21.9
	c-0.4,0.2-0.7,0.4-1,0.5c-0.3,0.1-0.4,0.3-0.4,0.6c0.1,4.7,0.1,9.4,0,14.2c0,0.2,0,0.3,0,0.5c0.5,0,0.9,0,1.4,0
	C12,32.4,12,27.2,11.9,21.9z M5.9,10.9c0-0.6-0.6-1.1-1.2-1.1c-0.6,0-1.1,0.5-1,1.1c0,0.6,0.6,1.2,1.2,1.1
	C5.4,12.1,5.9,11.5,5.9,10.9z"/>
<path fill="#FFFFFF" d="M27.1,10.7c1.7-0.1,3.3,0.1,4.9,0.6c3,0.8,5.4,2.5,7.1,5.1c0.5,0.7,1,1.4,1.8,1.8c0.6,0.3,1.2,0.5,1.9,0.4
	c0-0.8,0.1-1.5,0.1-2.3c0.1-1,0.2-1.1,1.2-1.1c0.1,0,0.1,0,0.3,0c0-0.5,0.1-1.1,0.1-1.6c0-0.1-0.2-0.2-0.3-0.3
	c-0.9-0.5-1.4-1.4-1.2-2.4c0.1-1,0.9-1.8,1.9-2c1.3-0.3,2.6,0.3,2.9,1.5c0.3,1.1-0.3,2.4-1.5,2.9c-0.3,0.1-0.4,0.2-0.4,0.5
	c0,0.5-0.1,0.9-0.1,1.4c0.3,0,0.5,0,0.8,0c0.4,0,0.6,0.3,0.6,0.7c0,0.1,0,0.3,0,0.4c-0.6,8-0.6,16.1-0.3,24.1c0,0.9-0.1,1.1-1,1.1
	c-0.7,0-1.4,0.1-2.2,0.1c-0.6,0-0.8-0.2-0.8-0.8c0-0.6,0-1.2-0.1-1.9c-0.5,0-1-0.1-1.5-0.1c-3.5-0.1-6.9-0.3-10.4-0.5
	c-1.4-0.1-2.8-0.2-4.1-0.3c-0.7,0-0.8-0.2-0.8-0.9c0-7.1,0-14.3,0-21.5c0-1.4,0-2.8,0-4.2c0-0.5,0-1,0.1-1.5c0-0.4,0.2-0.6,0.6-0.6
	c0.4,0,0.6,0.2,0.7,0.6C27.1,10.2,27.1,10.4,27.1,10.7z M28.8,36.9c0-0.2,0-0.4,0-0.6c0-6.8,0-13.6,0.1-20.4c0-0.1,0-0.2,0-0.2
	c-0.1-0.1-0.2-0.3-0.3-0.3c-0.3-0.1-0.7,0-1,0c-0.4,0-0.5,0.2-0.5,0.6c0,6.8,0,13.5,0,20.3c0,0.2,0,0.3,0,0.5
	C27.6,36.8,28.2,36.8,28.8,36.9z M42.6,19.9c-0.4,0-0.8,0-1.1-0.1c-1.5-0.3-2.5-1.2-3.3-2.5c-0.6-1-1.3-1.8-2.2-2.6
	c-1.9-1.6-4.2-2.4-6.7-2.7c-0.7-0.1-1.4,0-2.2,0c0,0.7,0,1.3,0,2c0.2,0,0.4,0,0.6,0c1.7-0.1,3.3,0.3,4.9,1c1.7,0.7,3.1,1.9,4.1,3.5
	c1,1.6,2.4,2.7,4.1,3.1c0.6,0.1,1.2,0.2,1.8,0.3C42.6,21.2,42.6,20.5,42.6,19.9z M44.1,16.5c-0.5,7.9-0.5,15.8-0.2,23.7
	c0.5,0,0.9,0,1.4-0.1c-0.3-7.9-0.3-15.7,0.2-23.6C45.1,16.5,44.6,16.5,44.1,16.5z M32.9,16.6c-0.2,6.9-0.2,13.7-0.1,20.5
	c0.5,0,0.9,0,1.3,0.1c0-0.1,0-0.1,0-0.2c-0.1-6.4,0-12.7,0.1-19.1c0-0.1,0-0.3-0.1-0.4C33.7,17.2,33.3,16.9,32.9,16.6z M40.7,23
	c-0.1,4.8-0.1,9.6,0,14.5c0.6,0,1.2,0,1.8,0.1c-0.1-4.8-0.1-9.6,0-14.4C41.9,23.1,41.3,23.1,40.7,23z M30.2,15.7
	c-0.1,7.1-0.2,14.2-0.1,21.3c0.4,0,0.9,0,1.3,0.1c0-0.3,0-0.4,0-0.6c-0.1-6.4,0-12.8,0.1-19.3C31.6,15.8,31.5,15.8,30.2,15.7z
	 M35.5,19.3c-0.2,6-0.2,12-0.1,17.9c0.4,0,0.9,0,1.3,0.1c0-0.1,0-0.2,0-0.2c-0.1-5.3-0.1-10.7,0.1-16c0-0.1-0.1-0.3-0.2-0.4
	C36.3,20.2,35.9,19.8,35.5,19.3z M39.4,37.4c0-0.2,0-0.4,0-0.6c-0.1-2.6-0.1-5.2-0.1-7.8c0-2,0-4.1,0.1-6.1c0-0.1,0-0.4-0.1-0.4
	c-0.4-0.2-0.8-0.4-1.3-0.7c-0.1,5.2-0.1,10.3,0,15.5C38.5,37.4,38.9,37.4,39.4,37.4z M45.1,12.2c0.7,0,1.2-0.4,1.2-1
	c0.1-0.6-0.4-1.1-1-1.1c-0.6,0-1.2,0.4-1.2,1C44.1,11.7,44.5,12.1,45.1,12.2z"/>
</svg>
