<?xml version="1.0" encoding="utf-8"?>
<!-- Generator: Adobe Illustrator 23.0.0, SVG Export Plug-In . SVG Version: 6.00 Build 0)  -->
<svg version="1.0" id="Layer_1" xmlns="http://www.w3.org/2000/svg" xmlns:xlink="http://www.w3.org/1999/xlink" x="0px" y="0px"
	 viewBox="0 0 50 50" enable-background="new 0 0 50 50" xml:space="preserve">
<path fill="#FFFFFF" d="M45.5,13.5c0,0.4,0.1,0.7,0.5,0.8c0.4,0.1,0.6-0.1,0.8-0.4c0.2-2.2,0.4-4.5,0.7-6.7
	c-0.1-0.1-0.1-0.3-0.1-0.4c-0.2-1.1-1.1-2-2.2-2.3c-0.7-0.2-1.5-0.2-2.3-0.2c-0.2,0-0.5,0.1-0.7,0.2c-0.5,0.3-0.7,0.7-0.8,1.3
	c-0.1,1.1-0.2,2.1-0.3,3.2c-0.2,0-0.4,0-0.6,0C28.8,8.5,17.2,8.6,5.6,9.1c-1.9,0.1-3.4,1.8-3.1,3.7C2.9,15.5,3,18.3,3.1,21
	c0,0.1,0,0.3,0,0.4c0,0.3,0.3,0.5,0.6,0.5c0.4,0,0.6-0.2,0.4-0.4c0-0.1,0-0.3,0-0.4c-0.2-2.8-0.4-5.7-0.6-8.5
	c-0.2-1.3,0.4-2,1.7-2.1c11.7-0.6,23.3-0.7,35-0.2c0.2,0,0.3,0,0.5,0c0,0.2,0,0.4,0,0.6c-0.3,4.3-0.5,8.5-0.6,12.7
	c-0.1,3.5-0.1,7-0.1,10.5c0,1.2,0.6,1.8,1.8,1.8c0.4,0,0.8,0,1.2,0c0.9,0,1.5,0.7,1.6,1.5c0.1,0.9-0.4,1.7-1.2,1.9
	c-0.2,0.1-0.5,0.1-0.7,0.1c-11.9,0.5-23.7,0.5-35.6,0c-0.9,0-1.9-0.2-2.8,0.4c0-0.3,0-0.4,0-0.6c0.2-4.9,0.2-9.9,0-14.9
	c0-0.5-0.2-0.8-0.6-0.8c-0.4,0-0.6,0.3-0.6,0.8c0.2,6,0.1,12.1-0.1,18c0,1.5,1.1,3.1,2.7,3.2c1.1,0.1,2.2,0.2,3.3,0.2
	c1,0.1,1.7-0.6,1.7-1.6c0.1-0.9,0.1-1.8,0.1-2.7c0-0.2,0-0.3,0-0.5c0.2,0,0.4,0,0.6,0c10.5,0.4,21,0.3,31.4-0.2c0.1,0,0.3,0,0.5,0
	c1.3-0.2,2.3-1.1,2.6-2.3c0-0.2,0.1-0.3,0.1-0.5c-0.2-7.2,0-14.4,0.7-21.7c-0.2-0.3-0.4-0.5-0.8-0.4c-0.4,0.1-0.5,0.4-0.5,0.8
	c-0.4,5.9-0.6,11.8-0.5,17.7c0,0.1,0,0.3,0,0.6C44,34.3,43,34.5,42,34.5c-0.3,0-0.4-0.1-0.4-0.4c0-0.1,0-0.2,0-0.3
	c0-9.2,0.4-18.4,1.2-27.6c0-0.7,0-0.7,0.8-0.7c0.3,0.1,0.6,0.1,0.9,0.1c1.1,0.1,1.7,0.8,1.6,1.9C45.9,9.6,45.7,11.5,45.5,13.5z
	 M9.3,43.9c0,0.1-0.2,0.3-0.3,0.3c-1.1,0-2.3-0.1-3.4-0.2c-0.8-0.1-1.3-0.9-1.3-1.8c0.1-0.9,0.7-1.6,1.6-1.6
	c1.2,0.1,2.4,0.1,3.6,0.2C9.5,41.9,9.5,42.9,9.3,43.9z"/>
<path fill="#FFFFFF" d="M11.3,15.9c-0.1-0.8-0.3-1.1-0.7-1.1c-0.4,0-0.6,0.4-0.6,1.1c0.3,6.2,0.5,12.5,0.4,18.7c0,1.1,0.5,2,1.8,2
	c8.5,0.2,16.9,0.2,25.4,0c0.2,0,0.3,0,0.5,0c0.3,0,0.5-0.3,0.5-0.6c0.1-0.4-0.1-0.6-0.4-0.7c-0.2,0-0.3,0-0.5,0
	c-1.5,0-3.1,0.1-4.6,0.1c-0.1,0-0.3,0-0.5,0c0-1.2,0-2.5,0-3.7c0-0.5-0.2-0.8-0.6-0.8c-0.4,0.1-0.6,0.4-0.6,0.9c0,1,0,2.1,0,3.2
	c0,0.1,0,0.3,0,0.4c-1,0-2,0-3,0c0-0.2,0-0.3,0-0.5c0-2.2,0-4.4,0-6.6c0-1-0.6-1.7-1.6-1.7c-1.4,0-2.9,0-4.3,0c-1,0-1.6,0.6-1.6,1.8
	c0,2.2,0,4.4,0,6.6c0,0.2,0,0.3,0,0.5c-1.1,0-2,0-3,0v-0.1c0-3.4,0-6.7,0-10.1c0-0.3,0.1-0.6,0.3-0.8c2-2,4.1-4,6.1-6
	c0.3-0.2,0.4-0.2,0.7,0c2,2,4.1,4,6.1,6c0.2,0.2,0.3,0.5,0.3,0.8c0,1.1,0,2.1,0,3.2c0,0.5,0.2,0.8,0.6,0.8c0.3,0,0.6-0.3,0.6-0.8
	c0-1,0-2,0-3c0.1-0.9-0.2-1.5-0.8-2.1c-2-1.9-4-3.9-6-5.8c-0.8-0.8-1.5-0.8-2.4,0c-2,2-4,3.9-6,5.9c-0.6,0.6-0.8,1.2-0.8,2
	c0,3,0,6.1,0,9.1c0,0.3,0,0.6,0,0.9c-1.4,0-2.8-0.1-4.4-0.3c-0.6,0-0.6,0-0.6-0.6C11.7,28.3,11.6,22,11.3,15.9z M22.1,35
	c0-2.2,0-4.3,0-6.5c0-0.5,0.1-0.6,0.5-0.6c1.4,0,2.7,0,4.1,0c0.3,0,0.4,0.1,0.4,0.4c0,2.3,0,4.6,0,6.9c0,0.1,0,0.1,0,0.2
	c-1.7,0-3.3,0-5,0C22.1,35.3,22.1,35.1,22.1,35z"/>
</svg>
