<?xml version="1.0" encoding="utf-8"?>
<!-- Generator: Adobe Illustrator 23.0.0, SVG Export Plug-In . SVG Version: 6.00 Build 0)  -->
<svg version="1.0" id="Layer_1" xmlns="http://www.w3.org/2000/svg" xmlns:xlink="http://www.w3.org/1999/xlink" x="0px" y="0px"
	 viewBox="0 0 50 50" enable-background="new 0 0 50 50" xml:space="preserve">
<path fill="#FFFFFF" d="M29.6,2.5c1.4,0.6,2.1,1.6,1.8,3.1c-0.1,0.7-0.3,1.4-0.6,2c-0.8,1.4-1.6,2.8-2.4,4.3
	c-0.1,0.2-0.2,0.3-0.3,0.5c0.7,0.2,1.3,0.4,1.9,0.7c1.1,0.4,2.2,0.8,3.3,1.2c0.7,0.3,1.3,0.8,1.5,1.5c0.4,1.1,0.9,2.3,1.3,3.5
	c0.2,0.5,0.1,0.9-0.3,1c-0.3,0.2-0.6,0-0.8-0.5c-0.4-1.1-0.9-2.2-1.3-3.3c-0.2-0.6-0.5-0.9-1.1-1.1c-1.2-0.4-2.4-0.9-3.7-1.3
	c-0.1,0-0.2-0.1-0.4-0.1c0.1,0.2,0.1,0.3,0.2,0.4c1,2.3,1.9,4.7,2.8,7.1c0.4,0.9,0.4,1.8,0,2.7c-2,5-3.9,10.1-5.7,15.2
	c-0.1,0.3-0.1,0.5,0,0.8c0.7,1.6,1.3,3.2,2,4.8c0.4,0.9,1,1.2,1.8,0.7c3.8-2.2,7.6-4.4,11.4-6.6c0.8-0.5,1-1.2,0.7-2.1
	c-1.9-4.6-3.7-9.2-5.5-13.9c0-0.1-0.1-0.3-0.1-0.4c-0.1-0.4,0-0.8,0.3-0.9c0.3-0.1,0.6,0,0.8,0.4c0.6,1.5,1.2,3.1,1.8,4.6
	c1.2,3.2,2.5,6.4,3.8,9.5c0.7,1.5,0,3.1-1.3,3.9c-3.8,2.2-7.5,4.5-11.3,6.7c-1.4,0.9-2.8,0-3.4-1.3c-0.5-1.3-1.1-2.6-1.6-3.9
	c0,0,0,0-0.1-0.1c0,0.1-0.1,0.2-0.1,0.3c-0.4,1.1-0.9,2.3-1.2,3.4c-0.2,0.9-1,2-2,2.2c-0.3,0-0.6,0-0.8,0c-2.4-1.2-4.8-2.5-7.2-3.7
	c-0.6-0.3-0.8-0.6-0.6-1c0.2-0.4,0.5-0.4,1-0.1c2.2,1.1,4.4,2.3,6.5,3.4c1,0.5,1.5,0.2,1.9-0.9c2.6-7.1,5.1-14.3,7.9-21.4
	c0.2-0.6,0.2-1.1,0-1.6c-1.1-2.7-2.2-5.4-3.3-8.1c-0.3-0.6-0.7-1.1-1.3-1.4c-0.1,0.6-0.1,1.1-0.2,1.6c0,0.1,0.1,0.2,0.2,0.3
	c0.7,0.7,0.9,1.7,0.6,2.6c-0.4,0.9-1.2,1.5-2.1,1.4c-0.9-0.1-1.6-0.8-1.8-1.7c-0.3-1.2,0.4-2.4,1.6-2.7c0.3-0.1,0.4-0.2,0.4-0.4
	c0-0.4,0.1-0.8,0.1-1.2c-0.2,0.1-0.4,0.1-0.5,0.2c-2.6,1.1-5.2,2.2-7.7,3.3c-0.4,0.2-0.7,0.5-0.9,1c-2.3,7-4.6,14.1-7.2,21
	c-0.4,0.9-0.1,1.6,0.8,2.1c0.7,0.3,1.3,0.7,2,1c0.4,0.2,0.6,0.6,0.4,1c-0.1,0.3-0.5,0.4-0.9,0.2c-0.7-0.4-1.4-0.7-2.1-1.1
	c-1.3-0.7-1.8-2.2-1.3-3.5c2.6-7,4.8-14.1,7.1-21.1c0.3-0.8,0.7-1.3,1.5-1.7c2.6-1.1,5.2-2.3,7.9-3.3c0.2-0.1,0.4-0.2,0.6-0.2
	c0.5,0,0.6-0.3,0.6-0.7c0.3-1.5,0.6-3,0.9-4.5c0.1-0.3,0.2-0.7,0.4-1c0.5-1.2,1.4-2.2,2.6-2.5C29,2.5,29.3,2.5,29.6,2.5z M26.9,11.6
	c1.1-1.7,2.2-3.4,2.9-5.2C30,6,30.1,5.5,30.1,5c0-0.5-0.2-0.9-0.6-1.1c-0.5-0.2-0.9-0.1-1.3,0.3c-0.4,0.4-0.8,0.9-1,1.4
	c-0.6,1.8-0.9,3.6-1.2,5.5C26.3,11.3,26.6,11.5,26.9,11.6z M24.5,17.1c0.5,0,0.9-0.4,0.8-0.9c0-0.5-0.4-0.9-0.8-0.9
	c-0.5,0-0.8,0.4-0.8,0.9C23.7,16.7,24,17.1,24.5,17.1z"/>
<path fill="#FFFFFF" d="M20.3,23.6c0.6-1.9,1-2.4,1.8-2.2c0.8,0.3,0.9,0.9,0.5,2.9c0.2,0.1,0.4,0.2,0.7,0.3c1,0.5,1.5,1.6,1.3,2.7
	c-0.1,0.7-0.4,1.1-1.1,1.1c-0.6,0-1.1-0.3-1.2-1c-0.1-0.5-0.3-0.7-0.7-0.8c-0.5-0.2-1-0.4-1.6-0.5c-0.5-0.1-0.9,0-1.1,0.6
	c-0.1,0.6,0.1,1,0.6,1.2c0.4,0.2,0.8,0.3,1.2,0.4c1.7,0.6,2.6,2.1,2.4,4c-0.2,1.8-1.5,2.9-3.2,2.9c-0.1,0-0.2,0-0.3,0
	c-0.4,0.9-0.3,2.6-1.8,2.1c-1.4-0.5-0.6-1.8-0.5-2.8c-0.3-0.1-0.5-0.2-0.8-0.4c-1-0.5-1.4-1.7-1.2-2.8c0.1-0.6,0.5-1,1.1-1
	c0.6,0,1,0.3,1.1,0.9c0.1,0.6,0.4,0.7,0.8,0.9c0.5,0.1,0.9,0.3,1.4,0.5c0.5,0.2,0.9,0.1,1.1-0.5c0.2-0.6-0.1-1.1-0.7-1.3
	c-0.4-0.2-0.8-0.3-1.2-0.4c-1.6-0.6-2.5-2.2-2.3-4c0.2-1.7,1.4-2.9,3.2-2.9C20,23.6,20.1,23.6,20.3,23.6z"/>
<path fill="#FFFFFF" d="M39.2,37.1c-0.1,0.2-0.3,0.5-0.4,0.5c-0.2,0.1-0.4-0.1-0.6-0.2c-0.1,0-0.1-0.2-0.2-0.3
	c-1.1-2.7-2.2-5.5-3.3-8.2c0-0.1-0.1-0.2-0.1-0.4c-0.1-0.3,0-0.6,0.3-0.8c0.3-0.2,0.5-0.1,0.7,0.2c0.1,0.1,0.1,0.2,0.2,0.3
	c1.1,2.8,2.2,5.5,3.3,8.2C39,36.7,39.1,36.9,39.2,37.1z"/>
</svg>
