<?xml version="1.0" encoding="utf-8"?>
<!-- Generator: Adobe Illustrator 23.0.0, SVG Export Plug-In . SVG Version: 6.00 Build 0)  -->
<svg version="1.0" id="_x30_" xmlns="http://www.w3.org/2000/svg" xmlns:xlink="http://www.w3.org/1999/xlink" x="0px" y="0px"
	 viewBox="0 0 50 50" enable-background="new 0 0 50 50" xml:space="preserve">
<g>
	<g>
		<g>
			<path fill-rule="evenodd" clip-rule="evenodd" fill="#FFFFFF" d="M46.8,32.8C46.8,32.7,46.9,32.7,46.8,32.8
				c0.3-1.3,0.4-1.9,0.7-3.1c0,0,0,0,0,0c0,0,0,0,0-0.1c0,0,0-0.1,0-0.1c0,0,0,0,0,0c0,0,0,0,0,0c0,0,0,0,0,0c0,0,0,0,0-0.1
				c0,0,0-0.1,0-0.1c0,0,0,0,0,0c0,0-0.1,0-0.1-0.1c0,0,0,0,0,0c0,0,0,0,0,0c0,0,0,0,0,0c0,0,0,0,0,0c-4.5-2.2-6.6-3.1-10.7-4.8
				c1.2-0.5,1.8-0.7,3.1-1.2c0,0,0,0,0,0c0,0,0,0,0,0c0,0,0,0,0,0c0.1,0,0.1-0.1,0.2-0.1c0,0,0,0,0.1-0.1c0,0,0.1-0.1,0.1-0.1
				c0,0,0-0.1,0.1-0.1c0,0,0,0,0-0.1c0.4-1.7,0.5-2.6,1-4.4c0,0,0,0,0,0c0,0,0,0,0-0.1c0,0,0-0.1,0-0.1c0,0,0,0,0,0c0,0,0,0,0,0
				c0,0,0,0,0,0c0,0,0,0,0-0.1c0,0,0-0.1,0-0.1c0,0,0,0,0,0c0,0,0,0-0.1,0c0,0,0,0,0,0c0,0,0,0,0,0c0,0,0,0,0,0c0,0,0,0,0,0
				c-1.6-0.6-2.3-0.8-3.9-1.4c0.4-1.7,0.6-2.5,1-4.3c0,0,0,0,0,0c0,0,0,0,0-0.1c0,0,0-0.1,0-0.1c0,0,0,0,0,0c0,0,0,0,0,0
				c0,0,0,0,0,0c0,0,0,0,0-0.1c0,0,0-0.1,0-0.1c0,0,0,0,0,0c0,0,0,0-0.1,0c0,0,0,0-0.1,0c0,0,0,0,0,0c0,0,0,0,0,0c0,0,0,0,0,0
				c-4.2-1.5-6.3-2.4-11.2-4.4c0,0,0,0,0,0c0,0-0.1,0-0.1,0c0,0-0.1,0-0.1,0c0,0,0,0-0.1,0c-0.1,0-0.1,0-0.2,0c0,0,0,0,0,0
				c-4.5,1.8-6.5,2.7-10.4,4.2c0,0,0,0,0,0c0,0,0,0,0,0c0,0,0,0,0,0c0,0,0,0,0,0c0,0,0,0,0,0c0,0,0,0-0.1,0c0,0-0.1,0-0.1,0.1
				c0,0,0,0,0,0c0,0,0,0.1,0,0.1c0,0,0,0,0,0.1c0,0,0,0,0,0c0,0,0,0,0,0c0,0,0,0,0,0c0,0,0,0.1,0,0.1c0,0,0,0,0,0.1c0,0,0,0,0,0
				c0.3,1.8,0.5,2.6,0.8,4.3c-2.1,0.8-3.1,1.2-5.2,1.9c0,0,0,0,0,0c0,0,0,0,0,0c0,0,0,0,0,0c0,0,0,0,0,0c0,0,0,0,0,0c0,0,0,0-0.1,0
				c0,0-0.1,0-0.1,0.1c0,0,0,0,0,0c0,0,0,0,0,0.1c0,0,0,0,0,0.1c0,0,0,0,0,0c0,0,0,0,0,0c0,0,0,0,0,0c0,0,0,0.1,0,0.1c0,0,0,0,0,0.1
				c0,0,0,0,0,0c0.4,1.8,0.6,2.6,0.9,4.3c0,0,0,0,0,0c0,0,0,0.1,0.1,0.1c0,0,0,0.1,0.1,0.1c0,0,0,0.1,0.1,0.1c0.1,0,0.1,0.1,0.2,0.1
				c0,0,0,0,0,0c0,0,0,0,0,0c0,0,0,0,0,0c0.8,0.3,1.1,0.4,1.9,0.7c-4.3,1.8-6.5,2.8-11.3,5.1c0,0,0,0,0,0c0,0,0,0,0,0c0,0,0,0,0,0
				c0,0,0,0,0,0c0,0,0,0,0,0c0,0,0,0,0,0c0,0-0.1,0-0.1,0.1c0,0,0,0,0,0c0,0,0,0.1,0,0.1c0,0,0,0,0,0c0,0,0,0,0,0c0,0,0,0,0,0
				c0,0,0,0,0,0c0,0,0,0.1,0,0.1c0,0,0,0,0,0.1c0,0,0,0,0,0c0.3,1.2,0.4,1.8,0.6,3c0,0,0,0,0,0.1c0,0,0,0.1,0.1,0.1
				c0,0,0.1,0.1,0.1,0.1c0,0,0,0.1,0.1,0.1c0.1,0,0.1,0.1,0.2,0.1c0,0,0,0,0,0c0,0,0,0,0,0c0,0,0,0,0,0c10.5,3.5,13.3,4.9,21.3,9.6
				c0,0,0,0,0,0c0.1,0,0.1,0,0.2,0c0.1,0,0.1,0,0.2,0c0,0,0,0,0,0c8-4.7,10.7-6.1,21.3-9.6c0,0,0,0,0,0c0,0,0,0,0,0c0,0,0,0,0,0
				c0.1,0,0.1,0,0.2-0.1c0,0,0,0,0.1-0.1c0,0,0.1-0.1,0.1-0.1C46.8,32.9,46.8,32.8,46.8,32.8z M3.8,30.4c10.5,3.5,13.2,4.7,20.7,8.9
				c0,0.8,0,1.2,0,2c-7.6-4.4-10.3-5.7-20.4-9C4,31.5,4,31.2,3.8,30.4z M25.4,39.3c7.5-4.2,10.2-5.4,20.7-8.9
				c-0.2,0.7-0.2,1.1-0.3,1.9c-10.1,3.3-12.8,4.7-20.4,9C25.4,40.5,25.4,40.1,25.4,39.3z M35.2,23.9c-1.8,0.7-2.6,1-4.2,1.7
				c0.1-1.2,0.1-1.8,0.3-3.1c3.1-1.3,4.7-1.9,8.6-3.5c-0.3,1.3-0.4,2-0.7,3.3C37.5,23,36.7,23.3,35.2,23.9
				C35.2,23.9,35.2,23.9,35.2,23.9z M15.5,23.7C15.5,23.7,15.5,23.6,15.5,23.7c-1-0.4-1.6-0.6-2.7-1.1c-0.2-1.3-0.3-1.9-0.6-3.2
				c4.1,1.7,5.8,2.3,9.1,3.7c0.1,1.2,0.1,1.8,0.1,3C19.2,25.2,18.1,24.7,15.5,23.7z M26.4,8.4c4.1,1.7,6,2.5,9.6,3.8
				c-3.9,1.6-5.6,2.3-8.8,3.6c-3.5-1.4-5.4-2.2-9.5-3.9C20.9,10.7,22.6,10,26.4,8.4z M30.8,21.7c-1-0.4-1.6-0.6-2.6-1.1
				c3-1.2,4.6-1.9,8.1-3.3c1.1,0.4,1.7,0.6,2.8,1.1C35.5,19.8,33.9,20.5,30.8,21.7z M16.9,12.8c4.3,1.8,6.1,2.5,9.7,3.9
				c0,1.3-0.1,2-0.1,3.2c-3.4-1.4-5.1-2.1-9.1-3.7C17.2,14.9,17.1,14.2,16.9,12.8z M36,16.4c-3.7,1.5-5.4,2.2-8.5,3.5
				c0.1-1.2,0.1-1.9,0.2-3.2c3.3-1.4,5.1-2.1,9.1-3.7C36.4,14.4,36.2,15.1,36,16.4z M17,17.1c3.8,1.6,5.5,2.3,8.7,3.6
				c-1.6,0.7-2.4,1-3.9,1.6c-3.2-1.4-4.9-2-8.9-3.7C14.5,18,15.3,17.7,17,17.1z M22.3,23.1c1.6-0.7,2.4-1,4.1-1.7c0,1.2,0,1.8-0.1,3
				c-1.6,0.7-2.4,1-4,1.7C22.4,24.9,22.4,24.3,22.3,23.1z M27.4,21.4c1.2,0.5,1.7,0.7,2.9,1.2c-0.1,1.2-0.1,1.8-0.2,3
				c-1.1-0.5-1.6-0.7-2.8-1.2C27.3,23.2,27.4,22.6,27.4,21.4z M19.3,26.2c-0.2,0.1-0.2,0.1-0.4,0.2c0.2,0.2,0.2,0.3,0.4,0.5
				c0.3-0.1,0.5-0.2,0.8-0.3c0.7,0.3,1.1,0.5,1.8,0.8c0,0,0,0,0,0c0.1,0,0.1,0,0.2,0s0.1,0,0.2,0c0,0,0,0,0,0c1.8-0.8,2.7-1.2,4.7-2
				c1.4,0.6,2.1,0.9,3.5,1.5c0,0,0,0,0,0c0.1,0,0.1,0,0.2,0c0.1,0,0.1,0,0.2,0c0,0,0,0,0,0c0.4-0.2,0.6-0.2,1-0.4
				c0.3,0.1,0.5,0.2,0.8,0.4c0.2-0.2,0.3-0.3,0.4-0.5c-0.2-0.1-0.2-0.1-0.4-0.2c1.1-0.4,1.7-0.7,2.8-1.1c4,1.7,5.9,2.6,10.2,4.7
				C35.1,33,32.4,34.3,25,38.3c-7.4-4-10.1-5.3-20.5-8.8c4.6-2.2,6.7-3.2,10.9-5C17,25.2,17.8,25.6,19.3,26.2z"/>
			<path fill-rule="evenodd" clip-rule="evenodd" fill="#FFFFFF" d="M17.1,27.8c-0.3-0.1-0.4-0.2-0.7-0.3c-0.4,0.2-0.6,0.3-0.9,0.5
				c0.3,0.1,0.5,0.1,0.8,0.2C16.6,28.1,16.8,28,17.1,27.8z"/>
			<path fill-rule="evenodd" clip-rule="evenodd" fill="#FFFFFF" d="M18.6,27.1c-0.2-0.2-0.3-0.2-0.5-0.4c-0.4,0.2-0.6,0.3-0.9,0.5
				c0.2,0.1,0.4,0.2,0.6,0.3C18.1,27.4,18.3,27.3,18.6,27.1z"/>
			<path fill-rule="evenodd" clip-rule="evenodd" fill="#FFFFFF" d="M14.7,30.2c0.4,0.2,0.6,0.3,1,0.4c0.3-0.1,0.4-0.1,0.7-0.2
				c-0.3-0.1-0.5-0.2-0.9-0.4C15.2,30.1,15,30.2,14.7,30.2z"/>
			<path fill-rule="evenodd" clip-rule="evenodd" fill="#FFFFFF" d="M13.2,29.5c0,0.1,0.1,0.1,0.2,0.1c0.2,0.1,0.3,0.1,0.5,0.2
				c0.4,0,0.5-0.1,0.9-0.1c-0.2-0.1-0.3-0.1-0.5-0.2c-0.1,0-0.2,0-0.2-0.1c-0.1-0.1-0.1-0.2,0-0.2c-0.4,0-0.6,0-1,0
				C13.1,29.3,13.1,29.5,13.2,29.5z"/>
			<path fill-rule="evenodd" clip-rule="evenodd" fill="#FFFFFF" d="M15.6,28.5c-0.3-0.1-0.5-0.1-0.8-0.1c-0.4,0.2-0.6,0.3-0.9,0.5
				c0.4,0,0.6,0,0.9,0.1C15.1,28.8,15.3,28.7,15.6,28.5z"/>
			<path fill-rule="evenodd" clip-rule="evenodd" fill="#FFFFFF" d="M20.9,32.4c-0.3-0.2-0.5-0.2-0.8-0.4c-0.1,0.2-0.2,0.3-0.3,0.5
				c0.4,0.2,0.5,0.3,0.9,0.5C20.8,32.8,20.8,32.6,20.9,32.4z"/>
			<path fill-rule="evenodd" clip-rule="evenodd" fill="#FFFFFF" d="M18.1,31.8c0.4,0.2,0.6,0.3,0.9,0.4c0.2-0.2,0.2-0.3,0.4-0.5
				c-0.3-0.1-0.5-0.2-0.8-0.4C18.4,31.5,18.3,31.6,18.1,31.8z"/>
			<path fill-rule="evenodd" clip-rule="evenodd" fill="#FFFFFF" d="M16.5,31c0.4,0.2,0.6,0.3,0.9,0.4c0.2-0.1,0.3-0.2,0.6-0.4
				c-0.3-0.1-0.5-0.2-0.8-0.4C16.8,30.8,16.7,30.9,16.5,31z"/>
			<path fill-rule="evenodd" clip-rule="evenodd" fill="#FFFFFF" d="M25.5,32c-0.1-0.2-0.1-0.4-0.2-0.6c-0.3,0.2-0.5,0.2-0.8,0.4
				c0.1,0.2,0.1,0.4,0.2,0.6C25,32.2,25.2,32.1,25.5,32z"/>
			<path fill-rule="evenodd" clip-rule="evenodd" fill="#FFFFFF" d="M24,32.7c-0.1-0.2-0.1-0.4-0.2-0.6c-0.3,0.2-0.5,0.2-0.8,0.4
				c0.1,0.3,0.1,0.4,0.2,0.6C23.5,33,23.7,32.9,24,32.7z"/>
			<path fill-rule="evenodd" clip-rule="evenodd" fill="#FFFFFF" d="M22.4,33.5c0-0.3,0-0.4-0.1-0.7c-0.3,0.2-0.6,0-0.8-0.1
				c0,0.3-0.1,0.4-0.1,0.7C21.7,33.5,22.1,33.8,22.4,33.5z"/>
			<path fill-rule="evenodd" clip-rule="evenodd" fill="#FFFFFF" d="M30,33c0-0.3,0-0.4,0.1-0.7c-0.2-0.1-0.2-0.1-0.4-0.2
				c-0.2-0.1-0.2-0.1-0.4-0.2c-0.1,0.2-0.1,0.4-0.2,0.6c0.2,0.1,0.3,0.2,0.5,0.3C29.7,32.9,29.8,33,30,33z"/>
			<path fill-rule="evenodd" clip-rule="evenodd" fill="#FFFFFF" d="M28.6,31.6c-0.3-0.2-0.5-0.3-0.9-0.4c-0.1,0.3-0.1,0.4-0.2,0.6
				c0.3,0.2,0.5,0.2,0.8,0.4C28.4,32,28.5,31.8,28.6,31.6z"/>
			<path fill-rule="evenodd" clip-rule="evenodd" fill="#FFFFFF" d="M26.9,31.5c0-0.3,0-0.4,0.1-0.7c-0.3-0.1-0.6,0.1-0.9,0.2
				c0.1,0.3,0.1,0.4,0.1,0.7C26.4,31.6,26.7,31.4,26.9,31.5z"/>
			<path fill-rule="evenodd" clip-rule="evenodd" fill="#FFFFFF" d="M34.4,30.7c-0.3,0.1-0.4,0.2-0.7,0.3c0.3,0.2,0.4,0.2,0.7,0.4
				c0.3-0.1,0.5-0.2,0.8-0.3c0.1,0,0.1-0.1,0.2-0.1c-0.3-0.1-0.5-0.2-0.9-0.3C34.5,30.6,34.4,30.6,34.4,30.7z"/>
			<path fill-rule="evenodd" clip-rule="evenodd" fill="#FFFFFF" d="M33.6,31.7c-0.2-0.2-0.3-0.3-0.6-0.5c-0.3,0.1-0.5,0.2-0.8,0.4
				c0.2,0.2,0.2,0.3,0.4,0.5C33,32,33.2,31.9,33.6,31.7z"/>
			<path fill-rule="evenodd" clip-rule="evenodd" fill="#FFFFFF" d="M31.8,32.5c-0.1-0.2-0.2-0.4-0.3-0.6c-0.3,0.1-0.5,0.2-0.8,0.4
				c0,0.3,0,0.4,0.1,0.7C31.2,32.7,31.4,32.7,31.8,32.5z"/>
			<path fill-rule="evenodd" clip-rule="evenodd" fill="#FFFFFF" d="M36.9,28.8c0.4,0,0.6,0,1-0.1c-0.4-0.2-0.6-0.3-0.9-0.5
				c-0.3,0.1-0.5,0.1-0.9,0.1C36.4,28.5,36.6,28.6,36.9,28.8z"/>
			<path fill-rule="evenodd" clip-rule="evenodd" fill="#FFFFFF" d="M37.6,29.4c-0.1,0.1-0.1,0.1-0.2,0.1c-0.2,0.1-0.3,0.1-0.5,0.2
				c0.4,0,0.6,0.1,1,0.1c0.2-0.1,0.3-0.1,0.5-0.2c0.1,0,0.2-0.1,0.2-0.1c0.1-0.1,0.1-0.2,0-0.3c-0.4,0-0.6,0-1,0
				C37.6,29.2,37.6,29.3,37.6,29.4z"/>
			<path fill-rule="evenodd" clip-rule="evenodd" fill="#FFFFFF" d="M35.3,30.3c0.4,0.1,0.5,0.2,0.9,0.3c0.4-0.2,0.6-0.3,0.9-0.4
				c-0.4-0.1-0.6-0.1-0.9-0.2C35.8,30.1,35.6,30.2,35.3,30.3z"/>
			<path fill-rule="evenodd" clip-rule="evenodd" fill="#FFFFFF" d="M34.5,27c-0.4-0.2-0.6-0.3-0.9-0.5c-0.2,0.2-0.3,0.3-0.5,0.4
				c0.3,0.2,0.5,0.2,0.8,0.4C34.1,27.2,34.3,27.2,34.5,27z"/>
			<path fill-rule="evenodd" clip-rule="evenodd" fill="#FFFFFF" d="M36.2,27.9c-0.4-0.2-0.6-0.3-0.9-0.5c-0.3,0.1-0.4,0.2-0.7,0.3
				c0.3,0.2,0.5,0.2,0.8,0.4C35.7,28,35.9,27.9,36.2,27.9z"/>
		</g>
	</g>
</g>
</svg>
