<?xml version="1.0" encoding="utf-8"?>
<!-- Generator: Adobe Illustrator 23.0.0, SVG Export Plug-In . SVG Version: 6.00 Build 0)  -->
<svg version="1.0" id="Layer_1" xmlns="http://www.w3.org/2000/svg" xmlns:xlink="http://www.w3.org/1999/xlink" x="0px" y="0px"
	 viewBox="0 0 50 50" enable-background="new 0 0 50 50" xml:space="preserve">
<path fill="#FFFFFF" d="M21.7,7.9c4.2,0,7.7,3.5,7.6,7.9c0,4.4-3.4,8-7.6,8c-4.2,0-7.6-3.5-7.7-7.9C14.1,11.5,17.4,7.9,21.7,7.9z
	 M17.5,10.6c-2.3,1.8-3,5.4-1.7,8.1c1.3,2.9,4.4,4.5,7.4,3.8c2.7-0.6,5-3.4,5-6c-0.2,0-0.3,0-0.5,0c-1.9,0-3.8,0-5.7,0
	c-0.5,0-0.8-0.2-1.1-0.6C19.9,14.1,18.7,12.4,17.5,10.6z M18.3,10c1.1,1.7,2.3,3.3,3.4,5c1.4-1.5,2.8-3,4.2-4.4
	C24.2,8.7,20.4,8.4,18.3,10z M26.8,11.4c-1.3,1.3-2.6,2.6-3.8,3.9c1.7,0,3.5,0,5.3,0C28.2,13.9,27.7,12.5,26.8,11.4z"/>
<path fill="#FFFFFF" d="M18.4,30.8c-0.8,0-1.6,0-2.4,0c-0.5,0-0.7-0.2-0.7-0.6c0-0.3,0.2-0.5,0.7-0.5c1.6,0,3.3,0,4.9,0
	c0.5,0,0.7,0.2,0.7,0.5c0,0.4-0.2,0.5-0.7,0.5C20,30.8,19.2,30.8,18.4,30.8z"/>
<path fill="#FFFFFF" d="M18.9,35.4c-0.4,0-0.9,0-1.3,0c-0.3,0-0.6-0.2-0.6-0.5c0-0.4,0.3-0.5,0.6-0.5c0.9,0,1.7,0,2.6,0
	c0.3,0,0.6,0.2,0.6,0.5c0,0.4-0.3,0.5-0.6,0.5C19.8,35.4,19.3,35.4,18.9,35.4z"/>
<path fill="#FFFFFF" d="M14.4,34.3c0.4,0,0.7,0,1.1,0c0.3,0,0.6,0.2,0.5,0.5c0,0.4-0.2,0.5-0.6,0.5c-0.7,0-1.4,0-2.1,0
	c-0.3,0-0.6-0.2-0.5-0.5c0-0.4,0.2-0.5,0.6-0.5C13.7,34.3,14,34.3,14.4,34.3z"/>
<path fill="#FFFFFF" d="M30.6,39.4c0.6,0,1-0.5,1-1.1c0-0.6-0.5-1-1-1c-0.6,0-1,0.5-1,1.1C29.6,39,30,39.5,30.6,39.4z"/>
<path fill="#FFFFFF" d="M36.5,43c0-0.6-0.5-1.1-1-1c-0.6,0-1,0.5-1,1.1c0,0.6,0.5,1,1,1C36.1,44.1,36.5,43.6,36.5,43z"/>
<path fill="#FFFFFF" d="M35.5,24.7c2.1,0,4.2,0,6.3,0c0.6,0,0.8,0.1,0.8,0.8c0,0.9,0,1.8,0,2.6c0,0.5-0.2,0.7-0.7,0.7
	c-4.3,0-8.6,0.1-12.9,0.1c-0.5,0-0.7-0.2-0.7-0.7c0-0.9,0-1.8,0-2.7c0-0.6,0.2-0.8,0.7-0.8C31.2,24.7,33.3,24.7,35.5,24.7z
	 M29.3,27.8c4,0,8.1,0,12,0c0-0.7,0-1.3,0-2c-4,0-8,0-12.1,0C29.3,26.5,29.3,27.2,29.3,27.8z"/>
<path fill="#FFFFFF" d="M30.6,44.2c-0.6,0-1-0.5-1-1.1c0-0.6,0.5-1,1-1.1c0.6,0,1,0.5,1,1.1C31.6,43.7,31.2,44.2,30.6,44.2z"/>
<path fill="#FFFFFF" d="M40.4,43.9c-0.6,0-1-0.4-1-1c0-0.6,0.5-1.1,1-1.1c0.6,0,1,0.4,1,1C41.4,43.5,41,43.9,40.4,43.9z"/>
<path fill="#FFFFFF" d="M41.3,38.2c0,0.6-0.4,1.1-1,1.1c-0.6,0-1-0.4-1-1c0-0.6,0.4-1.1,1-1.1C40.9,37.1,41.3,37.6,41.3,38.2z"/>
<path fill="#FFFFFF" d="M30.6,39.4c-0.6,0-1-0.5-1-1.1c0-0.6,0.5-1.1,1-1.1c0.5,0,1,0.5,1,1C31.6,38.9,31.2,39.4,30.6,39.4z"/>
<path fill="#FFFFFF" d="M40.3,34.6c-0.6,0-1-0.5-1-1c0-0.6,0.5-1.1,1-1.1c0.5,0,1,0.5,1,1C41.3,34.1,40.9,34.6,40.3,34.6z"/>
<path fill="#FFFFFF" d="M35.4,34.7c-0.6,0-1-0.5-1-1c0-0.6,0.5-1.1,1-1.1c0.5,0,1,0.5,1,1C36.4,34.2,36,34.6,35.4,34.7z"/>
<path fill="#FFFFFF" d="M36.5,43c0,0.6-0.4,1.1-1,1.1c-0.6,0-1-0.4-1-1c0-0.6,0.4-1.1,1-1.1C36,41.9,36.5,42.4,36.5,43z"/>
<path fill="#FFFFFF" d="M36.5,38.3c0,0.6-0.4,1.1-1,1.1c-0.6,0-1-0.4-1-1c0-0.6,0.4-1.1,1-1.1C36,37.2,36.5,37.7,36.5,38.3z"/>
<path fill="#FFFFFF" d="M30.6,34.7c-0.6,0-1-0.5-1-1.1c0-0.6,0.5-1.1,1-1.1c0.5,0,1,0.5,1,1C31.6,34.2,31.1,34.7,30.6,34.7z"/>
<path fill="#FFFFFF" d="M44.8,25.4c0-1.7-1.1-2.8-2.7-2.8c-2.1,0-4.2,0-6.2,0c-0.2,0-0.3,0-0.5,0c0-0.2,0-0.4,0-0.6
	c0-3.6,0.1-7.2,0.2-10.8c0-0.5-0.1-1-0.5-1.3c-2.1-2.3-4.2-4.5-6.3-6.8c-0.3-0.4-0.7-0.5-1.2-0.5c-6.1,0-12.2,0.1-18.4,0.3
	c-0.9,0-1.5,0.7-1.5,1.6c0,0.4,0,0.9,0.1,1.4c-0.5,0-0.9,0-1.3,0.1C5.5,5.9,4.9,6.5,5,7.5C5,7.7,5,9.7,5.1,9.9
	c0.5,10.6,0.5,21.3,0.2,31.9c0,1.3,0.5,1.9,1.8,1.9c6.1,0.3,12.1,0.4,18.2,0.4c0.2,0,0.3,0,0.5,0c0,0.4,0,0.9,0.1,1.3
	c0,0.4,0.6,1.1,0.7,1.3c0.6,0.6,1.3,0.8,2,0.8c4.6-0.1,9.1-0.2,13.7-0.4c1.7-0.1,2.7-1.3,2.7-3C44.9,37.9,44.8,31.6,44.8,25.4z
	 M28.4,4.2c1.9,2,3.6,3.9,5.4,5.9c-1.1,0-2.1,0-3.1-0.1c-1.3-0.1-2.3-1.3-2.3-2.7C28.4,6.3,28.4,5.3,28.4,4.2z M25.8,43
	c-0.1,0-0.3,0-0.5,0c-6.1,0-12.2-0.1-18.3-0.4c-0.7,0-0.8-0.1-0.7-0.8C6.5,30.5,6.4,19,6,7.7C6,7,6,6.9,6.7,6.9c0.3,0,0.7,0,1.1,0
	c0,0.3,0,0.5,0,0.6C8.3,18,8.4,28.7,8.2,39.3c0,1.3,0.5,1.8,1.7,1.8c5.1,0.2,10.2,0.2,15.4,0.2c0.2,0,0.3,0,0.5,0
	C25.8,41.9,25.8,42.4,25.8,43z M25.8,25.4c0,1.5,0,2.9,0,4.4c0,0,0,0,0,0c0,0,0,0,0,0c0,0,0,0,0,0c0,0,0,0,0,0c0,0,0,0,0,0
	c-0.8,0-1.6,0-2.4,0c-0.1,0-0.4,0.3-0.4,0.5c0,0.2,0.2,0.5,0.4,0.5c0.8,0,1.6,0,2.4,0c0,1.1,0,2.3,0,3.5c-0.4,0-0.8,0-1.2,0
	c-0.8,0-1.5,0-2.3,0c-0.4,0-0.6,0.2-0.6,0.5c0,0.4,0.2,0.5,0.6,0.5c1.1,0,2.3,0,3.4,0c0,1.6,0,3.2,0,4.8c-0.2,0-0.3,0-0.5,0
	c-5.1,0-10.3-0.1-15.4-0.2c-0.7,0-0.7-0.1-0.7-0.8c0.1-11.5,0-23.1-0.4-34.6c0-0.7,0-0.8,0.7-0.8C15.3,3.7,21,3.6,26.8,3.6
	c0.2,0,0.3,0,0.5,0c0,0.7,0,1.3,0,1.9c0,0.8,0,1.6,0.1,2.4c0.3,1.9,1.8,3.2,3.6,3.2c1.2,0,2.3,0,3.5,0c-0.1,3.8-0.1,7.5-0.1,11.3
	c-0.2,0-0.3,0-0.5,0c-1.8,0-3.6,0-5.3,0C26.9,22.5,25.8,23.7,25.8,25.4z M42.3,46.1c-4.5,0.2-9.1,0.3-13.6,0.4
	c-1.2,0-1.9-0.6-1.9-1.9c0-4.4,0-8.7,0-13.1c0-0.2,0-0.3,0-0.5c5.7,0,11.4,0,17-0.1c0,0.2,0,0.3,0,0.4c0,4.3,0.1,8.6,0.2,13
	C44.1,45.3,43.5,46,42.3,46.1z M43.9,29.6c-5.7,0.1-11.3,0.1-17,0.1c0-0.1,0-0.3,0-0.4c0-1.3,0-2.7,0-4c0-1.1,0.7-1.8,1.7-1.8
	c4.5,0,9.1,0,13.6,0c1.1,0,1.7,0.7,1.7,1.8C43.9,26.8,43.9,28.2,43.9,29.6z"/>
</svg>
