<?xml version="1.0" encoding="utf-8"?>
<!-- Generator: Adobe Illustrator 23.0.0, SVG Export Plug-In . SVG Version: 6.00 Build 0)  -->
<svg version="1.0" id="Layer_1" xmlns="http://www.w3.org/2000/svg" xmlns:xlink="http://www.w3.org/1999/xlink" x="0px" y="0px"
	 viewBox="0 0 50 50" enable-background="new 0 0 50 50" xml:space="preserve">
<path fill="#FFFFFF" d="M45.4,43.4c-0.7,1-1.3,1.4-2.1,1.4c-11.9,1.1-24.6,1.1-36.5,0c-1.2-0.1-1.8-0.7-2.4-2.1
	c-0.6-1.4-1.1-2.9-1.6-4.3c-0.3-0.7-0.2-1.3,0.1-1.7C4.7,33.9,7.1,31,9.9,28c0.5-0.5,1-0.8,1.8-0.7c0.4,0,0.8,0,1.3,0
	c-0.2-1.8-0.4-3.5-0.6-5.3c-1.2,0.3-1.9-0.4-2.6-1.1c-0.2-0.2-0.4-0.4-0.5-0.5c-1-1-1.1-1.9-0.1-2.8c2-1.8,4-3.7,6.2-5.6
	c2.6-2.3,5.4-4.6,8.2-6.9c1.1-0.9,2.1-0.9,3.1,0c1.6,1.3,3.2,2.6,4.7,3.9c0.1,0.1,0.3,0.2,0.5,0.4c0-0.3,0-0.5,0.1-0.6
	c0.1-0.9,0.9-1.6,1.9-1.6c1,0,1.9,0,2.9,0.1c1.3,0.1,2,0.8,2,1.9c-0.1,1.3,0,2.6-0.3,3.9c-0.3,1.5,0.1,2.5,1.4,3.4
	c0.5,0.3,0.9,0.8,1.3,1.2c0.8,0.8,0.8,1.8-0.1,2.7c-0.3,0.3-0.7,0.6-1,0.9c-0.8,0.8-1.2,0.9-2.3,0.8c-0.2,1.7-0.4,3.5-0.6,5.3
	c0.5,0,1,0,1.5,0c0.7,0,1.2,0.2,1.6,0.7c2.6,2.9,4.9,5.7,6.8,8.4c0.3,0.4,0.6,0.8,0.5,1.4C46.8,39.6,46.1,41.5,45.4,43.4z M25,11
	c-0.1,0.1-0.2,0.1-0.2,0.2c-3.7,3-7.2,6.1-10.5,9.1c-0.2,0.1-0.2,0.4-0.2,0.7c0.3,3.7,0.7,7.5,1.1,11.2c0.1,0.9,0.4,1.2,1.2,1.2
	c1.1,0,2.1,0,3.2,0c0.4,0,0.8,0,1.3,0c0-0.3,0-0.4,0-0.6c-0.1-2.1-0.2-4.2-0.3-6.2c-0.1-1.7,1-2.8,2.7-2.8c1,0,2,0,3.1,0
	c2,0,3,1,2.9,3c-0.1,2-0.2,4-0.3,6c0,0.2,0,0.4,0,0.5c0.1,0,0.1,0.1,0.2,0.1c1.5,0,3,0,4.5,0c0.6,0,0.9-0.4,1-1.1
	c0.4-3.8,0.8-7.5,1.1-11.3c0-0.2-0.1-0.5-0.3-0.7c-0.7-0.7-1.5-1.4-2.2-2.1C30.7,15.8,27.9,13.4,25,11z M4.1,38.1
	c14,0.5,27.7,0.5,41.7,0c0-0.1,0-0.1,0-0.1c-1.9-2.8-4.3-5.8-7-8.8c-0.1-0.1-0.2-0.2-0.3-0.2c-0.5,0-1.1,0-1.7,0
	c-0.1,1.1-0.3,2.1-0.4,3.1c-0.1,0.4-0.1,0.7-0.3,1.1c-0.5,1.2-1.5,1.9-2.7,1.9c-5.6,0.1-11.2,0.1-16.8,0c-0.1,0-0.2,0-0.3,0
	c-1.3-0.1-2.4-1.1-2.7-2.6c-0.1-0.8-0.2-1.5-0.3-2.3c-0.1-0.4-0.1-0.8-0.2-1.2c-0.4,0-0.7,0-1,0c-0.5-0.1-0.9,0.1-1.2,0.5
	c-1.8,2-3.5,4-5,5.9C5.4,36.3,4.7,37.1,4.1,38.1z M45.3,39.8c-13.7,0.5-27,0.5-40.6,0C5,40.9,5.4,42,5.8,43.1
	c13,0.7,25.4,0.7,38.3,0C44.5,42,44.9,40.9,45.3,39.8z M11.6,20.3c0.2-0.2,0.3-0.3,0.5-0.4c1.7-1.6,3.5-3.3,5.4-4.9
	c2.1-1.9,4.4-3.7,6.6-5.6c0.7-0.6,1.1-0.6,1.8,0C26,9.4,26,9.5,26.1,9.6c3.8,3.1,7.4,6.2,10.7,9.3c0.5,0.5,1,1,1.6,1.5
	c0.5-0.5,0.9-0.9,1.4-1.3c-4.5-4.3-9.5-8.6-14.8-12.8c-5.3,4.3-10.3,8.6-14.8,12.8C10.7,19.4,11.1,19.8,11.6,20.3z M27.3,33.4
	c0-0.1,0.1-0.1,0.1-0.2c0.1-2.2,0.1-4.5,0.2-6.8c0-0.6-0.3-0.9-1-0.9c-1,0-2,0-3.1,0c-0.9,0-1.2,0.3-1.2,1.2c0,2.1,0.1,4.1,0.2,6.2
	c0,0.2,0,0.3,0,0.5C24.2,33.4,25.8,33.4,27.3,33.4z M36.7,9c-1,0-1.9-0.1-2.9-0.1c0,0.7-0.1,1.3-0.1,1.9c0,0.1,0,0.2,0.1,0.3
	c0.9,0.7,1.7,1.5,2.6,2.3C36.5,11.8,36.6,10.4,36.7,9z"/>
</svg>
