<?xml version="1.0" encoding="utf-8"?>
<!-- Generator: Adobe Illustrator 23.0.0, SVG Export Plug-In . SVG Version: 6.00 Build 0)  -->
<svg version="1.0" id="Layer_1" xmlns="http://www.w3.org/2000/svg" xmlns:xlink="http://www.w3.org/1999/xlink" x="0px" y="0px"
	 viewBox="0 0 50 50" enable-background="new 0 0 50 50" xml:space="preserve">
<path fill="#FFFFFF" d="M12.6,46.9c-0.8-0.4-1.6-0.6-2.3-1.1c-1.9-1.4-2.6-3.3-2.3-5.6c0.7-8,1.1-15.9,0.9-23.9
	C8.9,12.5,8.7,8.7,8.4,4.9C8.4,4.1,8.6,3.7,9.2,3.6C9.7,3.5,10,3.9,10,4.7c0,0.4,0,0.8,0.1,1.3c0.6-0.1,1.2-0.1,1.8-0.2
	c0.2,0,0.4,0,0.6,0c0.5,0,0.7,0.3,0.7,0.8c0,0.4-0.3,0.8-0.7,0.8c-0.7,0.1-1.4,0.1-2.1,0.2c-0.1,0-0.1,0-0.2,0c0,0.5,0,1.1,0.1,1.6
	c0.1,0,0.3,0,0.4,0C11.8,9.1,13,9,14.1,9c0.5,0,0.8,0.3,0.8,0.7c0,0.4-0.3,0.8-0.7,0.9c-0.1,0-0.2,0-0.4,0c-1,0.1-2,0.1-3.1,0.2
	c-0.1,0-0.3,0-0.4,0c0,0.6,0,1.1,0.1,1.6c0.6,0,1.2-0.1,1.8-0.1c0.2,0,0.4,0,0.6,0c0.4,0.1,0.7,0.4,0.7,0.8c0,0.4-0.3,0.8-0.7,0.8
	c-0.5,0.1-0.9,0.1-1.4,0.1c-0.3,0-0.6,0-0.9,0.1c0,0.6,0,1.1,0,1.7c0.4,0,0.8,0,1.1-0.1c0.9,0,1.8-0.1,2.7-0.1
	c0.4,0,0.7,0.3,0.8,0.8c0,0.5-0.3,0.8-0.8,0.9c-0.1,0-0.2,0-0.3,0c-1,0-2,0.1-3,0.1c-0.1,0-0.3,0-0.4,0c0,0.6,0,1.1,0,1.7
	c0.7,0,1.3,0,2-0.1c0.2,0,0.3,0,0.5,0c0.4,0.1,0.5,0.4,0.5,0.8c0,0.4-0.2,0.7-0.6,0.8c-0.4,0.1-0.9,0.1-1.4,0.1c-0.4,0-0.7,0-1.1,0
	c0,1.4,0,2.8-0.1,4.2c0.7-0.2,1.4-0.3,2-0.5c1.2-0.4,2.4-0.3,3.6,0.1c0.6,0.2,1.2,0.5,1.8,0.7c0.7,0.3,1.5,0.2,2.3,0
	c1-0.3,2.1-0.6,3.1-0.9c1.2-0.4,2.3-0.4,3.5,0c1,0.3,2,0.6,3,0.9c0.9,0.3,1.9,0.2,2.8-0.1c0.6-0.2,1.1-0.4,1.7-0.6
	c1.2-0.4,2.3-0.3,3.5,0c0.6,0.2,1.2,0.3,1.8,0.5c0-0.2,0-0.4,0-0.5c-0.1-6.6,0-13.2,0.4-19.8c0-0.2,0-0.5,0.1-0.7
	c0.1-0.3,0.4-0.5,0.8-0.4c0.3,0.1,0.6,0.3,0.7,0.7c0,0.2,0,0.4,0,0.5c-0.5,12-0.3,23.5,0.5,35.5c0.3,3-1.4,5.6-4.4,6.5
	c-0.1,0-0.1,0.1-0.1,0.1C29.2,47.7,20.9,47.7,12.6,46.9z M9.8,42.4c0,0.1,0,0.2,0,0.2c0.1,0.1,0.1,0.3,0.2,0.4
	c0.8,1.4,2,2.1,3.5,2.3c7.6,0.7,15.2,0.7,22.8,0c2.6-0.2,4.2-2.3,4-4.8c-0.4-4.4-0.6-8.8-0.8-13.2c0-0.1,0-0.3,0-0.5
	c-0.9-0.2-1.8-0.5-2.7-0.7c-0.8-0.2-1.7-0.1-2.5,0.2c-0.5,0.2-1,0.4-1.5,0.6c-1,0.4-2.1,0.5-3.2,0.3c-1.2-0.3-2.4-0.7-3.7-1
	c-0.6-0.1-1.3-0.2-1.8-0.1c-1.2,0.3-2.5,0.6-3.7,1c-0.7,0.2-1.5,0.3-2.2,0.1c-0.9-0.3-1.8-0.6-2.7-0.9c-0.7-0.2-1.4-0.4-2.1-0.3
	c-1,0.2-2.1,0.5-3.1,0.7C10.3,31.4,10,36,9.6,40.6c0.2,0,0.3,0,0.5,0c1.2,0.1,2.3,0.2,3.5,0.3c0.5,0,0.9,0.4,0.9,0.9
	c0,0.5-0.4,0.8-1,0.8c-0.7,0-1.4-0.1-2.2-0.2C10.8,42.5,10.3,42.4,9.8,42.4z"/>
<path fill="#FFFFFF" d="M16.8,42c0,0.5-0.4,0.9-0.8,0.8c-0.4,0-0.8-0.4-0.8-0.9c0-0.5,0.4-0.8,0.8-0.8C16.5,41.2,16.8,41.6,16.8,42z
	"/>
</svg>
