<?xml version="1.0" encoding="utf-8"?>
<!-- Generator: Adobe Illustrator 23.0.0, SVG Export Plug-In . SVG Version: 6.00 Build 0)  -->
<svg version="1.0" id="Layer_1" xmlns="http://www.w3.org/2000/svg" xmlns:xlink="http://www.w3.org/1999/xlink" x="0px" y="0px"
	 viewBox="0 0 50 50" enable-background="new 0 0 50 50" xml:space="preserve">
<path fill="#FFFFFF" d="M46.3,23.5c-0.2,0.3-0.3,0.6-0.6,0.9c-0.5,0.5-1.1,0.6-1.7,0.4c-0.6-0.2-0.9-0.7-1-1.5c0-0.2,0-0.4,0-0.6
	c0.2-3,0.5-6.1,0.7-9.1c0.2-2.3-1.1-3.8-3.5-3.9c-0.6,0-1.3,0-2-0.1c0,0.6-0.1,1.2-0.1,1.8c-0.2,1.4-1.6,2.1-2.8,1.4
	c-0.5-0.4-0.8-0.9-0.7-1.5c0-0.6,0.1-1.1,0.1-1.7c-2.7,0-5.3-0.1-8.1-0.1c0,0.5,0,1,0,1.6c0,1.1-0.7,1.9-1.7,1.9
	c-1,0-1.8-0.8-1.8-1.9c0-0.5,0-1,0-1.6c-2.7,0-5.3,0-8,0.1c0,0.5,0.1,1,0.1,1.6c0,1.1-0.6,1.9-1.6,1.9c-1,0-1.8-0.7-1.9-1.8
	c0-0.5-0.1-1-0.1-1.7c-1,0.1-2.1,0-3,0.3c-1.6,0.4-2.5,1.8-2.4,3.4c0,0.4,0.1,0.9,0.1,1.3C7,23.1,7.6,31.5,7.8,39.9
	c0,1.5,0.6,2.7,1.9,3.4c0.5,0.3,1.1,0.4,1.6,0.4C15.2,43.9,19.1,44,23,44c0.5,0,1,0.1,1.3,0.6c0.4,0.5,0.5,1.1,0.3,1.8
	c-0.2,0.7-0.7,1-1.3,1.1c-0.1,0-0.2,0-0.3,0c-3.9,0-7.9-0.1-11.8-0.3c-3.1-0.1-5.6-2.5-6.3-5.8c-0.1-0.4-0.2-0.8-0.2-1.2
	c-0.4-8.9-1-17.9-2-26.8c-0.4-3.3,1.7-6.1,5-6.8C8.4,6.3,9.2,6.3,10,6.3c0.4,0,0.9,0,1.4,0c0-0.5,0-0.9-0.1-1.3
	c-0.2-1.1,0.2-1.8,1.3-2.2c0.2,0,0.5,0,0.7,0c1.1,0.3,1.6,1.1,1.6,2.1c0,0.4,0,0.9,0.1,1.3C17.7,6,20.4,6,23.1,6c0-0.5,0-0.9,0-1.3
	c-0.1-1.1,0.4-1.8,1.5-2.2c0.2,0,0.5,0,0.7,0c1.1,0.4,1.5,1.1,1.5,2.2c0,0.4,0,0.9,0,1.3c2.8,0,5.5,0,8.2,0.1c0-0.5,0.1-0.9,0.1-1.3
	c0-1.1,0.5-1.8,1.6-2.1c0.2,0,0.5,0,0.7,0c1.1,0.4,1.5,1.1,1.3,2.2c-0.1,0.4-0.1,0.9-0.1,1.3c0.9,0,1.7,0,2.6,0.1
	c2.8,0.3,4.8,1.7,5.8,4.1c0.3,0.7,0.3,1.5,0.5,2.2C47,16.3,46.6,19.9,46.3,23.5z"/>
<path fill="#FFFFFF" d="M45.4,37.4c-0.3,1-0.5,2-0.8,2.9c-1.7,4.5-6.2,7.6-10.5,6.9c-3.8-0.6-6.4-3-7.5-7.1c-1.2-4.2-0.3-7.9,2.6-11
	c2.7-2.8,6.2-3.6,9.7-2.5c3.8,1.2,5.9,4,6.4,8.1c0,0.3,0.1,0.6,0.1,0.9C45.4,36.3,45.4,36.9,45.4,37.4z M42.2,36.7
	c0.2-3.8-2.6-6.9-6.3-6.9c-3.6,0-6.6,3.2-6.7,7.1c-0.1,3.9,2.8,7.1,6.3,7C39.1,43.8,42.1,40.5,42.2,36.7z"/>
<path fill="#FFFFFF" d="M15.6,21c0,1-0.7,1.8-1.6,1.8c-0.9,0-1.7-0.8-1.8-1.7c0-0.9,0.7-1.7,1.6-1.8C14.8,19.3,15.6,20,15.6,21z"/>
<path fill="#FFFFFF" d="M23,21c0,1-0.7,1.8-1.6,1.8c-0.9,0-1.7-0.8-1.7-1.8c0-0.9,0.7-1.7,1.6-1.8C22.2,19.2,22.9,20,23,21z"/>
<path fill="#FFFFFF" d="M30.3,21c0,1-0.8,1.8-1.7,1.7c-0.9,0-1.7-0.8-1.6-1.8c0-0.9,0.8-1.7,1.7-1.7C29.5,19.2,30.3,20,30.3,21z"/>
<path fill="#FFFFFF" d="M37.6,21c0,1-0.8,1.7-1.8,1.7c-0.9,0-1.6-0.8-1.6-1.8c0-0.9,0.8-1.7,1.7-1.7C36.9,19.3,37.6,20.1,37.6,21z"
	/>
<path fill="#FFFFFF" d="M14.3,30.3c-0.9,0-1.7-0.8-1.7-1.8c0-1,0.7-1.7,1.6-1.7c0.9,0,1.6,0.8,1.7,1.7
	C15.9,29.6,15.2,30.4,14.3,30.3z"/>
<path fill="#FFFFFF" d="M23,28.6c0,1-0.7,1.8-1.6,1.8c-0.9,0-1.6-0.8-1.7-1.8c0-0.9,0.7-1.7,1.6-1.7C22.2,26.9,23,27.6,23,28.6z"/>
<path fill="#FFFFFF" d="M14.5,37.9c-0.9,0-1.6-0.8-1.6-1.8c0-1,0.7-1.7,1.6-1.7c0.9,0,1.6,0.8,1.6,1.8C16.1,37.2,15.4,38,14.5,37.9z
	"/>
<path fill="#FFFFFF" d="M23.1,36.3c0,1-0.7,1.8-1.6,1.7c-0.9,0-1.6-0.8-1.6-1.8c0-0.9,0.7-1.7,1.6-1.7
	C22.3,34.5,23.1,35.3,23.1,36.3z"/>
<path fill="#FFFFFF" d="M37.4,35c0.3,0,0.5,0,0.8,0c0.9,0,1.5,0.8,1.5,1.7c0,0.9-0.7,1.7-1.6,1.8c-0.8,0-1.6,0.1-2.3,0
	c-0.9,0-1.5-0.7-1.5-1.7c0-1.2,0-2.4,0.1-3.6c0-1,0.8-1.7,1.7-1.7c0.9,0,1.5,0.7,1.5,1.7C37.5,33.8,37.4,34.4,37.4,35z"/>
</svg>
