<?xml version="1.0" encoding="utf-8"?>
<!-- Generator: Adobe Illustrator 23.0.0, SVG Export Plug-In . SVG Version: 6.00 Build 0)  -->
<svg version="1.0" id="Layer_1" xmlns="http://www.w3.org/2000/svg" xmlns:xlink="http://www.w3.org/1999/xlink" x="0px" y="0px"
	 viewBox="0 0 50 50" enable-background="new 0 0 50 50" xml:space="preserve">
<path fill="#FFFFFF" d="M34,10.5c0.7-0.4,1.4-0.7,2.1-1.1c0.4-0.2,0.6-0.2,0.9-0.1c2.5,1.1,5,2.2,7.4,3.4c0.3,0.2,0.4,0.4,0.4,0.8
	c-0.6,3.3-1,6.5-1.4,9.8c0,0.4-0.2,0.7-0.6,0.8c-0.5,0.3-1,0.6-1.6,0.9c0.5,0.3,0.9,0.6,1.3,0.8c0.3,0.2,0.4,0.5,0.4,0.9
	c-0.3,3.3-0.5,6.5-0.7,9.8c0,0.4-0.2,0.6-0.5,0.8c-2.3,1.2-4.6,2.4-6.9,3.6c-0.3,0.1-0.5,0.1-0.8,0c-0.5-0.4-1.1-0.7-1.7-1.1
	c0,0.6,0,1.2,0,1.7c0,0.5-0.1,0.7-0.5,0.9c-2.2,1.2-4.4,2.4-6.6,3.7c-0.3,0.2-0.6,0.2-0.9,0c-2.2-1.3-4.4-2.5-6.6-3.7
	c-0.4-0.2-0.5-0.4-0.5-0.9c0-0.5,0-1.1,0-1.7c-0.6,0.4-1.1,0.7-1.7,1.1c-0.3,0.2-0.6,0.2-0.9,0.1c-2.2-1.2-4.5-2.4-6.8-3.5
	c-0.3-0.2-0.5-0.4-0.5-0.8c-0.1-3.3-0.4-6.5-0.7-9.8c0-0.4,0.1-0.7,0.4-0.8c0.5-0.3,0.9-0.5,1.4-0.8c-0.6-0.3-1.1-0.6-1.6-0.9
	c-0.3-0.2-0.5-0.4-0.5-0.8c-0.4-3.3-0.8-6.6-1.4-9.9c-0.1-0.4,0-0.6,0.3-0.7c2.4-1.1,4.8-2.2,7.4-3.4c0.3-0.1,0.6-0.1,0.9,0.1
	c0.7,0.4,1.4,0.7,2.1,1.1c-0.1-0.6-0.1-1.2-0.2-1.7c-0.1-0.4,0.1-0.7,0.5-0.9c2.6-1.1,5.3-2.3,8-3.5c0.5-0.2,0.8-0.2,1.3,0
	c2.8,1.2,5.4,2.4,8,3.5c0.5,0.2,0.6,0.5,0.6,0.9C34.1,9.4,34.1,9.9,34,10.5z M32.2,20.5c-0.2,0.1-0.3,0.1-0.4,0.2
	c-2,1.1-4,2.1-5.9,3.2c-0.3,0.1-0.4,0.3-0.3,0.6c0,2.5,0,5,0,7.5c0,0.1,0,0.2,0,0.4c0.1-0.1,0.3-0.1,0.4-0.2c1.9-1,3.7-2.1,5.6-3.1
	c0.3-0.1,0.3-0.3,0.4-0.6c0.1-2.5,0.2-5.1,0.3-7.6C32.2,20.8,32.2,20.6,32.2,20.5z M43.6,14.3c-0.2,0.1-0.3,0.2-0.4,0.2
	c-2.2,1.3-4.4,2.5-6.6,3.6c-0.3,0.1-0.4,0.3-0.4,0.6c-0.2,2.6-0.4,5.2-0.6,7.8c0,0.1,0,0.2,0,0.3c0.1,0,0.1,0,0.1,0
	c2.1-1.1,4.2-2.3,6.4-3.5c0.1-0.1,0.2-0.3,0.3-0.5c0.2-1.3,0.3-2.6,0.5-4C43.1,17.4,43.3,15.9,43.6,14.3z M42,27.4
	c-0.2,0.1-0.3,0.2-0.5,0.2c-2,1.1-3.9,2.1-5.8,3.1c-0.3,0.1-0.3,0.3-0.4,0.6c-0.1,2.6-0.2,5.2-0.2,7.8c0,0.1,0,0.3,0,0.4
	c0.1,0,0.1,0,0.1,0c2-1,3.9-2.1,5.9-3.1c0.1,0,0.2-0.2,0.2-0.3C41.6,33.2,41.7,30.3,42,27.4z M25.5,44.7c0.1,0,0.2-0.1,0.2-0.1
	c1.9-1.1,3.8-2.1,5.7-3.2c0.2-0.1,0.2-0.3,0.2-0.5c0-2.6,0-5.1,0.1-7.7c0-0.1,0-0.2,0-0.4c-0.1,0-0.1,0-0.1,0c-2,1.1-4,2.2-5.9,3.3
	c-0.1,0.1-0.2,0.3-0.2,0.4c0,1.2,0,2.4,0,3.6C25.5,41.7,25.5,43.2,25.5,44.7z M14.4,27c0-0.2,0-0.3,0-0.5c-0.2-2.6-0.3-5.2-0.6-7.7
	c0-0.3-0.1-0.5-0.4-0.6c-1.8-0.9-3.5-1.9-5.4-3c-0.5-0.3-1-0.6-1.6-0.9c0,0.2,0.1,0.4,0.1,0.6c0.4,2.5,0.7,5,1,7.5
	c0.1,0.6,0.3,1,0.8,1.2C10.4,24.7,12.3,25.9,14.4,27z M24.5,32.4c0-0.1,0-0.2,0-0.2c0-2.6,0-5.2,0-7.8c0-0.3-0.1-0.4-0.3-0.5
	c-2-1-3.9-2.1-6-3.2c-0.1-0.1-0.2-0.1-0.4-0.2c0.1,2.8,0.3,5.5,0.4,8.2c0,0.1,0.1,0.3,0.3,0.3c0.6,0.3,1.2,0.7,1.8,1
	C21.6,30.8,23,31.6,24.5,32.4z M8,27.4c0,0.1,0,0.2,0,0.3c0.2,2.8,0.4,5.6,0.5,8.4c0,0.3,0.1,0.4,0.3,0.5c1.9,1,3.8,2,5.7,3
	c0.1,0,0.2,0.1,0.3,0.1c0-2.8-0.1-5.6-0.2-8.4c0-0.1-0.1-0.3-0.2-0.3c-0.7-0.4-1.4-0.8-2.1-1.1C10.9,29,9.5,28.2,8,27.4z M18.3,32.9
	c0,0.1,0,0.1,0,0.1c0.1,2.7,0.1,5.4,0.1,8.1c0,0.1,0.1,0.3,0.3,0.4c1.8,1,3.7,2,5.5,3.1c0.1,0.1,0.2,0.1,0.3,0.1c0-0.1,0-0.1,0-0.1
	c0-2.7,0-5.3,0-8c0-0.1-0.1-0.3-0.2-0.4c-0.7-0.4-1.3-0.8-2-1.1C21,34.3,19.7,33.6,18.3,32.9z M32.3,8.6c-0.1-0.1-0.1-0.1-0.2-0.1
	c-2.2-1-4.5-2-6.9-3.1c-0.2-0.1-0.5,0-0.6,0c-2.3,1-4.5,2-6.6,3c-0.1,0-0.2,0.1-0.3,0.2c0.2,0.1,0.4,0.2,0.6,0.3c2.1,1,4.1,2,6,3
	c0.6,0.3,1,0.3,1.5,0C27.9,10.9,30,9.8,32.3,8.6z M6.9,13.4c0.1,0.1,0.1,0.1,0.2,0.1c2.4,1.3,4.6,2.6,6.9,3.8c0.1,0.1,0.4,0.1,0.6,0
	c1.9-1,3.9-2,6-3c0.1-0.1,0.2-0.1,0.4-0.2c-2.3-1.2-4.7-2.4-7.2-3.7c-0.1-0.1-0.3,0-0.4,0c-0.5,0.2-1.1,0.5-1.6,0.7
	C10.1,11.9,8.5,12.6,6.9,13.4z M29.2,14.1c0.1,0.1,0.1,0.1,0.2,0.1c2.1,1.1,4.2,2.1,6.2,3.1c0.1,0.1,0.4,0,0.6-0.1
	c1.8-0.9,3.6-1.9,5.4-3c0.5-0.3,1-0.6,1.6-0.9c-0.2-0.1-0.3-0.2-0.5-0.2c-1.7-0.8-3.4-1.5-5.1-2.4c-0.8-0.4-1.4-0.3-2.2,0.1
	C33.3,12.1,31.2,13.1,29.2,14.1z M18.4,19.6c0.1,0.1,0.1,0.1,0.2,0.1c2.1,1.1,4.2,2.2,6.3,3.3c0.1,0.1,0.4,0.1,0.5,0
	c2-1,4-2.1,6.1-3.2c0.1-0.1,0.2-0.1,0.3-0.2c-2.1-1.1-4.2-2.2-6.4-3.3c-0.1-0.1-0.3,0-0.5,0c-0.7,0.3-1.4,0.7-2.1,1
	C21.2,18.1,19.8,18.8,18.4,19.6z M15.4,27c0.5-0.3,0.9-0.5,1.3-0.8c0.2-0.1,0.3-0.3,0.3-0.5c-0.1-1.9-0.2-3.9-0.3-5.8
	c0-0.5,0.1-0.7,0.5-0.9c1.3-0.7,2.7-1.4,4-2.1c0.1-0.1,0.3-0.2,0.3-0.3c0-0.5,0-1,0-1.5c-0.2,0.1-0.3,0.1-0.4,0.2c-2,1-4,2-5.9,3
	c-0.3,0.1-0.4,0.3-0.3,0.6c0.2,2.6,0.4,5.1,0.5,7.7C15.4,26.7,15.4,26.8,15.4,27z M34.6,26.9c0-0.1,0-0.2,0-0.2
	c0.1-2.7,0.3-5.3,0.5-8c0-0.3-0.1-0.4-0.3-0.5c-1.9-1-3.9-2-6-3c-0.1-0.1-0.2-0.1-0.4-0.2c0,0.5,0,0.9,0,1.3c0,0.3,0.1,0.4,0.3,0.6
	c1.4,0.7,2.7,1.4,4,2c0.4,0.2,0.6,0.5,0.5,0.9c-0.1,1.9-0.2,3.8-0.3,5.8c0,0.2,0,0.4,0.2,0.5C33.6,26.4,34.1,26.7,34.6,26.9z
	 M18.8,32c2.1,1.1,4.1,2.2,6,3.4c0.1,0.1,0.3,0,0.4,0c1-0.6,2-1.1,3.1-1.7c0.9-0.5,1.9-1,2.9-1.6c-0.4-0.2-0.7-0.4-1-0.6
	c-0.2-0.1-0.4-0.2-0.6,0c-1.4,0.8-2.7,1.5-4.1,2.3c-0.3,0.2-0.6,0.2-0.9,0c-1.4-0.8-2.7-1.5-4.1-2.3c-0.1-0.1-0.3-0.1-0.4-0.1
	C19.6,31.5,19.3,31.7,18.8,32z M19.1,30.6c-0.5-0.3-0.9-0.5-1.3-0.7c-0.1-0.1-0.3,0-0.4,0c-0.5,0.3-1,0.6-1.5,0.9
	c-0.2,0.1-0.3,0.3-0.3,0.5c0.1,2.6,0.2,5.2,0.2,7.8c0,0.1,0,0.2,0,0.4c0.5-0.3,0.9-0.6,1.3-0.8c0.2-0.1,0.3-0.3,0.3-0.6
	c0-2-0.1-3.9-0.1-5.8c0-0.4,0.1-0.7,0.5-0.9C18.2,31.2,18.6,30.9,19.1,30.6z M34.2,39.5c0-0.1,0-0.1,0-0.1c0-2.7,0.1-5.5,0.2-8.2
	c0-0.1-0.1-0.3-0.2-0.4c-0.5-0.3-1-0.6-1.6-0.9c-0.1,0-0.2-0.1-0.3-0.1c-0.5,0.2-0.9,0.5-1.4,0.8c0.5,0.3,0.9,0.6,1.3,0.8
	c0.4,0.2,0.6,0.5,0.5,1c-0.1,1.9-0.1,3.9-0.1,5.8c0,0.1,0,0.4,0.1,0.4C33.2,38.9,33.7,39.2,34.2,39.5z M22.6,16.2
	c0.6-0.3,1.1-0.6,1.6-0.8c0.1-0.1,0.2-0.2,0.2-0.3c0-0.5,0-1,0-1.5c0-0.2-0.1-0.4-0.3-0.5c-2.2-1.1-4.4-2.2-6.7-3.3
	c-0.1-0.1-0.2-0.1-0.4-0.2c0,0.4,0.1,0.7,0.1,1.1c0,0.4,0.2,0.7,0.6,0.9c1.5,0.7,2.9,1.5,4.3,2.2c0.4,0.2,0.6,0.4,0.5,0.8
	C22.6,15,22.6,15.5,22.6,16.2z M27.4,16.2c0-0.6,0.1-1.2,0-1.7c0-0.4,0.2-0.7,0.6-0.9c1.5-0.7,2.9-1.5,4.4-2.3
	c0.1-0.1,0.3-0.2,0.4-0.4c0.1-0.5,0.1-1,0.1-1.5c-0.2,0.1-0.3,0.1-0.4,0.2c-1.8,0.9-3.6,1.8-5.3,2.6c-0.6,0.3-1.3,0.5-1.6,0.9
	c-0.3,0.5-0.1,1.2-0.1,1.7c0,0,0,0.1,0,0.1c0,0.1,0.1,0.2,0.2,0.3C26.2,15.6,26.8,15.9,27.4,16.2z M41.5,26.5
	c-0.4-0.2-0.7-0.4-1.1-0.7c-0.2-0.1-0.4-0.1-0.6,0c-1.5,0.8-2.9,1.6-4.3,2.4c-0.3,0.2-0.6,0.2-0.9,0c-0.5-0.3-1.1-0.6-1.7-1
	c0,0.5-0.1,0.9,0,1.4c0,0.1,0.1,0.3,0.2,0.4c0.5,0.3,1.1,0.7,1.6,1c0.1,0.1,0.4,0.1,0.5,0c0.6-0.3,1.2-0.7,1.8-1
	C38.5,28.1,40,27.3,41.5,26.5z M8.5,26.5c2.2,1.2,4.3,2.4,6.4,3.5c0.1,0.1,0.3,0,0.4,0c0.6-0.3,1.1-0.7,1.7-1
	c0.1-0.1,0.2-0.2,0.2-0.3c0-0.4,0-0.9,0-1.4c-0.6,0.3-1.2,0.6-1.7,1c-0.3,0.2-0.6,0.2-0.9,0c-1.4-0.8-2.9-1.6-4.4-2.4
	c-0.1-0.1-0.3-0.1-0.5-0.1C9.3,25.9,8.9,26.2,8.5,26.5z"/>
</svg>
