<?xml version="1.0" encoding="utf-8"?>
<!-- Generator: Adobe Illustrator 23.0.0, SVG Export Plug-In . SVG Version: 6.00 Build 0)  -->
<svg version="1.0" id="Layer_1" xmlns="http://www.w3.org/2000/svg" xmlns:xlink="http://www.w3.org/1999/xlink" x="0px" y="0px"
	 viewBox="0 0 50 50" enable-background="new 0 0 50 50" xml:space="preserve">
<g>
	<path fill="#FFFFFF" d="M19.1,18.7c1,0,2,0,2.9,0c0.7,2,1.8,3,3.6,3c1.7,0,2.9-1,3.6-3c2,0,4,0,5.9,0.1c0.6,1.9,1.8,2.9,3.3,3
		c1.6,0,2.6-0.9,3.3-2.8c1.1,0,2.1,0.1,3,0.1c1.3,0,2.2-1,2.2-2.4c0-0.7,0-1.4,0-2.1c0-2.6-1.7-4.7-4.2-4.9
		c-0.7-0.1-1.3-0.4-1.6-1.1c-0.4-0.9-0.8-1.8-1.3-2.7c-1-2-2.7-3.1-5.1-3.2c-1.8-0.1-3.7-0.1-5.5,0c-2.4,0.1-4,1.1-5,3.1
		c-0.4,0.8-0.8,1.5-1.1,2.3c-0.3,0.8-0.9,1.2-1.9,1.3c-2.2,0.1-4,1.4-4.4,3.4c-0.3,1.3-0.3,2.6-0.2,4C16.6,17.9,17.8,18.7,19.1,18.7
		z M25.6,20.3c-1.2,0-2.1-0.9-2.1-2.1c0-1.1,0.9-2,2.1-2c1.1,0,2,0.9,2.1,2C27.7,19.3,26.7,20.3,25.6,20.3z M38.4,20.4
		c-1,0-1.9-1-1.9-2.1c0-1.1,0.8-1.9,1.9-1.9c1,0,1.9,1,1.9,2.1C40.3,19.5,39.4,20.4,38.4,20.4z M18.8,12.7c0,0.5,0,0.9,0,1.4
		c-0.1,0-0.2,0-0.3,0c-0.1,0-0.2,0-0.4,0C18,13,18.2,12.6,18.8,12.7z M18.4,15.7c0.1,0,0.3,0,0.4,0c0.9-0.1,1.5-0.7,1.5-1.5
		c0-0.5,0-1,0-1.5c0-0.6-0.4-1.1-1-1.4c0.6-0.5,1.2-0.7,1.8-0.7c1.6,0,2.7-0.8,3.3-2.2c0.3-0.8,0.7-1.6,1.1-2.4
		c0.8-1.5,2.1-2.3,3.9-2.3c1.7,0,3.3,0,5,0c1.8,0,3.2,0.8,4,2.4c0.5,0.9,0.9,1.8,1.3,2.7c0.6,1.2,1.5,1.9,2.8,2.1
		c1.9,0.2,3,1.5,3,3.5c0,0.7,0,1.3,0,2c0,0.7-0.4,1.1-1,1.1c-0.9,0-1.8-0.1-2.7-0.1c-0.2,0-0.4-0.2-0.4-0.3
		c-0.6-1.3-1.7-2.1-3.1-2.2c-1.4,0-2.4,0.6-3,2c-0.1,0.2-0.2,0.4-0.5,0.3c-1.8,0-3.6-0.1-5.4-0.1c-0.2,0-0.4-0.2-0.5-0.3
		c-0.7-1.4-1.7-2.1-3.3-2.1c-1.5,0-2.7,0.7-3.3,2.1c-0.1,0.2-0.3,0.3-0.5,0.3c-0.9,0-1.8,0-2.7,0c-0.7,0-1.1-0.5-1.1-1.1
		C18,15.8,18.1,15.7,18.4,15.7z"/>
	<path fill="#FFFFFF" d="M19.4,43.7c0.8,0,1.6,0,2.4,0c0.3,0,0.4,0.1,0.5,0.4c0.6,1.7,2.7,2.6,4.5,1.9c1.2-0.4,1.8-1.2,2.1-2.3
		c1.9,0,3.8,0,5.7-0.1c0.5,1.7,1.6,2.5,3.1,2.5c1.6,0,2.7-0.9,3.5-2.7c1,0,2-0.1,3-0.1c1.7-0.1,2.7-1.1,2.7-2.8c0-0.7,0-1.3,0-2
		c0-2.5-1.6-4.4-4-4.4c-0.8,0-1.2-0.4-1.5-1.1c-0.3-1-0.7-2-1.1-3c-0.9-2.1-2.4-3.3-4.7-3.4c-1.9-0.1-3.9-0.1-6,0
		c-2.6,0.1-4.4,1.4-5.5,3.8c-0.4,0.9-0.8,1.8-1.1,2.6c-0.3,0.9-0.9,1.3-1.9,1.4c-2.5,0.1-4.2,1.8-4.4,4c-0.1,0.9,0,1.8,0.1,2.7
		C16.8,42.6,17.9,43.6,19.4,43.7z M25.6,45c-1.1,0-2-0.8-2-1.8c0-1,0.9-1.8,2-1.8c1.1,0,1.9,0.8,1.9,1.8C27.5,44.2,26.6,45,25.6,45z
		 M37.9,44.9c-1,0-1.9-0.7-1.8-1.7c0-1,0.9-1.9,2-1.9c1.1,0,1.9,0.8,1.8,1.8C39.8,44,38.9,44.8,37.9,44.9z M20.4,38
		c0-0.5-0.2-0.8-1-1.4c0.5-0.4,1.1-0.6,1.8-0.7c1.6,0,2.7-0.8,3.3-2.2c0.4-0.9,0.7-1.7,1.1-2.6c0.8-2,2.3-3,4.4-3c1.7,0,3.4,0,5.1,0
		c1.9,0,3.2,0.9,4,2.7c0.4,0.9,0.8,1.9,1.1,2.8c0.5,1.3,1.4,1.9,2.7,1.9c1.8,0,2.8,1.2,2.8,3.1c0,0.7,0,1.3,0,2
		c0,0.7-0.4,1.2-1.1,1.2c-0.9,0.1-1.9,0.1-2.9,0.1c-0.3,0-0.4-0.1-0.5-0.3c-0.5-1.2-1.5-1.9-2.9-1.8c-1.4,0.1-2.5,0.8-3.1,2
		c-0.1,0.3-0.3,0.4-0.6,0.4c-1.7,0-3.4,0.1-5.1,0.1c-0.3,0-0.5-0.1-0.6-0.4c-0.6-1.2-1.6-1.9-3.1-1.9c-1.4,0-2.5,0.6-3.1,1.8
		c-0.2,0.3-0.4,0.4-0.7,0.4c-0.8,0-1.6,0-2.4,0c-0.7,0-1.1-0.5-1.2-1c0-0.2,0.1-0.3,0.3-0.3c0.2,0,0.5,0,0.7,0
		c0.7-0.1,1.1-0.6,1.1-1.3C20.4,39.1,20.4,38.5,20.4,38z M18.2,38.5c0-0.4,0.2-0.5,0.6-0.4c0,0.4,0,0.9,0,1.4c-0.3,0-0.5,0-0.8,0
		C18.1,39.1,18.2,38.8,18.2,38.5z"/>
	<path fill="#FFFFFF" d="M16.4,21.9c0,0.5,0,1,0,1.5c10.4,0,20.7,0,31.1,0.1c0-0.5,0-0.9,0-1.4C37.2,21.8,26.8,21.8,16.4,21.9z"/>
	<path fill="#FFFFFF" d="M17,47.5c10.1,0,20.3,0,30.4,0c0-0.5,0-0.9,0-1.4c-10.2,0.2-20.3,0.3-30.5,0.2C17,46.7,17,47.1,17,47.5z"/>
	<path fill="#FFFFFF" d="M13.9,20.3c-1.9,0-3.7,0.1-5.5,0.1c-1.8,0-3.6,0.1-5.2,0.2c-0.5,0-0.7,0.3-0.7,0.9c0,0.7,0,1.3,0,2
		c0,0.5,0.2,0.8,0.7,0.8c3.3,0,6.9,0,10.9,0c0.6,0,0.8-0.3,0.8-0.9c0-0.7,0-1.3,0-2C14.9,20.6,14.7,20.3,13.9,20.3z M13.4,22.6
		c-3.4,0-6.7,0.1-9.6,0.1c0-0.2,0-0.4,0-0.7c2.9-0.1,6.2-0.1,9.6-0.2C13.4,22.2,13.4,22.4,13.4,22.6z"/>
	<path fill="#FFFFFF" d="M14.4,44.2c-1.9-0.1-3.7-0.1-5.6-0.2C7,44,5.2,44,3.3,43.9c-0.6,0-0.8,0.2-0.8,0.8c0,0.7,0,1.3,0,2
		c0,0.5,0.3,0.8,0.8,0.8c3.8,0,7.6,0,11.4,0c0.5,0,0.8-0.2,0.8-0.7c0-0.5-0.1-1.1-0.1-1.7C15.4,44.5,15.1,44.3,14.4,44.2z M14,46.2
		c-3.4,0-6.7-0.1-10.1-0.1c0-0.2,0-0.4,0-0.6c3.3,0.1,6.6,0.1,10,0.2C14,45.8,14,46,14,46.2z"/>
	<path fill="#FFFFFF" d="M5.1,16.8c0.4,0,0.9,0,1.3-0.1c0-1,0.1-1.9,0.1-2.9c0.6,0,1.2-0.1,1.7-0.1c1.4-0.1,2.5-1.3,2.6-2.6
		c0.1-1.4-1-2.4-2.4-2.4c-0.7,0-1.5,0.1-2.2,0.1c-0.7,0-1,0.3-1,1c-0.1,2.2-0.1,4.3-0.2,6.5C5,16.5,5.1,16.7,5.1,16.8z M6.6,10.3
		c0.7,0,1.3-0.1,1.9-0.1c0.5,0,0.8,0.5,0.8,1.1c-0.1,0.5-0.5,1-1,1.1c-0.6,0.1-1.2,0.1-1.8,0.1C6.5,11.7,6.6,11,6.6,10.3z"/>
	<path fill="#FFFFFF" d="M6.5,37.6c0.6,0,1.1,0.1,1.6,0.1c1.5,0.1,2.6-1,2.5-2.5c-0.1-1.5-1.2-2.6-2.7-2.7c-0.7,0-1.4-0.1-2.1-0.1
		c-0.6,0-0.9,0.2-0.8,0.9c0,2.2,0.1,4.4,0.2,6.6c0,0.1,0,0.3,0,0.4c0.5,0,0.9,0,1.4,0.1C6.6,39.5,6.5,38.6,6.5,37.6z M6.4,33.9
		C7,34,7.6,34,8.2,34c0.5,0.1,1,0.6,1,1.1c0,0.6-0.4,1-0.9,1c-0.6,0-1.2-0.1-1.8-0.1C6.5,35.4,6.4,34.7,6.4,33.9z"/>
	<path fill="#FFFFFF" d="M14.6,6.4c-0.5,0-0.9,0-1.4,0C13,10.1,12.8,14,12.7,18c0.5,0,0.9,0,1.4,0C14.2,13.9,14.4,10,14.6,6.4z"/>
	<path fill="#FFFFFF" d="M14.1,30.4c-0.5,0-1,0-1.4,0c0,4.1,0.2,8,0.4,11.7c0.5,0,0.9,0,1.4,0.1C14.3,38.5,14.2,34.5,14.1,30.4z"/>
	<path fill="#FFFFFF" d="M26.7,11.2c1.8,0,3.6,0,5.4,0c1.8,0,3.6,0.1,5.4,0.2c1.3,0,1.9-1,1.2-2.2c-0.6-1-1.1-1.9-1.8-2.8
		c-0.7-1-1.8-1.6-3-1.6c-1.4,0-2.7,0-4.1,0c-1.3,0-2.3,0.5-3,1.5c-0.5,0.8-1.1,1.7-1.6,2.5C24.6,10.1,25.3,11.2,26.7,11.2z
		 M33.2,6.2C34.5,6,35.3,6.4,36,7.4c0.5,0.8,1,1.6,1.6,2.5c-1.4-0.1-2.8-0.1-4.2-0.2C33.3,8.6,33.3,7.4,33.2,6.2z M26.7,9.5
		c0.5-0.8,1-1.6,1.4-2.3c0.4-0.7,1.1-1,1.9-1c0.6,0,1.1,0,1.7,0c0,1.2,0.1,2.3,0.1,3.6c-0.9,0-1.7,0-2.6,0c-0.9,0-1.7,0-2.7,0
		C26.6,9.6,26.6,9.6,26.7,9.5z"/>
	<path fill="#FFFFFF" d="M26.8,36.6c1.8,0,3.7,0,5.5,0c1.8,0,3.6-0.1,5.4-0.2c1.2-0.1,2-1.2,1.5-2.3c-0.5-1-1-2.1-1.7-3.1
		c-0.7-1.1-1.7-1.6-2.9-1.6c-1.4,0-2.8,0-4.3,0c-1.3,0-2.4,0.6-3.2,1.8c-0.6,1-1.2,2-1.7,3C24.6,35.5,25.3,36.6,26.8,36.6z
		 M33.6,31.1c1.4-0.3,2.2,0.1,2.8,1.3c0.5,0.8,0.9,1.7,1.4,2.5C36.3,34.9,35,35,33.5,35C33.6,33.7,33.6,32.4,33.6,31.1z M28.4,32
		c0.3-0.5,0.9-0.9,1.6-0.9c0.7,0,1.4,0,2.1,0c0,1.3,0,2.7-0.1,4c-1.8,0-3.5,0-5.4,0C27.2,34,27.8,33,28.4,32z"/>
</g>
</svg>
