<?xml version="1.0" encoding="utf-8"?>
<!-- Generator: Adobe Illustrator 23.0.0, SVG Export Plug-In . SVG Version: 6.00 Build 0)  -->
<svg version="1.0" id="Layer_1" xmlns="http://www.w3.org/2000/svg" xmlns:xlink="http://www.w3.org/1999/xlink" x="0px" y="0px"
	 viewBox="0 0 50 50" enable-background="new 0 0 50 50" xml:space="preserve">
<path fill="#FFFFFF" d="M46.2,44c0,0.1-0.1,0.1-0.1,0.2c-0.3,0.6-0.8,0.9-1.4,0.8c-0.6-0.1-1-0.6-1-1.3c0-0.4,0-0.8,0-1.3
	c-12.8,0.3-25.5,0.3-38.3,0c0,0.4,0,0.7,0,1.1c0,0.8-0.4,1.3-1,1.4c-0.6,0.1-1.1-0.2-1.5-0.9c0,0,0,0-0.1-0.1c0-2,0.1-4,0.1-6
	c0-0.1,0.1-0.2,0.1-0.2c0.3-0.5,0.9-0.8,1.4-0.6c0.6,0.2,1,0.7,1,1.3c0,0.4,0,0.9,0,1.3c12.8,0.2,25.5,0.2,38.3,0c0-0.4,0-0.7,0-1.1
	c0-0.8,0.4-1.3,1-1.5c0.6-0.2,1.1,0.1,1.5,0.8c0,0,0,0,0.1,0C46.2,40,46.2,42,46.2,44z"/>
<path fill="#FFFFFF" d="M47.2,9.8c-0.1,0.1-0.1,0.1-0.2,0.2c-0.4,0.6-1,0.8-1.5,0.7c-0.6-0.2-1-0.7-1-1.3c0-0.4,0.1-0.8,0.1-1.3
	c-1.8-0.1-3.5-0.1-5.3-0.2c-0.4,8-0.7,15.9-0.8,24c0.4,0,0.8,0,1.2,0c0.8,0,1.3,0.6,1.3,1.3c0,0.8-0.6,1.3-1.4,1.3
	c-1.6,0-3.3,0-4.9,0.1c-0.8,0-1.3-0.6-1.3-1.3c0-0.8,0.6-1.3,1.4-1.3c0.4,0,0.8,0,1.2,0c0.1-8,0.3-16,0.6-24.1
	c-1.8,0-3.5-0.1-5.3-0.1c0,0.4,0,0.8,0,1.2c0,0.9-0.6,1.5-1.4,1.5c-0.8,0-1.3-0.6-1.3-1.5c0-0.8,0-1.6,0-2.5c0-0.9,0.6-1.4,1.5-1.4
	c5.4,0.1,10.7,0.2,16.1,0.4c0.7,0,1.1,0.4,1.4,1C47.4,7.6,47.3,8.7,47.2,9.8z"/>
<path fill="#FFFFFF" d="M2.5,22.2c0.3-0.8,0.9-1,1.7-1c3.2,0,6.4,0,9.6-0.1c1.1,0,1.5,0.5,1.6,1.6c0,0.8,0,1.5,0,2.3
	c0,0.8-0.5,1.4-1.3,1.4c-0.7,0-1.3-0.6-1.3-1.4c0-0.4,0-0.8,0-1.2c-0.9,0-1.7,0-2.5,0c0.1,2.6,0.1,5.3,0.1,8c0.4,0,0.7,0,1.1,0
	c0.8,0,1.4,0.6,1.4,1.3c0,0.8-0.6,1.3-1.4,1.3c-1.6,0-3.2,0-4.8-0.1c-0.8,0-1.4-0.6-1.4-1.3c0-0.8,0.6-1.3,1.4-1.3
	c0.4,0,0.7,0,1.1,0c0-2.7-0.1-5.3-0.2-7.9c-0.8,0-1.6,0-2.5,0c0,0.4,0,0.7,0,1.1c0,0.8-0.3,1.3-1,1.5c-0.6,0.1-1.1-0.2-1.5-0.9
	c0,0,0,0-0.1-0.1C2.6,24.4,2.5,23.3,2.5,22.2z"/>
<path fill="#FFFFFF" d="M21.8,15.8c-1.3,0-2.6,0-3.9,0c0,0.4,0,0.8,0,1.3c0,0.8-0.5,1.4-1.3,1.4c-0.7,0-1.3-0.6-1.3-1.4
	c0-0.8,0-1.7-0.1-2.5c0-0.8,0.5-1.4,1.3-1.4c4.3,0,8.7-0.1,13,0c0.8,0,1.4,0.6,1.4,1.4c0,0.9,0,1.7,0,2.6c0,0.8-0.6,1.4-1.3,1.4
	c-0.7,0-1.3-0.6-1.3-1.4c0-0.4,0-0.8,0-1.3c-1.3,0-2.6,0-3.9,0c0,5.4,0,10.7,0,16.1c0.4,0,0.7,0,1.1,0c0.8,0,1.4,0.6,1.4,1.3
	c0,0.8-0.6,1.3-1.4,1.3c-1.6,0-3.2,0-4.8,0c-0.8,0-1.4-0.6-1.4-1.3c0-0.8,0.6-1.3,1.4-1.3c0.4,0,0.7,0,1.1,0
	C21.9,26.5,21.9,21.2,21.8,15.8z"/>
</svg>
