<?xml version="1.0" encoding="utf-8"?>
<!-- Generator: Adobe Illustrator 23.0.0, SVG Export Plug-In . SVG Version: 6.00 Build 0)  -->
<svg version="1.0" id="Layer_1" xmlns="http://www.w3.org/2000/svg" xmlns:xlink="http://www.w3.org/1999/xlink" x="0px" y="0px"
	 viewBox="0 0 50 50" enable-background="new 0 0 50 50" xml:space="preserve">
<g>
	<g>
		<path fill="#FFFFFF" d="M30.1,40.5c-2.1-1.2-4.1-2.3-6.2-3.4c-2.1-1.1-9.8-5.2-12-6.4c-0.9-0.5-1.4-1.2-1.5-2.3
			C9.7,23,9.3,20.3,8,14.7c-0.2-1,0.1-1.8,1-2.2c4.2-1.9,8.8-3.7,13.9-5.8c1-0.4,2-0.4,3,0C31.1,9,41.9,13.7,46,15.7
			c0.9,0.5,1.2,1.2,1,2.4c-1.2,5.5-1.6,8.1-2.1,13.7c-0.1,1.2-0.6,2-1.5,2.4c-4,2-7.9,4-11.7,6.1c-0.2,0.1-0.5,0.2-0.7,0.3
			C30.6,40.6,30.3,40.6,30.1,40.5z M45.3,16.8c-0.4-0.2-0.8-0.4-1.2-0.6c-3.6-1.8-14-6.3-18.6-8.3c-0.9-0.4-1.6-0.4-2.4,0
			c-4.8,2-9.3,3.8-13.4,5.7c-0.5,0.2-0.7,0.6-0.6,1.3c1.2,5.5,1.6,8.1,2.2,13.5c0.1,0.6,0.3,1,0.9,1.3c4.2,2.1,13.6,7.2,17.4,9.4
			c0.5,0.3,1,0.3,1.5,0c3.8-2.1,7.6-4,11.7-6.1c0.6-0.3,0.9-0.7,0.9-1.4c0.5-5.5,0.8-8,2-13.5c0-0.1,0-0.2,0.1-0.4
			c-0.2,0.1-0.3,0.1-0.4,0.2c-5,2.5-9.5,4.7-13.8,6.9c-0.3,0.1-0.3,0.3-0.4,0.6C31.1,29.9,31,31.6,31,36c0,0.2,0,0.3,0,0.5
			c-0.1,0.3-0.2,0.4-0.5,0.4c-0.3,0-0.4-0.2-0.5-0.5c0-0.1,0-0.3,0-0.4c0-4.5,0.1-6.2,0.2-10.6c0-0.3-0.1-0.4-0.3-0.5
			c-2.8-1.4-5.6-2.9-8.7-4.4c-0.7-0.3-8-4-8.8-4.4c-0.4-0.2-0.5-0.5-0.4-0.8c0.1-0.3,0.4-0.4,0.8-0.2c0.1,0,0.2,0.1,0.2,0.1
			c4.1,2,14.1,6.9,17.4,8.7c0.3,0.1,0.4,0.1,0.7,0c3.3-1.7,6.8-3.4,10.5-5.2C42.8,18.1,44,17.5,45.3,16.8z"/>
	</g>
	<g display="none">
		<path display="inline" fill="#FFFFFF" d="M35.3,41c0-0.1,0.1-0.2,0.3-0.3c0.4-0.2,0.7-0.4,1.1-0.5c2.7-1.4,5.5-2.8,8.3-4.2
			c0.2-0.1,0.4-0.1,0.5,0c0.3,0.2,0.3,0.7,0,0.9c0,0-0.1,0.1-0.1,0.1c-3.1,1.6-6.1,3.1-9.1,4.6c-0.1,0-0.1,0.1-0.2,0.1
			c-0.2,0.1-0.4,0.1-0.5-0.1C35.3,41.5,35.3,41.2,35.3,41z"/>
		<path display="inline" fill="#FFFFFF" d="M47.1,36.8c-0.1,0.4-0.3,0.8-0.4,1.2c-0.1,0.3-0.3,0.4-0.5,0.3c-0.2-0.1-0.4-0.3-0.3-0.6
			c0-0.1,0-0.1,0-0.2c0.1-0.3,0.2-0.7,0.3-1c0.1-0.4,0-0.8-0.4-1c-0.3-0.1-0.6-0.3-0.9-0.4c-0.3-0.1-0.4-0.4-0.3-0.7
			c0.1-0.3,0.4-0.4,0.6-0.3c0.7,0.3,1.3,0.6,2,0.9c0.2,0.1,0.3,0.4,0.2,0.7C47.3,36,47.2,36.4,47.1,36.8
			C47.1,36.8,47.1,36.8,47.1,36.8z"/>
		<path display="inline" fill="#FFFFFF" d="M34.8,43c-0.3-0.1-0.6-0.3-1-0.4c-0.3-0.1-0.4-0.3-0.3-0.7c0.2-0.7,0.4-1.4,0.6-2.1
			c0.1-0.3,0.3-0.4,0.6-0.3c0.2,0.1,0.4,0.4,0.3,0.6c-0.1,0.3-0.2,0.7-0.3,1c-0.1,0.4,0,0.8,0.4,0.9c0.3,0.1,0.6,0.2,0.9,0.4
			c0.3,0.1,0.4,0.4,0.3,0.7c-0.1,0.3-0.3,0.4-0.6,0.3C35.4,43.3,35.1,43.1,34.8,43z"/>
	</g>
	<g display="none">
		<path display="inline" fill="#FFFFFF" d="M10,32.6c0.1,0,0.2,0,0.4,0.1c0.4,0.2,3.8,2,4.1,2.2c2.8,1.5,7.4,4,10.1,5.5
			c0.2,0.1,0.3,0.2,0.3,0.5c0,0.4-0.3,0.6-0.7,0.5c0,0-0.1,0-0.1-0.1c-3-1.7-10.8-5.8-14-7.5c-0.1,0-0.1-0.1-0.2-0.1
			c-0.2-0.1-0.3-0.3-0.3-0.5C9.7,32.9,9.8,32.7,10,32.6z"/>
		<path display="inline" fill="#FFFFFF" d="M25.3,42.6c-0.3,0.1-0.7,0.2-1,0.4c-0.2,0.1-0.4,0-0.5-0.3c-0.1-0.2,0-0.5,0.2-0.6
			c0,0,0.1,0,0.1-0.1c0.3-0.1,0.6-0.2,0.9-0.3c0.4-0.1,0.5-0.5,0.4-0.9c-0.1-0.3-0.2-0.6-0.3-1c-0.1-0.3,0-0.6,0.3-0.6
			c0.2-0.1,0.5,0,0.6,0.3c0.2,0.7,0.4,1.4,0.6,2.2c0.1,0.3,0,0.5-0.3,0.6C26,42.4,25.7,42.5,25.3,42.6
			C25.3,42.6,25.3,42.6,25.3,42.6z"/>
		<path display="inline" fill="#FFFFFF" d="M8.2,33.4C8,33,7.9,32.6,7.8,32.3c-0.1-0.3,0-0.6,0.3-0.7c0.6-0.2,1.3-0.5,1.9-0.7
			c0.3-0.1,0.5,0,0.6,0.3c0.1,0.3,0,0.5-0.2,0.6C10,31.9,9.7,32,9.4,32.2c-0.4,0.2-0.5,0.5-0.4,1c0.1,0.3,0.2,0.7,0.3,1
			c0.1,0.3,0,0.6-0.2,0.7c-0.2,0.1-0.5,0-0.6-0.3C8.4,34.1,8.3,33.7,8.2,33.4z"/>
	</g>
	<g>
		<path fill="#FFFFFF" d="M7,26.9c-0.1-0.1-0.2-0.2-0.2-0.4c-0.1-0.5-0.1-0.9-0.2-1.4C6.1,21.5,5.3,18,4.4,14.5
			c-0.1-0.2,0-0.4,0.1-0.5c0.3-0.2,0.8,0.1,1,0.5c0,0.1,0,0.1,0,0.2c0.9,3.9,1.7,7.8,2.2,11.7c0,0.1,0,0.1,0,0.2
			c0,0.2-0.1,0.4-0.2,0.5C7.4,27.1,7.2,27.1,7,26.9z"/>
		<path fill="#FFFFFF" d="M5.8,12.7c0.4,0.3,0.8,0.6,1.1,0.9c0.2,0.2,0.3,0.5,0.2,0.7c-0.1,0.2-0.4,0.2-0.7,0
			c-0.1,0-0.1-0.1-0.2-0.1c-0.3-0.3-0.6-0.5-1-0.8c-0.4-0.3-0.9-0.4-1.1-0.1c-0.2,0.2-0.4,0.5-0.6,0.7c-0.2,0.2-0.5,0.2-0.8,0
			c-0.3-0.2-0.4-0.6-0.2-0.8c0.4-0.5,0.9-1,1.3-1.5c0.2-0.2,0.5-0.1,0.7,0.1C5,12.1,5.4,12.4,5.8,12.7C5.8,12.7,5.8,12.7,5.8,12.7z"
			/>
		<path fill="#FFFFFF" d="M8.7,28.5C8.4,28.7,8.2,29,8,29.3c-0.2,0.3-0.4,0.2-0.7,0c-0.6-0.6-1.1-1.1-1.7-1.7
			c-0.2-0.2-0.3-0.6-0.1-0.8c0.2-0.2,0.4-0.2,0.7,0c0.3,0.3,0.6,0.5,0.8,0.8c0.4,0.3,0.7,0.3,1,0c0.2-0.2,0.4-0.5,0.6-0.7
			c0.2-0.2,0.5-0.2,0.7,0c0.2,0.2,0.3,0.5,0.1,0.8C9.1,27.9,8.9,28.2,8.7,28.5z"/>
	</g>
</g>
</svg>
