<?xml version="1.0" encoding="utf-8"?>
<!-- Generator: Adobe Illustrator 23.0.0, SVG Export Plug-In . SVG Version: 6.00 Build 0)  -->
<svg version="1.0" id="Layer_1" xmlns="http://www.w3.org/2000/svg" xmlns:xlink="http://www.w3.org/1999/xlink" x="0px" y="0px"
	 viewBox="0 0 50 50" enable-background="new 0 0 50 50" xml:space="preserve">
<g>
	<path fill="#FFFFFF" d="M10.3,12c6.5-0.3,12.9-0.3,19.4,0c0.4,0.2,0.5,0.6,0.4,1C30,13.4,30,13.9,30,14.3c-0.1,0.7-0.1,1.5-0.2,2.2
		c0.1,0,0.3,0,0.4,0c0.9,0,1.9,0.1,2.8,0.1c0.8,0,1,0.3,0.9,1.1c-0.8,9.2-1.4,18.4-1.5,27.6c0,0.1,0,0.3,0,0.5c0.1,0,0.2,0,0.3,0
		c0.5,0,1-0.1,1.5-0.1c0.3,0,0.5,0.1,0.6,0.4c0.1,0.3,0,0.5-0.2,0.7c-0.1,0.1-0.1,0.1-0.2,0.2c-9.8,0.5-19.1,0.5-28.9,0
		c-0.1-0.2-0.3-0.4-0.4-0.6c-0.1-0.4,0.2-0.8,0.7-0.8c0.6,0,1.2,0.1,1.8,0.1c0-0.2,0-0.3,0-0.5C7.4,36.2,6.8,27.1,6,17.9
		c0-0.1,0-0.2,0-0.3c0-0.5,0.2-0.8,0.7-0.8c0.3,0,0.6,0,0.9,0c0.8,0,1.7-0.1,2.5-0.1c0-0.1,0-0.3,0-0.4C10,15.1,10,14.1,9.8,13
		C9.8,12.6,9.9,12.2,10.3,12z M31.1,45.9c0.2-9.3,0.6-18.5,1.3-27.8c-8.3-0.4-16.7-0.4-25,0c0.7,9.3,1.2,18.5,1.3,27.8
		c2.5,0.1,4.9,0.2,7.4,0.3c0-0.1,0-0.3,0-0.4c0-2.5,0-5,0-7.4c0-0.7,0.2-0.9,0.8-0.9c1.9,0,3.9,0,5.8,0c0.7,0,0.9,0.2,0.9,1
		c0,2.5,0,5,0,7.4c0,0.1,0,0.2,0,0.4C26.2,46.2,28.7,46.1,31.1,45.9z M11.6,16.5c5.6-0.2,11.2-0.2,16.8,0c0.1-1.1,0.1-2.1,0.2-3.2
		c-5.8-0.2-11.5-0.2-17.3,0C11.4,14.4,11.5,15.5,11.6,16.5z M22.4,46.3c0-2.5,0-4.9,0-7.4c-1.7,0-3.3,0-5,0c0,2.5,0,4.9,0,7.4
		c0.6,0,1.2,0,1.8,0c0-0.1,0-0.2,0-0.3c0-0.7,0-1.4,0-2.2c0-0.5,0.3-0.8,0.6-0.8c0.3,0,0.6,0.3,0.6,0.7c0,0.1,0,0.3,0,0.4
		c0,0.7,0,1.4,0,2.1c0.1,0,0.1,0,0.2,0C21.3,46.3,21.9,46.3,22.4,46.3z"/>
	<path fill="#FFFFFF" d="M14.6,23.5c0,0.7,0,1.3,0.1,2c0,0.6-0.2,0.8-0.8,0.8c-1.2,0-2.5,0-3.7,0c-0.5,0-0.8-0.3-0.8-0.8
		c-0.1-1.3-0.2-2.6-0.3-3.9c0-0.6,0.2-0.8,0.8-0.9c1.3,0,2.5-0.1,3.8-0.1c0.6,0,0.8,0.3,0.8,0.8C14.6,22.2,14.6,22.8,14.6,23.5z
		 M10.5,22.2c0.1,0.9,0.1,1.8,0.2,2.7c0.9,0,1.8,0,2.6,0c0-0.9-0.1-1.8-0.1-2.8C12.3,22.1,11.4,22.1,10.5,22.2z"/>
	<path fill="#FFFFFF" d="M22.7,23.4c0,0.6,0,1.2,0,1.9c0,0.7-0.2,1-0.9,1c-1.2,0-2.4,0-3.5,0c-0.6,0-0.9-0.2-0.9-0.9
		c0-1.3,0-2.5-0.1-3.8c0-0.6,0.2-0.9,0.9-0.9c1.2,0,2.5,0,3.7,0c0.6,0,0.9,0.3,0.8,0.9C22.7,22.2,22.7,22.8,22.7,23.4z M18.6,22
		c0,0.9,0,1.9,0,2.8c0.9,0,1.8,0,2.6,0c0-0.9,0-1.8,0-2.8C20.4,22,19.5,22,18.6,22z"/>
	<path fill="#FFFFFF" d="M27.9,26.3c-0.6,0-1.2,0-1.8,0c-0.5,0-0.8-0.3-0.8-0.8c0-1.3,0.1-2.6,0.1-4c0-0.6,0.3-0.8,0.8-0.8
		c1.3,0,2.6,0,3.9,0.1c0.5,0,0.8,0.3,0.7,0.8c-0.1,1.3-0.2,2.6-0.3,3.9c0,0.6-0.3,0.8-0.8,0.8C29.1,26.3,28.5,26.3,27.9,26.3z
		 M29.3,24.9c0.1-0.9,0.1-1.8,0.2-2.7c-0.9,0-1.8,0-2.7-0.1c0,0.9-0.1,1.8-0.1,2.7C27.5,24.9,28.4,24.9,29.3,24.9z"/>
	<path fill="#FFFFFF" d="M12.2,29.1c0.6,0,1.2,0,1.8,0c0.5,0,0.8,0.3,0.8,0.8c0,1.3,0.1,2.6,0.1,3.9c0,0.6-0.2,0.8-0.7,0.8
		c-1.2,0-2.4,0-3.6,0c-0.5,0-0.8-0.3-0.8-0.8c-0.1-1.3-0.1-2.6-0.2-3.9c0-0.6,0.2-0.8,0.7-0.8C11,29.1,11.6,29.1,12.2,29.1z
		 M11,30.5c0,0.9,0.1,1.8,0.1,2.7c0.8,0,1.7,0,2.5,0c0-0.9,0-1.8-0.1-2.8C12.6,30.5,11.8,30.5,11,30.5z"/>
	<path fill="#FFFFFF" d="M17.4,31.8c0-0.6,0-1.3,0-1.9c0-0.6,0.2-0.9,0.8-0.9c1.2,0,2.4,0,3.6,0c0.5,0,0.8,0.3,0.8,0.9
		c0,1.3,0,2.6,0,3.9c0,0.6-0.2,0.8-0.8,0.9c-1.2,0-2.3,0-3.5,0c-0.5,0-0.8-0.3-0.8-0.9C17.4,33.1,17.4,32.5,17.4,31.8z M21.2,33.2
		c0-0.9,0-1.9,0-2.8c-0.9,0-1.7,0-2.5,0c0,0.9,0,1.8,0,2.8C19.6,33.2,20.4,33.2,21.2,33.2z"/>
	<path fill="#FFFFFF" d="M27.6,34.6c-0.6,0-1.2,0-1.7,0c-0.6,0-0.8-0.2-0.8-0.9c0-1.3,0-2.6,0.1-3.9c0-0.6,0.3-0.8,0.8-0.8
		c1.2,0,2.4,0,3.6,0c0.5,0,0.8,0.3,0.7,0.9c-0.1,1.3-0.1,2.6-0.2,3.8c0,0.6-0.3,0.8-0.8,0.8C28.8,34.6,28.2,34.6,27.6,34.6z
		 M29,30.5c-0.9,0-1.7,0-2.5,0c0,0.9-0.1,1.8-0.1,2.7c0.9,0,1.7,0,2.5,0C28.9,32.3,29,31.4,29,30.5z"/>
	<path fill="#FFFFFF" d="M12.5,43c-0.6,0-1.2,0-1.7-0.1c-0.5,0-0.7-0.3-0.8-0.9c0-1.3,0-2.6-0.1-3.9c0-0.6,0.2-0.8,0.7-0.8
		c1.2,0,2.4,0,3.5,0.1c0.5,0,0.8,0.3,0.8,0.8c0,1.3,0,2.6,0,3.9c0,0.6-0.2,0.8-0.7,0.8C13.7,43,13.1,43,12.5,43z M13.7,38.8
		c-0.8,0-1.7,0-2.5-0.1c0,0.9,0,1.8,0,2.7c0.8,0,1.6,0,2.5,0.1C13.7,40.7,13.7,39.8,13.7,38.8z"/>
	<path fill="#FFFFFF" d="M27.5,37.4c0.6,0,1.2,0,1.8,0c0.5,0,0.7,0.2,0.7,0.8c0,1.3-0.1,2.6-0.1,3.9c0,0.6-0.3,0.8-0.8,0.9
		c-1.2,0-2.3,0.1-3.5,0.1c-0.5,0-0.7-0.3-0.7-0.8c0-1.3,0-2.6,0-3.9c0-0.6,0.3-0.8,0.8-0.8C26.4,37.4,26.9,37.4,27.5,37.4z
		 M26.3,38.8c0,0.9,0,1.8,0,2.7c0.8,0,1.6,0,2.5-0.1c0-0.9,0-1.8,0-2.7C27.9,38.8,27.1,38.8,26.3,38.8z"/>
	<path fill="#FFFFFF" d="M20,41.7c-0.3,0-0.6-0.3-0.6-0.7c0-0.4,0.3-0.7,0.6-0.7c0.3,0,0.6,0.3,0.6,0.7C20.6,41.3,20.3,41.7,20,41.7
		z"/>
</g>
<path fill="#FFFFFF" d="M43.6,26c-0.1-0.3-0.3-0.5-0.7-0.5c-0.4,0-0.7,0.1-1.1,0.1c0-0.1,0.1-0.1,0.1-0.2c0.6-1.2,0.7-2.3,0.3-3.5
	c-0.3-1-0.9-1.9-1.6-2.7c-0.8-0.9-1.6-1.8-2.4-2.7c-0.3-0.3-0.5-0.7-0.7-1.1c-0.2-0.4-0.2-0.8,0-1.1c0.2-0.3,0.4-0.6,0.6-0.8
	c0.6-0.7,1.3-1.3,1.9-2c0.8-0.8,1.6-1.6,2.3-2.6c1-1.4,1.3-2.9,0.5-4.6c0,0,0-0.1,0-0.1c0.5,0,0.9,0.1,1.3,0.1
	c0.3,0,0.6-0.1,0.8-0.4c0.3-0.5-0.1-1-0.7-1c-4.9-0.6-9.9-0.6-14.8-0.1c-0.1,0-0.2,0-0.2,0c-0.4,0.1-0.6,0.5-0.5,0.8
	c0.1,0.3,0.4,0.6,0.8,0.6c0.5,0,0.9-0.1,1.4-0.1c0,0.1-0.1,0.1-0.1,0.2c-0.7,1.3-0.6,2.6,0.1,3.8c0.5,0.9,1.1,1.7,1.8,2.4
	c0.9,0.9,1.7,1.8,2.6,2.7c0.3,0.3,0.5,0.7,0.7,1c0.2,0.4,0.2,0.8,0,1.1c-0.1,0.2-0.2,0.5-0.4,0.6c-0.7,0.8-1.3,1.5-2,2.3
	c-0.8,0.9-1.6,1.8-2.1,2.9c-0.6,1.2-0.7,2.4-0.2,3.7c0.1,0.2,0.2,0.4,0.2,0.6c-0.4,0-0.8-0.1-1.2-0.1c-0.3,0-0.6,0.2-0.7,0.5
	c-0.1,0.3,0.1,0.6,0.4,0.8c0,0,0.1,0,0.1,0.1c4.4,0.5,8.8,0.6,13.1,0.1c0,0,0,0,0,0C43.5,26.6,43.7,26.3,43.6,26z M35,10.6
	c-0.2-0.2-0.3-0.5-0.4-0.8c0-0.3,0.1-0.6,0.5-0.6c0.6,0,1.2,0,1.7,0c0.6,0,1.1,0,1.7,0c0.4,0,0.6,0.3,0.5,0.7
	c-0.1,0.3-0.3,0.6-0.5,0.9c-0.5,0.5-1,1.1-1.5,1.6c-0.2,0.2-0.4,0.2-0.6,0C36,11.8,35.4,11.2,35,10.6z M39.1,24.3
	c-0.8,0-1.7,0-2.5,0c-0.8,0-1.6,0-2.4-0.1c-0.6,0-0.9-0.4-0.7-1c0.1-0.5,0.3-0.9,0.6-1.3c0.7-0.8,1.4-1.6,2.1-2.5
	c0.2-0.3,0.6-0.3,0.9,0c0.8,0.9,1.6,1.7,2.2,2.7c0.2,0.4,0.4,0.7,0.5,1.2C39.8,23.9,39.5,24.3,39.1,24.3z"/>
</svg>
