<?xml version="1.0" encoding="utf-8"?>
<!-- Generator: Adobe Illustrator 23.0.0, SVG Export Plug-In . SVG Version: 6.00 Build 0)  -->
<svg version="1.0" id="Layer_1" xmlns="http://www.w3.org/2000/svg" xmlns:xlink="http://www.w3.org/1999/xlink" x="0px" y="0px"
	 viewBox="0 0 50 50" enable-background="new 0 0 50 50" xml:space="preserve">
<path fill="#FFFFFF" d="M43.8,2.6c0.3,0.2,0.7,0.4,0.9,0.7c0.3,0.4,0.2,0.9-0.1,1.4c-1.7,3-4.2,5.2-7.4,6.6c-2.1,1-4.3,1.5-6.6,1.7
	c-0.1,0-0.2,0-0.3,0c0,1.1,0,2.2,0,3.3c0.2,0,0.4,0,0.6,0c2.1,0,4.2-0.1,6.3-0.1c2.5,0,4.4,1.5,4.7,3.9c0.4,2.5,0.6,5.1,0.9,7.6
	c0.3,3.2,0.6,6.4,0.7,9.7c0.1,1.6,0.2,3.3,0.2,4.9c-0.1,2.8-2.3,4.7-5,4.5c-9.1-0.8-18.3-0.8-27.4,0c-2.9,0.2-5.2-2-5.1-5
	c0.2-4.3,0.4-8.5,0.8-12.8c0.3-3,0.6-5.9,1-8.9c0.4-2.6,2.4-4.1,5.2-4c2,0,3.9,0.1,5.9,0.1c0.2,0,0.3,0,0.5,0c0-1.1,0-2.2,0-3.2
	c-1.1-0.2-2.2-0.3-3.3-0.6c-3.9-0.9-7.2-2.9-9.7-6C6.2,6.1,5.8,5.5,5.5,5C4.8,3.8,5,3.2,6.2,2.6C19.1,3.6,30.9,3.6,43.8,2.6z
	 M25,43.9c4.5,0,9,0.2,13.5,0.5c0.2,0,0.3,0,0.5,0c1.3,0,2.1-0.9,2.1-2.2c-0.2-3.2-0.4-6.3-0.6-9.5c-0.3-4-0.8-7.9-1.3-11.8
	c-0.2-1.4-0.9-2-2.5-2c-7.8,0.1-15.6,0.1-23.3,0c-0.1,0-0.2,0-0.4,0c-1.1,0-2,0.7-2.1,1.7c-0.2,1.3-0.3,2.7-0.5,4
	c-0.7,5.8-1.2,11.6-1.4,17.6c0,0.9,0.5,1.8,1.3,2c0.4,0.1,0.8,0.1,1.2,0.1C16,44,20.5,43.9,25,43.9z M40.8,5.6
	c-10.4,0.9-21.2,0.9-31.6,0c0.1,0.1,0.2,0.2,0.3,0.3c2.8,3,6.4,4.5,10.6,4.7c2.8,0.2,5.7,0.1,8.5,0.1c2.4,0,4.7-0.4,7-1.3
	C37.5,8.5,39.3,7.3,40.8,5.6z M22.5,16.4c1.7,0,3.4,0,5.1,0c0-1.1,0-2.1,0-3.2c-1.7,0-3.4,0-5.1,0C22.5,14.3,22.5,15.4,22.5,16.4z"
	/>
<path fill="#FFFFFF" d="M25,41.9c-6,0-11.2-4.5-11.4-10.3C13.4,25.7,18.6,21,25,21c6.4,0,11.6,4.7,11.4,10.5
	C36.2,37.4,31,41.9,25,41.9z M33.6,31.5c0.1-4.4-3.8-8-8.6-8c-4.8,0-8.7,3.6-8.6,8c0.1,4.4,4,7.8,8.6,7.8
	C29.6,39.3,33.5,35.9,33.6,31.5z"/>
<path fill="#FFFFFF" d="M26.4,31.6c-0.1,0.2-0.2,0.5-0.5,0.8c-1,1-2.1,2-3.2,3c-0.6,0.6-1.4,0.6-2,0.1c-0.6-0.5-0.6-1.3,0-1.9
	c1.1-1,2.1-2,3.2-3c0.4-0.4,1-0.5,1.6-0.3C26.1,30.5,26.4,30.9,26.4,31.6z"/>
</svg>
