<?xml version="1.0" encoding="utf-8"?>
<!-- Generator: Adobe Illustrator 23.0.0, SVG Export Plug-In . SVG Version: 6.00 Build 0)  -->
<svg version="1.0" id="Layer_1" xmlns="http://www.w3.org/2000/svg" xmlns:xlink="http://www.w3.org/1999/xlink" x="0px" y="0px"
	 viewBox="0 0 50 50" enable-background="new 0 0 50 50" xml:space="preserve">
<g>
	<path fill="#FFFFFF" d="M2.5,28.3c0.2-0.8,0.8-1.3,1.4-1.7c2.3-1.6,4.6-3.2,6.9-4.7c0.3-0.2,0.8-0.3,1.3-0.5c0-0.1,0-0.2,0-0.4
		c0-3.1,0-6.2,0-9.2c0-1,0.4-1.6,1.3-2.2c2.4-1.4,4.7-2.9,7.1-4.4c0.5-0.3,1-0.5,1.5-0.5c4.7,0.1,9.4,0.1,14,0
		c1.4,0,2.4,0.8,2.4,2.1c0.1,4.4,0.1,8.9,0.1,13.3c0,0.5-0.3,0.9-0.4,1.5c0.1,0,0.2,0,0.4,0c2.2,0,4.4,0,6.6,0
		c1.6,0,2.5,0.8,2.5,2.4c-0.1,4.4-0.4,8.8-0.7,13.2c-0.1,0.7-0.3,1.3-0.9,1.9c-2,1.7-4,3.5-5.9,5.2c-0.6,0.5-1.2,0.7-1.9,0.7
		c-4.7-0.2-9.5-0.2-14.2-0.1c-0.7,0-1.3-0.1-1.8-0.5c-0.6,0.5-1.2,0.6-1.9,0.6C15.6,44.8,11,45,6.5,45.4c-1.3,0.1-2.3-0.3-2.9-1.6
		C3.1,38.6,2.7,33.4,2.5,28.3z M31,43.2c2.4,0,4.8,0.1,7.2,0.1c0.7,0,1-0.2,1-0.9c0.3-4.5,0.5-9.1,0.7-13.6c0-0.7-0.2-1-1-1
		c-5.1,0-10.1,0-15.2,0c-0.8,0-1,0.2-1,1c0,4.5,0.1,9,0.1,13.5c0,0.7,0.2,1,1,0.9C26.2,43.2,28.6,43.2,31,43.2z M13.2,43.5
		c2.4-0.1,4.8-0.2,7.2-0.2c0.7,0,0.9-0.2,0.9-0.9c-0.1-4.5-0.1-9.1-0.2-13.6c0-0.7-0.2-0.9-1-0.9c-5.1,0-10.2,0-15.2,0.1
		c-0.7,0-1,0.3-0.9,1C4.2,33.6,4.5,38.3,5,43C5,43.7,5.3,44,6,43.9C8.4,43.8,10.8,43.6,13.2,43.5z M22.2,26.4c2.5,0,5.1,0,7.6,0
		c0.8,0,1-0.2,1-0.9c0-4.5,0.1-9,0-13.5c0-0.7-0.2-0.9-1-0.9c-5.1,0-10.3,0-15.4-0.2c-0.8,0-1,0.2-1,0.9c0,4.6,0,9.1,0.1,13.7
		c0,0.8,0.2,1,1,1C17.2,26.4,19.7,26.4,22.2,26.4z M36.9,6.9c-1.6,1.3-3.1,2.6-4.5,3.8c-0.1,0.1-0.1,0.2-0.1,0.3
		c0,0.3,0.1,0.7,0.1,1c0,4,0,8,0,12.1c0,0.1,0,0.3,0,0.5c1.4-1.3,2.7-2.5,4.1-3.8c0.4-0.3,0.5-0.7,0.5-1.1c0-4.1,0-8.2-0.1-12.2
		C37,7.3,37,7.2,36.9,6.9z M46,23.8c-0.2,0.1-0.3,0.2-0.4,0.3c-1.3,1.1-2.6,2.2-4,3.2c-0.3,0.3-0.5,0.5-0.4,0.9c0.1,0.2,0,0.5,0,0.7
		c-0.1,4-0.3,8.1-0.6,12.1c0,0.2,0,0.3,0,0.6c1.5-1.3,2.8-2.5,4.2-3.7c0.3-0.3,0.5-0.6,0.5-1c0.3-4.2,0.5-8.4,0.6-12.6
		C46,24.1,46,24,46,23.8z M32.6,26.4c0.3,0,0.4,0,0.6,0c1.9,0,3.8,0,5.7,0c0.3,0,0.7,0.1,1,0.1c0.2,0.1,0.4,0,0.5-0.1
		c1.1-0.9,2.2-1.8,3.3-2.7c0.3-0.3,0.7-0.6,1.1-0.9c-0.1,0-0.1,0-0.2,0c-2.6,0-5.3,0-7.9,0c-0.2,0-0.4,0.1-0.5,0.2
		c-0.8,0.7-1.5,1.4-2.3,2.1C33.5,25.6,33.1,26,32.6,26.4z M24.9,9.6c0.2,0,0.4,0,0.5,0c1.5,0,3,0,4.5,0c0.3,0,0.7,0.1,1,0.1
		c0.2,0,0.4,0,0.5-0.1c1.3-1.1,2.6-2.2,3.9-3.3c0.1-0.1,0.2-0.1,0.3-0.2c-0.2,0-0.2-0.1-0.3-0.1c-1.9,0-3.7,0.1-5.6,0.1
		c-0.2,0-0.4,0.1-0.5,0.2c-1.4,1-2.7,2-4.1,3C25.2,9.4,25.1,9.4,24.9,9.6z M27.2,6.1c-1.9,0-3.6,0-5.3,0c-0.1,0-0.3,0.1-0.4,0.1
		c-1.6,1-3.2,2-4.8,3c-0.1,0.1-0.2,0.1-0.3,0.1c0,0,0.1,0.1,0.1,0.1c1.9,0,3.7,0.1,5.6,0.1c0.1,0,0.3,0,0.4-0.1
		C24.1,8.4,25.6,7.3,27.2,6.1z M6.7,26.4c1.9,0,3.8,0,5.5,0c0-1.2,0-2.3-0.1-3.5c0,0-0.1-0.1-0.1-0.1C10.3,24,8.5,25.2,6.7,26.4z"/>
	<path fill="#FFFFFF" d="M27.1,41.8c-0.5,0-0.9,0-1.4,0c-0.8,0-1.4-0.5-1.5-1.3c0-0.5,0-1,0-1.5c0-0.8,0.6-1.3,1.5-1.4
		c0.9,0,1.9,0,2.8,0c0.8,0,1.4,0.6,1.5,1.4c0,0.5,0,1,0,1.4c-0.1,0.8-0.7,1.4-1.5,1.4C28,41.8,27.5,41.8,27.1,41.8z"/>
	<path fill="#FFFFFF" d="M8.9,38c0.5,0,1,0,1.5-0.1c0.8,0,1.4,0.5,1.5,1.3c0,0.5,0.1,1,0.1,1.5c0,0.8-0.5,1.4-1.3,1.4
		c-1,0.1-1.9,0.1-2.9,0.1c-0.8,0-1.4-0.5-1.5-1.3c-0.1-0.5-0.1-1-0.1-1.6c0-0.8,0.5-1.4,1.3-1.4C7.9,38,8.4,38,8.9,38z"/>
	<path fill="#FFFFFF" d="M18.2,25c-0.5,0-1,0-1.5,0c-0.8,0-1.5-0.6-1.5-1.4c0-0.5,0-1,0-1.5c0-0.8,0.6-1.4,1.5-1.4c1,0,2,0,3,0
		c0.9,0,1.5,0.6,1.5,1.4c0,0.5,0,1,0,1.4c0,0.8-0.6,1.3-1.5,1.4C19.2,25,18.7,25,18.2,25z"/>
</g>
</svg>
