<?xml version="1.0" encoding="utf-8"?>
<!-- Generator: Adobe Illustrator 23.0.0, SVG Export Plug-In . SVG Version: 6.00 Build 0)  -->
<svg version="1.0" id="Layer_1" xmlns="http://www.w3.org/2000/svg" xmlns:xlink="http://www.w3.org/1999/xlink" x="0px" y="0px"
	 viewBox="0 0 50 50" enable-background="new 0 0 50 50" xml:space="preserve">
<path fill="#FFFFFF" d="M46.6,2.6c0.9,0.3,1.3,1,1.3,1.9c0.1,2.1,0.2,4.1,0.3,6.2c0,1.2-0.6,1.8-1.8,1.8c-1.1,0-2.2,0.1-3.3,0.1
	c0,0-0.1,0-0.1,0c0,0.1,0,0.2,0,0.3c0,0.9,0,1.8,0.1,2.8c0,0.2,0.2,0.4,0.3,0.4c2.3,1.1,3.4,3.5,2.6,5.8c-0.1,0.3,0,0.4,0.2,0.6
	c2.1,2.2,2.2,5.6,0.3,8c-0.6,0.8-1.4,1.4-2.3,1.8c-0.3,0.1-0.4,0.3-0.4,0.6c0,2.1-0.1,4.2-0.2,6.2c0,0.1,0,0.3,0,0.4
	c-0.2,0.2-0.4,0.5-0.6,0.5c-0.2,0-0.5-0.2-0.6-0.4c-0.1-0.1-0.1-0.3-0.1-0.5c0.1-2.3,0.2-4.6,0.2-6.9c0-0.5,0.2-0.8,0.7-1
	c2.4-0.9,3.7-3.4,3.2-5.7c-0.6-2.5-2.9-4.1-5.5-3.9c-1,0.1-2,0.4-2.9,1c0.5,0.3,0.9,0.7,1.3,0.9c0.1,0.1,0.3,0,0.5-0.1
	c0.9-0.5,1.9-0.5,2.7,0c0.9,0.5,1.3,1.3,1.3,2.2c-0.1,1-0.6,1.8-1.6,2.2c-1,0.4-2,0.3-2.8-0.4c-0.8-0.7-1.1-1.5-0.9-2.5
	c0-0.1,0-0.1,0.1-0.2c0-0.1,0-0.1,0-0.1c-0.5-0.4-1-0.8-1.6-1.2c-0.8,0.9-1.2,2-1.2,3.2c0.1,2,1.1,3.5,3.1,4.4
	c0.4,0.2,0.6,0.5,0.6,0.9c0,0.7-0.1,1.5-0.1,2.2c0,0.2,0.1,0.4,0.2,0.5c0.7,0.8,0.7,1.5-0.1,2.2c-0.3,0.3-0.4,0.9-0.1,1.2
	c0.8,0.8,0.7,1.5-0.1,2.3c-0.3,0.3-0.3,0.9,0,1.1c0.8,0.8,0.7,1.5-0.1,2.3c-0.3,0.2-0.3,0.4,0,0.6c0.4,0.3,0.8,0.7,1.2,1
	c0.5-0.3,0.9-0.7,1.4-1c0.1-0.1,0.1-0.2,0.1-0.3c0-0.4,0.1-0.9,0.1-1.3c0-0.5,0.3-0.7,0.7-0.7c0.4,0,0.6,0.3,0.6,0.8
	c0,0.5-0.1,1.1-0.1,1.6c0,0.4-0.2,0.7-0.5,1c-0.5,0.4-1,0.7-1.5,1.1c-0.5,0.4-1.1,0.4-1.6-0.1c-0.4-0.4-0.8-0.7-1.2-1.1
	c-0.8-0.7-0.8-1.6-0.1-2.4c0.1-0.1,0.2-0.2,0.4-0.3c-0.6-0.5-0.8-1.1-0.8-1.8c0-0.7,0.3-1.2,0.9-1.7c-0.6-0.5-0.8-1-0.8-1.7
	c0-0.7,0.3-1.2,1-1.7c-0.1-0.1-0.3-0.2-0.4-0.3c-0.3-0.3-0.5-0.6-0.5-1.1c0-0.7,0-1.3,0.1-2c0-0.2-0.1-0.4-0.3-0.5
	c-3.7-2-4.5-6.4-1.8-9.5c0.2-0.2,0.2-0.3,0.1-0.6c-0.8-2.2,0.3-4.7,2.5-5.8c0.3-0.2,0.4-0.3,0.4-0.6c0-1,0-1.9-0.1-2.9
	c-3.9,0.1-7.8,0.2-11.7,0.2c0,0.1,0,0.3,0,0.4c0,0.8,0,1.6,0,2.4c0,0.4,0.1,0.6,0.5,0.8c1.8,1,2.7,2.4,2.6,4.4
	c0,0.3,0.1,0.4,0.3,0.6c1.7,1.2,2.5,2.8,2.3,4.8c-0.3,2-1.4,3.5-3.5,4.3c-0.6,0.2-1.4,0.2-2.1,0.3c0,1.9,0,4,0,6c0.3,0,0.6,0,1,0
	c1,0,1.6,0.6,1.6,1.6c0,1.3,0,2.6-0.1,4c0,0.9-0.7,1.5-1.6,1.5c-0.3,0-0.6,0-1,0c0,0.3,0,0.5,0,0.8c-0.1,1.1-0.9,2-2.1,1.9
	c-1.1,0-1.9-0.9-1.9-2c0-4.4-0.1-8.9-0.1-13.3c0-0.2,0-0.3,0-0.5c-0.5,0-0.9,0-1.4-0.1c-2.6-0.5-4.6-2.8-4.3-5.3
	c0.2-1.7,0.9-3,2.4-4c0.1-0.1,0.2-0.2,0.2-0.4c0-2.1,0.9-3.7,2.9-4.7c0.1-0.1,0.2-0.2,0.2-0.3c0-1,0-2.1,0-3.1
	c-3.9,0-7.8-0.1-11.8-0.2c0,0.4,0,0.8,0,1.1c0,0.6,0,1.3,0,1.9c0,0.1,0.1,0.3,0.2,0.4c1.8,1,2.8,2.4,2.8,4.4c0,0.1,0.1,0.3,0.2,0.4
	c0.8,0.6,1.2,1.4,1.2,2.3c0,1.5,0,2.9,0,4.4c0,0.9-0.3,1.6-1,2.2c-0.8,0.7-1.6,1.5-2.4,2.2c-0.2,0.2-0.3,0.4-0.3,0.7
	c0.1,3.8,0.2,7.5,0.4,11.3c0,0.6-0.1,1-0.6,1.4c-0.4,0.3-0.8,0.7-1.2,1.1c-0.5,0.4-1.1,0.5-1.6,0.1c-0.5-0.3-0.9-0.7-1.4-1
	c-0.8-0.6-0.9-1.7-0.2-2.4c0.1-0.1,0.2-0.2,0.3-0.3c-1.2-1-1.3-2.4-0.2-3.5c-1.1-0.9-1.2-2.3-0.1-3.5c-1-0.4-1-1.3-0.9-2.2
	c0.1-0.9-0.2-1.6-1.1-2.2c-0.6-0.5-1.2-1-1.8-1.5c-0.7-0.6-1.1-1.4-1.1-2.3c0-1.5-0.1-2.9-0.1-4.4c0-1,0.4-1.8,1.2-2.5
	C3.9,20.9,4,20.7,4,20.6c0.1-2,1-3.5,2.9-4.5C7,16.1,7.1,16,7.1,15.9c0-1,0.1-2.1,0.1-3.2c-0.5,0-0.9,0-1.4,0c-0.7,0-1.4-0.1-2-0.1
	c-1,0-1.7-0.3-2-1.2C1.9,8.7,2,6.2,2.2,3.6c0.3-0.5,0.7-0.9,1.2-1.1C5,2.7,6.6,2.8,8.1,2.9c0.3,0.2,0.5,0.5,0.4,0.9
	C8.3,4.2,8,4.2,7.6,4.2C6.4,4.1,5.2,4,4,3.9C3.6,3.9,3.5,4,3.5,4.4c-0.1,1.9-0.2,3.8-0.3,5.6c0,1.1,0,1.1,1.1,1.2c1,0,2,0.1,3,0.1
	c0-0.2,0-0.4,0-0.6c0-0.9,0-1.7,0.1-2.6c0.1-1.1,1.1-1.8,2.1-1.7c1.1,0.1,1.9,0.9,1.9,2c0,0.8,0,1.7-0.1,2.5c0,0.1,0,0.3,0,0.4
	c4,0.1,7.9,0.2,11.8,0.2c0-0.2,0-0.4,0-0.6c0-0.9,0-1.7,0.1-2.6c0.1-1,1.1-1.7,2.1-1.6c1.1,0.1,1.9,0.8,1.9,1.8c0,0.8,0,1.7,0,2.5
	c0,0.1,0,0.3,0,0.4c3.9,0,7.8-0.1,11.7-0.2c0-0.2,0-0.4,0-0.5c0-0.9-0.1-1.7,0-2.6c0-1.2,1.2-2,2.4-1.8c0.9,0.2,1.6,0.9,1.6,1.8
	c0.1,1,0.1,2,0.1,3c1.2,0,2.2-0.1,3.3-0.1c0.4,0,0.5-0.1,0.5-0.5c-0.1-2-0.2-4.1-0.3-6.1c0-0.6,0-0.6-0.7-0.6
	C34.4,4.6,23,4.7,11.5,4.4c-0.4,0-0.7-0.1-0.9-0.5c-0.1-0.4,0.1-0.6,0.4-0.8C23,3.4,34.6,3.2,46.6,2.6z M4.3,22.4
	c-0.1,0-0.1,0-0.2,0c-0.1,0.4-0.2,0.8-0.2,1.2c0,1.4,0,2.8,0,4.2c0,0.6,0.2,1.1,0.7,1.5c0.9,0.8,1.8,1.6,2.7,2.4
	c0.3,0.2,0.4,0.5,0.4,0.9c0,0.6,0,1.3,0.1,1.9c0,0.2,0.1,0.4,0.3,0.6c0.7,0.7,0.8,1.5,0.1,2.2c-0.3,0.4-0.3,0.9,0.1,1.2
	c0.8,0.7,0.8,1.5,0.1,2.2C8,41,8.1,41.6,8.4,41.9c0.5,0.4,0.8,0.9,0.5,1.5c-0.1,0.3-0.3,0.5-0.5,0.7c-0.2,0.2-0.2,0.4,0,0.5
	c0.4,0.3,0.9,0.6,1.3,1c0.4-0.3,0.7-0.6,1-0.9c0.2-0.2,0.3-0.4,0.3-0.7c-0.2-3.8-0.3-7.7-0.4-11.5c0-0.4,0.1-0.8,0.4-1.1
	c0.9-0.8,1.8-1.6,2.7-2.4c0.4-0.4,0.6-0.8,0.6-1.3c0-1.4,0-2.9,0-4.3c0-1-0.7-1.7-1.8-1.7c-1.8,0-3.6,0-5.3,0c-0.5,0-1.1,0-1.6,0
	c0.3,0.8,0.8,1.4,1.5,1.9c0.3,0.2,0.5,0.2,0.8,0c1-0.5,2-0.4,2.9,0.2c0.9,0.6,1.2,1.5,1,2.5c-0.3,1.4-1.8,2.2-3.2,1.9
	c-1.5-0.3-2.4-1.7-2-3.1c0-0.1,0-0.4-0.1-0.4C5.5,24.2,4.8,23.4,4.3,22.4z M20.4,22.6c-1.6,1-2.1,3.1-1.3,4.8c0.7,1.4,2.3,2.6,4.4,2
	c0.5-0.1,0.9,0.1,0.9,0.6c0,0.1,0,0.3,0,0.4c0,4.7,0,9.4,0,14.1c0,0.6,0.2,0.9,0.7,0.9c0.4,0,0.7-0.3,0.7-0.9c0-0.4,0-0.7,0-1.1
	c0-0.5,0.2-0.7,0.8-0.7c0.5,0,0.9,0,1.4,0c0.2,0,0.4-0.1,0.4-0.3c0-1.3,0-2.6,0-3.8c0-0.1-0.1-0.3-0.2-0.3c-0.3,0-0.7,0-1,0
	c0,0.8,0,1.5,0,2.3c0,0.4-0.3,0.7-0.6,0.7c-0.4,0-0.7-0.3-0.7-0.7c0-3.4,0-6.9,0-10.3c0-0.6,0.4-0.8,1-0.7c0.6,0.1,1.2,0.2,1.7,0
	c1.6-0.4,2.5-1.5,2.8-3c0.3-1.6-0.2-2.9-1.6-3.8c-1.2-0.9-2.8-0.8-4.1,0c-0.6,0.4-0.7,0.4-1.3,0c-0.8-0.5-1.8-0.7-2.8-0.5
	c0.3,0.7,0.8,1.2,1.5,1.6c0.3,0.2,0.5,0.2,0.9,0c1-0.5,2.3-0.3,3.1,0.5c0.8,0.8,1,1.9,0.4,2.9c-0.5,0.9-1.7,1.5-2.8,1.3
	c-1.2-0.2-2.1-1-2.2-2.1c-0.1-0.4,0-0.9,0.1-1.4C21.7,24.3,20.9,23.6,20.4,22.6z M37.4,21.5c2.4-1.4,4.8-1.4,7.3-0.2
	c0.5-1.3-0.3-3.1-1.6-3.8c-0.3,1-0.9,1.6-2.1,1.6c-1.1,0-1.7-0.6-2-1.5C37.7,18.3,36.9,20.1,37.4,21.5z M28.9,20.8
	c0.2-1.1-0.6-2.5-1.7-3c-0.3,1-1,1.6-2.1,1.5c-1,0-1.6-0.6-1.9-1.5c-1.1,0.4-2,2-1.7,3c1.2-0.2,2.4-0.1,3.5,0.5
	c0.1,0.1,0.3,0.1,0.4,0C26.5,20.7,27.6,20.6,28.9,20.8z M7.1,17.5c-1.1,0.6-1.9,1.8-1.7,2.9c2.5,0,5,0.1,7.5,0.1
	c0.1-1.1-0.7-2.4-1.7-2.8c-0.3,1-1,1.5-2.1,1.5C8.2,19.1,7.5,18.6,7.1,17.5z M25.8,13.1c0-1.4,0-2.8,0-4.2c0-0.4-0.2-0.7-0.6-0.8
	c-0.4,0-0.7,0.3-0.7,0.8c0,2.8,0,5.5,0,8.3c0,0.5,0.3,0.8,0.7,0.8c0.4,0,0.7-0.3,0.7-0.8C25.8,15.8,25.8,14.5,25.8,13.1z M9.9,12.9
	c0-1.4,0.1-2.8,0.1-4.2c0-0.5-0.2-0.8-0.6-0.8C9,7.8,8.7,8.1,8.7,8.6c0,0.6,0,1.2-0.1,1.8c-0.1,2.1-0.1,4.3-0.1,6.4
	c0,0.1,0,0.3,0,0.4c0,0.4,0.3,0.7,0.7,0.7c0.4,0,0.6-0.3,0.6-0.7C9.9,15.7,9.9,14.3,9.9,12.9z M41.6,12.8c0-0.8,0-1.6-0.1-2.4
	c0-0.7,0-1.3-0.1-2c0-0.4-0.3-0.6-0.7-0.6c-0.4,0-0.6,0.3-0.6,0.6c0,0.1,0,0.3,0,0.4c0.1,1.9,0.1,3.8,0.1,5.7c0,0.8,0,1.7,0.1,2.5
	c0,0.2,0.1,0.5,0.3,0.6c0.2,0.1,0.5,0.2,0.6,0.1c0.2-0.1,0.4-0.4,0.4-0.6C41.7,15.7,41.7,14.2,41.6,12.8z M25.2,27.1
	c0.8,0,1.4-0.8,1.3-1.5c-0.1-0.2-0.1-0.3-0.4-0.3c-0.6,0-1.2,0-1.8,0c-0.2,0-0.3,0-0.4,0.2C23.7,26.3,24.3,27.1,25.2,27.1z
	 M10.5,25.8c0-0.4-0.1-0.5-0.6-0.4c-0.5,0-1,0-1.5,0c-0.4-0.1-0.5,0.1-0.5,0.4c0,0.7,0.5,1.3,1.3,1.3C9.9,27.1,10.5,26.5,10.5,25.8z
	 M42.4,25.7c0-0.3-0.1-0.4-0.5-0.4c-0.5,0.1-1.1,0-1.6,0c-0.3,0-0.4,0-0.4,0.3c-0.1,0.7,0.5,1.3,1.2,1.4
	C41.7,27.1,42.4,26.5,42.4,25.7z"/>
</svg>
