<?xml version="1.0" encoding="utf-8"?>
<!-- Generator: Adobe Illustrator 23.0.0, SVG Export Plug-In . SVG Version: 6.00 Build 0)  -->
<svg version="1.0" id="Layer_1" xmlns="http://www.w3.org/2000/svg" xmlns:xlink="http://www.w3.org/1999/xlink" x="0px" y="0px"
	 viewBox="0 0 50 50" enable-background="new 0 0 50 50" xml:space="preserve">
<path fill="#FFFFFF" d="M38.2,18.5c-0.1,0.3-0.2,0.6-0.4,0.9c-1,2.4-2,4.7-2.8,7c-0.2,0.6-0.6,1-1.1,1.4
	c-6.8,5.1-12.2,10.1-16.5,15.4c-1,1.2-2.1,1.5-3.3,0.9c-0.3-0.2-0.6-0.4-0.8-0.6c-3.3-3.6-6.4-7.4-9.9-11.3c-1.3-1.4-1.4-3.6,0-5.1
	c5.1-5.5,10.9-10.3,17.9-15.5c0.4-0.3,0.9-0.4,1.4-0.4c3,0,6,0,9-0.1c0.5,0,0.7-0.1,1-0.6c1.6-2.8,5.6-5,9.7-5
	c3.6,0,5.7,2.2,4.7,5.3c-1.1,3.4-4.9,6.6-8.7,7.6C38.5,18.4,38.4,18.5,38.2,18.5z M37.4,13.5c-0.1,0-0.2,0-0.3,0
	c-4.6,0.2-9.3,0.2-13.9,0.2c-0.2,0-0.5,0.1-0.6,0.2C16,18.8,10.2,23.6,5.3,28.9c-0.5,0.6-0.5,1,0,1.5c3.4,3.8,6.4,7.5,9.6,11.1
	c0.4,0.5,0.7,0.5,1.2,0c4.3-5.2,9.7-10,16.3-15c0.2-0.1,0.4-0.4,0.4-0.5c0.8-2.3,1.7-4.6,2.7-7c0.1-0.3,0-0.4-0.2-0.4
	c-1.1-0.3-1.9-0.8-2.5-1.6c-0.3-0.4-0.2-1,0.2-1.5c0.4-0.5,1.1-0.8,1.7-0.7c0.3,0.1,0.6,0.2,0.8,0.4c0.3,0.3,0.6,0.6,1.1,0.7
	C36.9,15,37.1,14.3,37.4,13.5z M39.4,15.7c1.9-0.5,4-2.4,4.6-4.1c0.7-2-0.6-3.4-2.9-3.4c-2.1,0-4.6,1.2-5.4,2.8c0.2,0,0.3,0,0.5,0
	c1.2,0,2.4-0.1,3.5-0.1c1.1,0,1.5,0.4,1.1,1.4c-0.2,0.6-0.5,1.2-0.7,1.8C39.9,14.6,39.7,15.1,39.4,15.7z"/>
<path fill="#FFFFFF" d="M15.6,32.1c-0.3,0.3-0.5,0.6-0.8,0.8c-0.6,0.6-1.3,0.7-1.7,0.2c-0.4-0.5-0.3-1.3,0.3-1.9
	c0.3-0.3,0.6-0.5,0.9-0.8c-0.5-0.6-1-1.2-1.5-1.7c-0.3-0.3-0.4-0.7-0.3-1.2c0.1-0.5,0.5-0.9,0.9-1c0.5-0.2,1,0,1.3,0.3
	c0.9,1.1,1.8,2.2,2.7,3.3c0.1,0.1,0.1,0.2,0.2,0.3c0.4,0.5,1.1,0.5,1.7,0c0.6-0.5,0.7-1.3,0.4-1.8c-0.5-0.7-1-1.3-1.5-2
	c-1.4-2-0.2-5,2.6-6c1.6-0.6,2.9-0.3,3.9,0.5c0.1,0.1,0.2,0.2,0.3,0.3c0.4-0.3,0.7-0.6,1.1-0.9c0.7-0.5,1.5-0.5,1.9,0
	c0.4,0.5,0.1,1.3-0.6,1.8c-0.4,0.3-0.8,0.5-1.2,0.8c0.5,0.6,0.9,1.2,1.3,1.8c0.3,0.4,0.2,0.8-0.1,1.3c-0.3,0.5-0.7,0.8-1.2,0.8
	c-0.5,0.1-0.8-0.1-1-0.4c-0.8-1.1-1.7-2.3-2.6-3.4c-0.3-0.4-0.7-0.5-1.2-0.4c-1,0.2-1.6,1.4-1.1,2.1c0.5,0.7,1,1.3,1.5,1.9
	c1,1.5,0.4,3.8-1.2,5.2c-1.5,1.4-3.5,1.6-4.8,0.3C15.8,32.3,15.7,32.3,15.6,32.1z"/>
</svg>
