<?xml version="1.0" encoding="utf-8"?>
<!-- Generator: Adobe Illustrator 23.0.0, SVG Export Plug-In . SVG Version: 6.00 Build 0)  -->
<svg version="1.0" id="Layer_1" xmlns="http://www.w3.org/2000/svg" xmlns:xlink="http://www.w3.org/1999/xlink" x="0px" y="0px"
	 viewBox="0 0 50 50" enable-background="new 0 0 50 50" xml:space="preserve">
<path fill="#FFFFFF" d="M1.9,29.3c0.2-0.4,0.6-0.5,1.1-0.5c4.3,0,8.7,0.1,13,0.1c0.2,0,0.3,0,0.6,0c-0.1-0.2-0.2-0.4-0.2-0.5
	c-0.6-1.1-1.1-2.2-1.7-3.2c-0.4-0.8-0.7-1.7-0.6-2.7c0-0.1-0.1-0.3-0.2-0.4c-1.5-1.3-1.8-3-0.8-4.7c1-1.8,2-3.7,3.1-5.5
	c0.7-1.3,1.8-1.9,3.3-2c0.1,0,0.2,0,0.3,0c0.5,0.1,0.9-0.1,1.2-0.6c0.8-1.1,1.9-1.7,3.3-1.7c3.7,0,7.4-0.2,11.1,0
	c4.1,0.2,7.5,2.4,10.1,6c1.6,2.2,2.3,4.7,2.4,7.3c0.2,3.4,0.3,6.8,0.4,10.2c0.1,3.3-2.2,6.1-5.5,6.8c-0.5,0.1-1,0.2-1.4,0.2
	c-5.6,0.1-11.3,0.1-16.9,0c-5.8,0-11.7-0.1-17.5-0.3c-0.1,0-0.2,0-0.4,0c0,0.3,0,0.6,0,0.8c0,0.9,0,1.8,0,2.6c0,0.8-0.2,1-1,1
	c-0.9,0-1.7-0.1-2.6-0.1c-0.5,0-0.8-0.2-1-0.6C1.8,37.5,1.8,33.4,1.9,29.3z M32.9,36.5c2.7,0,5.4,0,8.1,0c3.3,0,5.6-2.4,5.6-5.6
	c-0.1-3.4-0.2-6.8-0.4-10.2c0-0.8-0.1-1.6-0.3-2.4c-1.3-5.2-5.9-9.2-11-9.3c-3.5-0.1-6.9,0-10.4,0c-1.4,0-2.3,0.6-2.9,1.9
	c-1.8,3.4-3.6,6.8-5.4,10.2c-0.6,1.1-0.7,2.2-0.1,3.3c1.7,3.4,3.5,6.7,5.3,10.2c0.7,1.3,1.7,1.9,3.2,1.9
	C27.3,36.5,30.1,36.5,32.9,36.5z M8.5,30.3c1.5,2,1.4,4-0.1,6c4.1,0.1,8.2,0.1,12.2,0.2c-0.6-1-1.1-2-1.6-3
	c-0.3-0.6-0.6-0.9-1.3-0.8c-0.1,0-0.3,0-0.4,0c0-0.7,0-1.5,0-2.2c-0.5,0-1,0-1.6,0c0,0.8,0,1.5,0,2.2c-0.5,0-1,0-1.6,0
	c0-0.8,0-1.5,0-2.2c-0.5,0-1,0-1.5,0c0,0.8,0,1.5,0,2.2c-0.5,0-1,0-1.5,0c0-0.7,0-1.5,0-2.2C10.2,30.3,9.4,30.3,8.5,30.3z M3.5,30.2
	c0,2-0.1,4-0.1,5.9c0.7,0,1.4,0.1,2,0C6.7,36,7.7,35,8,33.8c0.2-1.3-0.4-2.5-1.5-3.2C5.5,30.1,4.5,30.3,3.5,30.2z M14.7,20.6
	c1.7-3.1,3.3-6.1,5-9.2c-0.8,0-1.5,0.2-1.9,0.8c-0.2,0.3-0.4,0.7-0.6,1c-0.9,1.6-1.8,3.2-2.7,4.8C13.9,18.9,14,19.9,14.7,20.6z
	 M4.9,37.7c-0.5,0-1,0-1.5,0c0,1,0,2,0,2.9c0.5,0,1,0,1.5,0C4.9,39.7,4.9,38.7,4.9,37.7z"/>
<path fill="#FFFFFF" d="M32.4,12C26.8,12,22,16.8,22,22.7c-0.1,5.9,4.8,10.8,10.8,10.8c5.9,0,10.7-4.8,10.6-10.7
	C43.1,16.9,38.1,12.1,32.4,12z M32.7,31.9c-5.1,0-9.2-4.1-9.2-9.2c0-5.1,4-9.2,9-9.2c4.9,0,9.2,4.2,9.3,9.2
	C41.9,27.8,37.8,31.9,32.7,31.9z"/>
</svg>
