<?xml version="1.0" encoding="utf-8"?>
<!-- Generator: Adobe Illustrator 23.0.0, SVG Export Plug-In . SVG Version: 6.00 Build 0)  -->
<svg version="1.0" id="Layer_1" xmlns="http://www.w3.org/2000/svg" xmlns:xlink="http://www.w3.org/1999/xlink" x="0px" y="0px"
	 viewBox="0 0 50 50" enable-background="new 0 0 50 50" xml:space="preserve">
<path fill="#FFFFFF" d="M7.3,45.1c0.7-2.1,1.3-4.3,2-6.5c1.4-5.1,2.6-10.4,3.8-15.8c0.2-1,0.5-1.2,1.4-1.2c7.6-0.1,15.2-0.1,22.8,0
	c1,0,1.3,0.3,1.5,1.3c1.7,7.5,3.4,14.8,5.6,21.8c0,0.1,0.1,0.2,0.1,0.4c0,0.2,0,0.3,0,0.5c-0.1,0.5-0.4,0.8-0.8,1.1
	c-12.4,1.1-23.3,1.1-35.7,0c-0.4-0.3-0.7-0.6-0.8-1.1C7.3,45.4,7.3,45.3,7.3,45.1z M24.8,34.7c-0.1,0-0.1,0-0.2,0
	c-3.9,0-7.8-0.1-11.6-0.3c-0.2,0-0.3,0.1-0.4,0.3c-0.5,2.1-1.1,4.1-1.7,6.2c-0.3,1.1-0.7,2.3-1,3.4c5,0.5,9.9,0.8,14.9,0.8
	C24.8,41.7,24.8,38.3,24.8,34.7z M41.9,44.4c0-0.1-0.1-0.3-0.1-0.4c-0.9-3-1.8-6-2.5-9.1c-0.1-0.3-0.2-0.4-0.5-0.4
	c-3.8,0.2-7.6,0.2-11.3,0.3c-0.1,0-0.3,0-0.4,0c0,3.5,0,7,0,10.5C32,45.2,36.9,44.9,41.9,44.4z M24.8,32.1c0-2.7,0-5.3,0-8
	c-0.1,0-0.3,0-0.4,0c-2.9,0-5.9,0-8.8,0c-0.3,0-0.4,0.1-0.5,0.4c-0.5,2.3-1.1,4.6-1.6,6.9c0,0.1-0.1,0.3-0.1,0.4
	C17.2,32,20.9,32.1,24.8,32.1z M27,32.1c3.8,0,7.6-0.1,11.4-0.2c0-0.1-0.1-0.3-0.1-0.4c-0.6-2.3-1.1-4.6-1.7-6.9
	c-0.1-0.3-0.2-0.4-0.5-0.4c-2.9,0-5.9,0-8.8,0c-0.1,0-0.2,0-0.4,0C27.1,26.8,27,29.4,27,32.1z"/>
<path fill="#FFFFFF" d="M17.9,2.5c0.7,0.3,1,0.8,1.1,1.5c0.3,2.1,1.9,3.4,4,3.6c1,0.1,1.6,1,1.2,1.8c-0.2,0.5-0.6,0.8-1.2,0.8
	c-1.2,0.1-2.2,0.6-2.9,1.6c-0.5,0.7-0.6,1.5-0.6,2.3c0,0.9-0.5,1.4-1.2,1.4c-0.7,0-1.2-0.5-1.3-1.4c-0.3-2.2-1.8-3.6-4-3.6
	c-0.8,0-1.4-0.5-1.5-1.2C11.5,8.7,12,8.1,12.8,8c2.1-0.3,3.5-1.7,3.5-3.9c0-0.7,0.2-1.3,0.9-1.6C17.4,2.5,17.6,2.5,17.9,2.5z
	 M16.9,9.1c0.4,0.3,0.8,0.7,1.2,1.1c0.3-0.4,0.7-0.8,1-1.2c-0.4-0.4-0.8-0.8-1.2-1.1C17.6,8.3,17.2,8.7,16.9,9.1z"/>
<path fill="#FFFFFF" d="M10.7,13.1c0.7,0,1.3,0.4,1.4,1.2c0.2,0.9,0.5,1.7,1.1,2.4c0.8,0.9,1.8,1.3,2.9,1.4c0.9,0,1.5,0.9,1.2,1.8
	c-0.2,0.5-0.6,0.8-1,0.8c-1.1,0.1-2,0.6-2.7,1.6C13.1,23,13,23.8,13,24.6c0,1-0.8,1.5-1.6,1.1c-0.4-0.2-0.6-0.7-0.7-1.2
	c-0.2-1.2-0.7-2.2-1.7-2.9c-0.7-0.5-1.4-0.7-2.2-0.7c-0.9,0-1.5-0.9-1.3-1.7c0.2-0.5,0.5-0.7,1-0.8c1.2-0.1,2-0.7,2.6-1.7
	c0.4-0.7,0.5-1.5,0.4-2.3C9.6,13.7,10,13.2,10.7,13.1z M11.5,20.6c0.3-0.4,0.7-0.8,0.9-1.1c-0.4-0.4-0.8-0.7-1.1-1.1
	c-0.3,0.4-0.6,0.8-0.9,1.1C10.7,19.9,11.1,20.2,11.5,20.6z"/>
</svg>
