<?xml version="1.0" encoding="utf-8"?>
<!-- Generator: Adobe Illustrator 23.0.0, SVG Export Plug-In . SVG Version: 6.00 Build 0)  -->
<svg version="1.0" id="Layer_1" xmlns="http://www.w3.org/2000/svg" xmlns:xlink="http://www.w3.org/1999/xlink" x="0px" y="0px"
	 viewBox="0 0 50 50" enable-background="new 0 0 50 50" xml:space="preserve">
<path fill="#FFFFFF" d="M1.6,30.6c0.4-1,1.2-1.3,2.3-1.1c0-0.2,0-0.4,0-0.5c0-1.7,0-3.4,0-5.1c-0.1-2,1.6-3.3,3.5-3.2
	c1,0.1,2.1,0,3.1,0c0.1,0,0.3,0,0.5,0c0.1-0.6-0.2-1.4,0.8-1.4c1,0,0.7,0.8,0.8,1.4c0.4,0,0.8,0,1.1,0c0.9,0,1.9,0,2.8,0
	c1.6,0,3,1.3,3,2.8c0,1.8,0,3.6,0,5.3c0,0.2,0,0.3,0,0.5c0.3,0,0.5,0,0.8,0c0.9,0,1.6,0.6,1.6,1.5c0,0.9,0,1.9,0,2.8
	c0,0.8-0.5,1.3-1.4,1.5c-0.2,0.8-0.3,1.6-0.5,2.4c-0.6,1.9-1.9,3.4-3.7,4.5c-0.3,0.2-0.4,0.3-0.4,0.6c0,0.9,0.1,1.7,0.1,2.6
	C21,45,26,45,31,45.1c0-0.1,0-0.3,0-0.4c0.1-2.8,0.1-5.7,0.2-8.5c0-0.3-0.1-0.4-0.4-0.5c-4.2-1.9-6.5-4.9-6.6-9.3c0-0.4,0-0.8,0-1.3
	c0,0,0-0.1,0-0.1c-0.2,0-0.4-0.1-0.6-0.1c-1.1-0.3-1.9-1.3-1.7-2.4c0.1-1,1.1-1.8,2.3-1.9c0.5,0,1,0,1.6,0c0-0.2,0-0.4,0-0.5
	c0-2.9-0.1-5.8,0-8.7c0.1-4,3.6-7.5,7.8-8c4.8-0.7,9.2,2,10.4,6.6c0.2,0.6,0.2,1.3,0.2,1.9c0.1,2.7,0.2,5.4,0.3,8.1
	c0,0.2,0,0.3,0,0.6c0.5,0,0.9,0,1.4,0c1.4,0,2.5,0.8,2.6,2c0.1,1.2-0.8,2.2-2.2,2.4c0,0-0.1,0-0.2,0c0,0.4,0,0.8,0,1.2
	c-0.1,4.6-2.5,7.8-6.9,9.6c-0.1,0.1-0.3,0.2-0.3,0.4c-0.1,3-0.2,6-0.4,9c0,0,0,0.1,0,0.2c0.1,0,0.3,0,0.5,0c1.8,0.1,3.5,0.2,5.3,0.3
	c0.4,0,0.8,0.1,0.9,0.6c0.1,0.5-0.2,0.7-0.5,1c-13.4-0.7-26.2-0.7-39.6,0c0,0-0.1-0.1-0.1-0.1c-0.4-0.2-0.5-0.5-0.4-0.9
	c0.1-0.4,0.4-0.5,0.8-0.6c0.4,0,0.7,0,1.1-0.1c0.6,0,1.2-0.1,1.9-0.1c-0.1-1-0.1-1.8-0.2-2.7c0-0.3-0.1-0.4-0.4-0.6
	c-1.7-0.8-3.1-2.1-3.8-3.8c-0.4-0.9-0.6-2-0.9-3c-0.8-0.2-1-0.3-1.4-1.1C1.6,33.1,1.6,31.8,1.6,30.6z M27.4,20.7c1.3,0,2.6,0,3.9,0
	c0-0.3,0-0.5,0-0.7c0-0.4,0.4-0.7,0.8-0.7c0.4,0,0.7,0.3,0.8,0.7c0,0.2,0,0.5,0,0.7c0.6,0,1,0,1.6,0c0-0.2,0-0.4,0-0.6
	c0-1.1-0.1-2.2,0-3.3c0.1-1,1-1.8,2.1-1.9c1.8-0.1,2.9,1.4,2.5,3.1c-0.1,0.3-0.4,0.5-0.8,0.5c-0.4,0-0.6-0.2-0.7-0.5
	c0-0.2,0-0.4,0-0.6c0-0.7-0.3-1-0.8-1c-0.5,0-0.8,0.3-0.8,1c0,0.8,0,1.6,0,2.3c0,0.3,0,0.6,0,1c0.6,0,1,0,1.5,0
	c0.1-0.6-0.2-1.4,0.8-1.4c1,0,0.7,0.8,0.8,1.4c1.3,0,2.6,0,3.8,0c0-0.1,0-0.1,0-0.2c0-3-0.1-6-0.3-8.9c-0.3-4.4-4.9-7.5-9.3-6.5
	c-3.6,0.8-6.1,3.6-6.1,7.2c0,2.7,0,5.4,0,8.1C27.4,20.4,27.4,20.5,27.4,20.7z M25.8,25c-0.4,3.8,1.3,7.2,4.6,8.9
	c3.5,1.8,6.9,1.7,10.2-0.4c3.1-2,4.2-5,3.9-8.5C38.3,25,32.1,25,25.8,25z M5.5,29.4c4.2-0.1,8.3-0.1,12.4-0.1c0-0.1,0-0.1,0-0.1
	c0-1.8,0-3.6,0-5.4c0-1.1-0.6-1.6-1.8-1.6c-3,0-6,0-9-0.1c-1.2,0-1.8,0.5-1.8,1.7c0,1.7,0,3.5,0,5.2C5.4,29.1,5.5,29.2,5.5,29.4z
	 M18.8,35.1c-4.7,0.1-9.3,0.2-14,0.3c0.2,2.4,1.3,4.2,3.4,5.4c2.5,1.4,5,1.3,7.4-0.1C17.7,39.4,18.7,37.5,18.8,35.1z M3.2,33.9
	c5.7-0.2,11.4-0.3,17.1-0.3c0-1,0-1.9,0-2.8c-5.7,0-11.4,0.1-17.1,0.2C3.2,31.9,3.2,32.9,3.2,33.9z M37.4,36.4
	c-1.5,0.3-3.1,0.2-4.6-0.1c0,3-0.1,5.9-0.2,8.8c1.5,0,3,0.1,4.5,0.2C37.2,42.3,37.3,39.4,37.4,36.4z M35.2,22.1c-3.2,0-6.4,0-9.5,0
	c-0.5,0-1,0-1.5,0c-0.4,0-0.7,0.3-0.7,0.7c0,0.4,0.3,0.7,0.7,0.8c0.1,0,0.2,0,0.4,0c7.1,0,14.3,0,21.4-0.1c0.1,0,0.3,0,0.4,0
	c0.4-0.1,0.6-0.4,0.6-0.8c0-0.4-0.3-0.7-0.7-0.7c-0.2,0-0.3,0-0.5,0C42.2,22.1,38.7,22.1,35.2,22.1z M14.3,42.8
	c-1.5,0.4-3,0.5-4.5,0.2c0,0.9,0.1,1.7,0.1,2.5c1.5-0.1,3-0.2,4.5-0.2C14.4,44.4,14.3,43.6,14.3,42.8z"/>
</svg>
