<?xml version="1.0" encoding="utf-8"?>
<!-- Generator: Adobe Illustrator 23.0.0, SVG Export Plug-In . SVG Version: 6.00 Build 0)  -->
<svg version="1.0" id="Layer_1" xmlns="http://www.w3.org/2000/svg" xmlns:xlink="http://www.w3.org/1999/xlink" x="0px" y="0px"
	 viewBox="0 0 50 50" enable-background="new 0 0 50 50" xml:space="preserve">
<g>
	<path fill="#FFFFFF" d="M37.2,19c0,0.4,0.1,0.6,0.6,0.6c0.6,0,1.1,0,1.7,0c0.3,0,0.5-0.1,0.6-0.3c0-2.9,0-5.7-0.1-8.6
		c-0.1-0.3-0.4-0.6-0.7-0.7c-9.5-0.1-19.1-0.1-28.6,0c-0.3,0.1-0.6,0.4-0.7,0.7c-0.1,9.5-0.1,19.1,0,28.6c0.2,0.5,0.6,0.7,1.2,0.7
		c9.2,0.1,18.4,0.1,27.6,0c0.6,0,1-0.2,1.2-0.7c0.1-5.5,0.1-9.6,0.1-15.1c0-0.4-0.4-0.4-0.6-0.4c-0.5,0-1.1,0-1.6,0
		c-0.4,0-0.5,0.1-0.5,0.5c0,0.4,0-0.2,0,0.3c-0.1,0-0.3,0-0.4,0c-1.9,0-3.9,0-5.8,0c-0.5,0-0.6,0.1-0.6,0.6c0,0.5,0,1.1,0,1.6
		c0,0.4,0.1,0.6,0.6,0.6c0.7,0,1.4,0,2,0c0.1,0,0.2,0,0.3,0c0,3.3,0,6.5,0,9.8c-2.6,0-5.2,0-7.8,0c0-0.1,0-0.3,0-0.4
		c0-1.3,0-2.6,0-3.9c0-0.5-0.1-0.6-0.6-0.6c-0.5,0-1.1,0-1.6,0c-0.5,0-0.6,0.1-0.6,0.6c0,1.3,0,2.6,0,3.9c0,0.1,0,0.2,0,0.3
		c-0.2,0-0.4,0-0.6,0c0-0.3,0-0.6,0-0.9c0-0.2-0.1-0.5-0.2-0.6c-0.3-0.3-0.3-0.6-0.3-0.9c0-0.2,0-0.4,0-0.6c0-1-0.8-1.8-1.8-1.8
		c-1,0-1.9,0.7-1.9,1.8c0,0.3,0,0.7,0,1c0,0.1,0,0.2-0.1,0.3c-0.3,0.2-0.4,0.6-0.4,0.9c0,0.3,0,0.6,0,0.8c-1.5,0-3,0-4.4,0
		c0-1.6,0-3.3,0-4.9c0.1,0,0.2,0,0.3,0c1.1,0,2.3,0,3.4,0c0.7,0,1.1-0.4,1.1-1.1c0-1.1,0-2.3,0-3.4c0-0.1,0-0.2,0-0.3
		c1.7,0,3.3,0,5,0c0,0.5,0-0.2,0,0.2c0,0.3,0.2,0.5,0.5,0.5c0.6,0,1.3,0,1.9,0c0.3,0,0.4-0.2,0.5-0.5c0-0.3,0,0.1,0-0.1
		c0-0.2,0,0.1,0-0.2c0.5,0-0.3,0,0.1,0c0.5,0,0.6-0.1,0.6-0.6c0-0.5,0-1.1,0-1.6c0-0.5-0.1-0.6-0.6-0.6c-0.4,0,0.3,0-0.1,0
		c0-0.5,0,0.2,0-0.2c0-0.4-0.2-0.5-0.5-0.5c-0.5,0-1.1,0-1.6,0c-0.6,0-0.7,0.1-0.7,0.7c0,0.4,0-0.3,0,0.1c-0.1,0-7.3,0-9.5,0
		c-0.1,0-0.2,0-0.4,0c0-3.9,0-7.8,0-11.7c0.4,0,0.7,0,1,0c0,0.1,0,0.3,0,0.4c0,2.7,0,5.5,0,8.2c0,0.7,0.3,1.1,1.1,1.1
		c1.8,0,3.7,0,5.5,0c0.8,0,1.1-0.3,1.1-1.1c0-2.8,0-5.5,0-8.3c0-0.1,0-0.2,0-0.3c0.4,0,0.7,0,1.1,0c0,0.1,0,0.3,0,0.4
		c0,2,0,3.9,0,5.9c0,0.4,0.1,0.6,0.6,0.6c0.5,0,1.1,0,1.6,0c0.6,0,0.7-0.1,0.7-0.7c0-1.9,0-3.8,0-5.8c0-0.1,0-0.2,0-0.4
		c1,0,0.2,0,1.2,0c0,0.3,0,0.8,0,1.1c0,0.7,0.4,1,1,1c1.6,0,5.9,0,7.5,0c0.7,0,1-0.3,1-1c0-0.3,0-0.8,0-1c0.7,0,0.4,0,1,0
		c0,0.1,0,0.3,0,0.4C37.2,15.1,37.2,17.1,37.2,19z M18.7,34c0.1-0.5,0.6-0.8,1-0.8c0.5,0,0.9,0.4,0.9,0.9c0,0.4,0,0.8,0,1.2
		c-0.7,0-1.3,0-2,0C18.7,34.8,18.6,34.4,18.7,34z M18.2,36.2c1,0,2,0,3,0c0,0.3,0,0.7,0,1c-1,0-2,0-3,0
		C18.2,36.9,18.2,36.5,18.2,36.2z M16.7,31.3c-1.3,0-2.6,0-4,0c0-1.3,0-2.6,0-3.9c0.5,0,1,0,1.5,0c0,0.3,0,0.6,0,0.9
		c0,0.4,0.2,0.5,0.4,0.6c0.3,0,0.4-0.2,0.5-0.6c0-0.3,0-0.6,0-0.9c0.5,0,1,0,1.5,0C16.7,28.7,16.7,30,16.7,31.3z M15.8,13.7
		c0,0.7,0.3,1.1,1,1.1c0.6,0,1.2,0,1.8,0c0.6,0,1-0.4,1-1c0-0.3,0-0.6,0-1c0.4,0,0.7,0,1,0c0,1,0,2,0,3c-2,0-3.9,0-5.9,0
		c0-1,0-2,0-3c0.3,0,0.7,0,1,0C15.8,13.1,15.8,13.4,15.8,13.7z M16.7,13.8c0-0.4,0-0.7,0-1c0.7,0,1.3,0,2,0c0,0.3,0,0.7,0,1
		C18,13.8,17.4,13.8,16.7,13.8z M20.6,21.6c-2,0-3.9,0-5.9,0c0-1.6,0-3.3,0-4.9c2,0,3.9,0,5.9,0C20.6,18.3,20.6,20,20.6,21.6z
		 M35.3,14c-1.6,0-6.1,0-7.7,0c0-0.3,0-0.8,0-1.2c1.6,0,6.1,0,7.7,0C35.3,13.1,35.3,13.6,35.3,14z M34.2,36.2c1,0,2,0,3,0
		c0,0.3,0,0.7,0,1c-1,0-2,0-3,0C34.2,36.9,34.2,36.5,34.2,36.2z M34.2,35.3c0-2,0-3.9,0-5.9c1,0,2,0,3,0c0,2,0,3.9,0,5.9
		C36.2,35.2,35.2,35.2,34.2,35.3z M37.2,28.4c-1,0-2,0-3,0c0-0.3,0-0.7,0-1c1,0,2,0,3,0C37.2,27.7,37.2,28.1,37.2,28.4z M36.7,32
		c0,0.2,0,0.4,0,0.6c0,0.3-0.2,0.4-0.4,0.4c-0.2,0-0.4-0.2-0.4-0.5c0-0.1,0-0.2,0-0.2c0,0,0,0,0,0c0-0.1,0-0.2,0-0.2
		c0-0.2,0.1-0.4,0.4-0.4C36.5,31.6,36.7,31.7,36.7,32z"/>
</g>
</svg>
