<?xml version="1.0" encoding="utf-8"?>
<!-- Generator: Adobe Illustrator 23.0.0, SVG Export Plug-In . SVG Version: 6.00 Build 0)  -->
<svg version="1.0" id="Layer_1" xmlns="http://www.w3.org/2000/svg" xmlns:xlink="http://www.w3.org/1999/xlink" x="0px" y="0px"
	 viewBox="0 0 50 50" enable-background="new 0 0 50 50" xml:space="preserve">
<path fill="#FFFFFF" d="M29.6,47.5c-0.9-0.3-1-1.3-1.5-2c-0.5,0.1-0.9,0.3-1.4,0.4c-0.6,0.2-1.1,0.1-1.5-0.3
	c-0.4-0.4-0.4-0.9-0.2-1.4c0.6-1.3,1.1-2.6,1.7-4c-0.5-0.2-0.7-0.5-0.7-1c0-0.4,0-0.9,0-1.4c-0.4-0.1-0.8-0.2-1.3-0.3
	c-0.9-0.2-1.1-0.7-0.7-1.4c0.2-0.4,0.4-0.8,0.6-1.2c-0.3-0.2-0.7-0.5-1-0.7c-0.8-0.6-0.8-0.9-0.1-1.7c-0.2,0-0.4,0-0.6,0
	c-6,0-12-0.1-18-0.3c-0.2,0-0.4,0-0.6,0c-0.4-0.1-0.5-0.3-0.6-0.6c0-0.2,0-0.3,0-0.5c0.4-8.9,1.2-17.8,2.5-26.8
	c0.1-0.9,0.3-1.1,1.2-1.2c11.7-0.9,23.3-0.9,34.9,0c0.9,0.1,1.1,0.3,1.2,1.2c1.3,8.9,2.1,17.8,2.4,26.7c0,1-0.1,1.1-1.2,1.2
	c-1.5,0.1-3,0.1-4.5,0.1c-0.2,0-0.3,0-0.6,0c0.2,0.2,0.2,0.3,0.3,0.4c0.3,0.4,0.2,0.8-0.2,1.1c-0.4,0.3-0.8,0.6-1.2,0.9
	c0.2,0.4,0.5,0.8,0.7,1.2c0.4,0.7,0.1,1.2-0.6,1.3c-0.5,0.1-0.9,0.2-1.3,0.3c-0.3,0.8,0.4,1.7-0.6,2.4c0.3,0.8,0.7,1.6,1,2.4
	c0.2,0.5,0.4,0.9,0.6,1.4c0.2,0.5,0.2,0.9-0.2,1.3c-0.4,0.4-0.9,0.5-1.4,0.4c-0.5-0.1-1-0.2-1.5-0.4c-0.2,0.4-0.4,0.9-0.6,1.3
	c-0.2,0.5-0.6,0.8-1.2,0.8c-0.6,0-0.9-0.3-1.2-0.8c-0.2-0.5-0.4-1-0.7-1.6c-0.2,0.6-0.5,1.1-0.6,1.5c-0.2,0.5-0.5,0.9-1,1.1
	C29.9,47.5,29.8,47.5,29.6,47.5z M31.7,26.3c0.3-0.3,0.7-0.6,1-0.8c0.7-0.6,1.2-0.4,1.6,0.3c0.2,0.4,0.4,0.8,0.6,1.2
	c0.5-0.1,0.9-0.2,1.3-0.3c0.8-0.2,1.2,0.1,1.2,0.9c0,0.4,0,0.9,0,1.3c0,0,0.1,0,0.1,0c0.4,0.1,0.8,0.1,1.3,0.2
	c0.7,0.1,1,0.6,0.7,1.2c-0.1,0.1-0.1,0.3-0.2,0.5c1.8,0,3.6-0.1,5.4-0.1c-0.3-8.7-1.1-17.4-2.2-26.1C30.6,4,19.4,4,7.7,4.6
	c-1.1,8.7-1.9,17.4-2.2,26.1C11.8,30.9,18,31,24.3,31c-0.1-0.1-0.1-0.2-0.1-0.3c-0.4-0.9-0.2-1.3,0.8-1.5c0.4-0.1,0.8-0.2,1.1-0.2
	c0-0.5,0-0.9,0-1.4c0-0.7,0.4-1.1,1.1-0.9c0.5,0.1,0.9,0.2,1.4,0.3c0.2-0.4,0.4-0.9,0.6-1.3c0.3-0.7,0.9-0.8,1.4-0.3
	C30.9,25.7,31.3,26,31.7,26.3z M27.7,38.5c0.4-0.1,0.7-0.2,1-0.3c0.6-0.1,0.9,0,1.1,0.5c0.2,0.3,0.3,0.6,0.5,1
	c0.3-0.3,0.6-0.5,0.9-0.7c0.4-0.3,0.8-0.3,1.2,0c0.3,0.2,0.6,0.4,0.9,0.7c0.2-0.4,0.3-0.7,0.5-1c0.3-0.5,0.6-0.7,1.1-0.5
	c0.3,0.1,0.7,0.1,1,0.2c0-0.4,0-0.7,0-1c0-0.7,0.2-0.9,0.9-1.1c0.3-0.1,0.6-0.1,1-0.2c-0.1-0.2-0.2-0.4-0.3-0.5
	c-0.1-0.2-0.2-0.3-0.3-0.5C37,34.6,37,34.3,37.4,34c0.3-0.2,0.6-0.5,0.9-0.7c-0.2-0.2-0.4-0.3-0.6-0.4c-0.8-0.6-0.9-0.8-0.4-1.6
	c0.1-0.2,0.2-0.4,0.3-0.7c-0.1,0-0.1,0-0.1-0.1c-0.3-0.1-0.6-0.1-0.9-0.2c-0.6-0.1-0.8-0.4-0.8-0.9c0-0.3,0-0.7,0-1.1
	c-0.3,0.1-0.6,0.2-1,0.3c-0.6,0.2-0.9,0-1.2-0.6c-0.1-0.3-0.3-0.6-0.4-0.9c-0.2,0.2-0.4,0.3-0.6,0.5c-0.7,0.6-1,0.6-1.7,0
	c-0.2-0.2-0.4-0.3-0.6-0.5c-0.2,0.3-0.3,0.6-0.4,0.9c-0.3,0.6-0.6,0.7-1.2,0.6c-0.3-0.1-0.6-0.2-1-0.2c0,0.4,0,0.8,0,1.1
	c0,0.5-0.2,0.8-0.8,0.9c-0.3,0.1-0.7,0.1-1.1,0.2c0.2,0.3,0.3,0.6,0.4,0.8c0.4,0.7,0.3,1-0.3,1.4c-0.2,0.2-0.5,0.3-0.7,0.5
	c0,0.1,0,0.1,0,0.1c0.3,0.2,0.5,0.4,0.8,0.6c0.4,0.3,0.5,0.7,0.3,1.2c-0.2,0.3-0.3,0.6-0.5,1c0.4,0.1,0.7,0.1,1.1,0.2
	c0.6,0.1,0.8,0.4,0.8,1C27.7,37.7,27.7,38.1,27.7,38.5z M31.8,40.4c0,0-0.1,0.1-0.1,0.1c0.7,1.6,1.3,3.1,2,4.7
	c0.4-0.6,0.5-1.4,1.2-1.5c0.6-0.1,1.3,0,2,0.1c-0.6-1.3-1.2-2.7-1.9-4.3c-0.2,0.5-0.4,0.9-0.6,1.3c-0.4,0.8-0.9,0.9-1.6,0.4
	C32.5,41,32.1,40.7,31.8,40.4z M26.7,44.2c0.7-0.1,1.3-0.3,1.9-0.2c0.7,0.1,0.8,0.9,1.2,1.5c0.4-0.9,0.7-1.7,1-2.5
	c0-0.1,0-0.2,0-0.3c-0.2-0.4-0.3-0.8-0.5-1.1c-0.7,0.1-1,0-1.2-0.6c-0.2-0.4-0.4-0.8-0.6-1.2C28,41.3,27.3,42.8,26.7,44.2z"/>
<path fill="#FFFFFF" d="M24.9,16.3c-4.9,0-9.8,0.1-14.8,0.2c-0.2,0-0.4,0-0.6,0c-0.3-0.1-0.5-0.3-0.5-0.6c0-0.3,0.2-0.6,0.5-0.7
	C9.8,15,10,15,10.2,15c9.8-0.3,19.8-0.3,29.6,0c0.2,0,0.4,0,0.5,0.1c0.3,0.1,0.5,0.4,0.5,0.7c0,0.4-0.2,0.6-0.5,0.6
	c-0.2,0-0.4,0-0.6,0C34.8,16.4,29.9,16.3,24.9,16.3z"/>
<path fill="#FFFFFF" d="M25,20.4c-5,0-10,0-15,0.1c-0.2,0-0.3,0-0.5,0c-0.4,0-0.7-0.3-0.7-0.7c0-0.4,0.3-0.7,0.7-0.8
	c0.1,0,0.3,0,0.4,0c10-0.2,20.1-0.2,30.1,0c0.2,0,0.4,0,0.6,0.1c0.3,0.1,0.5,0.4,0.5,0.7c0,0.4-0.2,0.6-0.5,0.6c-0.2,0-0.4,0-0.6,0
	C35,20.4,30,20.4,25,20.4z"/>
<path fill="#FFFFFF" d="M24.9,24.3c-5.1,0-10.1,0-15.2,0c-0.2,0-0.4,0-0.5,0c-0.4,0-0.7-0.3-0.7-0.7c0-0.4,0.3-0.6,0.7-0.7
	c0.1,0,0.3,0,0.4,0c10.2,0,20.4,0,30.6,0c0.2,0,0.4,0,0.6,0.1c0.3,0.1,0.5,0.4,0.5,0.7c0,0.3-0.2,0.6-0.5,0.6c-0.2,0-0.4,0-0.6,0
	C35.1,24.3,30,24.3,24.9,24.3z"/>
<path fill="#FFFFFF" d="M17.8,12.4c-2.5,0-4.9,0.1-7.4,0.2c-0.7,0-1-0.2-1-0.7c0.1-0.5,0.4-0.7,1.1-0.8c4.9-0.2,9.8-0.3,14.7-0.3
	c0.2,0,0.4,0,0.5,0.1c0.3,0.1,0.5,0.4,0.5,0.7c0,0.4-0.2,0.6-0.5,0.7c-0.2,0-0.4,0-0.5,0C22.7,12.3,20.2,12.4,17.8,12.4z"/>
<path fill="#FFFFFF" d="M36.1,33.3c0,2.3-2,4.3-4.3,4.4c-2.4,0-4.4-1.9-4.4-4.2c0-2.4,2-4.3,4.3-4.3C34.1,29.1,36.1,31,36.1,33.3z
	 M28.9,33.4c0,1.5,1.3,2.8,2.9,2.8c1.6,0,2.8-1.3,2.8-2.8c0-1.5-1.3-2.8-2.9-2.7C30.1,30.6,28.9,31.9,28.9,33.4z"/>
</svg>
