<?xml version="1.0" encoding="utf-8"?>
<!-- Generator: Adobe Illustrator 23.0.0, SVG Export Plug-In . SVG Version: 6.00 Build 0)  -->
<svg version="1.0" id="Layer_1" xmlns="http://www.w3.org/2000/svg" xmlns:xlink="http://www.w3.org/1999/xlink" x="0px" y="0px"
	 viewBox="0 0 50 50" enable-background="new 0 0 50 50" xml:space="preserve">
<path fill="#FFFFFF" d="M4.2,31.3c0.3-0.3,0.7-0.4,1.2-0.4c2,0.1,4.1,0.1,6.1,0.2c0.3,0,0.5,0,0.7-0.2c1.2-1.1,2.6-1.9,4.2-2.1
	c2.1-0.2,3.7,0.4,4.8,2c0.1,0.2,0.3,0.3,0.4,0.4c1.5,0.6,2.9,1.3,4.4,1.9c1.1,0.5,1.9,1.2,2.2,2.5c1.2-0.2,2.3-0.5,3.5-0.7
	c1-0.2,2-0.4,3-0.5c1.3-0.1,2.2,0.7,2.6,2.1c0.3,1.3,0,2.7-1,3.6c-0.5,0.4-1,0.7-1.6,0.9c-3.9,1-7.7,1.9-11.6,2.7
	c-0.5,0.1-1,0.1-1.4,0.2c-0.4-0.1-0.9-0.1-1.3-0.2c-1.6-0.4-3-1.4-4.3-2.2c-0.9-0.5-1.7-1.1-2.5-1.6c-0.6-0.4-1.2-0.6-1.9-0.7
	c-0.1,0.3-0.1,0.5-0.1,0.9c0,0.1,0,0.2-0.1,0.3c-0.1,0.7-0.3,0.9-1.1,0.8c-1.3-0.1-5.5-0.5-6.8-0.6c-0.5,0-0.8-0.2-0.9-0.6
	C2.9,37,3.5,34.2,4.2,31.3z M11.7,37.7c1.2,0.2,2.2,0.6,3.2,1.3c1.3,0.9,2.7,1.7,4,2.6c0.7,0.4,1.4,0.6,2.1,0.7
	c0.8,0.1,1.4-0.1,2.1-0.2c3.7-0.8,7.4-1.7,11.1-2.7c0.4-0.1,0.8-0.4,1.2-0.7c0.8-0.9,0.5-2.4-0.6-2.6c-0.3-0.1-0.6,0-0.9,0
	c-1.9,0.4-3.8,0.7-5.6,1.1c-0.2,0-0.3,0.1-0.4,0.4c-0.7,1.6-2.3,2.2-3.8,1.5c-0.7-0.3-1.3-0.6-2-0.9c-1.4-0.6-2.8-1.2-4.2-1.8
	c-0.4-0.2-0.5-0.4-0.5-0.8c0.1-0.3,0.4-0.6,0.7-0.6c0.2,0,0.4,0,0.5,0.1c1,0.4,2,0.8,3.1,1.3c1,0.4,1.9,0.8,2.9,1.3
	c0.6,0.3,1.3,0.1,1.8-0.5c0.4-0.6,0.5-1.3,0-1.9c-0.2-0.3-0.6-0.5-0.9-0.7c-1.7-0.8-3.3-1.5-5-2.2c-0.2-0.1-0.4-0.3-0.6-0.5
	c-0.8-1.3-2.1-1.9-3.9-1.6c-1.3,0.2-2.4,0.9-3.2,1.9c-0.1,0.1-0.1,0.3-0.2,0.4c-0.3,1.2-0.5,2.4-0.7,3.6
	C11.9,36.6,11.8,37.1,11.7,37.7z M4.2,39.2c1,0.1,4.8,0.4,5.8,0.5c0.3-2.4,0.7-4.8,1.3-7.2c-1,0-4.7-0.2-5.7-0.3
	C5,34.6,4.5,36.9,4.2,39.2z M38.3,9.8c0.2-0.9,0.2-1.5,0.2-1.7c0.1-0.5,0.4-0.9,0.9-0.9c1.5-0.2,5.9-0.8,7.4-1
	c0.5-0.1,0.8,0.2,0.7,0.8c-0.3,3.6-1.1,7.1-2,10.7c-0.1,0.6-0.6,0.9-1.1,0.9c-2.1,0.1-4.2,0.2-6.3,0.3c-0.3,0-0.5,0.1-0.8,0.4
	c-1.3,1.3-2.6,2.3-4.2,2.6c-0.3,0.1-0.6,0.1-0.9,0.1c-0.4,0-0.7,0.1-1,0.4c-2.9,2.4-5.8,4.8-8.6,6.9c-0.7,0.5-1,0.5-1.4-0.1
	c-3.5-4.6-6.9-8.8-10.7-12.7c-0.5-0.5-0.5-0.8,0.2-1.4c3-2.5,6-5.1,8.7-7.8c0.6-0.6,0.9-0.6,1.5-0.1c0.7,0.6,1.4,1.2,2,1.8
	c0.2,0.1,0.3,0.2,0.5,0.1c1.1-0.5,2.1-0.9,3.2-1.4c1.6-0.7,3.3-0.9,4.8-0.4c1.7,0.6,3.2,1.3,4.8,2C36.8,9.7,37.4,9.9,38.3,9.8z
	 M24.2,10.2c0.9,0.8,1.7,1.6,2.4,2.4c0.1,0.1,0.2,0.1,0.3,0.1c1.3,0.3,2.7,0.7,4,1c0.3,0.1,0.6,0.1,0.9,0.2c0.4,0.1,0.5,0.5,0.3,0.9
	c-0.2,0.4-0.6,0.6-1,0.6c-0.1,0-0.2-0.1-0.3-0.1c-2-0.5-4-1.1-6-1.6c-0.7-0.2-1.4,0.1-1.8,0.7c-0.5,0.6-0.5,1.3-0.1,1.7
	c0.2,0.2,0.6,0.4,0.9,0.5c1.7,0.5,3.4,1,5.1,1.6c0.3,0.1,0.5,0.3,0.6,0.5c0.9,1.3,2.2,1.8,4,1.3c1.3-0.3,2.3-1.2,3.3-2.4
	c0.1-0.1,0.1-0.2,0.2-0.3c0.5-2,0.9-3.9,1.2-5.8c0-0.3,0-0.3-0.3-0.3c-0.9,0-1.7-0.2-2.5-0.6c-1.5-0.7-3-1.4-4.6-2
	c-1.1-0.4-2.3-0.4-3.5,0.1C26.2,9.3,25.2,9.8,24.2,10.2z M14.2,18.2c2.1,2.2,4,4.6,5.9,7c2.1-1.1,3.9-1.1,5.4,0
	c0.7-0.6,1.4-1.1,2.1-1.7c-0.4-1.1-0.4-2.2,0.1-3.5c0-0.1-0.1-0.3-0.1-0.3c-0.5-0.2-1-0.3-1.5-0.5c-0.2-0.1-0.4-0.1-0.6-0.2
	c-0.1,0.2-0.2,0.3-0.2,0.4c-1.3,2.1-3.8,3.2-5.8,2.6c-1.7-0.5-2.5-2-2.1-3.8c0.4-1.8,1.9-3.4,3.9-4c0.2-0.1,0.4-0.2,0.5-0.4
	c0.5-0.6,1.2-1.1,1.9-1.3c0.1,0,0.2-0.1,0.3-0.1c-0.5-0.5-0.9-0.9-1.4-1.4c-2,1.2-3.8,1.3-5.5,0.4c-0.7,0.6-1.3,1.1-1.9,1.7
	C16,14.8,15.7,16.5,14.2,18.2z M44.2,16.9c0.7-3,1.3-5.9,1.6-8.9c-1,0.1-4.9,0.6-5.9,0.7c-0.3,2.8-0.9,5.7-1.5,8.5
	C39.4,17.2,43.2,17,44.2,16.9z M21,15.8c-1.2,0.4-2.2,1.8-2.2,3c0,1.3,1.1,2.2,2.5,2c1.3-0.2,2.7-1.2,2.9-2.2
	C22.5,18.1,21,17.7,21,15.8z M24.2,26.3c-0.9-0.6-2-0.6-3.2-0.1c0.4,0.5,0.8,1.1,1.2,1.6C22.8,27.3,23.5,26.8,24.2,26.3z M13.3,17.2
	c0.8-0.9,1.1-2.4,0.5-3c-0.3,0.3-0.6,0.5-0.9,0.8c-0.3,0.3-0.7,0.5-1,0.8C12.3,16.3,12.7,16.7,13.3,17.2
	C13.2,17.2,13.2,17.2,13.3,17.2z M21.6,10.1c0-0.1-0.1-0.1-0.1-0.2C21,9.5,20.5,9.1,20,8.6c-0.3,0.3-0.6,0.6-0.9,0.9
	c-0.3,0.3-0.6,0.6-0.9,0.8C19,10.9,20.6,10.8,21.6,10.1z M30,21.6c-0.4-0.2-0.7-0.4-1.2-0.7c0,0.6,0.1,1.1,0.1,1.6
	C29.3,22.1,29.6,21.9,30,21.6z"/>
</svg>
