<?xml version="1.0" encoding="utf-8"?>
<!-- Generator: Adobe Illustrator 23.0.0, SVG Export Plug-In . SVG Version: 6.00 Build 0)  -->
<svg version="1.0" id="Layer_1" xmlns="http://www.w3.org/2000/svg" xmlns:xlink="http://www.w3.org/1999/xlink" x="0px" y="0px"
	 viewBox="0 0 50 50" enable-background="new 0 0 50 50" xml:space="preserve">
<path fill="#FFFFFF" d="M10.8,35.1c-1.5,0.1-3,1.3-3.4,2.7c-0.3,1.4,0.7,2.5,2.3,2.4c1.6-0.1,3.1-1.3,3.4-2.7
	C13.3,36,12.3,35,10.8,35.1z M11.7,37.5c-0.2,0.7-1,1.3-1.7,1.4c-0.8,0-1.3-0.5-1.1-1.2c0.2-0.7,0.9-1.3,1.7-1.4
	C11.4,36.3,11.9,36.8,11.7,37.5z"/>
<path fill="#FFFFFF" d="M47.4,41.2c-0.7-2.7-1.3-5.5-1.9-8.2c-0.2-1.3-1.2-2.1-2.6-2.1c-1.9,0-3.7,0-5.6-0.1c-0.1,0-0.3,0-0.4,0
	c0,0,0,0,0-0.1c0.1-0.1,0.2-0.1,0.3-0.2c1.5-0.9,3-1.7,4.5-2.6c1-0.6,1.1-1.6,0.4-2.7c-1.7-2.4-3.3-4.8-4.8-7.2
	c-0.6-1-1.6-1.3-2.5-0.7c-1.3,0.9-2.7,1.7-4.1,2.6C30.6,20,30.5,20,30.3,20c0.1-0.1,0.1-0.2,0.2-0.3c0.8-1.5,1.6-3,2.3-4.5
	c0.5-1.1,0.2-2.1-0.7-2.8C30,11,28,9.6,26,8.2c-0.9-0.7-1.7-0.4-2.3,0.7c-0.9,1.6-1.8,3.2-2.8,4.8c0-0.1,0-0.2,0-0.4
	c0.2-1.7,0.3-3.5,0.4-5.2c0.1-1.4-0.5-2.1-1.6-2.2c-2.2-0.1-4.3-0.3-6.5-0.5c-1.1-0.1-1.5,0.2-2.1,1.4C9.2,19,5.7,30.8,2.4,42.7
	c0,0.8,0.5,1.3,1.4,1.4C18,43.4,32,43,46.1,43.1c0.9-0.2,1.4-0.6,1.4-1.4C47.5,41.5,47.5,41.3,47.4,41.2z M32.4,20.4
	c1-0.6,2-1.2,3-1.9c0.5-0.3,0.7-0.2,1,0.3c1.4,2.3,3,4.7,4.7,7.1c0.4,0.5,0.3,0.8-0.1,1.1c-1.8,1.1-3.6,2.1-5.6,3.2
	c-2-2.8-3.7-5.5-5.3-8.4C30.9,21.3,31.6,20.9,32.4,20.4z M21.5,15.2c1.1-1.8,2.1-3.6,3-5.3c0.3-0.6,0.5-0.6,1-0.3
	c1.9,1.4,3.9,2.8,6,4.1c0.5,0.3,0.6,0.6,0.3,1.1c-0.9,1.8-1.8,3.5-2.8,5.3c-0.1,0.1-0.1,0.2-0.2,0.3c-2.6-1.6-5.1-3.3-7.5-5
	C21.4,15.4,21.4,15.3,21.5,15.2z M28.2,21.5c-0.1,0.1-0.2,0.2-0.3,0.2c-2.2,1.3-4.4,2.6-6.8,3.9c-0.3,0.1-0.4,0.1-0.6,0
	c-1.3-0.8-2.6-1.6-3.8-2.4c-0.1-0.1-0.2-0.1-0.3-0.2c1.5-2.2,2.9-4.3,4.2-6.5C23,18.2,25.5,19.8,28.2,21.5z M13.4,31
	c2.7-1.4,5.4-2.8,8.1-4.3c0.7,1.4,1.4,2.8,2.2,4.2C20.2,31,16.8,31,13.4,31C13.4,31.1,13.4,31.1,13.4,31z M10.8,31.1
	c-0.2,0.1-0.5,0.2-0.7,0.2v-0.1c1.9-2.4,3.7-4.8,5.4-7.2c1.2,0.8,2.5,1.6,3.9,2.5c-0.4,0.2-0.7,0.4-1,0.6
	C16,28.4,13.5,29.7,10.8,31.1z M11,14.2c0.4-2.2,0.8-4.3,1.1-6.5c0.1-0.6,0.3-0.8,0.8-0.8c2.3,0.2,4.5,0.4,6.8,0.5
	c0.4,0,0.6,0.2,0.6,0.8c-0.2,2.2-0.4,4.4-0.6,6.5c0,0,0,0.1,0,0.2c-2.9-0.1-5.8-0.2-8.7-0.3C11,14.4,11,14.3,11,14.2z M10.7,16
	c2.9,0.1,5.9,0.2,8.8,0.3c0,0-0.1,0.1-0.1,0.2c-1.4,2.3-3,4.6-4.7,6.9c-0.1,0.1-0.3,0.3-0.4,0.3c-1.7,0-3.4,0-5.1,0c0,0-0.1,0-0.2,0
	C9.6,21.1,10.2,18.6,10.7,16z M8.8,25c1.6,0,3.2,0,4.8,0c-0.8,1-1.5,2-2.3,3c-0.9,0.9-1.7,2-2.6,3.1c-0.2,0.2-0.3,0.3-0.5,0.3
	c-0.4,0-0.7,0.1-1.1,0.1C7.7,29.4,8.2,27.2,8.8,25z M14,42.3c-3,0.2-6,0.4-9,0.7c-0.8,0.1-1-0.1-0.8-0.8c0.7-2.9,1.5-5.7,2.3-8.6
	c0.2-0.7,0.4-0.9,1.1-0.9c2.7-0.1,5.4-0.2,8.1-0.3c0.1,0,0.2,0,0.4,0c-0.6,3.3-1.2,6.6-1.6,9.9C14.3,42.3,14.2,42.3,14,42.3z
	 M25,41.8c-3,0.1-6,0.2-9,0.4c0.4-3.3,0.9-6.6,1.3-9.9c2.6-0.1,5.3-0.1,7.9-0.2C25.2,35.4,25,38.6,25,41.8z M25,30.6
	c-0.8-1.4-1.5-2.8-2.2-4.2c0-0.1-0.1-0.2-0.1-0.3c2.3-1.2,4.4-2.5,6.5-3.7c1.5,2.8,3.2,5.6,5.2,8.4c-0.2,0-0.4,0-0.5,0
	c-2.7,0-5.5,0-8.2,0.1C25.3,30.9,25.1,30.8,25,30.6z M26.5,41.8c0-3.2,0-6.4,0.1-9.6c2.6,0,5.3-0.1,8,0c0.3,3.1,0.6,6.3,0.9,9.5
	C32.5,41.7,29.5,41.7,26.5,41.8z M45.1,41.9c-2.5-0.1-5-0.1-7.5-0.1c-0.1,0-0.3,0-0.5,0c-0.5-3.2-0.8-6.4-1.1-9.7c0.1,0,0.3,0,0.4,0
	c2.2,0,4.4,0,6.6,0.1c0.7,0,1,0.2,1.1,0.9c0.5,2.7,1.1,5.4,1.7,8.1C46.1,41.7,45.9,41.9,45.1,41.9z"/>
</svg>
