<?xml version="1.0" encoding="utf-8"?>
<!-- Generator: Adobe Illustrator 23.0.0, SVG Export Plug-In . SVG Version: 6.00 Build 0)  -->
<svg version="1.0" id="Layer_1" xmlns="http://www.w3.org/2000/svg" xmlns:xlink="http://www.w3.org/1999/xlink" x="0px" y="0px"
	 viewBox="0 0 50 50" enable-background="new 0 0 50 50" xml:space="preserve">
<path fill="#FFFFFF" d="M15.7,38.2c-0.6,2.3-2.3,4.5-4.9,4.4c-2.5-0.1-4.3-2.1-4.7-4.4c-0.8,0-1.7,0-2.5,0c-0.8,0-1-0.2-1-1.1
	c-0.1-9,0.5-17.9,0.2-26.9c0-1.6,1.1-3,2.8-2.8c8.3,0.4,16.5,0.9,24.8,1.3c1.5,0.1,3,1.2,2.8,2.9c-0.1,1.2-0.2,2.5-0.3,3.7
	c0.2,0,0.3,0,0.5,0c2.7,0.1,5.5,0.2,8.2,0.3c0.5,0,0.8,0.2,1,0.6c1.7,3.1,3.3,6.3,4.8,9.5c0.1,0.3,0.2,0.6,0.1,0.9
	c-0.6,3.5-1.3,7-1.8,10.5c-0.1,0.8-0.3,1-1.1,1c-0.8,0-1.7,0-2.5,0c-0.4,1.4-1.3,2.6-2.4,3.4c-0.9,0.6-1.9,0.9-3,0.9
	c-2.3,0-3.9-2-4.2-4.2C26.8,38.2,21.3,38.2,15.7,38.2z M4,27.6c8.6,0.2,17.3,0.3,25.9,0.5c0-0.2,0-0.3,0.1-0.5
	c0.6-5.3,1.3-10.7,1.6-16c0.1-1-0.3-1.4-1.4-1.4C22.1,9.7,13.9,9.3,5.7,8.9c-1.1-0.1-1.5,0.3-1.5,1.4C4.4,15.9,4.2,21.5,4,27.1
	C4,27.3,4,27.5,4,27.6z M15.7,36.7c4.4,0,8.8,0,13.3,0c0.2-2.4,0.5-4.7,0.7-7.1c-8.6-0.1-17.1-0.3-25.7-0.4c-0.1,2.5-0.1,5-0.1,7.5
	c0.7,0,1.4,0,2.1,0c0.4-2.4,2.4-4.4,4.9-4.4C13.5,32.2,15.2,34.2,15.7,36.7z M41.6,17.7c-0.1-0.5-0.4-0.7-0.9-0.8
	c-2.5-0.1-4.9-0.2-7.4-0.3c-0.2,0-0.3,0-0.5,0c-0.7,6.7-1.7,13.3-2.3,20c0.7,0,1.4,0,2.1,0c0.6-2.3,2.8-4.1,5.2-4.2
	c2.6-0.1,4.2,1.8,4.5,4.2c0.7,0,1.4,0,2.1,0c0.2-1.4,0.4-2.8,0.6-4.2c-0.5,0-0.9,0-1.3,0c-1.2,0-2-1-1.9-2.1
	c0.2-1.2,1.3-2.1,2.6-2.1c0.4,0,0.9,0,1.3,0c0.1-0.5,0.2-0.9,0.2-1.4c-0.2,0-0.4,0-0.6,0c-3.6-0.1-7.1-0.1-10.7-0.2
	c-0.7,0-0.9-0.2-0.8-1c0.3-2.4,0.6-4.9,0.9-7.3c0.1-0.8,0.3-1,1.2-1C37.8,17.6,39.7,17.7,41.6,17.7z M45.6,25.6
	c-1-2.1-2-4.1-3.1-6.2c-0.1-0.1-0.3-0.2-0.5-0.2c-1.8-0.1-3.6-0.1-5.4-0.2c-0.1,0-0.3,0-0.4,0c-0.3,2.1-0.6,4.2-0.8,6.3
	C38.8,25.4,42.2,25.5,45.6,25.6z M14.3,37.5c0.2-1.9-1.5-3.6-3.3-3.7c-1.9,0-3.7,1.7-3.6,3.7c0,1.8,1.4,3.8,3.4,3.8
	C12.7,41.1,14.4,39.4,14.3,37.5z M33.8,37.4C33.7,39.2,35,41.1,37,41c1.9,0,3.6-1.7,3.8-3.5c0.3-1.9-1.3-3.5-3-3.5
	C35.9,33.9,34,35.5,33.8,37.4z M45.5,29.8c-0.5,0-1,0-1.5,0c-0.4,0-0.7,0.3-0.7,0.6c-0.1,0.4,0.1,0.7,0.5,0.7c0.5,0.1,1,0,1.5,0
	C45.3,30.7,45.4,30.3,45.5,29.8z"/>
<path fill="#FFFFFF" d="M35.3,28.2c0.3,0,0.7,0,1,0c0.4,0,0.7,0.3,0.6,0.7c0,0.4-0.4,0.7-0.8,0.7c-0.7,0-1.4,0-2.1,0
	c-0.4,0-0.7-0.3-0.6-0.7c0.1-0.4,0.4-0.7,0.8-0.7C34.6,28.2,35,28.2,35.3,28.2z"/>
</svg>
