<?xml version="1.0" encoding="utf-8"?>
<!-- Generator: Adobe Illustrator 23.0.0, SVG Export Plug-In . SVG Version: 6.00 Build 0)  -->
<svg version="1.0" id="Layer_1" xmlns="http://www.w3.org/2000/svg" xmlns:xlink="http://www.w3.org/1999/xlink" x="0px" y="0px"
	 viewBox="0 0 50 50" enable-background="new 0 0 50 50" xml:space="preserve">
<path fill="#FFFFFF" d="M46.6,33.6c0,0.1-0.1,0.1-0.1,0.2c-0.6,1.6-2.1,2.6-3.7,2.5c-1.2,0-2.3-0.1-3.5-0.1
	C28.7,35.9,18,35.9,7.3,36.3c-1.6,0.1-3.1-0.8-3.7-2.3c-0.1-0.3-0.2-0.7-0.3-1c-0.8-5.4-1-10.7-0.6-16.1c0.1-2,1.8-3.4,3.8-3.3
	c12.4,0.3,24.7,0.3,37.1,0c1.7-0.1,3.1,0.9,3.7,2.5c0,0.1,0.1,0.1,0.1,0.2C47.7,22.1,47.5,27.9,46.6,33.6z M25,34.8
	c5.9,0,11.9,0.1,17.8,0.3c1.5,0,2.5-0.7,2.7-2.3c0.7-5.2,0.9-10.4,0.5-15.6c0-0.2,0-0.4-0.1-0.5c-0.3-1.1-1.2-1.7-2.4-1.7
	c-12.4,0.3-24.7,0.3-37,0c-0.2,0-0.3,0-0.5,0c-1.1,0.1-2,0.9-2,2C3.7,22.3,3.8,27.7,4.6,33c0.1,0.6,0.4,1.2,1,1.6
	C6.1,35,6.6,35.1,7.2,35C13.1,34.9,19.1,34.8,25,34.8z"/>
<path fill="#FFFFFF" d="M31.8,32.2c2.4,0,4.8,0.1,7.1,0.1c0-0.5-0.5-1-1.2-1.1c-0.1,0-0.2,0-0.3,0c-0.4,0-0.6-0.3-0.6-0.6
	c0-0.3,0.3-0.6,0.7-0.6c1.1-0.1,1.8-0.7,1.8-1.7c0-0.8-0.5-1.5-1.4-1.6c-0.8-0.2-1.7,0.3-2,1c0,0.1-0.1,0.2-0.1,0.3
	c-0.2,0.4-0.5,0.6-0.8,0.5c-0.4-0.1-0.5-0.4-0.4-0.8c0.3-1.1,1.4-2,2.6-2.2c1.3-0.2,2.5,0.4,3.1,1.5c0.6,1.1,0.3,2.5-0.6,3.4
	c-0.1,0.1-0.2,0.2-0.2,0.3c0.3,0.5,0.5,1.1,0.8,1.6c0,0.1,0.2,0.2,0.2,0.2c0.7,0,1.4,0,2.2,0.1c0.6-4.9,0.7-9.8,0.5-14.7
	c-0.1,0-0.3,0-0.4,0c-1.1,0-2.1,0.1-3.2,0.1c-0.3,0-0.5,0.1-0.6,0.3c-0.6,0.9-1.3,1.8-2,2.7c0.2,0,0.3,0,0.4,0c0.9,0,1.8,0,2.8,0
	c0.2,0,0.3,0,0.5,0c0.4,0.1,0.6,0.3,0.6,0.6c0,0.4-0.2,0.6-0.6,0.6c-1.6,0-3.2,0-4.8,0c-0.6,0-0.9-0.6-0.5-1.1
	c0.7-0.9,1.4-1.8,2.1-2.7c0.1-0.1,0.1-0.2,0.3-0.4c-0.5,0-0.9,0-1.2,0c-0.5,0-0.8-0.2-0.8-0.6c0-0.4,0.3-0.6,0.7-0.6
	c2.5,0,5-0.1,7.4-0.2c0.5,0,0.8,0.2,0.8,0.8c0.3,5.3,0.1,10.6-0.5,15.9c-0.1,0.4-0.3,0.7-0.8,0.7c-0.1,0-0.2,0-0.3,0
	c-10.4-0.3-20.7-0.3-31.1-0.1c-0.2,0-0.4,0-0.6-0.1c-0.2-0.1-0.4-0.4-0.5-0.6c-0.1-0.3,0.1-0.5,0.5-0.6c0.2,0,0.3,0,0.5,0
	c2,0,4-0.1,6-0.1c0.2,0,0.3,0,0.5,0c-0.2-4.8-0.3-9.6-0.2-14.4c-3.7,0-7.5-0.1-11.2-0.2c-0.2,4.9-0.1,9.8,0.5,14.7
	c0.4,0,0.9,0,1.3,0c0.5,0,0.8,0.2,0.8,0.6c0,0.4-0.2,0.6-0.7,0.6c-0.6,0-1.2,0-1.8,0c-0.5,0-0.8-0.2-0.9-0.7
	c-0.7-5.3-0.8-10.6-0.5-15.9c0-0.5,0.3-0.7,0.9-0.7c3.4,0.1,6.8,0.2,10.2,0.2c5.5,0.1,11,0.1,16.5,0c0.2,0,0.4,0,0.5,0
	c0.3,0.1,0.5,0.3,0.5,0.6c0,0.3-0.2,0.5-0.6,0.6c-0.5,0-1,0-1.5,0C32.1,22.6,32,27.4,31.8,32.2z M30.7,25c0-2.3,0-4.5,0-6.8
	c0-0.3-0.1-0.4-0.5-0.4c-3.5,0-6.9,0-10.4,0c-0.4,0-0.5,0.1-0.5,0.4c-0.1,4.5,0,9,0.1,13.5c0,0.3,0.1,0.4,0.5,0.4
	c3.4,0,6.7,0,10.1,0c0.4,0,0.5-0.1,0.5-0.4C30.6,29.5,30.6,27.3,30.7,25z"/>
<path fill="#FFFFFF" d="M15.6,25c0,0.9,0.1,1.7,0,2.6c-0.2,1.6-1.7,2.7-3.5,2.6c-1.6-0.1-3-1.5-3.1-3.1c-0.1-1.4-0.1-2.8-0.1-4.2
	c0-1.7,1.5-3.1,3.4-3.1c1.9,0,3.3,1.4,3.4,3.1C15.7,23.6,15.7,24.3,15.6,25C15.7,25,15.7,25,15.6,25z M14.4,25c0-0.7,0-1.3,0-2
	c0-1.1-0.9-1.9-2.1-1.9c-1.1,0-2,0.8-2,1.9c0,1.3,0,2.7,0.1,4c0.1,1.1,1,1.9,2.1,1.9c1.2,0,2-0.8,2-2C14.4,26.3,14.4,25.7,14.4,25z"
	/>
<path fill="#FFFFFF" d="M25.1,21.3c-0.5,0-0.9,0-1.3,0c-0.4,0-0.7-0.2-0.7-0.6c0-0.4,0.3-0.6,0.7-0.6c0.6,0,1.2,0,1.8,0
	c0.5,0,0.8,0.2,0.8,0.7c0,0.1,0,0.2,0,0.3c0,2.6,0,5.3,0,7.9c0,0.2,0,0.4,0,0.5c-0.1,0.3-0.3,0.4-0.6,0.4c-0.3,0-0.5-0.2-0.6-0.4
	c0-0.2,0-0.3,0-0.5c0-2.4,0-4.8,0-7.2C25.1,21.7,25.1,21.5,25.1,21.3z"/>
</svg>
