<?xml version="1.0" encoding="utf-8"?>
<!-- Generator: Adobe Illustrator 23.0.0, SVG Export Plug-In . SVG Version: 6.00 Build 0)  -->
<svg version="1.0" id="Layer_1" xmlns="http://www.w3.org/2000/svg" xmlns:xlink="http://www.w3.org/1999/xlink" x="0px" y="0px"
	 viewBox="0 0 50 50" enable-background="new 0 0 50 50" xml:space="preserve">
<g>
	<path fill="#FFFFFF" d="M6.9,39c0.1-0.1,0.3-0.2,0.5-0.2c0.5,0,5.5-0.1,6.1-0.1c4.1-0.1,25.8,0.1,29.7,0.2c0.3,0,0.5,0.1,0.6,0.3
		c0.2,0.4,0,0.9-0.5,1c-0.1,0-0.1,0-0.2,0c-4.4-0.1-30.8-0.1-35.4-0.1c-0.1,0-0.2,0-0.3,0c-0.3,0-0.5-0.2-0.7-0.4
		C6.7,39.5,6.7,39.2,6.9,39z"/>
	<path fill="#FFFFFF" d="M45.4,41c-0.3,0.3-0.6,0.7-1,1c-0.2,0.2-0.5,0.2-0.8,0c-0.2-0.2-0.3-0.6-0.1-0.8c0-0.1,0.1-0.1,0.1-0.2
		c0.3-0.3,0.6-0.6,0.8-0.9c0.4-0.4,0.3-0.9,0-1.3c-0.3-0.3-0.6-0.6-0.9-0.9c-0.3-0.3-0.3-0.7-0.1-0.9c0.2-0.3,0.6-0.3,0.9,0
		c0.7,0.7,1.3,1.4,2,2.1c0.2,0.3,0.2,0.6,0,0.8C46,40.3,45.7,40.7,45.4,41C45.4,41,45.4,41,45.4,41z"/>
	<path fill="#FFFFFF" d="M5.3,41c-0.4-0.3-0.7-0.7-1.1-1c-0.3-0.3-0.4-0.6-0.1-0.9c0.6-0.7,1.2-1.4,1.8-2c0.3-0.3,0.7-0.3,0.9,0
		c0.3,0.2,0.3,0.6,0.1,0.9c-0.3,0.3-0.6,0.6-0.8,1c-0.4,0.4-0.3,0.9,0.1,1.3c0.3,0.3,0.7,0.6,1,0.9c0.3,0.3,0.3,0.7,0.1,0.9
		c-0.2,0.3-0.6,0.3-0.9,0C6,41.6,5.6,41.3,5.3,41z"/>
</g>
<path fill="#FFFFFF" d="M27.8,7.8c0.9,0.1,1.8,0.1,2.7,0.2c4.4,0.3,8.7,0.9,12.9,2.5c1.2,0.5,2.3,1.2,3.2,2.2
	c0.8,0.9,1.1,2.1,0.9,3.5c-0.2,1.2-0.3,2.4-0.4,3.6c0-0.6,0.1-1.1,0.2-1.7c-0.1,1.2-0.2,2.4-0.3,3.6c0,0.1,0,0.3,0,0.4
	C46.8,22.7,46.5,23,46,23c-0.5,0-0.7-0.3-0.7-0.9c0-0.2,0-0.3,0-0.5c0-0.7,0.1-2,0.2-2.6c-0.1,1.1-0.2,2.2-0.2,3.3
	c0-0.6,0.1-1.9,0.2-2.6c0-0.2,0-0.4,0-0.6c0,0-0.1,0-0.1,0c-2.4,1.8-4.8,2.8-7.7,3.6c-4.7,1.1-9.3,1.5-14.1,1.4
	c-4.6-0.2-9-0.7-13.5-2.1C8,21.4,6.2,20.4,4.5,19c0,0.3,0,0.5,0.1,0.7c0.1,1.5,0.2,2.9,0.2,4.4c0-0.6,0-1.2-0.1-1.8
	c0.1,1.5,0.1,2.9,0.1,4.4c0,1.2,0.4,2.1,1.2,2.8c1.5,1.1,2.7,1.7,4.4,2.3c3.2,1,6.5,1.4,9.8,1.7c3.7,0.2,7.3,0.2,11-0.1
	c3.7-0.4,7.2-1,10.7-2.5c0.9-0.4,1.7-1.1,2.5-1.7c0.7-0.6,0.9-1.4,0.9-2.3c0-1.5,0-0.4,0-1.9c0-0.7,0.3-1,0.8-1c0.5,0,0.7,0.3,0.7,1
	c0,1.7,0,0.7,0,2.3c0,1.3-0.5,2.3-1.3,3.1c-1.5,1.3-2.6,1.9-4.4,2.7c-2.9,0.9-5.8,1.5-8.8,1.8c-3.6,0.3-7.3,0.4-10.9,0.3
	c-4.4-0.2-8.6-0.8-12.9-2.3c-1.4-0.5-2.9-1.4-3.9-2.4c-0.9-0.9-1.3-2.1-1.3-3.5c0-1.9-0.1-3.7-0.2-5.6c0,0.2,0,0.4,0,0.6
	C3,20,2.8,18.2,2.6,16.3c-0.2-1.5,0.2-3.1,1.3-4.2c1-0.9,2.5-1.7,3.8-2.1c0.4-0.1,0.9,0,1.1,0.5c0.2,0.4,0.2,0.8-0.3,1
	c-0.8,0.4-1.6,0.6-2.2,1.1C5.6,13,5,13.5,4.6,14.2c-0.8,1-0.6,2.1,0.4,3.2c0.9,1,1.9,1.6,3,2.2c2.7,1.2,5.5,2,8.4,2.5
	c4.3,0.6,8.4,0.7,12.7,0.5c4.3-0.4,8.2-1.1,12.2-2.7c1.1-0.5,2.3-1.2,3.3-2c1.4-1,1.8-2.8,0.5-4.1c-1-1.1-2.6-1.9-4-2.3
	c-3.1-0.9-6.3-1.5-9.5-1.8c-3.9-0.3-8-0.4-11.9-0.1c-2.3,0.2-4.7,0.6-7,0.8c-0.3,0-0.7,0-1-0.1c-0.2-0.1-0.4-0.6-0.4-0.8
	C11.4,9.2,11.7,9,12,8.9c1.2-0.2,2.4-0.4,3.7-0.6c2.1-0.2,4.2-0.3,6.3-0.5c0.1,0,0.3,0,0.4-0.1C24.2,7.8,26,7.8,27.8,7.8z"/>
</svg>
