<?xml version="1.0" encoding="utf-8"?>
<!-- Generator: Adobe Illustrator 23.0.0, SVG Export Plug-In . SVG Version: 6.00 Build 0)  -->
<svg version="1.0" id="Layer_1" xmlns="http://www.w3.org/2000/svg" xmlns:xlink="http://www.w3.org/1999/xlink" x="0px" y="0px"
	 viewBox="0 0 50 50" enable-background="new 0 0 50 50" xml:space="preserve">
<path fill="#FFFFFF" d="M45.1,11.2c1.1-0.1,1.9-1.1,1.9-2.3c0-1.3-0.8-2.4-1.9-2.6c-0.3,0-0.6,0-0.9,0C34.5,7,24.6,7,14.9,6.5
	c-0.2,0-0.4,0-0.6,0c0-0.3,0-0.6,0-0.8c0.1-1.7-1-3.1-2.4-3.2c-1.5-0.1-2.6,1.2-2.8,2.9C7.9,19.2,5.7,32.8,3,46.5
	c-0.2,0.7,0.1,1,0.9,0.9c1.4-0.1,2.9-0.2,4.3-0.3c1.3,0,1.5-0.2,1.7-1.3c1.7-11.3,3.1-22.5,4-33.8c0-0.2,0-0.4,0-0.6
	c2.5,0.1,5,0.2,7.5,0.2c0,0.9-0.1,1.8-0.1,2.8c-0.3,0-0.6,0-0.9,0c-2.4,0-4,1.6-4.2,4.2c-0.4,5.3-0.8,10.5-1.4,15.8
	c0,0.4,0,0.8,0,1.1c0.2,1.9,1.9,3,4.2,3c7.5-0.2,15-0.1,22.5,0.1c2.9,0.1,4.5-1.5,4.1-4.1c-0.7-5.4-1.4-10.7-1.9-16
	c-0.2-2.6-1.9-4.2-4.3-4.2c-0.3,0-0.7,0-1,0c-0.1-1-0.1-1.9-0.2-2.9c0.2,0,0.4,0,0.6,0C40.9,11.4,43,11.3,45.1,11.2z M23.1,11.6
	c4.6,0,9.1,0,13.7-0.1c0,0.9,0.1,1.9,0.1,2.8c-4.7,0.1-9.3,0.1-14,0.1C23,13.4,23,12.5,23.1,11.6z M38.8,24c0,0.2,0,0.3,0,0.6
	c0.2,1-0.6,1.7-1.6,1.7c-0.4,0-0.5,0-0.9,0c-0.4,0-0.5,0.2-0.5,0.5c0.4,2.9,1.1,4.5,2,7.9c-6-0.6-8.9-0.6-14.8-0.2
	c0.8-3.3,1.3-4.9,1.6-7.8c0.1-0.1-0.1-0.4-0.5-0.4c-0.4,0-0.5,0-0.9,0c-1,0-1.8-0.6-1.7-1.6c0-0.3,0-0.3,0-0.6c0-0.6,0.4-1,1-1.3
	c3.3-1.8,4.1-2.6,6.8-5c0.5-0.4,1.1-0.4,1.5,0c2.7,2.4,3.6,3.2,6.9,5C38.2,23,38.5,23.5,38.8,24z"/>
<path fill="#FFFFFF" d="M36.1,24.2c-3.1-1.8-3.8-2.4-6.2-4.5c-0.1-0.1-0.2-0.1-0.3,0c-2.3,2.1-3.1,2.9-6,4.5
	c-0.2,0.1-0.3,0.2-0.3,0.4c0,0.3,0,0.3,0,0.6c0,0.2,0.2,0.5,0.5,0.5s0.5,0,0.8,0c0.8,0,1.4,0.6,1.4,1.4c-0.2,2.1-0.5,3.2-0.9,5.6
	c2.2-0.2,3.2-0.2,5.2-0.2c-0.1-1.9-0.1-2.7-0.1-4.2c1,0,1.4,0.1,2.4,0.1c0.2,1.5,0.3,2.3,0.6,4.2c0.8,0.1,1.2,0.1,2,0.2
	c-0.5-2.4-0.8-3.5-1.1-5.7c-0.1-0.8,0.5-1.5,1.4-1.5c0.4,0,0.5,0,0.8,0c0.4,0,0.5-0.2,0.5-0.5C36.9,24.6,36.6,24.2,36.1,24.2z"/>
</svg>
