<?xml version="1.0" encoding="utf-8"?>
<!-- Generator: Adobe Illustrator 23.0.0, SVG Export Plug-In . SVG Version: 6.00 Build 0)  -->
<svg version="1.0" id="Layer_1" xmlns="http://www.w3.org/2000/svg" xmlns:xlink="http://www.w3.org/1999/xlink" x="0px" y="0px"
	 viewBox="0 0 50 50" enable-background="new 0 0 50 50" xml:space="preserve">
<path fill="#FFFFFF" d="M37.5,2.8c0.8,0.3,1.4,0.8,1.5,1.7c0.2,1.3-0.8,2.4-2,2.4c-0.5,0-0.9,0-1.4,0c-0.5,0-0.8,0.3-0.8,0.7
	c0,0.4,0.3,0.7,0.8,0.8c0.8,0.1,1.6,0.2,2.4,0.5c2.1,0.8,3.2,3.3,2.8,5.4c-0.4,2-2.4,3.8-4.5,3.8c-0.2,0-0.4,0.1-0.5,0.3
	c-0.4,0.7-1,1-1.8,1.1c-0.1,5.6-0.1,11.2-0.2,16.8c0.9,0.1,1.6,0.5,1.9,1.5c0.3,1-0.1,1.8-1,2.4c0.5,1,0.9,1.9,1.4,2.8
	c0.1,0.1,0.2,0.2,0.4,0.2c1.2,0,2,0.8,2,2c0,1.1-0.9,2.1-2.1,2.1c-7.5,0.4-15,0.4-22.5,0c-1.1-0.1-2-1-2-2.1c0-1.1,0.8-1.9,2-2
	c0.1,0,0.3-0.1,0.3-0.2c0.5-0.9,0.9-1.9,1.4-2.8c-0.8-0.6-1.2-1.4-1-2.4c0.3-0.9,0.9-1.4,1.9-1.5c0-5.6-0.1-11.2-0.2-16.8
	c-0.9-0.1-1.5-0.5-1.9-1.2c0-0.1-0.3-0.1-0.4-0.2c-2.1-0.1-4.1-1.7-4.6-3.8c-0.5-2.1,0.6-4.4,2.5-5.4c0.8-0.4,1.6-0.5,2.4-0.5
	c0.2,0,0.5-0.1,0.7-0.2c0.2-0.2,0.2-0.5,0.2-0.8c-0.1-0.3-0.4-0.5-0.7-0.5c-0.4,0-0.8,0-1.3,0c-1.2,0-2-0.6-2.3-1.7
	c-0.2-1,0.4-1.9,1.4-2.3c0,0,0.1-0.1,0.1-0.1C20.8,2.4,29.2,2.4,37.5,2.8z M17.7,36.3c0.2,0,0.3,0,0.5,0c3.1,0,6.1,0.1,9.2,0
	c0.1,0,0.2,0,0.4,0c0.3,0,0.5,0.2,0.6,0.6c0,0.4-0.1,0.6-0.5,0.7c-0.2,0-0.3,0-0.5,0c-3.5,0-7.1,0-10.6-0.1c-0.1,0-0.3,0-0.4,0
	c-0.4,0-0.6,0.3-0.6,0.6c0,0.4,0.1,0.7,0.5,0.8c0.2,0.1,0.4,0.1,0.5,0.1c2.6,0.1,5.2,0.1,7.7,0.1c3,0,6,0,9-0.1
	c0.6,0,0.9-0.3,0.9-0.8c0-0.5-0.3-0.7-0.9-0.7c-0.9,0-1.9,0-2.8,0.1c-0.6,0-0.9-0.2-0.9-0.6c0-0.5,0.3-0.7,1-0.7c0.6,0,1.1,0,1.7,0
	c0-5.6,0.1-11.3,0.1-16.9c-5,0-10,0-14.9,0C17.6,25,17.7,30.6,17.7,36.3z M32.6,15.2c0-0.3,0-0.5,0-0.7c0.1-1.5,1.1-3.1,2.6-3.3
	c1.3-0.3,2.6,0.4,2.8,1.7c0.1,0.5-0.1,0.8-0.5,0.9c-0.4,0.1-0.7-0.2-0.7-0.7c-0.1-0.5-0.4-0.7-0.8-0.7c-1.1,0-2,0.9-2,2
	c-0.1,1.1,0.7,2.1,1.7,2.3c2.1,0.3,4.1-1.8,3.9-3.8c-0.2-1.8-1.7-3.2-3.5-3.2c-7.3-0.2-14.6-0.2-21.8,0c-0.1,0-0.2,0-0.3,0
	c-1.9,0.1-3.3,2-3.2,3.7c0.1,1.7,1.6,3.4,3.5,3.4c1.1,0,2-0.9,2.1-2c0.1-1.2-0.7-2.2-1.9-2.3c-0.6-0.1-0.9,0.2-1,0.7
	c-0.1,0.5-0.3,0.7-0.7,0.7c-0.4,0-0.6-0.4-0.6-0.8c0.1-1.1,1.1-1.9,2.2-1.9c1.8,0.1,3.3,1.7,3.2,3.5c0,0.2,0,0.4,0,0.6
	C22.5,15.1,27.5,15.1,32.6,15.2z M33.5,6.7c-0.2,0-0.3,0-0.5,0c-4.2-0.1-8.3-0.1-12.5-0.1c-0.7,0-1-0.2-1-0.7c0-0.4,0.3-0.6,1-0.7
	c5.4-0.1,10.8,0,16.2,0.2c0.7,0,1.1-0.2,1.1-0.7c0-0.5-0.3-0.8-1.1-0.8c-7.8-0.3-15.5-0.3-23.3,0c-0.2,0-0.3,0-0.5,0
	c-0.4,0.1-0.6,0.4-0.6,0.8c0,0.3,0.3,0.6,0.7,0.7c0.1,0,0.3,0,0.4,0c1.3-0.1,2.6-0.1,3.9-0.1c0.4,0,0.7,0.2,0.7,0.6
	c0,0.4-0.3,0.6-0.7,0.7c-0.3,0-0.5,0-0.7,0c0,0.5,0,1,0,1.5c5.6-0.1,11.3-0.1,16.9,0C33.5,7.7,33.5,7.3,33.5,6.7z M34.6,43.2
	c-0.4-0.9-0.8-1.6-1.2-2.4c-0.1-0.3-0.3-0.4-0.6-0.4c-5,0.1-10,0.1-15,0c-0.8,0-1.3,0.2-1.6,1c-0.2,0.6-0.6,1.2-0.9,1.8
	C21.8,43.4,28.2,43.4,34.6,43.2z M25,46.2c3.7,0,7.4-0.1,11.1-0.3c0.1,0,0.3,0,0.4,0c0.3-0.1,0.6-0.4,0.6-0.7c0-0.4-0.3-0.7-0.6-0.7
	c-0.1,0-0.2,0-0.4,0c-7.3,0.3-14.7,0.3-22,0c-0.1,0-0.3,0-0.4,0c-0.3,0-0.6,0.3-0.6,0.7c0,0.4,0.2,0.7,0.6,0.8c0.1,0,0.3,0,0.4,0
	C17.6,46.1,21.3,46.2,25,46.2z M34.4,17.7c-0.4-0.3-0.7-0.7-1.1-0.9c-0.1-0.1-0.3-0.2-0.5-0.2c-5.3-0.1-10.5-0.1-15.8,0
	c-0.1,0-0.3,0-0.3,0.1c-0.4,0.3-0.8,0.7-1.2,1.1c0.2,0.3,0.5,0.3,0.8,0.3c2.7,0,5.4-0.1,8-0.1c3.1,0,6.1,0,9.2,0.1
	C33.9,18.1,34.2,18.1,34.4,17.7z"/>
<path fill="#FFFFFF" d="M24.4,27.8c0-2,0-4,0-5.9c0-0.2,0-0.3,0-0.5c0.1-0.4,0.3-0.5,0.6-0.5c0.3,0,0.5,0.2,0.6,0.5
	c0,0.2,0,0.3,0,0.5c0,4,0,8,0,12c0,0.7-0.2,1-0.6,1c-0.4,0-0.6-0.3-0.6-1C24.4,31.8,24.4,29.8,24.4,27.8z"/>
<path fill="#FFFFFF" d="M20.3,27.8c0,2,0,4,0,6c0,0.1,0,0.3,0,0.4c0,0.3-0.3,0.5-0.6,0.5c-0.3,0-0.5-0.1-0.6-0.5c0-0.2,0-0.3,0-0.5
	c0-4,0-8-0.1-12c0-0.2,0-0.4,0.1-0.5c0.2-0.2,0.4-0.4,0.6-0.4c0.3,0,0.5,0.2,0.5,0.5c0,0.2,0,0.3,0,0.5
	C20.2,23.8,20.3,25.8,20.3,27.8z"/>
<path fill="#FFFFFF" d="M21.7,27.8c0-2,0-4,0-5.9c0-0.2,0-0.4,0-0.5c0.1-0.3,0.3-0.5,0.6-0.5c0.3,0,0.5,0.2,0.6,0.5
	c0,0.1,0,0.3,0,0.4c0,4,0,8,0,12c0,0.7-0.2,1-0.6,1c-0.4,0-0.6-0.3-0.6-1C21.7,31.8,21.7,29.8,21.7,27.8z"/>
<path fill="#FFFFFF" d="M27.1,27.8c0-2,0-4,0-6c0-0.2,0-0.3,0-0.5c0.1-0.3,0.3-0.5,0.6-0.5c0.3,0,0.5,0.1,0.6,0.5c0,0.2,0,0.3,0,0.5
	c0,4,0,8,0,12c0,0.7-0.2,1-0.6,1c-0.4,0-0.6-0.3-0.6-1C27,31.8,27,29.8,27.1,27.8z"/>
<path fill="#FFFFFF" d="M29.7,27.8c0-2,0-3.9,0-5.9c0-0.2,0-0.4,0-0.5c0.1-0.2,0.3-0.4,0.5-0.5c0.3-0.1,0.5,0.1,0.6,0.4
	c0,0.2,0,0.3,0,0.5c0,4-0.1,8-0.1,12c0,0.2,0,0.3,0,0.5c-0.1,0.3-0.3,0.5-0.6,0.5c-0.3,0-0.5-0.2-0.6-0.5c0-0.1,0-0.3,0-0.4
	C29.7,31.8,29.7,29.8,29.7,27.8z"/>
<path fill="#FFFFFF" d="M25,12.3c-2,0-4,0-6,0c-0.2,0-0.5-0.1-0.7-0.2c-0.4-0.3-0.2-0.9,0.3-1.1c0.2,0,0.3,0,0.5,0
	c3.9-0.1,7.8-0.1,11.7,0c0,0,0.1,0,0.1,0c0.5,0,0.8,0.3,0.8,0.7c0,0.4-0.3,0.7-0.8,0.6C29,12.3,27,12.3,25,12.3z"/>
</svg>
