<?xml version="1.0" encoding="utf-8"?>
<!-- Generator: Adobe Illustrator 23.0.0, SVG Export Plug-In . SVG Version: 6.00 Build 0)  -->
<svg version="1.0" id="Layer_1" xmlns="http://www.w3.org/2000/svg" xmlns:xlink="http://www.w3.org/1999/xlink" x="0px" y="0px"
	 viewBox="0 0 50 50" enable-background="new 0 0 50 50" xml:space="preserve">
<path fill="#FFFFFF" d="M47.2,7.9c1,10.1-0.1,21.8-2.8,31.6c-0.4,0.5-0.9,0.8-1.6,0.7c-9.7-1.2-20.9,0.7-30.2,3.5
	c-0.8,0.2-1.4-0.2-1.6-1c-0.2-1-0.4-2-0.6-3c0-0.1,0-0.2-0.1-0.4c-0.2,0-0.4,0.1-0.5,0.1c-1.9,0.4-3.8,0.7-5.6,1
	c-0.6,0.1-1.2-0.1-1.5-0.6c-0.3-0.5-0.3-1,0.1-1.5c0.9-1.1,1.6-2.4,2.3-3.7c2.3-4.9,3.5-9.7,3.7-14.8c0.1-2.5,0.2-5.1,0.5-7.6
	c0.1-0.9,0.7-1.3,1.7-1.3c2,0.1,4.1,0.1,6.1,0c0.2,0,0.3,0,0.5,0c0-0.4,0-0.7,0.1-1c0.1-0.8,0.6-1.3,1.4-1.3c0.8,0,1.3,0.4,1.2,1.2
	c0,0.3,0,0.7,0,1c2.3-0.2,4.5-0.4,6.7-0.7c0-0.3,0-0.6,0-1c0-0.7,0.5-1.3,1.3-1.4c0.8-0.1,1.3,0.3,1.4,1c0,0.3,0,0.6,0,1
	c2.3-0.3,4.5-0.7,6.8-1.1c0-0.4-0.1-0.7-0.1-1c-0.1-0.7,0.4-1.2,1.2-1.4c0.7-0.1,1.4,0.2,1.5,0.9c0,0.3,0.1,0.7,0.1,1.1
	c0.2,0,0.4-0.1,0.5-0.1c1.9-0.3,3.8-0.6,5.7-0.9C46.1,7.1,46.8,7.2,47.2,7.9z M11.6,20.3c-0.4,5.9-2,11.5-5.1,17.2
	c0.2,0,0.3,0,0.4-0.1c9.6-1.6,19.6-3.7,29.4-4.3c0.2,0,0.5-0.1,0.6-0.3c1.6-1.4,2.9-2.9,4.1-4.5c2.1-3,3.4-6.3,3.9-9.6
	c0.1-0.7,0.1-1.4,0.2-2.1C33.9,17.8,22.8,19.2,11.6,20.3z M11.7,18c11.1-0.7,22.3-2.5,33.4-3.7c-0.1-1.6-0.2-3.1-0.4-4.6
	c-1.8,0.2-3.6,0.5-5.4,0.8c0,0.4,0.1,0.7,0.1,1c0,0.7-0.5,1.3-1.3,1.4c-0.8,0.1-1.4-0.3-1.4-1c0-0.3,0-0.7-0.1-1
	c-2.3,0.4-4.6,0.7-6.9,1c0,0.4,0,0.7,0,1c0,0.7-0.6,1.2-1.4,1.3c-0.8,0.1-1.3-0.3-1.4-1c0-0.3,0-0.7,0-1c-2.3,0.3-4.5,0.5-6.8,0.7
	c0,0.3,0,0.7,0,1c0,0.7-0.6,1.3-1.4,1.3c-0.8,0.1-1.4-0.4-1.3-1.1c0-0.3,0-0.7,0-1c-1.9,0.1-3.7,0.2-5.5,0.1
	C11.8,14.9,11.7,16.4,11.7,18z M44.5,27.6c-0.1,0.2-0.2,0.3-0.3,0.5c-1.7,2.5-3.7,4.8-6.1,6.7c-0.5,0.4-1,0.6-1.5,0.6
	c-7.7,0.3-15.4,1.8-23.1,3.3c-0.2,0-0.3,0.1-0.5,0.1c0.1,0.8,0.2,1.5,0.4,2.3c9.1-2.4,19.7-4.1,29.2-3.4C43.3,34.4,44,31,44.5,27.6z
	"/>
</svg>
