<?xml version="1.0" encoding="utf-8"?>
<!-- Generator: Adobe Illustrator 23.0.0, SVG Export Plug-In . SVG Version: 6.00 Build 0)  -->
<svg version="1.0" id="Layer_1" xmlns="http://www.w3.org/2000/svg" xmlns:xlink="http://www.w3.org/1999/xlink" x="0px" y="0px"
	 viewBox="0 0 50 50" enable-background="new 0 0 50 50" xml:space="preserve">
<path fill="#FFFFFF" d="M38.8,33.4c0.7,0,1.3,0,1.9-0.1c2.8-0.1,4.9,1.9,5.1,4.9c0,0.6,0.1,1.1,0.1,1.7c-0.1,1.8-1.4,3.2-3.2,3.3
	c-0.2,0-0.4,0-0.6,0c-0.3,0.7-0.5,1.5-0.8,2.2c1.4-0.1,2.9-0.2,4.3-0.4c0,0.5,0.1,0.9,0.1,1.4c-13.9,1.3-27.9,1.3-41.8,0
	c0-0.4,0.1-0.9,0.1-1.4c1.4,0.1,2.7,0.2,4.1,0.3c0-0.7,0.1-1.3,0.1-1.9c0.1-1.4,0.8-2.2,2.2-2.3c0.3-6.7,0.5-13.5,0.4-20.3
	c-2.6-0.7-4.6-2.3-5.9-4.8c-1-1.9-1.3-4-1-6.1c0.7-4.3,4.3-7.5,8.7-7.6c4.2-0.1,7.8,3.2,8.6,7.7c0.8,4.9-2.1,9.6-6.4,10.8
	c0,4.5,0,8.9-0.1,13.3c0.7-0.2,1.4-0.6,2.1-0.6c0.9-0.1,1.9,0,2.8,0c0.3,0,0.5,0,0.6-0.5c0.2-1.6,0.6-3.2,1.6-4.5
	c1.5-2,3.3-3,5.6-3.1c1.5,0,3-0.1,4.5,0.1c3.2,0.4,5.7,3,6.3,6.4C38.7,32.5,38.8,33,38.8,33.4z M44.5,38.2c0-1.9-1.6-3.4-3.4-3.4
	c-0.9,0-1.8,0.1-2.6,0.1c-0.5,0-0.7-0.2-0.8-0.7c-0.1-0.6-0.2-1.3-0.4-1.9c-0.6-2.8-2.5-4.9-5.1-5.2C30.7,27,29.2,27,27.7,27
	c-2.7,0-5.1,2.1-5.7,5.1c-0.2,0.7-0.3,1.4-0.4,2.1c-0.1,0.6-0.3,0.8-0.9,0.8c-1.1,0-2.2,0-3.3,0c-1,0-1.8,0.5-2.5,1.4
	c0.5,0,0.8,0,1.2,0c1.2,0,2.1,1,2.1,2.2c0,1.2-1,2.2-2.2,2.1c-0.6,0-1.2,0-1.7-0.1c0.2,0.8,0.8,1.4,1.6,1.5c0.8,0.1,1.6,0.1,2.3,0.1
	c0.7-2.3,2.1-3.6,4-3.6c2,0,3.4,1.3,4.1,3.6c2.5,0,5.1-0.1,7.6-0.1c0.4-2.3,2.1-3.6,3.7-3.7c0.9-0.1,1.7,0.1,2.5,0.6
	c1,0.6,1.6,1.5,1.9,2.7c1.7,0.1,2.8-0.9,2.6-2.3c-0.7,0-1.3,0.1-2,0.1c0-0.5-0.1-0.9-0.1-1.4C43.2,38.3,43.8,38.2,44.5,38.2z
	 M5.4,12.2c0.2,4.2,3.6,7.6,7.5,7.6c4,0,7.3-3.6,7.3-8c0-4.5-3.5-8-7.8-7.8C8.3,4.2,5.2,8,5.4,12.2z M12.4,21.3
	c0.1,6.7-0.1,13.4-0.3,20.1c0.3,0,0.6,0,0.8,0c0-1,0-1.9,0-2.9c0-0.8,0.2-1.6,0.6-2.3c0.1-0.2,0.2-0.4,0.2-0.6
	c0.1-4.7,0.2-9.3,0.1-14c0-0.1,0-0.3,0-0.4C13.2,21.2,12.8,21.2,12.4,21.3z M25.4,46c3.2,0,6.3-0.1,9.5-0.2c-0.3-0.7-0.7-1.4-1-2.1
	c-2.5,0.1-5,0.1-7.5,0.2C26,44.7,25.7,45.3,25.4,46z M15.3,43.7c-0.4-0.3-0.8-0.5-1.2-0.7c-0.1,0-0.2-0.1-0.3-0.1
	c-1.1-0.1-2.2-0.1-3.2-0.2c-0.4,0-0.7,0.2-0.7,0.5c-0.1,0.8-0.1,1.5-0.2,2.3c1.9,0.1,3.7,0.2,5.5,0.3C15.3,45.1,15.3,44.4,15.3,43.7
	z M22.2,46c1.5,0,2.8-1.3,2.8-2.9c0-1.6-1.2-2.9-2.7-2.9c-1.5,0-2.8,1.3-2.8,2.9C19.4,44.7,20.6,46,22.2,46z M35.2,42.9
	c0.1,1.6,1.3,2.9,2.9,2.8c1.5-0.1,2.7-1.5,2.6-3c-0.1-1.6-1.4-2.8-2.8-2.7C36.4,40,35.2,41.3,35.2,42.9z M18.9,46
	c-0.3-0.7-0.6-1.4-0.9-2.2c-0.4,0-0.9,0-1.3,0c0,0.7,0,1.4-0.1,2.1C17.5,45.9,18.2,45.9,18.9,46z M14.2,39.3c0.7,0,1.3,0.1,2,0.1
	c0.4,0,0.6-0.3,0.7-0.7c0-0.4-0.2-0.7-0.6-0.7c-0.7,0-1.3,0-2-0.1C14.2,38.3,14.2,38.8,14.2,39.3z"/>
<path fill="#FFFFFF" d="M29.6,35.1c-1.6,0-3.3,0-4.9,0c-1.6,0-2.4-1.3-1.9-2.9c0.4-1.3,1.1-2.5,2.1-3.4c0.7-0.7,1.5-1,2.4-1
	c1.4,0,2.8,0,4.1,0c2.3-0.1,3.7,1.3,4.7,3.3c0.2,0.5,0.4,1,0.5,1.5c0.2,1.2-0.7,2.4-1.9,2.4C33,35,31.3,35,29.6,35.1z M30.3,33.6
	c1.5,0,2.9,0,4.3-0.1c0.5,0,0.7-0.4,0.6-0.9c-0.6-2.4-2.4-3.9-5-3.4C30.3,30.7,30.3,32.1,30.3,33.6z M28.9,29.2c-0.6,0-1.1,0-1.6,0
	c-0.6,0-1.1,0.2-1.6,0.6c-0.8,0.7-1.3,1.6-1.7,2.7c-0.2,0.7,0,1,0.7,1c1.3,0,2.6,0,3.9,0c0.1,0,0.2,0,0.3,0
	C28.9,32.1,28.9,30.7,28.9,29.2z"/>
<path fill="#FFFFFF" d="M11.5,12.7c0,1.2,0.1,2.4,0.1,3.6c-0.4,0-0.9,0-1.3,0c0-0.1,0-0.3,0-0.4c-0.1-2.4-0.2-4.8-0.3-7.1
	c0-0.8,0.2-1,0.9-1c0.9,0,1.8-0.1,2.8-0.1c1.4,0,2.5,1,2.5,2.4c0,1.4-1,2.5-2.3,2.6C13,12.6,12.3,12.6,11.5,12.7z M11.5,11.2
	c0.8,0,1.6,0,2.4-0.1c0.5,0,0.9-0.5,1-1c0-0.5-0.3-1.1-0.8-1.1c-0.9,0-1.7,0.1-2.6,0.1C11.4,9.8,11.4,10.5,11.5,11.2z"/>
</svg>
