<?xml version="1.0" encoding="utf-8"?>
<!-- Generator: Adobe Illustrator 23.0.0, SVG Export Plug-In . SVG Version: 6.00 Build 0)  -->
<svg version="1.0" id="Layer_1" xmlns="http://www.w3.org/2000/svg" xmlns:xlink="http://www.w3.org/1999/xlink" x="0px" y="0px"
	 viewBox="0 0 50 50" enable-background="new 0 0 50 50" xml:space="preserve">
<g>
	<path fill="#FFFFFF" d="M18.8,38.7c1.5-0.1,3-0.1,4.5-0.1c0.4,0,0.6-0.3,0.6-0.6c0-0.8,0-1.6,0-2.4c0-0.4-0.3-0.6-0.6-0.6
		c-1.3,0-2.6,0-3.9,0.1c-0.4,0-0.6,0.3-0.6,0.6C18.7,36.6,18.8,37.6,18.8,38.7z M12.4,37.9c0,0.4,0,0.8,0,1.2c0.4,0,0.8-0.1,1.2-0.1
		c0-0.4,0-0.8,0-1.2C13.2,37.8,12.8,37.8,12.4,37.9z M23.7,42.2c0.2,1.3,0.3,2,0.6,3.3c0,0.3-0.5,0.3-0.6,0.3
		c-0.5,0-0.7-0.2-0.7-0.6c-0.2-0.9-0.3-1.8-0.5-2.7c0-0.1-0.1-0.2-0.1-0.4c-1.3,0-6.9,0.4-8.2,0.6c-0.1,0.8-0.2,1.5-0.3,2.3
		c0,0.3-0.1,0.6-0.1,1c-0.1,0.4-0.3,0.6-0.7,0.7c0,0-0.6,0.2-0.6-0.4c0.1-0.5,0.3-2.5,0.4-3.4 M12.9,43c-0.2,0-0.7,0.1-0.8,0.1
		c-0.5,0.1-0.8-0.1-0.8-0.6c0-0.4,0.3-0.7,0.7-0.7c0.4,0,0.7-0.1,1.1-0.1c3.4-0.4,6.9-0.6,10.3-0.6c0.2,0,0.3,0,0.5,0
		c0-0.4,0-0.8,0-1.2c-0.1,0-0.3,0-0.5,0c-3.8,0.1-7.6,0.3-11.3,0.7c-0.7,0.1-0.9-0.1-0.9-0.8c0-0.7-0.1-1.5-0.1-2.2
		c0-0.2,0-0.5,0.2-0.6c0.3-0.2,0.2-0.4,0.1-0.7c-0.1-0.4-0.2-0.8-0.3-1.1c-0.1-0.5,0-0.8,0.4-1c0.4-0.1,0.7,0.1,0.9,0.6
		c0.1,0.5,0.3,1,0.4,1.5c0,0.1,0.2,0.3,0.3,0.4c0.1-0.1,0.2-0.3,0.3-0.4c0.1-0.3,0.2-0.7,0.3-1c0.1-0.4,0.5-0.6,0.8-0.5
		c0.4,0.1,0.5,0.4,0.4,0.8c-0.1,0.3-0.2,0.7-0.3,1c0.3,0.2,0.4,0.4,0.4,0.8c0,0.5,0,1.1,0.1,1.6c0.4-1.3,1.2-2.1,2.5-2.5
		c0-0.2,0-0.5,0-0.7c0-1,0.8-1.8,1.8-1.9c1.3-0.1,2.7-0.1,4-0.1c1,0,1.8,0.8,1.9,1.7c0,0.3,0,0.6,0,0.8c0,0.8-0.1,1.7-0.1,2.5
		c0,0.8,0.1,1.7,0.1,2.5c0,0.7-0.2,0.9-0.9,0.9c-0.1,0-0.4,0-0.5,0 M23.7,42.2 M16.4,38.8c0.4,0,0.8,0,1.1-0.1c0-0.4,0-0.7,0-1.1
		C16.9,37.9,16.6,38.2,16.4,38.8z"/>
	<path fill="#FFFFFF" d="M36.8,35.2c-2.4-0.2-4.7-0.3-7.1-0.3c0,0.2,0,0.3,0,0.4c0,3.2-0.1,6.5-0.1,9.7c0,0.1,0,0.3,0,0.4
		c-0.1,0.3-0.3,0.5-0.6,0.5c-0.3,0-0.6-0.2-0.6-0.5c0-0.1,0-0.2,0-0.3c0-3.5,0.1-7,0.1-10.6c0-0.7,0.2-0.9,0.9-0.8
		c2.6,0.1,5.3,0.2,7.9,0.3c0.7,0,0.9,0.2,0.9,1c-0.1,3.7-0.3,7.3-0.4,11c0,0.1,0,0.2,0,0.2c0,0.4-0.3,0.6-0.7,0.6
		c-0.3-0.1-0.6-0.4-0.6-0.7c0-0.1,0-0.2,0-0.4c0.1-3.3,0.2-6.6,0.3-9.9C36.8,35.6,36.8,35.4,36.8,35.2z"/>
	<path fill="#FFFFFF" d="M24.5,20.8c-1.1,0-2.1,0-3.2,0c-0.6,0-0.8-0.2-0.9-0.8c0-1.1,0-2.2-0.1-3.4c0-0.5,0.2-0.8,0.8-0.7
		c2.2,0,4.4,0,6.6,0c0.6,0,0.9,0.2,0.9,0.8c0,1.1,0,2.2-0.1,3.4c0,0.5-0.3,0.8-0.9,0.8C26.6,20.8,25.6,20.8,24.5,20.8z M27.2,19.6
		c0-0.8,0-1.6,0-2.4c-0.7,0-4.8,0-5.5,0c0,0.8,0,1.6,0,2.4C22.5,19.6,26.5,19.6,27.2,19.6z"/>
	<path fill="#FFFFFF" d="M34.7,38.9c0.3,0,0.6,0.3,0.6,0.7c0,0.3-0.3,0.6-0.6,0.6c-0.3,0-0.6-0.3-0.6-0.7
		C34.1,39.1,34.4,38.9,34.7,38.9z"/>
	<path fill="#FFFFFF" d="M47,15.5c0.1-1.2,0.2-1.8,0.3-3C38.9,8.5,34.5,7,25,2.5c-0.1,0-0.1,0-0.2,0C15.4,7,11,8.5,2.7,12.5
		c0.2,2.1,0.3,3.1,0.5,5.1C3.5,18.2,3.7,18.4,4,19c0.9-0.5,1.8-1,2.6-1.4c0.8,9.7,1.3,19.6,1.7,29.2c0,0.6,0.3,0.8,0.7,0.7
		c0.4-0.1,0.6-0.4,0.6-1c0-0.1,0-0.2,0-0.3c-0.2-5.2-0.4-10.3-0.7-15.4c0-0.2,0-0.3,0-0.5c0.2,0,0.4,0,0.6,0
		c9.5-0.4,19.1-0.4,28.6-0.1c0.7,0,0.9-0.2,1-0.9c0.2-3.7,0.4-7.4,0.6-11c0-0.7-0.1-0.9-0.9-0.9c-2.6,0.1-5.1,0.2-7.7,0.3
		c-0.8,0-1,0.2-1,0.9c-0.1,2.7-0.1,5.4-0.2,8.1c0,0.1,0,0.2,0,0.3c0,0.3,0.3,0.5,0.7,0.5c0.3,0,0.6-0.2,0.6-0.5c0-0.1,0-0.3,0-0.4
		c0.1-2.4,0.1-4.9,0.2-7.3c0-0.1,0-0.3,0-0.4c0.9,0,1.8,0,2.7-0.1c-0.1,1.5-0.1,2.9-0.2,4.3c-1,0.1-1.3,0.2-1.3,0.6
		c0,0.8,0.7,0.6,1.3,0.7c-0.1,1.5-0.1,2.9-0.1,4.3c-2.4,0-9-0.1-11.4-0.1c0-1.8,0-3.5-0.1-5.3c0-0.6-0.2-0.8-0.9-0.8c-2,0-4,0-6,0
		c-0.2,0-0.7,0-0.8,0c-0.1-1.1-0.7-1.9-1.9-2.4c-1.1-0.4-2.1-0.2-3,0.6c0-0.6-0.1-1-0.1-1.5c-0.1-1.1-0.2-1-0.7-1
		c-0.5,0-0.6,0.3-0.6,0.6c0.2,3.4,0.5,6.7,0.6,10.1c0.2,0,0.4,0,0,0c0,0,0,0,0,0c-0.1,0-0.2,0,0,0c0-0.1,0-0.3,0-0.4
		c-0.2-3-0.4-6-0.6-9.1c0-0.1,0-0.2,0-0.3c0-0.1,0-0.2,0-0.3c0-0.7-0.1-1.3-0.1-2c0,0-0.1,0-0.1,0c5.7-3,9.7-4.7,17-8.3
		c6.9,3.4,10.9,5.2,16.2,7.9c0,0,0,0,0,0c0,0.1,0,0.3,0,0.4c-0.7,9.3-1.1,20-1.5,29.4c0,0.1,0,0.2,0,0.4c0,0.4,0.2,0.6,0.6,0.7
		c0.3,0.1,0.6-0.1,0.6-0.5c0-0.1,0-0.3,0-0.4c0.2-4.7,0.4-9.4,0.6-14c0.2-4.6,0.6-10.7,1-15.3c1.1,0.6,2.2,1.2,3.5,1.9
		c0.3-0.5,0.5-0.8,0.9-1.3c-8.2-4.5-12.5-6-21.7-10.6c-0.1,0-0.1,0-0.2,0c-8.6,4.2-12.7,5.8-20.5,9.9c-0.1-1.4-0.2-2.1-0.3-3.4
		C12,9.7,16.1,8.2,24.9,4c8.9,4.3,13.1,5.8,21,9.7c-0.1,0.8-0.1,1.2-0.2,2C46.3,15.6,46.5,15.6,47,15.5z M35.2,24.5
		c1.1-0.1,1.3-0.3,1.3-0.7c0-0.4-0.3-0.5-1.3-0.6c0.1-1.4,0.1-2.9,0.2-4.4c0.9,0,1.8-0.1,2.7-0.1c-0.2,3.4-0.4,6.7-0.5,10.1
		c-0.8,0-1.7,0-2.6-0.1C35.1,27.4,35.2,25.9,35.2,24.5z M10.1,28.9c0-0.4,0-0.7-0.1-1c0-0.1,0-0.1,0-0.2c2.6-0.1,5.6-0.1,8.2-0.1
		c0,0.4,0,0.8,0,1.2C15.7,28.8,12.7,28.9,10.1,28.9z M20.9,28.7c-0.4,0-0.8,0-1.3,0c0-0.4,0-0.8,0-1.2c0.4,0,0.8,0,1.3,0
		C20.9,28,20.9,28.3,20.9,28.7z M11.6,21.3c0.7,0,1.3,0.5,1.4,1.3c-0.9,0-1.8,0-2.7,0C10.3,21.8,11,21.3,11.6,21.3z M20.8,23.9
		c0,0.8,0,1.6,0,2.4c-3.5,0-7.4,0-10.9,0.1c0-0.8-0.1-1.7-0.1-2.5C13.4,23.9,17.3,23.9,20.8,23.9z"/>
</g>
</svg>
