<?xml version="1.0" encoding="utf-8"?>
<!-- Generator: Adobe Illustrator 23.0.0, SVG Export Plug-In . SVG Version: 6.00 Build 0)  -->
<svg version="1.0" id="globes" xmlns="http://www.w3.org/2000/svg" xmlns:xlink="http://www.w3.org/1999/xlink" x="0px" y="0px"
	 viewBox="0 0 400 400" enable-background="new 0 0 400 400" xml:space="preserve">
<g id="South_America_1_">
	<path id="path17649_3_" opacity="0.5" fill="#86CAD9" d="M399.8,199.7c0.5-68.7-37.3-135.9-96.4-171
		C243.9-8.1,164.9-9.7,103.8,24.5C43,57.2,1.7,123.6,0.3,192.8c-3.5,72.9,37.4,145.6,101.3,180.8c60.6,35.2,139.9,34.5,199.9-1.8
		C361.7,337.1,400.3,269.3,399.8,199.7z"/>
	<g id="Land_3_" opacity="0.5">
		
			<path id="path16036" opacity="0.5" fill="#FFFFFF" stroke="#000000" stroke-width="0.25" stroke-linecap="round" stroke-linejoin="round" d="
			M188.4,0.8L187.9,1h-3.3l-0.7,0.2h0.7l-1.6,0.2l-2.4,0.2l0.9,0.2l-3.3,0.2l-2,0.2l-2,0.4l5.1-0.4l0.2-0.2l1.1,0.2l0.7-0.2l0.4,0.2
			h0.4l0.7,0.2h8.4l-4-0.4h1.8l-0.2-0.2l4.4,0.4l-0.4-0.4l1.1,0.2V1.6h-0.4l-0.9-0.2l-1.1,0.2l-0.4-0.2l-0.7-0.2l-1.3,0.2V1.2h1.3
			h0.4L189.9,1h1.6l0.9,0.2l0.9-0.2l-0.7,0.2l2.2-0.2l-1.8,0.2l2.7,0.2l0.2-0.4l1.1,0.2L196.8,1h0.2V0.8L195.7,1l0.9-0.2h-0.4h-0.7
			h-0.9h-1.6h-0.4h-0.2h-0.4H188.4z M197.1,1h1.1h0.7h0.2l-0.9-0.2L197.1,1z M209.3,0.8l1.3,0.2h0.4l-1.3-0.2L209.3,0.8z M209.7,0.8
			h0.2l-0.4,0L209.7,0.8z M209.9,0.8l1.6,0.2h0.2h0.2l1.6,0.2L209.1,1l2.4,0.2h-1.3l2.4,0.2h0.9l1.1,0.2l-2.9-0.2l0.9,0.2l0.4,0.2
			h0.4h1.1h0.2l-0.7-0.2l2.4,0.4l-2-0.2l0.9,0.2l0.4,0h-0.2h-0.9h-0.7l1.6,0.2h-0.9l1.8,0.2l-0.2,0.2l0.9-0.2l-0.7,0.2l1.8,0.2
			l-0.4,0.2h1.3l-0.4,0.2h0.4l2,0.2l0.7,0.4h3.8l-1.3,0.2h1.1h0.7l0.2,0.2h0.7l-0.4,0.2h0.9V5l0.6-0.2l-0.1,0l0.2,0l0.1,0l0.2,0
			l1.8,0.2l-1.3-0.4h1.1l-1.1-0.2h1.1l-2-0.4l1.6,0.2l-2-0.4l2,0.2l-0.9-0.2l1.3,0.2l-1.3-0.4l1.3,0.2h0.4l-1.6-0.2l1.8,0.2
			l-0.7-0.2L228.2,3l1.3,0.2L229.3,3l2.2,0.4l-0.7-0.2h1.1L231.3,3h-1.1l-0.7-0.2h-0.7l-0.4-0.2h-0.7h-0.7l-0.3-0.1l-0.1-0.1H226
			l-0.7-0.2h-0.2h-1.1l-0.4-0.2h-2l-0.4-0.2h-1.3l-0.7-0.2h-1.8l-0.7-0.2h-1.8L214.2,1h-1.1h-0.4h-0.2L209.9,0.8z M232,3.2l-0.2,0.2
			h0.9h0.2l1.3,0.2l-0.7-0.2h-0.4l-0.7-0.2H232z M233.5,3.4l0.5,0.1l-0.3-0.1H233.5z M234,3.6l0.1,0.1h0.1L234,3.6z M234.3,3.6
			L234.3,3.6L234.3,3.6l0.6,0.1l-0.1-0.1H234.3z M234.8,3.6l0.2,0.1L234.8,3.6l0.2,0.1l0.2,0.1h0.7l0.4,0.2h0.6l-0.8-0.2l-0.5-0.1
			L234.8,3.6z M237,4.1l0.8,0.2l-0.4-0.2H237z M237.3,4.1l0.3,0.1l-0.1-0.1H237.3z M237.6,4.1l0.2,0.2h0.7L237.6,4.1z M238.4,4.3
			l0.5,0.1l-0.3-0.1H238.4z M238.9,4.4l0.4,0.1h0.3L238.9,4.4z M239.6,4.5l0.2,0l-0.1,0H239.6z M239.8,4.6l0.4,0.2h0.7L239.8,4.6z
			 M240.8,4.8l0.4,0.2h0.3L240.8,4.8z M241.6,5l0.8,0.2L241.7,5H241.6z M234.9,3.7l-0.6-0.1l0.7,0.2L234.9,3.7z M228.4,4.8l-0.2,0
			l0,0l2.1,0.4L228.4,4.8z M215.7,2.1l-0.2,0l-2-0.2L215.7,2.1z M213.5,1.2l-2-0.2h-0.4L213.5,1.2z M181.9,1.2l-0.4,0.2l1.3-0.2
			H181.9z M182.8,1.2l-1.1,0.2l1.6-0.2H182.8z M179.7,1.4l-0.2,0.2l0.7-0.2H179.7z M179.5,1.6l-1.3,0.2l2.2-0.2l0.9-0.2L179.5,1.6z
			 M173.9,2.1L173.9,2.1h0.4H173.9z M173.9,2.1l-1.6,0.2l1.2-0.1L173.9,2.1z M173.6,2.2l-0.5,0.1l0.8-0.1l0.1-0.1L173.6,2.2z
			 M173.8,2.2L173.8,2.2l1-0.1L173.8,2.2z M173.1,2.3h-0.7l-1.6,0.2l-0.4,0.2L173.1,2.3z M170.4,2.8h-1.1L167.9,3l-1.6,0.4l-1.6,0.2
			l1.4-0.2l-0.7,0.2l-3.1,0.9L160.2,5l2.4-0.4l-0.2,0.2l4.4-1.1l0.2,0.2l1.8-0.2l1.8-0.2h-0.9l-1.6,0.2l0.7-0.2h-1.3h-1l0.9-0.1
			l0.1,0.1l0.9-0.2h-0.2h-0.9l1.8-0.2L170.4,2.8z M165.5,3.6h-0.7l0.2-0.1l-1.8,0.3l0.3-0.1l-0.7,0.1h-0.2l-0.4,0.2h-0.7l-0.2,0.1
			l0,0l-0.2,0.1h-0.2l-0.3,0l-0.4,0.2l2.2-0.4L165.5,3.6z M241.5,138.3l1.8-3.8l-6.9-1.1l-1.6,2.9v-1.6l-1.6,1.3v-1.6l-1.6,1.6
			l1.3-2.9l4.9-4h-0.7l0.7-1.6l-2.9-1.6l-2-6.9l-0.9-0.7l-0.2,1.1l-2.2-2.9l-6.7-3.3l-10.2-0.2l-4.2-3.3l-1.1,1.6l0.7-2.9l-2-2
			l-3.1-1.8l-0.9-0.2h-2.2v-2.4l-2.7-1.6l-2.4,0.4l-0.4-0.7l-1.3-1.1l3.6-1.1l-8.2,0.2l2,0.7l-4.9,1.3l-4-1.8l-6.4,0.9l-0.9-2.2
			l-4-0.4l-1.3-2.2l-0.7,1.8l1.3-0.2v0.7l-1.1-0.2l-4.9,2.4l1.1,2.4l0.7,0.7l-0.2,1.3l-2.2,0.9l-1.3-2.2l0.4-0.4l1.6-2.2l-1.3-2.7
			l3.1-1.6l-2-1.1l-5.6,3.8l-2.9,0.2l-0.4,1.1l-1.8-0.2l-1.6,0.9l-1.6,2.2v0.4l0.2,1.6l-4.4,3.1l0.4,2l-3.6-3.3l-3.6-0.9h-2
			l-1.3,0.9l-3.6,2.2l-2.7-0.9l0.2,0.7h-1.3l-2-2.7l-2.7-3.6l3.1-9.1l-0.4-2.7l-4.7-1.3l-9.6,2.4l-2.4-0.2l2.7-3.3l1.1-4h-0.9
			l1.3-1.6l0.2,1.8l2-4l-0.9-0.2l3.6-4.9h-3.8l-6.4,2.7l-2.2,4.7l-2.9,3.1l-2.2-0.2l-6,3.1L93,86.4l-1.8,0.4l-2.7-7.8v-1.3l1.8-5.1
			l0.7-2l1.3-0.7l-0.7,1.1l1.8-2.7l0.4-3.1l1.3-2.2l2.4-1.1l-0.4-0.7l1.6-0.2l-0.7,0.7l3.3-2.2l0.9-1.6h1.1l-0.9,0.7l2.7-1.1
			l0.1-0.2l3.7-0.4l1.6-0.9l1.8,1.3l1.3-0.9l0.9,0.2v-0.9h1.1l0.4,1.1l1.3-0.9l-1.6-0.4l1.6-1.1h-1.3h-1.6l6.2-1.3l0.7-1.1l0.2,0.7
			l-0.7,0.4l2.9-1.3l-0.7,0.7l2.9-0.7l-0.9,0.4l2.4-0.2v0.7v0.7l2.7-1.1l0.9-0.4l0.9,0.2h0.4l2.4,2l-1.3,2.4l1.3-0.4l-1.1,1.3
			l0.7,1.3l1.1-0.4v2.4l2,0.7l-0.4,1.1l1.6-0.2v0.4l2.4-4.7l-1.6-7.1l-0.4-2.7l3.3-2.4l-0.2-0.7l0.2,0.4l2.2-1.1l4-2.7l7.3-2.9
			l-1.8-0.2l1.6-0.4l-1.3-0.4l2.2,0.2l1.3-0.9l-0.2-0.7l-0.7,0.9l0.2-0.9l-2,0.4l1.8-0.9l0.9,0.2v-1.1l0.7,1.8l-0.7-2.2l-2.4-0.2
			h1.3l-0.2-0.2l0.9-0.7l-0.2-0.1l0.4-0.6l-2.7-0.4l0.7-0.7l2,0.9l-0.2-2.2l2.2-0.7l-1.8,1.3l1.6,1.6l-1.3,1.6l3.1-2.4l-0.7-2.4
			l1.3,1.3l2.4-1.6v-1.3l0.8-0.4h0.1l0.2-0.1l-0.3,0l1.2-0.6l5.6-0.9l0.4-0.9l0.4,0.7l3.1-0.4v-0.7l-0.9,0.7l-1.6-1.1l2.4-2.2
			l1.3-0.2v-0.4l1.3,0.2l1.3-1.1l-0.2,0.4l1.6-0.4l0.4,0.2l2.9-0.7l-0.4-0.7l1.8,0.2l5.3-1.3l-1.8,0.9l4-0.2l-1.8,0.7l-1.1-0.4
			l-4,1.3l-0.4,0.9l1.8,0.7l3.1-1.8h1.6v-0.4l6-0.7l0.7-0.2l-2.2-0.7l-3.3,0.2l-3.3-0.9l-0.2-0.9h-1.3l1.6-1.1l-2,0.4l-0.4-0.4h-2.2
			l3.6-0.2l2.2-0.7l-0.4-0.7l-3.6-0.2l-4.7,0.9l-7.8,2.9l3.3-1.6v-0.4l6.4-1.8l1.6-0.9l0.7-0.2l14.4-0.2h0.2l2.7-1.1l3.8-0.2
			l2.4-0.7l-1.3-0.2h1.3l-2-0.2h1.8l-0.9-0.2l0.7-0.4l-1.6-0.7L207.1,9l0.4-0.4l-2.2-0.4l-3.8,0.7l3.3-0.7l-2.4,0.2l4.4-0.4
			l-1.8-0.2l0.7-0.2h-2.2V7.2l-0.9,0.2l0.4-0.2l-1.3,0.4l0.9-0.4h-1.1l-1.3,0.2l0.7-0.7h-0.7l0.2-0.2h-2.4l0.9-0.2h-0.4l-1.3-0.2
			h1.1l-1.6-0.2h1.6l0.7-0.2l-2.2-0.4h1.1L196.4,5l0.4-0.2L195.1,5l1.6-0.4l-2,0.2l1.6-0.2l-0.4-0.4l-1.8,0.2l1.3-0.2l-2.2-0.4
			l0.7-0.2h-0.9l-1.3,0.4l0.9,0.2h-1.3l0.7,0.2l-1.3,0.2v0.2l-0.7-0.2l-2.4,0.7l-0.4-0.4l-1.6,0.4l0.9-0.4h-2h-1.3l0.9-0.2l0.4,0.2
			l0.7-0.4h-0.9l0.4-0.2h-2l2.2-0.2l0.7-0.4h-3.6l0.4-0.2l-1.3,0.2L179.3,3l-1.8,0.4h-4l-1.6,0.4l0.4,0.2l-1.8,0.4h1.1V5l-3.6,1.1
			l2.2,0.2L170,7.5l0.4-0.1l0.4,0.2h-0.9l-3.1,1.1l-4.7,1.1l1.1,0.2l-0.4,2l-1.8,0.7v0.4l-0.4-0.4l-1.6,0.9h-0.4h-1.1l0.4-0.4
			l-2.2-1.1l2.2-2.2l-5.1,0.7l-7.1-0.2l-3.8,1.1l1.3-0.7l0.9-0.9l-1.3,0.2l-0.9,0.4v-0.4l2.9-1.1l4.2-1.3h-0.2l3.3-0.9h-0.2l0.7-0.2
			l-1.1,0.2l0.2-0.2l0.7-0.2l1.1-0.2l-1.8,0.4h0.9l0.7-0.2l1.6-0.2h-0.7l-1.1,0.2l0.6-0.2l1.6-0.3l2-0.7l2.4-0.4l3.1-0.7l-2.7,0.4
			h-0.4l0.8-0.2l-0.9,0.1L157.3,5l-0.8,0.2h-0.3l-1.8,0.4h-0.2l-0.2,0.2l-2.2,0.4l-0.8,0.2h-0.3l-0.4,0.2h0l-0.1,0h-0.4l-0.2,0.1
			L148.9,7h-0.1l-0.1,0l-0.8,0.2l-0.1,0.1l0.6-0.1l0.8-0.2h-0.1l0.3-0.1L149.3,7l-1.1,0.3l-0.4,0.1v0l0,0l-0.9,0.2h0l-0.4,0.1
			l-0.2,0.1l-0.1,0l-0.8,0.2l-0.4,0.2l-1.1,0.2l1-0.3l0.3-0.1l0.4-0.2l-1.5,0.4l-0.4,0.2l-0.9,0.2l-0.1,0.1L142.4,9h-0.3l-0.6,0.2
			l-0.4,0.2h-0.1l-0.2,0.1l-0.1,0.1h-0.2h-0.2h-0.1l-0.8,0.2l-0.7,0.2h-0.1l-0.6,0.2l1.6-0.4l-0.7,0.2l-0.9,0.2l0.4-0.2l-2.9,0.9
			l0.9-0.2l0.3-0.1l-0.2,0.1h-0.1l-0.4,0.2h-0.2h-0.2l-0.2,0.2h-0.2l-0.4,0.2l-0.1,0h-0.2l-0.3,0.1l-0.1,0l0,0h0.2l-1.5,0.4l1.3-0.4
			h-0.1l0.1,0l0.2-0.2l-1.8,0.7h-0.2l-0.1,0.1l-0.4,0.1l0.3-0.1l0.1,0l0.2-0.1l-0.1,0.1l-0.2,0.1l0,0l-0.8,0.3l0.2-0.1l0.7-0.3
			l0.1-0.1l-1.4,0.5h-0.2v0.1l-0.4,0.1l0.4-0.1l-2.3,0.8l1-0.3l1.3-0.5V13l0.4-0.2l0.7-0.2l-1.1,0.5l-1.3,0.4l-0.7,0.3l-0.1,0
			l-0.1,0l0.1,0l-0.3,0.1l-0.6,0.1l-0.3,0.1l-0.5,0.2h-0.1l0.6-0.2l-0.7,0.2l-0.2,0.1l-0.9,0.3l0.7-0.2l-0.3,0.2l-0.1,0.1h-0.2
			l-0.4,0.2l-0.4,0.2l-0.1,0l3-0.9l-4.4,1.6l-1.1,0.4l0.4-0.2l0,0l0.5-0.2h-0.3l-1.3,0.7h0.1l-0.6,0.2l-0.9,0.4h-0.2h-0.2l-1.3,0.7
			l-0.4,0.2l-0.9,0.4h-0.2l-0.4,0.2l-0.2,0.2l-0.4,0.2h-0.4l-1.8,0.9l-0.4,0.2l-0.2,0.2l-0.9,0.4h-0.2l-0.9,0.4l-0.2,0.2l-0.9,0.4
			h-0.2l-0.4,0.2l-0.2,0.2l-0.9,0.4l-0.4,0.2h-0.2l-0.4,0.2l-0.2,0.2l-0.4,0.2l-0.4,0.2l-0.2,0.2l-0.4,0.2l-0.4,0.2h-0.2l-0.4,0.2
			l-0.2,0.2l-0.9,0.4l-0.9,0.4l-0.2,0.2l-0.4,0.2h-0.2v0.1l-0.2,0.1l-0.4,0.2l-0.2,0.2l-0.4,0.2L99,27.5l-0.2,0.1l0,0l-1.1,0.6
			l-0.9,0.4h0.1l-0.3,0.2l-0.7,0.4L95,29.8l-0.9,0.7l-0.4,0.3l-1.8,1l0.2-0.2l-1.3,1.1l-0.4,0.2l-1.1,0.7l0.4-0.2L89,33.8L88.7,34
			l-0.1,0l-0.5,0.3l-1,0.7l0.8-0.6l-0.7,0.4l-0.5,0.4l0,0l-0.1,0l-0.2,0.2l-0.2,0.1l0.1-0.1l-0.3,0.2L85.7,36l-0.4,0.3l0.2-0.1
			l-0.2,0.2l-0.4,0.2l-0.3,0.2l0.8-0.6l-0.1,0l0.4-0.3l-0.2,0.1l-0.1,0l-0.1,0.1l0.3-0.2l-0.8,0.4l-0.2,0.2l-0.7,0.4l0.6-0.3
			l-0.1,0.1l-0.4,0.2v0.1l-0.2,0.1l0.2-0.1v0l-0.1,0.1h0h-0.1l-0.2,0.2L83,37.9l-0.4,0.2l-0.1,0l-0.2,0.1l-0.1,0.1l-0.8,0.6l0.2-0.1
			L81.5,39l0.9-0.5l-1.2,0.9l1-0.7l1.5-1.1h0.1l-3.3,2.7l1.3-1.1l-2,1.6l2.2-1.8l-0.8,0.4L81,39.4l-0.7,0.4L77.7,42l0.4-0.2l-2,1.6
			l-8,6.9l-2.2,2.7l-2.7,2.4l-2,2.7l-0.9,1.6l0.2-0.1l-0.8,1.2L58.4,64l-1.1,1.3l0.7-0.2l1.8-0.2l0.4,0.9l-2.2,6.7l-0.2,0.4l1.3,1.8
			l-1.3,1.8l0.4,0.2l-2,0.7l1.3,1.6l1.3-1.1l0.7,1.6l-1.3,3.3l2.2,1.8V86l1.6-1.3v-2h-1.3l0.9-5.1l-0.9-2.2l0.7-1.6l-1.1-2.4l2-4.2
			h2.4l-0.9,2.7L63.3,72l0.7,1.6l1.1-0.2l-0.7,1.6l1.6,1.3L64.6,78l2.2,0.7l-0.2,0.9l2.7,3.3l0.4,3.1l-1.3,2.2l0.4,0.2l-1.1,0.9v0.9
			l3.6,3.3l3.6-0.2l1.8,1.3l2.4,0.4l8.4,1.1l6.4-2.9l7.6,4.4l8.2,0.9l-0.7-0.2l4-1.1v1.3l-1.1,0.2l5.6,4.4l-0.9,0.7l0.9,0.2
			l-0.2,2.4v0.2l1.6,0.9l0.9-1.1l-0.4-0.4l-0.7-0.7l1.3,0.7h0.2l3.3,2.2v2h0.9l-0.2-1.1l1.6,2l0.4-0.9l3.1-0.2l0.7,1.6l1.6-0.9
			l0.4,2.2l1.6-0.4l1.6-0.9l-1.6-2l1.6-1.1l3.1-2l2,2l1.3-0.4l-1.3,1.6l3.6,4l-0.9,7.5l1.6,0.7l-0.4,0.9l-2,3.3l-2.7,1.1v2.2
			l-1.8,0.4l0.4,1.8l-3.6,1.3l-0.2,0.2l0.2,1.1l0.2,0.7l-0.2,0.2l-1.6,2l0.7,0.7l-2,1.6v4.2l2.2,1.1l0.7-1.3l0.4-0.4l0.7,1.1
			l-1.1,2.7l-4,3.5l1.6,4.4l-0.9,1.3l3.8,2l3.6,4.7l2.9,5.8l2,4.2l5.1,6.9l-0.4,1.8l1.8,2.4l2.7,2.4l12.4,5.5l4,3.8l0.9,5.5l0.4,4.9
			l-1.3,7.3l0.9,6.4l-2.2,12.4l1.1,3.3l-0.2,0.4l-0.9,2l1.3,10.2l-2.9,12l-1.3,0.9l2.2,6.9l-1.1,5.3l1.3,1.6l-0.4,0.7l1.8-1.1
			l1.1,0.4l0.7-0.7l-1.3,1.8l1.6,0.7l-0.2,1.1l-1.1-0.7l1.1,1.1l-0.9-0.4l-0.2,3.1l1.1,1.1l-1.1,1.1l2,1.1l-2,2.2l1.8,0.7l-1.8,0.2
			v1.1l1.1-0.7l-0.7,2.9l-0.9-1.1l-1.3,0.2l1.1-0.2h-0.9l0.4-1.1l-0.7,0.9l-0.9-0.7l-0.9,0.2l1.6,0.4l-0.7,1.1l-1.2,1l1.2-0.8
			l0.4,1.1l1.3-0.2l0.9,1.3l-1.1,0.9h1.3l-1.8,0.7l2.2-0.4l1.6,1.1l-1.1-0.2l0.9,1.1l-3.1-0.7l2,1.1l-1.1,0.7l0.9,0.4l-0.4,2
			l0.7-0.7l1.3,1.6l-1.6-0.2l0.7,1.1l0.7,0.9l-1.8-0.2l1.6,0.4l0.2,1.6l0.7-1.6l0.7,0.9l-1.3,0.7l-0.4,0.2l1.3,0.4l-0.2,1.6l1.3,1.1
			l-0.2-1.1l0.7,1.1l-0.7-1.6l1.8,0.7l-2-0.9l0.9-0.9l-0.2,1.1l1.6,0.7l-0.4,2V307l-0.2,1.1l-0.2-0.9h-0.4h-0.4h-0.7l0.4,2.2
			l1.6-0.9h2.9l0.7,1.6l-1.1,1.3l0.2-0.9l-1.3,0.4l2.7,1.3l0.2-3.6l3.3-1.6l2,0.2l-1.6-2h-1.3l1.3-0.2l-1.3-1.3l2-2.9l-0.4-0.4
			l-0.4-0.9l0.7,0.9l0.2,0.2l0.9-0.2v-0.2l0.4-2.9l4-3.6l-0.2-2.2l-2.4-0.4l-2.2-2.9l1.3-2.7l3.6-1.1l0.2-4l2.4-2.2l-1.8-1.1
			l1.6-0.4l0.7,1.1l1.3-0.9l-0.4-1.6l-1.8,1.1l-1.6-1.1l-0.2-4.4l3.3,1.3l3.8-0.9v-5.3l0.9,0.4l-0.9-2l3.3,0.7l2.9-0.7l4.2-0.9
			l2.7-1.3l2.4-4v-1.8l-1.8-1.3l0.7-2.2l-4-3.1l0.7-4.4l-0.2,2.9l1.8,1.8l4.7,1.8l5.8-0.7l4.9-5.3l1.3-4.2l4-4.7l-0.7-1.3l2,1.8
			l-4.9,5.5l4-3.3l2.4-3.8l1.6-2.2l3.1-2.4l1.3-4.9l-0.9-2.9l1.8-2.4l-1.1-0.7l1.6,0.4l2.2-2.7l4-2.4h2.9l3.6-2.7l2.4,0.7l1.6-1.1
			v1.1l3.3,0.2l0.2-1.6l3.3-1.3l-0.2-1.8l4-5.1l0.7-1.1l0.9-4.2l2-2l2.7-16.6l0.4-0.9l0.7,1.6l1.3-0.9l6.9-8.2l4-5.1l0.7-4L286,157
			l-1.1-1.6l-4.7-1.1l-4.2-4.9l-4.9-3.5l-7.3-0.9l-3.8-2.2l-4.9,2.9l0.4-2.2l1.3-0.9l-2.2,0.2l1.8-1.3l-1.1-2.2l-1.6,1.3l-0.2-1.8
			l-0.7,0.7l0.4-0.7l-1.1,0.2l-0.9-1.3l-0.4,0.9l-0.2-1.3l-0.4,0.7l-3.3-2l-0.2,0.7l-2.2-0.7l-1.6,2.4l1.3,0.4l-1.1,0.4l-0.9-1.1
			l-2.9,3.1l0.9-2.2 M165.7,27.3l3.3-0.4l1.1-0.7L165.7,27.3z M174.4,308.5l-0.7,1.3l0.9,0.2L174.4,308.5z M165.2,291.3l-0.2,0.1
			l0,0L165.2,291.3z M165.1,291.5l-0.2,0.2l0.9,0.4L165.1,291.5z M133.7,144.8l0.4,0.9l0.2-0.7l0.4-0.4l-0.4,0.2H133.7z M81.5,39
			l-0.6,0.4l0.4-0.2L81.5,39z M85.6,36l-0.1,0.1l0.6-0.4l0.1-0.1l-0.5,0.3L85.6,36z M88.7,34l0.6-0.4l1.1-0.9L88.7,34z M99,27.5
			l0.3-0.1l0.2-0.2L99,27.5z M127.9,13.8l0.1-0.1l-0.3,0.1H127.9z M127.8,13.8h-0.1l-0.3,0.1L127.8,13.8z M127.7,13.8l0.4-0.1
			l0.2-0.1l-0.5,0.1L127.7,13.8L127.7,13.8z M127.6,13.8h-0.1l-0.3,0.2L127.6,13.8z M127.5,13.8l0.4-0.1l0.2-0.1L127.5,13.8z
			 M138.4,10.1h0.2l1.8-0.7l-1.6,0.4L138.4,10.1z M140.4,9.4h0.2l1.1-0.4L140.4,9.4z M147.7,7.4L147.7,7.4l-0.3,0.1L147.7,7.4z
			 M147.9,7.2l-2.2,0.6l0.6-0.1l0.1,0l0.5-0.1l0.1,0l0.1,0l0.2,0h-0.1L147.9,7.2z M159.6,4.5l1-0.2h-0.2L159.6,4.5z M160.6,4.3
			L160.6,4.3h0.1H160.6z M160.7,4.3h0.1l0.4-0.1L160.7,4.3z M163.6,3.7l1.5-0.3l-1.3,0.2L163.6,3.7z M165.1,3.6l0.9-0.1l0.7-0.2
			l-1.1,0.2L165.1,3.6z M172.6,3.2l0.4,0.2l0.9-0.2H172.6z M169.9,3.9l-1.3,0.4l1.3-0.2V3.9z M167.1,4.1l-1.8,0.2l-1.8,0.4V5
			L167.1,4.1z M248.6,6.7l0.9,0.2l0,0l1.5,0.3l1,0.3l0.2,0.1l-0.1,0l0.2,0.1l0.1,0l0.1,0l0,0l0.4,0.1l-0.2-0.1l-0.1-0.1l1,0.2
			L252,7.5l0.1,0l-0.1,0h0.1l-0.3-0.1l0.2,0.1l-0.4-0.1l-2-0.7h-0.2l0.2,0.2L248.6,6.7z M253.5,7.9h-0.4l-0.4-0.1l1.2,0.3h-0.1
			l0.4,0.1l0.2,0.1L254,8.1h0.2L253.8,8L253.5,7.9z M254.4,8.2l0.2,0.1h-0.4l3.6,0.9L257.3,9l-0.5-0.1l-0.1-0.1h-0.1l-0.8-0.2
			l0.7,0.2l-0.7-0.1l-0.2-0.1l-0.1-0.1l0.3,0.1l-0.4-0.1l-0.3-0.1h-0.3L254.4,8.2z M165.1,7.9l-2,0.9l1.6-0.4L165.1,7.9z M164.6,8.3
			l-0.2,0.2l1.1-0.4L164.6,8.3z M184.6,9l-0.4,0.4 M259.7,9.9l1.3,0.4l0.9,0.2h0.2l-2-0.7H259.7z M210.6,11l-3.1,0.9l-0.2,0.9
			l-0.2,0.7h-1.3l0.9,0.4l-1.1-0.2l-2,0.9h2.2l-2.4,0.7l0.4,0.4l2-0.2l3.6,0.4l2.4-0.4l-0.7,0.4h3.1l-2.7,0.9h1.8l2.4-1.1l0.7,0.7
			l-0.7,0.7l1.3-0.4v0.9h1.1l1.1-1.1l-0.7-0.4l-0.9,0.2l0.4-0.7l-1.1,0.7l-1.1-0.4l0.7-0.2l-0.9-0.2l2.2-0.4l-2.7,0.2l1.3-1.1h-2.2
			l-0.2-0.4l-1.8,0.7l0.2-0.7h-2l1.3-0.7h-1.8l0.2-0.2l-0.4,0.2l-1.1,0.4l0.7-0.4l1.6-1.3l-0.9-0.2h1.3L210.6,11z M134.8,11.6
			l-1.1,0.4h-0.2L134.8,11.6z M158.4,11.6l-2,0.4h2.2L158.4,11.6z M133.5,11.7l-0.2,0.1h-0.1L133.5,11.7z M133.5,11.9l-1.1,0.4
			l-0.7,0.2L133.5,11.9z M132.9,11.9l-0.3,0.1h-0.1l0.1-0.1l0.1-0.1L132.9,11.9z M131.3,12.7l-0.4,0.2l-0.9,0.2L131.3,12.7z
			 M191.5,12.7l5.8,0.9l0.2-0.2l-1.8-0.4L191.5,12.7z M192.4,16.3l-1.1,0.7l3.6,0.9l2.2-0.7h-4.7V16.3z M200.8,16.3l-2.7,1.6
			l0.7,0.7l1-0.2h-0.8l1.8-0.9V16.3z M199.9,18.3L199.9,18.3l0.1,0L199.9,18.3z M200,18.3l2-0.4h0.4l-0.4-0.2l-0.7-0.2L200,18.3z
			 M140.8,17.2l0.2,0.2l-1.6,0.9l-0.9-0.2l0.4-0.2l0.4-0.2L140.8,17.2z M163.1,21.6l-1.6,0.7v0.9l-2,0.7l-6.9,0.7l2-1.1l4.9-0.4
			l0.9-0.4h-1.8L163.1,21.6 M175.1,17.4v0.2 M142.8,18.5l0.4,0.9l2-0.4l-0.7,2l7.8-0.2l1.1,0.9l0.7,0.4l-1.1,0.4l-0.2,0.2h-2
			l-1.1-0.7l0.4,0.7l-2.2,2.2l-1.8,0.9v-1.6l-3.1,0.9l2-1.3l0.9-1.3l-3.1-0.2l-2.2,1.8l0.4-0.9l-2.2,1.1l-1.8,2.9l-2,2l-2,0.7
			l0.4-2.4l3.1-2.9l-1.6,0.4l3.6-2.2l0.4,0.4l2.9-1.3l3.6-0.2l-0.4-0.7l-1.6,0.2l0.4-0.4l-5.6,1.3l-0.4-0.4l-1.8,0.4l0.2-0.7
			l-4.4,1.8h-1.1l0.7-0.4l-2.9,0.7l8.4-3.6h0.7l1.1-0.9l-0.7,0.7l0.9-0.2l0.4-0.7L142.8,18.5z M284.8,19.6l0.4,0.2l0.7,0.2
			L284.8,19.6z M286.6,20.5l1.5,0.7l0.9,0.5v-0.1l-0.4-0.2l-0.4-0.2l-0.2-0.1L286.6,20.5z M289.1,21.7v0.1l2.7,1.3l-1.1-0.4l0.2,0.2
			l1.3,0.7l-2-0.9l1.8,0.9v0.2l2,1.1l0.2,0.2l1.3,0.4l-1.3-0.2l1.1,0.4h-0.2l0.9,0.4h-0.2l0.9,0.2v0.2l1.6,0.4l1.3,0.4l-4.2-2.4
			l-2.1-1.4l1.7,0.9l0.9,0.4l-0.7-0.2l2.2,1.1l1.6,0.9l1.3,0.9l-0.4-0.2l0.2,0.2l0.7,0.2l0.9,0.7v0.2l3.3,1.8h0.2l-0.1-0.1l0.2,0.1
			h-0.1l0.7,0.7l-1.3-0.9l0.7,0.9l2.2,1.1l-0.9-0.7l2.4,1.3l0,0l0.3,0.3h0.2l0.2,0.1l-0.2-0.1l0.3,0.2l0,0l0,0l0.2,0.1l0.4,0.3
			l-0.4-0.2l0.1,0.1l-0.9-0.6l2.9,2l-0.9-0.7l0.4,0.2l-0.3-0.2h0.1l-2-1.3l-0.7-0.4l0.2,0.2l-1.3-0.9l-0.4-0.2l-0.2-0.2l-0.1-0.1
			l-0.1-0.1l-0.6-0.4l-0.4-0.2l-0.2-0.2l-0.4-0.2h-0.1l-0.3-0.2l-0.2-0.2l-1.1-0.7l-0.1-0.1l-1.6-1l0.2,0.2l0.6,0.4l0.3,0.3
			l-0.9-0.7l-2.2-1.3l-4.2-2.4l-1.3-0.7l-0.9-0.6l-1.7-0.8l-0.4-0.2l-0.4-0.2l-0.9-0.4l-0.4-0.2L289.1,21.7z M311.5,34.7l0.3,0.3
			l-0.2-0.1l0.3,0.2l0.2,0.2l1.3,0.9l-3.1-2l3.1,2.2l-1.3-0.7l-1.3-0.9l-1.1-0.4l0.7,0.4l1.3,1.1l3.1,1.8l2.9,2.2l1.3,0.9l1.1,1.1
			l0.4,0.2l4,3.8l-7.8-4l-1.6-1.1l-1.1,0.2l2.4,2l3.8,4.2l1.1,2.2h0.7l0.4,0.9l1.1,0.4h-0.4l2,2.7l3.1,1.1l4.2,3.8l0.7-0.7l3.3,2
			l-0.2-1.3l0.7,0.4l-1.1-1.3l0.2-0.2v-0.2l-0.7-0.7l-0.7-0.4l-1.1-1.3v-0.2l-1.1-1.6h0.9l-2.9-2.9h0.2l3.3,2.9l-0.4-0.7l0.2,0.2
			l0.1,0.1l-0.6-0.5l-0.9-0.9l-0.4-0.2l-0.2-0.4l-0.4-0.2l-0.7-0.7l-0.4-0.2l-0.2-0.4l-0.9-0.4l-0.2-0.4l-0.4-0.2l-0.2-0.4l-0.4-0.2
			l-0.2-0.2l-0.1-0.1l-0.1-0.1l-0.1-0.1l0.1,0.1l-0.1-0.1l-0.2-0.2l0.3,0.1l-0.1-0.1l-0.4-0.2l-0.2-0.2l-0.2-0.2l-0.1-0.1l0.1,0.1
			l-0.1-0.1l-0.2-0.2l0.3,0.1l-0.1-0.1l-0.4-0.2l-0.4-0.4l-0.2-0.2l-0.4-0.2l-0.2-0.2l-0.2-0.2l-0.2-0.2l-0.4-0.2l-0.7-0.7l-0.2-0.2
			l-0.4-0.2l-0.2-0.2l-0.2-0.2l-0.2-0.1l-0.2-0.1l0.1,0.1l-0.3-0.1l-0.2-0.2l0.4,0.2l-0.2-0.2l-0.4-0.2l-0.2-0.2l-0.2-0.2l-0.2-0.2
			l-0.4-0.2l-0.4-0.4l-0.2-0.2l-0.3-0.1l-0.1-0.1l-0.4-0.2l-0.4-0.4l-0.2-0.2l-0.4-0.2l-0.9-0.7l-0.2-0.1l-0.4-0.3l-0.2-0.2H315
			l-0.6-0.4l0.2,0.2l0.3,0.2h-0.1l-0.7-0.4l-0.4-0.4l-0.4-0.2l-0.6-0.4l0.4,0.2l-0.7-0.4L311.5,34.7z M334.1,52.5l0.1,0.1v0.1
			l2.7,2.4l0.2,0.2l0.4,0.4l0.4,0.4l-0.1-0.2l0,0l-0.1-0.1v0h0l-0.2-0.3h-0.1l-1.6-1.6l-1.3-1.3l-0.2-0.2v0.1L334.1,52.5z
			 M337.7,55.9l0.3,0.3L338,56L337.7,55.9z M338.1,56.2L338.1,56.2L338.1,56.2l0.1,0.2l0,0l1.1,1.1l0.9,0.7l0.1,0.1v0l-0.2-0.2
			l-0.7-0.7l-0.9-0.9l-0.2-0.1l0.2,0.2l-0.3-0.2l1.4,1.3l-1.6-1.4l0.1,0.1l0.1,0h0L338.1,56.2z M310.1,33.8l-0.3-0.2l-0.2-0.1
			L310.1,33.8z M150.4,21l-3.6,0.4l2.7,0.2L150.4,21z M292,23.2l0.6,0.4l-0.6-0.1v-0.1l0.2,0.1L292,23.2z M292.4,23.4l0.4,0.2
			l-0.1,0l0,0L292.4,23.4z M154.6,24.7l-0.9,0.7l-2.4,0.9l-4.9,1.8l-4,0.2l2.7-2l0.4,0.4l-1.3,0.4l-0.2,0.4l3.6-1.3l3.8-0.4h-0.9
			l1.3-0.4L154.6,24.7z M98.2,28.1l-0.2,0.2l-0.4,0.2l-0.2,0.1l0.2-0.1l-0.2,0.2v-0.1v-0.1l0.3-0.2l-0.1,0.1L98.2,28.1z M316.4,38.3
			l0.4,0.3l-0.2-0.1L316.4,38.3z M148.6,56.9l1.1,0.9l-0.9,1.3l0.4,0.2l0.9-1.8L148.6,56.9z M337.5,56.9l-0.2,0.2l1.3,1.1l-0.2-0.4
			L337.5,56.9z M61.5,58.7l-0.9,1.1v-0.4L61.5,58.7z M334.8,100.4l-0.6,0.4v1.8l-1.6,2l2.9,3.3l0.4,1.6l2,0.2l-1.6,0.2l-1.1-0.9
			l0.4,2.7l1.3,0.2l-1.3,0.2l2,0.9l-0.9,0.4l1.3,0.7v0.7h2.2l-1.3,0.2l1.3,0.9l-1.1,0.4l0.9,1.3l0.4-0.4v0.9l0.9-0.2l0.9,2.9
			l1.1,0.9l1.1,1.1l-0.2,0.7l1.1,0.9l0.7,2.7l0.7,0.2H346l2,2.9v1.1l3.1,3.1l6,8.4l2.9,2.7l2.4-0.7l4,1.1l4,3.8l3.1-0.7l2.2-0.4
			l3.6,1.1l-0.4,0.4l1.3,1.1l1.1,2.7l0.4-0.4l-0.2,0.7l0.7,0.7l-0.7-0.2l0.4,0.9l0.4-0.2l-0.4,0.9l1.1,3.3l0.9,0.9v-0.9l0.2,0.9
			l-0.2-1.1l0.4,1.3v-1.1l0.4,1.1l1.1,0.9l-0.2-1.3l0.7,1.8l0.2-0.7l0.7,3.1h0.4l0.2,1.1l-0.2-0.4l0.7,2.9l-0.7,5.5l0.4,0.7v2
			l-0.4-0.4l0.2,0.4l0.7,1.3H388v-1.3l-0.4,3.3l-0.4-0.7l0.9,6.7l2,9.3v4.7l0.4,1.6l-0.4-0.2l0.2,8.7l-0.9,2v3.3l-0.2,4l-1.1,3.8
			l-1.8,2.4l-2.9,7.1l-2,6.9l-2.9,17.5l-4.9,12.2l-4.4,13.3l-2.4,6l-1.3,2.7l-0.9,0.2l-2.4,4.9l0.7-0.2l-0.9,3.1v0.2h2.7v2.9
			l1.6,0.4l4.4-3.3l2.2-2.7l0.9-1.1l1.3-1.6l3.8-6.4l0.4-0.9l1.8-2.2l2.7-5.5l2.4-6l0.9-2.7l-0.2,0.9l0.4-1.3h0.2l0.9-2.4l0.2-0.9
			l0.2-0.7l0.2-0.4v-0.4l0.4-0.9V263l0.2-0.2v-0.4l0.4-0.9V261l0.4-0.9v-0.4l0.2-0.4v-0.4l0.4-0.9v-0.4l0.2-0.4v-0.4l0.4-0.9v-0.4
			l0.2-0.4v-0.4l0.2-0.4v-0.4l0.3-0.7l0,0l0.1-0.4v-0.2l0.1-0.2l0.1-0.5v-0.2l0.1-0.2l0.1-0.5v-0.2l0.1-0.1l0.1-0.6v-0.1l0.1-0.1
			l0.2-0.7v-0.1l0-0.1l0.2-0.7v-0.1l0-0.1l0.2-0.8v0.4l0.7-2.7l0.6-3l-0.2,0.5l0.2-1l0.1-0.1v0.4l0.4-2.1l0.2-1.1l-0.1,0.1l-0.1,0.3
			v-0.2l0.1-0.1l0-0.1l0.1-0.2v-0.2l0.2-0.7l0.2-1.1l0.7-4.2l0.3-2.4l0-0.3l0.1-1.1l0.1-0.9l0.3-2.2l0.1-0.9l0.1-1v-0.7l0.1-0.1
			l0.1-1.6l0.4-6v0l0.2-0.6v-1.6l0.2-0.4v-3.6v-0.9l0.2-1.8v-12l-0.2-0.4v-4.4l-0.2-0.4v-2.4l-0.2-0.4v-2.4l-0.2-0.4v-2l-0.2-0.7
			v-1.3v-0.2l-0.2-0.2v-1.6l-0.2-0.4v-1.3v-0.2l-0.2-0.2v-0.9v-0.4l-0.2-0.4v-1.1l-0.2-0.4v-0.9l-0.2-0.4v-0.9v-0.2l-0.2-0.4v-0.9
			l-0.2-0.4v-0.4v-0.4l-0.2-0.4v-0.7l-0.2-0.4v-0.9L396,163v-0.4l-0.2-0.7v-0.4l0.2,0.9l-0.2-1.1v0.2l-2.4-10.2l-0.9-3.8l-0.9-2.9
			v-0.4l-0.2-0.4v-0.4l-0.4-0.9v-0.7l-0.7-1.3v-0.1v0v-0.3l-0.2-0.7l-0.2-0.4v-0.1v0v-0.4l-0.4-0.9v-0.2v0v-0.4l-0.5-1l-0.2-0.3
			v-0.1l0.2,0.5l-0.2-0.5V135l-0.2-0.4l-0.2-0.7l-0.4-1.3l-0.9-2.2v-0.2l-0.4-0.9l0.2,0.2l-0.9-2v-0.3l-0.4-0.9l-0.2-0.7v-0.2
			l-0.2-0.2l-0.4-0.9v-0.4l-0.2-0.4l-0.2-0.7l-0.9-1.8v-0.2l-1.1-2.2l-0.4-1.1v-0.3l-0.7-1.3l-1.1-2.2l-0.1-0.1l-0.4-0.8l0.1,0.3
			l-0.1-0.2v0v-0.1v-0.2l-2-4l-1.3-2.7l-0.2-0.2l-0.7-1.3l-0.2-0.2l-1.1-2.2l-0.2-0.2l-0.2-0.4l-0.4-0.4l-0.2-0.7l-0.2-0.4l-0.2-0.2
			l-0.4-0.9l-0.2-0.2l-0.7-1.3l-0.4-0.7l-0.1-0.1l-0.1-0.3l-0.4-0.7l-0.7-1.1l0,0l-1.1-1.7l-1.8-2.4l-0.4-0.9l-4.4-6.2l-0.9-0.9
			l-4.4-5.5l-0.9-1.6l-2.4-2.9l-0.2-0.3l0.4,0.5l2.2,2.7l-2-2.5l0.5,0.3l-1.6-1.8l-0.2-0.2l-0.1-0.1l-0.1-0.1l-0.7-0.9l-0.2-0.2
			l0.5,0.6l-0.3-0.3l0.6,0.7l-0.3-0.3l-0.3-0.3l0,0.1l-0.2-0.2l0.9,1.1l-2-2.2l-0.7-0.4l-2-1.8h-0.4l-2-1.8l-2.9-1.6l-0.2,0.7
			l-1.1-0.7l-0.2,0.7l-1.3-0.7l-0.9-0.9l-2.2-0.9l-2.4-2.2l-0.7-0.2L334,62l-2.2,1.6l0.7,2.4l2.2,3.3v1.3l-1.3,1.6l-2.2-0.2v2.7
			l-1.3,0.7l0.7,3.6l-1.3,1.6l0.2-0.2l-0.7,4.7l0.4,2.7l0.2-0.7l2.4,3.1v2l2.4,5.1v3.8l0.4-0.4L334.8,100.4L334.8,100.4 M350.6,69.5
			l-0.9-1.1l-0.3-0.4l0.2,0.3l-0.5-0.6l0.1,0.1l-1.5-1.6l-0.2-0.2l2.9,3.3L350.6,69.5z M347.7,66.2l1.1,1.1l-1.2-1.2L347.7,66.2z
			 M347.7,66.1l-0.2-0.3l-0.3-0.1L347.7,66.1z M347.2,65.6l-0.3-0.3l0,0.1l0,0l0.1,0.1L347.2,65.6z M347,65.4l-0.3-0.3L347,65.4
			l-0.1-0.3l-0.9-0.9l-0.4-0.4l0,0l0.9,1L347,65.4z M348.8,67.3l0.3,0.3l-0.1-0.1L348.8,67.3z M349.7,68.3l0.3,0.3l0.4,0.4
			L349.7,68.3z M350.4,69.1l0.3,0.4l-0.1-0.1L350.4,69.1z M350.7,69.5l-0.7-0.8l-0.2-0.2l1.1,1.2L350.7,69.5L350.7,69.5z
			 M399.5,205.6l-0.1,1.6l0.1-0.3V205.6z M399.1,213.8l-0.2,1.7l0.2-0.3V213.8z M398.4,220.4l0.2-0.4v-1.8L398.4,220.4z
			 M398.1,223.9l-0.1,1l0.2-1.2v-0.5L398.1,223.9z M395.3,241.4l-0.1,0.2L395.3,241.4L395.3,241.4z M394,247.3l-0.2,0.4l0,0.1v0.4
			L394,247.3z M393.6,248.5l0,0.2v0.3l0.2-0.8L393.6,248.5z M393.5,249l0,0.1L393.5,249L393.5,249z M393.5,249.1l-0.1,0.3l-0.1,0.2
			v0.2L393.5,249.1z M393.3,249.9l0,0.2L393.3,249.9L393.3,249.9z M393.3,250l-0.1,0.2l-0.1,0.3v0.2L393.3,250z M393.1,250.7
			l-0.1,0.2l0.1-0.1V250.7z M393,250.9l-0.1,0.1l-0.1,0.4v0.1L393,250.9z M392.9,251.6l-0.1,0.3l0.1-0.1V251.6z M392.8,251.9
			L392.8,251.9l-0.1,0.5v0.1L392.8,251.9z M392.6,252.4l-0.1,0.4l0.1-0.2V252.4z M340.6,58.9l4.4,4.7l0.4,0.2l-0.4-0.4l-0.3-0.3
			l-0.2-0.4l-0.2-0.1l-0.4-0.5l0-0.1l-0.1,0l-0.2-0.2l-1.1-1.1l-0.4-0.4l-0.9-0.9l-0.2-0.2h0l-0.1,0L340.6,58.9z M150.6,60l1.6,1.1
			l-0.2,1.1l0.4-1.3L150.6,60z M342,60.1l0.8,0.8l-0.1-0.1l0.4,0.4l-0.1,0l0.5,0.5l0.1,0.1l0.1,0.1l0.4,0.4l-0.4-0.4l-0.4-0.4
			l-0.2-0.2l0.1,0.1l-0.2-0.3l0.1,0.1L342,60.1z M145.9,61.3l-1.1,1.6l1.3,0.4l0.9-0.9L145.9,61.3z M147.3,63.3l-0.9,0.4l0.3,0.4
			L147.3,63.3z M146.7,64.1L146.7,64.1L146.7,64.1L146.7,64.1z M146.7,64.2l0.4,0.5l0.4-0.7L146.7,64.2z M136.2,67.3l-8.9,2.4
			l-1.1,2l-2,0.7l2.7-0.4l4.2-2.7l2.7-0.2l0.7,0.2l-1.6,0.4l0.9,0.4l5.3,0.2l3.8,0.2l1.6,2h2.7l0.4,0.9l-2.2,1.6l8.7-1.1l2.9-1.1
			l-4.9-0.7l0.2-1.1l-3.8-0.2l-8.2-3.3h-0.7L136.2,67.3z M322,68l0.9,0.9l0.7-0.9H322z M328.2,68.4l-0.2,0.4h0.7L328.2,68.4z
			 M324.8,69.3v0.4l0.9,0.2L324.8,69.3z M328,69.3l-0.4,1.1h0.9L328,69.3z M160.6,69.8l-2.2,0.9h1.8L160.6,69.8z M63.3,71.3L62.6,72
			l0.2,0.4L63.3,71.3z M129.9,71.3l-0.2,1.3l1.6-0.4l-0.4-0.9H129.9z M161.1,73.3l-2.2,0.9l2.4,0.4l-0.4,1.1l1.3,1.3h-6l-0.9,0.9
			l1.8,0.9l6-1.1l2,1.8l0.9-1.1l1.8-1.3l6.4,0.2l1.1-1.1l-4.2-1.1l1.8-0.7l-2,0.2l-0.7-1.1L161.1,73.3z M184.2,76.4l-5.3,0.2
			l0.2,1.1l3.8-0.2L184.2,76.4z M147.5,78.6l-4.7,0.7l1.8,1.1l2.4-0.2l2.7-0.4L147.5,78.6z M197.9,81.3l-1.1,0.7l0.7,0.9l1.3-0.7
			L197.9,81.3z M370.3,96.4l0.3,0.4l-0.2-0.2L370.3,96.4z M199.7,97.9l-2.4,0.2l0.7,1.3l-1.6,0.7l3.1-0.2L199.7,97.9z M316.2,98.2
			l0.2,1.1h0.9L316.2,98.2z M379.4,113.1l0.2,0.4l-0.1-0.1L379.4,113.1z M386.9,130.5l0.1,0.3L386.9,130.5L386.9,130.5z
			 M238.8,132.1l-2.4,0.2l1.3,1.1L238.8,132.1z M387.7,132.7l0.3,0.8l-0.3-0.6V132.7z M98.4,140.8l-0.7,0.7l1.6,1.8l-1.3,1.1h1.3
			l0.9-0.9L98.4,140.8z M386.9,164.5l-0.4,0.7l0.4,0.9V164.5z M398.9,216l-0.2,1.9l0.2-0.4V216z M398.4,221.5l0,0.3l0-0.1V221.5z
			 M397.3,228.4l-0.4,2.2v-0.2l0.2-1.3L397.3,228.4z M397.3,228.6v0.7l-0.2,0.7L397.3,228.6z M396,236.6l-0.4,1.6V238L396,236.6z
			 M395.5,240v0.2l-0.2,0.5l0,0.2v-0.1l0-0.1l0.1-0.5L395.5,240z M394.9,242.8l-0.1,0.5v-0.2L394.9,242.8z M394.8,243.3l-0.2,1.1
			l-0.2,0.8v-0.6l0.2-0.2v-0.4L394.8,243.3z M394.4,245.3l-0.2,0.6l-0.2,0.9l0.2-1.1v-0.2L394.4,245.3z M168.4,272.8l0.9,0.7
			l-0.9,0.4V272.8z M165.7,275.7v4.9l1.1,0.2l1.1-0.9l-0.9-4.2H165.7z M169.7,283.7l-0.9,0.9l1.1,0.7L169.7,283.7z M167.1,289.9
			l0.9,0.2l-0.4,0.9L167.1,289.9z M167.9,295.6l-0.4,1.6h1.3L167.9,295.6z M171.9,296.1l0.9,1.3v-1.1l1.1,2l-2-0.4V296.1z
			 M168.2,297.4l0.2,2h-1.6l1.3,1.8l0.7-2l-0.2,2.2l1.1-0.7L168.2,297.4z M172.2,301.2l2.9,0.2l-2.2,0.7l0.2,0.9L172.2,301.2z
			 M167.5,301.6l0.4,1.1l0.4-1.1H167.5z M203.9,303.9v1.6l2.7-0.2l-0.4-0.9l-0.7,0.9L203.9,303.9z M203.9,305.4l-1.8,1.1l0.9,0.7
			l0.7-0.9l0.9-0.2L203.9,305.4z M200.2,304.1l1.6,1.1l-1.6-0.2l1.1,0.4l-1.8,0.9l2.2-0.2l1.8-1.8h-1.8L200.2,304.1z M183.1,308.1
			l-3.3,0.9l0.2,1.8h2.2l-1.1,1.8l2.4,1.1l-0.7,0.7l-0.4-0.9l-0.4,0.7l-2.7-1.1l1.8,1.1l-1.1,0.2l-0.2-0.9l-2.2,1.1l10.7,0.4
			l3.1-1.1l-5.8-2.2L183.1,308.1z M175.1,309l-0.4,1.6l1.1,0.7l-0.4-0.7l2-1.6H175.1z M170.8,309.4l1.6,1.1l2.2,0.4L170.8,309.4z
			 M174.6,311l-1.1,1.1l1.3,0.9l0.9-0.7l-0.7,0.7l1.6-0.9L174.6,311z M179.9,311.2l-0.7,1.3l1.6,0.7L179.9,311.2z M177.7,312.5
			l0.2,0.7l1.3,0.2L177.7,312.5z M184.6,315l-3.1,0.7l1.6,1.1l-0.4-0.9h1.3v0.7l1.8,0.4l-2.2-1.6L184.6,315z M245.3,315.2l2.9,2.7
			l-0.2-2L245.3,315.2z M207.3,336.9l-0.7,0.7l2.2-0.2L207.3,336.9z M205.3,337.1l-4.2,1.3l-1.6,0.7l-3.1,2.7l-1.1-0.2l0.4,1.1
			l-2.7,1.6v1.3h-1.3l0.4,1.6l-1.6-0.7v1.3l1.6-0.2l-0.9,1.1l0.9,0.7l-2.2,2.7l0.7,0.9l-0.9,0.4l-2.2-2.7l-1.8,0.9l0.7,0.7h-1.1
			l0.2,0.7l-4.2,0.4l1.3,0.7l1.6,0.9l-1.1,0.9l2.7,0.2l-2,1.6l3.6,0.9l1.1,2.2l-5.8-1.3l-1.3,1.1l1.3,1.1l-1.8-0.9h-0.4l-7.8,1.1
			l-0.7-1.1l-6.2,2l-1.3-0.2l0.4-0.4l-1.8-0.9l-2.7,0.9l-1.3,0.7l-0.7,1.3l2.2,1.3h2.7l-1.1,0.4l3.8,2.4l-2.9,0.2l0.9,0.9l-2.2-1.8
			l-1.6,0.4l0.4,1.3l-5.6-0.2l-2.7,1.3l-0.9,0.2l-4,0.7l1.6,3.1v2.9h-1.3l2,1.1l0.4,0.2l0.4,2l1.6,0.2l0.2,2h1.3l1.8,0.9l-0.7,1.3
			l2.7,0.4l0.4,0.4l1.8,1.1l1.3,0.2l2.4,2.9v0.4l0.4,1.3l2.7,1.6l1.8-0.2l1.3,0.4l-1.1,0.4h-3.8l-1.1-0.2v0.2l-1.8-0.2l-0.9-0.2
			h-0.9l-0.9-0.2l-2.7-0.4l-0.9-0.4l-3.6-0.4l-1.8-0.4v0.9l3.3,1.1v0.2v0.2h0.2l3.1,0.9l0.4,0.2l6,1.3l-1.1-0.2l1.8,0.4l1.6,0.2
			l-1.1-0.2l1.3,0.2l5.1,0.9l1.3,0.2h0l0.1,0h0.1l1.1,0.2l0.1,0.1h0.3l1.5,0.2h0.7l1,0.1l0.4,0.1l0.2,0.1h0.2l1.6,0.2l0.2,0.1h0.4
			l1.9,0.2l0.1,0h0.2l2.2,0.2h0.9l2.6,0.2l0.1,0h0.4h2.4l1.7,0.2h0l0,0h0.2h5.3v-0.1c2.8,0,5.4,0,7.9-0.1l-0.1,0.1h0l-0.5,0.1h0.4
			l0,0h0l1.2-0.1c1.2,0,2.3-0.1,3.5-0.2l-1.1,0.1h1.1l0.1,0l2.6-0.2h-0.9c0.6,0,1.2-0.1,1.8-0.1l0,0l-0.2,0.1l-0.7,0.1h0.7l0.1-0.1
			l1.5-0.1h-0.2c0.3,0,0.7,0,0.9-0.1l-0.7,0.1h0.8l0.3-0.1l0,0c0.1,0,0.2,0,0.3,0l-0.4,0.1h0.2l0.8-0.2l0.3,0c0,0,0,0,0,0h1.1
			l0.3-0.1h0.1l0.9-0.1h-0.2c0.3,0,0.5-0.1,0.8-0.1l-0.1,0.1l-0.5,0h0.6l0.5-0.1l1.3-0.1h0.2h0.2l0.1-0.1l0.4-0.1l0.6-0.1h0.8h0.2
			l0.1-0.1l0.8-0.2h0.2h0.4l4.3-0.7h0.1l0.2,0l1.1-0.2l2.1-0.4h0.6l0.9-0.2l1.1-0.2l0.9-0.2l2.2-0.4l0.9-0.2l1.1-0.2l0.9-0.2
			l1.1-0.2l0.6-0.1l0.5-0.1l1.8-0.4l1.1-0.2l1.8-0.4l1.1-0.4l0.9-0.2l1.1-0.2l0.9-0.2l1.1-0.4l0.9-0.2l1.1-0.2l0.9-0.4l0.9-0.2
			l1.1-0.2l0.9-0.4l1.1-0.2l0.9-0.4l0.9-0.2l1.1-0.4l0.9-0.2l0.9-0.4l-3.9,0l2.4-1.1l0.7-0.4l3.1-1.3l0.9-0.2l3.8-2l0.4-0.9
			l-2.7,0.9l2-1.1h-0.7l-0.9,0.4h-0.7l2-1.1l-1.1,0.2l-1.1-1.3h-1.8l-2.4,0.4h-0.2l0.4-0.2l1.6-0.7l-0.2-0.2l3.8-2.4h-0.7l-2.2,0.7
			v-0.4l1.8-1.1l-2.4,0.2L268,376l-1.8-0.9l0.9-2l0.2-0.2l0.4-1.3l-1.1-0.7l1.6-0.9l-2.9,0.2h-0.2l-1.8-2.2h-0.2l-1.3,0.2l-2-2.7
			l2.3-1.9l0.1-0.1l0.2-0.2l-0.7-0.2l-1.6,1.3l-2,0.2h-0.9l-4.7-0.9l-0.2-0.9l-4.9,0.9l-2,0.9l-1.8-0.4l-3.1,0.4l-0.9-0.7l-2.9,1.6
			l-1.1,0.4l-8,1.8l-1.3,1.1l-4.9,1.1h-1.8l-2.4,1.1l-2.7-0.9l-0.7-0.2l-0.7,0.2l-0.2-0.4l-2.4,0.7l-10.2-6l-1.8-0.7l2-3.3v-1.3
			l-0.9-5.3l0.4-0.7l0.7-1.1l1.3-2.7l-1.3-0.2l-1.3-3.5l1.3-2.7l2.4-4l0.9-0.3l-0.6,0.5l0.4,0.9l1.6-0.4l-1-1l1.7-0.5L205.3,337.1z
			 M197.1,339.1l-0.2,1.1l1.1-0.9L197.1,339.1z M195.9,339.6l-1.3,1.1l1.8-0.2h0.2L195.9,339.6z M190.4,345.6l-1.6,2.4l1.3-0.4
			L190.4,345.6z M157.1,367.1l1.3,1.1l1.8,0.2l-0.9-0.9L157.1,367.1z"/>
	</g>
	<g id="South_America">
		<polygon fill="#FEC010" stroke="#000000" stroke-linecap="round" stroke-linejoin="round" points="167.7,291.1 168.1,290.2 
			167.2,290 		"/>
		<polygon fill="#FEC010" stroke="#000000" stroke-linecap="round" stroke-linejoin="round" points="174.3,308.2 174.5,307.1 
			174.5,308.4 175,306.4 173.4,305.7 173.7,304.6 172.8,305.5 174.8,306.4 173,305.7 173.7,307.3 174.1,307.3 		"/>
		<polygon fill="#FEC010" stroke="#000000" stroke-linecap="round" stroke-linejoin="round" points="173,306.2 173.2,307.3 
			173.7,307.3 		"/>
		<polygon fill="#FEC010" stroke="#000000" stroke-linecap="round" stroke-linejoin="round" points="168.5,274 169.4,273.6 
			168.5,272.9 		"/>
		<polygon fill="#FEC010" stroke="#000000" stroke-linecap="round" stroke-linejoin="round" points="171.9,302.4 171.2,304 
			172.5,303.3 		"/>
		<polygon fill="#FEC010" stroke="#000000" stroke-linecap="round" stroke-linejoin="round" points="173.2,303.1 173,302.2 
			175.2,301.5 172.3,301.3 		"/>
		<polygon fill="#FEC010" stroke="#000000" stroke-linecap="round" stroke-linejoin="round" points="173,296.4 173,297.5 
			172.1,296.2 172.1,298 174.1,298.4 		"/>
		<polygon fill="#FEC010" stroke="#000000" stroke-linecap="round" stroke-linejoin="round" points="174.8,310.2 174.5,308.6 
			173.9,310 		"/>
		<polygon fill="#FEC010" stroke="#000000" stroke-linecap="round" stroke-linejoin="round" points="201.9,304.4 200.3,304.2 
			201.9,305.3 200.3,305.1 201.4,305.5 199.7,306.4 201.9,306.2 203.7,304.4 		"/>
		<polygon fill="#FEC010" stroke="#000000" stroke-linecap="round" stroke-linejoin="round" points="165.9,292.2 165.2,291.5 
			165,291.8 		"/>
		<polygon fill="#FEC010" stroke="#000000" stroke-linecap="round" stroke-linejoin="round" points="203.2,307.3 203.9,306.4 
			204.8,306.2 204.1,305.5 202.3,306.6 		"/>
		<polygon fill="#FEC010" stroke="#000000" stroke-linecap="round" stroke-linejoin="round" points="206.3,304.4 205.7,305.3 
			204.1,304 204.1,305.5 206.8,305.3 		"/>
		<polygon fill="#FEC010" stroke="#000000" stroke-linecap="round" stroke-linejoin="round" points="245.5,315.3 248.3,317.9 
			248.1,315.9 		"/>
		<polygon fill="#FEC010" stroke="#000000" stroke-linecap="round" stroke-linejoin="round" points="168.1,280 167.2,275.8 
			165.9,275.8 165.9,280.7 167,280.9 		"/>
		<polygon fill="#FEC010" stroke="#000000" stroke-linecap="round" stroke-linejoin="round" points="165.2,291.5 165.4,291.4 
			165.2,291.5 		"/>
		<polygon fill="#FEC010" stroke="#000000" stroke-linecap="round" stroke-linejoin="round" points="237.9,133.5 239,132.2 
			236.6,132.4 		"/>
		<polygon fill="#FEC010" stroke="#000000" stroke-linecap="round" stroke-linejoin="round" points="169.9,283.8 169,284.6 
			170.1,285.3 		"/>
		<polygon fill="#FEC010" stroke="#000000" stroke-linecap="round" stroke-linejoin="round" points="134.5,145.1 135,144.6 
			134.5,144.8 133.9,144.8 134.3,145.7 		"/>
		<polygon fill="#FEC010" stroke="#000000" stroke-linecap="round" stroke-linejoin="round" points="175.2,309.1 174.8,310.6 
			175.9,311.3 175.4,310.6 177.4,309.1 		"/>
		<polygon fill="#FEC010" stroke="#000000" stroke-linecap="round" stroke-linejoin="round" points="168.1,295.7 167.7,297.3 
			169,297.3 		"/>
		<polygon fill="#FEC010" stroke="#000000" stroke-linecap="round" stroke-linejoin="round" points="173.7,312.2 175,313.1 
			175.9,312.4 175.2,313.1 176.8,312.2 174.8,311.1 		"/>
		<polygon fill="#FEC010" stroke="#000000" stroke-linecap="round" stroke-linejoin="round" points="169.9,300.9 168.3,297.5 
			168.5,299.5 167,299.5 168.3,301.3 169,299.3 168.8,301.5 		"/>
		<polygon fill="#FEC010" stroke="#000000" stroke-linecap="round" stroke-linejoin="round" points="168.1,302.8 168.5,301.7 
			167.7,301.7 		"/>
		<polygon fill="#FEC010" stroke="#000000" stroke-linecap="round" stroke-linejoin="round" points="179.4,312.6 181,313.3 
			180.1,311.3 		"/>
		<polygon fill="#FEC010" stroke="#000000" stroke-linecap="round" stroke-linejoin="round" points="172.5,310.6 174.8,311.1 
			171,309.5 		"/>
		<polygon fill="#FEC010" stroke="#000000" stroke-linecap="round" stroke-linejoin="round" points="97.9,141.5 99.4,143.3 
			98.1,144.4 99.4,144.4 100.3,143.5 98.5,140.8 		"/>
		<polygon fill="#FEC010" stroke="#000000" stroke-linecap="round" stroke-linejoin="round" points="282.6,171.9 286.6,166.8 
			287.2,162.8 286.1,157 285,155.5 280.4,154.4 276.1,149.5 271.2,145.9 263.9,145.1 260.1,142.8 255.2,145.7 255.7,143.5 
			257,142.6 254.8,142.8 256.6,141.5 255.5,139.3 253.9,140.6 253.7,138.8 253,139.5 253.5,138.8 252.3,139.1 251.5,137.7 
			251,138.6 250.8,137.3 250.3,137.9 247,136 246.8,136.6 244.6,136 243,138.4 244.3,138.8 243.2,139.3 242.3,138.2 239.5,141.3 
			240.3,139.1 241.7,138.4 243.5,134.6 236.6,133.5 235,136.4 235,134.8 233.5,136.2 233.5,134.6 231.9,136.2 233.2,133.3 
			238.1,129.3 237.5,129.3 238.1,127.7 235.2,126.2 233.2,119.3 232.3,118.6 232.1,119.7 229.9,116.9 223.2,113.5 213,113.3 
			208.8,110 207.7,111.5 208.3,108.7 206.3,106.7 203.2,104.9 202.3,104.7 200.1,104.7 200.1,102.2 197.4,100.7 195,101.1 
			194.6,100.4 193.2,99.3 192,98.6 190.6,99.1 185.7,100.4 181.7,98.7 175.2,99.6 174.3,97.3 170.3,96.9 169,94.7 168.3,96.4 
			169.7,96.2 169.7,96.9 168.5,96.7 163.7,99.1 164.8,101.6 165.4,102.2 165.2,103.5 163,104.4 161.7,102.2 162.1,101.8 163.7,99.6 
			162.3,96.9 165.4,95.3 163.4,94.2 157.9,98 155,98.2 154.5,99.3 152.8,99.1 151.2,100 149.7,102.2 149.7,102.7 149.9,104.2 
			145.4,107.3 145.9,109.3 144.6,109.3 143.7,110.9 142.4,111.4 143.9,113.8 143,121.3 144.5,122 144.1,122.9 142.1,126.2 
			139.4,127.3 139.4,129.5 137.6,130 138.1,131.7 134.5,133.1 134.3,133.3 134.5,134.4 134.8,135.1 134.5,135.3 133,137.3 
			133.6,137.9 131.6,139.5 131.6,143.7 133.9,144.8 134.5,143.5 135,143.1 135.6,144.2 134.5,146.8 130.5,150.4 132.1,154.8 
			131.2,156.1 135,158.1 138.5,162.8 141.4,168.6 143.4,172.8 148.5,179.7 148.1,181.4 149.9,183.9 152.5,186.3 165,191.9 
			169,195.7 169.9,201.2 170.3,206.1 169,213.4 169.9,219.8 167.7,232.3 168.8,235.6 168.5,236 167.7,238 169,248.3 166.1,260.2 
			164.8,261.1 167,268 165.9,273.3 167.2,274.9 166.8,275.6 168.5,274.4 169.7,274.9 170.3,274.2 169,276 170.5,276.7 170.3,277.8 
			169.2,277.1 170.3,278.2 169.4,277.8 169.2,280.9 170.3,282 169.2,283.1 171.2,284.2 169.2,286.4 171,287.1 169.2,287.3 
			169.2,288.4 170.3,287.8 169.7,290.6 168.8,289.5 167.4,289.8 168.5,289.5 167.7,289.5 168.1,288.4 167.4,289.3 166.5,288.6 
			165.7,288.9 167.2,289.3 166.5,290.4 165.4,291.4 166.5,290.6 167,291.8 168.3,291.5 169.2,292.9 168.1,293.7 169.4,293.7 
			167.7,294.4 169.9,294 171.4,295.1 170.3,294.9 171.2,296 168.1,295.3 170.1,296.4 169,297.1 169.9,297.5 169.4,299.5 
			170.1,298.9 171.4,300.4 169.9,300.2 170.5,301.3 171.2,302.2 169.4,302 171,302.4 171.2,304 171.9,302.4 172.5,303.3 171.2,304 
			170.8,304.2 172.1,304.6 171.9,306.2 173.2,307.3 173,306.2 173.7,307.3 173,305.7 174.8,306.4 172.8,305.5 173.7,304.6 
			173.4,305.7 175,306.4 174.5,308.4 174.5,307.1 174.3,308.2 174.1,307.3 173.7,307.3 173.2,307.3 172.5,307.3 173,309.5 
			174.5,308.6 177.4,308.6 178.1,310.2 177,311.5 177.2,310.6 175.9,311.1 178.5,312.4 178.8,308.8 182.1,307.3 184.1,307.5 
			182.6,305.5 181.2,305.5 182.6,305.3 181.2,304 183.2,301.1 182.8,300.6 182.3,299.7 183,300.6 183.2,300.9 184.1,300.6 
			184.1,300.4 184.6,297.5 188.6,294 188.3,291.8 185.9,291.3 183.7,288.4 185,285.8 188.6,284.6 188.8,280.7 191.2,278.4 
			189.4,277.3 191,276.9 191.7,278 193,277.1 192.6,275.6 190.8,276.7 189.2,275.6 189,271.1 192.3,272.4 196.1,271.6 196.1,266.2 
			197,266.7 196.1,264.7 199.4,265.3 202.3,264.7 206.6,263.8 209.2,262.5 211.7,258.5 211.7,256.7 209.9,255.4 210.6,253.1 
			206.6,250 207.2,245.6 207,248.5 208.8,250.2 213.4,252 219.2,251.4 224.1,246 225.5,241.8 229.5,237.2 228.8,235.8 230.8,237.6 
			225.9,243.1 229.9,239.8 232.3,236 233.9,233.8 237,231.4 238.3,226.5 237.5,223.6 239.2,221.2 238.1,220.5 239.7,221 
			241.9,218.3 245.9,215.8 248.8,215.8 252.3,213.2 254.8,213.9 256.4,212.7 256.4,213.9 259.7,214.1 259.9,212.5 263.2,211.2 
			263,209.4 267,204.3 267.3,203.1 268.3,198.7 270,197 273,180.6 273.7,178.9 274.4,180.9 275.4,180.2 		"/>
		<polygon fill="#FEC010" stroke="#000000" stroke-linecap="round" stroke-linejoin="round" points="184.8,315.1 181.7,315.7 
			183.2,316.8 182.8,315.9 184.1,315.9 184.1,316.6 185.9,317.1 183.7,315.5 		"/>
		<polygon fill="#FEC010" stroke="#000000" stroke-linecap="round" stroke-linejoin="round" points="172.1,296.2 173,297.5 
			173,296.4 174.1,298.4 172.1,298 		"/>
		<polygon fill="#FEC010" stroke="#000000" stroke-linecap="round" stroke-linejoin="round" points="173,302.2 173.2,303.1 
			172.3,301.3 175.2,301.5 		"/>
		<polygon fill="#FEC010" stroke="#000000" stroke-linecap="round" stroke-linejoin="round" points="167.7,291.1 167.2,290 
			168.1,290.2 		"/>
		<polygon fill="#FEC010" stroke="#000000" stroke-linecap="round" stroke-linejoin="round" points="183.2,308.2 179.9,309.1 
			180.1,310.8 182.3,310.8 181.2,312.6 183.7,313.7 183,314.4 182.6,313.5 182.1,314.2 179.4,313.1 181.2,314.2 180.1,314.4 
			179.9,313.5 177.7,314.6 188.3,315.1 191.4,313.9 185.7,311.7 		"/>
		<polygon fill="#FEC010" stroke="#000000" stroke-linecap="round" stroke-linejoin="round" points="168.5,274 168.5,272.9 
			169.4,273.6 		"/>
		<polygon fill="#FEC010" stroke="#000000" stroke-linecap="round" stroke-linejoin="round" points="177.9,312.6 178.1,313.3 
			179.4,313.5 		"/>
	</g>
	<g id="Borders_2_" opacity="0.25">
		<polyline fill="none" stroke="#656565" stroke-width="0.6522" points="185,316 183,309 181,308.1 175,307.1 174,303.1 
			172.1,299.1 174,293.1 174,286.2 171.1,276.2 171.1,268.3 173.1,266.3 172.1,259.3 174,255.3 174,252.4 172.1,239.4 174,236.4 
			174,230.5 176,225.5 177,216.6 179,216.6 180,211.6 177,210.6 175,202.6 175,197.7 171.1,192.7 174,187.7 173.1,185.7 174,174.8 
			170.1,169.8 166.1,168.8 167.1,165.8 161.1,167.8 161.1,164.8 159.1,164.8 156.1,159.9 160.1,153.9 159.1,148.9 168.1,146.9 
			171.1,135 168.1,134 168.1,131 171.1,131 171.1,129 178,125.1 177,121.1 177,112.1 170.1,112.1 161.1,110.1 161.1,105.2 
			158.1,104.2 163.1,97.2 		"/>
		<polyline fill="none" stroke="#656565" stroke-width="0.6522" points="138.2,130 142.2,134 149.1,134 158.1,142 163.1,141 
			169.1,142 		"/>
		<polyline fill="none" stroke="#656565" stroke-width="0.6522" points="133.2,147.9 139.2,151.9 139.2,146.9 148.1,142 149.1,134 
					"/>
		<polyline fill="none" stroke="#656565" stroke-width="0.6522" points="178,125.1 180,129 186,129 192,124.6 190,124.1 188,119.1 
			192,120.1 201.9,116.1 198.9,112.1 202.9,110.1 201.9,108.2 204.9,106.2 		"/>
		<line fill="none" stroke="#656565" stroke-width="0.6522" x1="143.2" y1="112.1" x2="145.2" y2="108.2"/>
		<line fill="none" stroke="#656565" stroke-width="0.6522" x1="164.1" y1="73.3" x2="165.1" y2="78.3"/>
		<polyline fill="none" stroke="#656565" stroke-width="0.6522" points="180,211.6 183,205.6 188,206.6 189,209.6 190,207.6 
			194,207.6 197,198.7 202.9,197.7 210.9,199.7 210.9,194.7 208.9,190.7 208.9,186.7 202.9,187.7 201.9,177.8 198,177.8 192,173.8 
			187,173.8 184,165.8 179,165.8 177,168.8 170.1,169.8 		"/>
		<polyline fill="none" stroke="#656565" stroke-width="0.6522" points="201.9,116.1 204.9,120.1 204.9,126.1 207.9,128 
			214.9,126.1 217.9,126.1 217.9,124.1 221.9,124.1 223.9,120.1 221.9,116.1 224.8,114.1 		"/>
		<polyline fill="none" stroke="#656565" stroke-width="0.6522" points="232.8,120.1 227.8,126.1 221.9,124.1 		"/>
		<polyline fill="none" stroke="#656565" stroke-width="0.6522" points="212.9,113.1 212.9,116.1 210.9,117.1 214.9,126.1 		"/>
		<polyline fill="none" stroke="#656565" stroke-width="0.6522" points="194,205.6 198.9,212.6 210.9,218.5 206.9,227.5 
			215.9,226.5 219.9,220.5 221.9,216.6 217.9,213.6 217.9,207.6 209.9,207.6 210.9,199.7 		"/>
		<polyline fill="none" stroke="#656565" stroke-width="0.6522" points="224.8,245.4 216.9,238.4 209.9,234.5 217.9,229.5 
			221.9,226.5 221.9,220.5 219.9,220.5 		"/>
		<line fill="none" stroke="#656565" stroke-width="0.6522" x1="206.9" y1="247.4" x2="209.9" y2="234.5"/>
		<polyline fill="none" stroke="#656565" stroke-width="0.6522" points="77.8,41.8 86.8,36.6 96.5,31.3 108.4,26.1 116.6,23.9 
			130.8,20.9 136.8,20.9 142,20.9 143.5,22.4 145.8,23.1 145.8,26.9 151,25.4 156.2,23.1 160,23.1 166,21.6 175.7,19.4 180.1,17.2 
			183.1,17.2 183.9,19.4 		"/>
		<polyline fill="none" stroke="#656565" stroke-width="0.6522" points="59.1,67.9 63.6,65.6 69.6,66.4 78.5,61.2 80,64.9 
			82.3,64.9 86.8,61.9 89,68.6 92.7,69.4 		"/>
		<polyline fill="none" stroke="#656565" stroke-width="0.6522" points="100.2,97 102.5,91.7 104.7,91 103.9,88 106.2,86.5 
			109.2,85 113.7,83.5 		"/>
		<polyline fill="none" stroke="#656565" stroke-width="0.6522" points="113.7,97.7 112.9,96.2 108.4,95.5 		"/>
		<polyline fill="none" stroke="#656565" stroke-width="0.6522" points="109.2,85 109.2,91 111.4,91 106.2,97.7 		"/>
		<polyline fill="none" stroke="#656565" stroke-width="0.6522" points="112.2,98.5 115.2,97 115.2,95.5 118.1,95.5 120.4,91.7 
			126.4,91.7 		"/>
		<line fill="none" stroke="#656565" stroke-width="0.6522" x1="117.3" y1="103.6" x2="124.5" y2="103"/>
		<line fill="none" stroke="#656565" stroke-width="0.6522" x1="126.6" y1="110.3" x2="126.4" y2="105.8"/>
		<polyline fill="none" stroke="#656565" stroke-width="0.6522" points="317.6,44.5 321.3,45.7 325.5,51.6 327.6,54.5 		"/>
		<polyline fill="none" stroke="#656565" stroke-width="0.6522" points="339.8,63.3 346,70.8 343.1,70.8 343.1,72.9 338.5,74.2 
			339.3,76.1 		"/>
		<polyline fill="none" stroke="#656565" stroke-width="0.6522" points="329.3,86.7 338.1,89.2 336.8,85.4 338.5,84.2 336.4,78.8 
			341.4,80.4 339.3,76.2 369.1,108.9 370.7,112.2 373.3,111.8 374.9,107.6 373.7,104.3 368.2,94.6 363.6,85.9 		"/>
		<polyline fill="none" stroke="#656565" stroke-width="0.6522" points="386,137.9 386.2,130.6 380.4,115.1 374.5,106.8 		"/>
		<polyline fill="none" stroke="#656565" stroke-width="0.6522" points="371.6,112.2 373.7,122.2 368.6,119.7 365.7,119.3 
			361.9,122.2 361.5,128.1 357.8,126.8 354.4,121 352.7,118.9 348.1,116.8 345.6,109.3 338.5,101.7 333.9,100.9 		"/>
		<polyline fill="none" stroke="#656565" stroke-width="0.6522" points="336.4,112.2 343.9,113.9 348.1,116.8 		"/>
		<polyline fill="none" stroke="#656565" stroke-width="0.6522" points="340.6,117.6 343.1,117.6 343.1,114.3 		"/>
		<polyline fill="none" stroke="#656565" stroke-width="0.6522" points="335.2,108.9 338.9,109.3 342.3,111.4 336,110.1 		"/>
		<polyline fill="none" stroke="#656565" stroke-width="0.6522" points="345.6,125.6 346.9,123.9 350.2,124.7 351.9,129.3 
			351.8,130.1 351.1,134.4 		"/>
		<polyline fill="none" stroke="#656565" stroke-width="0.6522" points="351.8,130.1 354,130.2 354.8,133.9 357.8,134.4 357.8,131 
			357.8,126.8 		"/>
		<polyline fill="none" stroke="#656565" stroke-width="0.6522" points="345.2,107.2 359,113 348.6,85.9 		"/>
		<polyline fill="none" stroke="#656565" stroke-width="0.6522" points="372.8,294.9 371.6,292.4 374.5,289.9 375.8,292.4 		"/>
		<polyline fill="none" stroke="#656565" stroke-width="0.6522" points="370.3,277.7 372.8,276.5 372.8,280.7 375.8,275.7 
			382,261.4 388.7,251 387.5,244.7 384.6,239.3 384.6,238 382,237.2 		"/>
		<polyline fill="none" stroke="#656565" stroke-width="0.6522" points="375.8,275.7 377,278.2 378.7,274 379.1,276.9 385.4,273.1 
			390,253.9 390,246.8 392.5,234.3 395,235.5 395,230.1 398,215 396.7,212.9 395.4,214.2 393.8,213.8 394.6,204.2 390,200.4 		"/>
		<polyline fill="none" stroke="#656565" stroke-width="0.6522" points="357.8,134.4 357.8,139 360.7,142.3 360.7,145.5 		"/>
		<polyline fill="none" stroke="#656565" stroke-width="0.6522" points="361.5,128.1 363.2,131.8 367,133.1 368.2,139.4 
			368.2,147.3 		"/>
		<polyline fill="none" stroke="#656565" stroke-width="0.6522" points="366.7,132.8 367.8,128.5 372.4,131.8 374.1,132.3 
			374.1,129.8 369.9,120.6 		"/>
		<polyline fill="none" stroke="#656565" stroke-width="0.6522" points="386.2,138.1 383.3,135.2 376.6,129.3 376.2,132.7 
			373.3,131.8 		"/>
		<polyline fill="none" stroke="#656565" stroke-width="0.6522" points="386.2,161.1 387.9,156.5 389.2,157.8 390,145.2 
			385.8,137.3 		"/>
		<polyline fill="none" stroke="#656565" stroke-width="0.6522" points="389.6,191.2 391.3,188.3 392.5,189.5 393.4,176.2 
			397.7,174.6 		"/>
		<line fill="none" stroke="#656565" stroke-width="0.6522" x1="378.2" y1="149.2" x2="376.2" y2="132.7"/>
		<line fill="none" stroke="#656565" stroke-width="0.6522" x1="373.9" y1="132.9" x2="376.9" y2="149.2"/>
		<polyline fill="none" stroke="#656565" stroke-width="0.6522" points="374.6,149 372.4,138.5 372.4,131.8 		"/>
		<polyline fill="none" stroke="#656565" stroke-width="0.6522" points="389.6,150.2 392.1,161.2 392.5,164 393.4,175.3 390,172.8 
			390.4,175.3 387.9,175.3 		"/>
		<polyline fill="none" stroke="#656565" stroke-width="0.6522" points="392.1,161.2 395.4,160.3 394.9,157.7 		"/>
		<polyline fill="none" stroke="#656565" stroke-width="0.6522" points="395,235.5 395.9,238.4 393,251 390.4,255.2 387.5,251.8 		
			"/>
		<line fill="none" stroke="#656565" stroke-width="0.6522" x1="390" y1="172.8" x2="387" y2="172.3"/>
		<line fill="none" stroke="#656565" stroke-width="0.6522" x1="171.1" y1="192.5" x2="168.6" y2="195.5"/>
	</g>
	<g id="Coast_5_">
		<path id="path16036_1_" fill="none" stroke="#0F79AC" stroke-width="0.4348" d="M183.9,1.2h0.7l-1.6,0.2l-2.4,0.2l0.9,0.2
			l-3.3,0.2l-2,0.2l-2,0.4l5.1-0.4l0.2-0.2l1.1,0.2l0.7-0.2l0.4,0.2h0.4l0.7,0.2h8.4l-4-0.4h1.8l-0.2-0.2l4.4,0.4l-0.4-0.4l1.1,0.2
			V1.6h-0.4l-0.9-0.2l-1.1,0.2l-0.4-0.2l-0.7-0.2l-1.3,0.2V1.2h1.3h0.4L189.9,1h1.6l0.9,0.2l0.9-0.2l-0.7,0.2l2.2-0.2l-1.8,0.2
			l2.7,0.2l0.2-0.4l1.1,0.2L196.8,1h0.2V0.8L195.7,1l0.9-0.2h-0.4h-0.7h-0.9h-1.6h-0.4h-0.2h-0.4 M197.1,1h1.1h0.7h0.2l-0.9-0.2
			L197.1,1z M209.3,0.8l1.3,0.2h0.4l-1.3-0.2L209.3,0.8z M209.7,0.8h0.2l-0.4,0L209.7,0.8z M214.8,1.2L214.2,1h-1.1h-0.4h-0.2
			l-2.5-0.2l1.6,0.2h0.2h0.2l1.6,0.2L209.1,1l2.4,0.2h-1.3l2.4,0.2h0.9l1.1,0.2l-2.9-0.2l0.9,0.2l0.4,0.2h0.4h1.1h0.2l-0.7-0.2
			l2.4,0.4l-2-0.2l0.9,0.2l0.4,0h-0.2h-0.9h-0.7l1.6,0.2h-0.9l1.8,0.2l-0.2,0.2l0.9-0.2l-0.7,0.2l1.8,0.2l-0.4,0.2h1.3l-0.4,0.2h0.4
			l2,0.2l0.7,0.4h3.8l-1.3,0.2h1.1h0.7l0.2,0.2h0.7l-0.4,0.2h0.9V5l0.6-0.2l-0.1,0l0.2,0l0.1,0l0.2,0l1.8,0.2l-1.3-0.4h1.1l-1.1-0.2
			h1.1l-2-0.4l1.6,0.2l-2-0.4l2,0.2l-0.9-0.2l1.3,0.2l-1.3-0.4l1.3,0.2h0.4l-1.6-0.2l1.8,0.2l-0.7-0.2L228.2,3l1.3,0.2L229.3,3
			l2.2,0.4l-0.7-0.2h1.1L231.3,3h-1.1l-0.7-0.2h-0.7 M232,3.2l-0.2,0.2h0.9h0.2l1.3,0.2l-0.7-0.2h-0.4l-0.7-0.2H232z M233.5,3.4
			l0.5,0.1l-0.3-0.1H233.5z M234,3.6l0.1,0.1h0.1L234,3.6z M234.3,3.6L234.3,3.6L234.3,3.6l0.6,0.1l-0.1-0.1H234.3z M234.8,3.6
			l0.2,0.1L234.8,3.6l0.2,0.1l0.2,0.1h0.7l0.4,0.2h0.6l-0.8-0.2l-0.5-0.1L234.8,3.6z M237,4.1l0.8,0.2l-0.4-0.2H237z M237.3,4.1
			l0.3,0.1l-0.1-0.1H237.3z M237.6,4.1l0.2,0.2h0.7L237.6,4.1z M238.4,4.3l0.5,0.1l-0.3-0.1H238.4z M238.9,4.4l0.4,0.1h0.3
			L238.9,4.4z M239.6,4.5l0.2,0l-0.1,0H239.6z M239.8,4.6l0.4,0.2h0.7L239.8,4.6z M240.8,4.8l0.4,0.2h0.3L240.8,4.8z M241.6,5
			l0.8,0.2L241.7,5H241.6z M234.9,3.7l-0.6-0.1l0.7,0.2L234.9,3.7z M228.4,4.8l-0.2,0l0,0l2.1,0.4L228.4,4.8z M215.7,2.1l-0.2,0
			l-2-0.2L215.7,2.1z M213.5,1.2l-2-0.2h-0.4L213.5,1.2z M181.9,1.2l-0.4,0.2l1.3-0.2H181.9z M182.8,1.2l-1.1,0.2l1.6-0.2H182.8z
			 M179.7,1.4l-0.2,0.2l0.7-0.2H179.7z M179.5,1.6l-1.3,0.2l2.2-0.2l0.9-0.2L179.5,1.6z M173.9,2.1L173.9,2.1h0.4H173.9z M173.9,2.1
			l-1.6,0.2l1.2-0.1L173.9,2.1z M173.6,2.2l-0.5,0.1l0.8-0.1l0.1-0.1L173.6,2.2z M173.8,2.2L173.8,2.2l1-0.1L173.8,2.2z M173.1,2.3
			h-0.7l-1.6,0.2l-0.4,0.2L173.1,2.3z M170.4,2.8h-1.1L167.9,3l-1.6,0.4l-1.6,0.2l1.4-0.2l-0.7,0.2l-3.1,0.9L160.2,5l2.4-0.4
			l-0.2,0.2l4.4-1.1l0.2,0.2l1.8-0.2l1.8-0.2h-0.9l-1.6,0.2l0.7-0.2h-1.3h-1l0.9-0.1l0.1,0.1l0.9-0.2h-0.2h-0.9l1.8-0.2L170.4,2.8z
			 M165.5,3.6h-0.7l0.2-0.1l-1.8,0.3l0.3-0.1l-0.7,0.1h-0.2l-0.4,0.2h-0.7l-0.2,0.1l0,0l-0.2,0.1h-0.2l-0.3,0l-0.4,0.2l2.2-0.4
			L165.5,3.6z M77.7,42l0.4-0.2l-2,1.6l-8,6.9l-2.2,2.7l-2.7,2.4l-2,2.7l-0.9,1.6l0.2-0.1l-0.8,1.2L58.4,64l-1.1,1.3l0.7-0.2
			l1.8-0.2l0.4,0.9l-2.2,6.7l-0.2,0.4l1.3,1.8l-1.3,1.8l0.4,0.2l-2,0.7l1.3,1.6l1.3-1.1l0.7,1.6l-1.3,3.3l2.2,1.8V86l1.6-1.3v-2
			h-1.3l0.9-5.1l-0.9-2.2l0.7-1.6l-1.1-2.4l2-4.2h2.4l-0.9,2.7L63.3,72l0.7,1.6l1.1-0.2l-0.7,1.6l1.6,1.3L64.6,78l2.2,0.7l-0.2,0.9
			l2.7,3.3l0.4,3.1l-1.3,2.2l0.4,0.2l-1.1,0.9v0.9l3.6,3.3l3.6-0.2l1.8,1.3l2.4,0.4l8.4,1.1l6.4-2.9l7.6,4.4l8.2,0.9l-0.7-0.2l4-1.1
			v1.3l-1.1,0.2l5.6,4.4l-0.9,0.7l0.9,0.2l-0.2,2.4v0.2l1.6,0.9l0.9-1.1l-0.4-0.4l-0.7-0.7l1.3,0.7h0.2l3.3,2.2v2h0.9l-0.2-1.1
			l1.6,2l0.4-0.9l3.1-0.2l0.7,1.6l1.6-0.9l0.4,2.2l1.6-0.4l1.6-0.9l-1.6-2l1.6-1.1l3.1-2l2,2l1.3-0.4l-1.3,1.6l3.6,4l-0.9,7.5
			l1.6,0.7l-0.4,0.9l-2,3.3l-2.7,1.1v2.2l-1.8,0.4l0.4,1.8l-3.6,1.3l-0.2,0.2l0.2,1.1l0.2,0.7l-0.2,0.2l-1.6,2l0.7,0.7l-2,1.6v4.2
			l2.2,1.1l0.7-1.3l0.4-0.4l0.7,1.1l-1.1,2.7l-4,3.5l1.6,4.4l-0.9,1.3l3.8,2l3.6,4.7l2.9,5.8l2,4.2l5.1,6.9l-0.4,1.8l1.8,2.4
			l2.7,2.4l12.4,5.5l4,3.8l0.9,5.5l0.4,4.9l-1.3,7.3l0.9,6.4l-2.2,12.4l1.1,3.3l-0.2,0.4l-0.9,2l1.3,10.2l-2.9,12l-1.3,0.9l2.2,6.9
			l-1.1,5.3l1.3,1.6l-0.4,0.7l1.8-1.1l1.1,0.4l0.7-0.7l-1.3,1.8l1.6,0.7l-0.2,1.1l-1.1-0.7l1.1,1.1l-0.9-0.4l-0.2,3.1l1.1,1.1
			l-1.1,1.1l2,1.1l-2,2.2l1.8,0.7l-1.8,0.2v1.1l1.1-0.7l-0.7,2.9l-0.9-1.1l-1.3,0.2l1.1-0.2h-0.9l0.4-1.1l-0.7,0.9l-0.9-0.7
			l-0.9,0.2l1.6,0.4l-0.7,1.1l-1.2,1l1.2-0.8l0.4,1.1l1.3-0.2l0.9,1.3l-1.1,0.9h1.3l-1.8,0.7l2.2-0.4l1.6,1.1l-1.1-0.2l0.9,1.1
			l-3.1-0.7l2,1.1l-1.1,0.7l0.9,0.4l-0.4,2l0.7-0.7l1.3,1.6l-1.6-0.2l0.7,1.1l0.7,0.9l-1.8-0.2l1.6,0.4l0.2,1.6l0.7-1.6l0.7,0.9
			l-1.3,0.7l-0.4,0.2l1.3,0.4l-0.2,1.6l1.3,1.1l-0.2-1.1l0.7,1.1l-0.7-1.6l1.8,0.7l-2-0.9l0.9-0.9l-0.2,1.1l1.6,0.7l-0.4,2V307
			l-0.2,1.1l-0.2-0.9h-0.4h-0.4h-0.7l0.4,2.2l1.6-0.9h2.9l0.7,1.6l-1.1,1.3l0.2-0.9l-1.3,0.4l2.7,1.3l0.2-3.6l3.3-1.6l2,0.2l-1.6-2
			h-1.3l1.3-0.2l-1.3-1.3l2-2.9l-0.4-0.4l-0.4-0.9l0.7,0.9l0.2,0.2l0.9-0.2v-0.2l0.4-2.9l4-3.6l-0.2-2.2l-2.4-0.4l-2.2-2.9l1.3-2.7
			l3.6-1.1l0.2-4l2.4-2.2l-1.8-1.1l1.6-0.4l0.7,1.1l1.3-0.9l-0.4-1.6l-1.8,1.1l-1.6-1.1l-0.2-4.4l3.3,1.3l3.8-0.9v-5.3l0.9,0.4
			l-0.9-2l3.3,0.7l2.9-0.7l4.2-0.9l2.7-1.3l2.4-4v-1.8l-1.8-1.3l0.7-2.2l-4-3.1l0.7-4.4l-0.2,2.9l1.8,1.8l4.7,1.8l5.8-0.7l4.9-5.3
			l1.3-4.2l4-4.7l-0.7-1.3l2,1.8l-4.9,5.5l4-3.3l2.4-3.8l1.6-2.2l3.1-2.4l1.3-4.9l-0.9-2.9l1.8-2.4l-1.1-0.7l1.6,0.4l2.2-2.7l4-2.4
			h2.9l3.6-2.7l2.4,0.7l1.6-1.1v1.1l3.3,0.2l0.2-1.6l3.3-1.3l-0.2-1.8l4-5.1l0.7-1.1l0.9-4.2l2-2l2.7-16.6l0.4-0.9l0.7,1.6l1.3-0.9
			l6.9-8.2l4-5.1l0.7-4L286,157l-1.1-1.6l-4.7-1.1l-4.2-4.9l-4.9-3.5l-7.3-0.9l-3.8-2.2l-4.9,2.9l0.4-2.2l1.3-0.9l-2.2,0.2l1.8-1.3
			l-1.1-2.2l-1.6,1.3l-0.2-1.8l-0.7,0.7l0.4-0.7l-1.1,0.2l-0.9-1.3l-0.4,0.9l-0.2-1.3l-0.4,0.7l-3.3-2l-0.2,0.7l-2.2-0.7l-1.6,2.4
			l1.3,0.4l-1.1,0.4l-0.9-1.1l-2.9,3.1l0.9-2.2 M149.3,7l0.1-0.1L149.2,7H149.3 M241.5,138.3l1.8-3.8l-6.9-1.1l-1.6,2.9v-1.6
			l-1.6,1.3v-1.6l-1.6,1.6l1.3-2.9l4.9-4h-0.7l0.7-1.6l-2.9-1.6l-2-6.9l-0.9-0.7l-0.2,1.1l-2.2-2.9l-6.7-3.3l-10.2-0.2l-4.2-3.3
			l-1.1,1.6l0.7-2.9l-2-2l-3.1-1.8l-0.9-0.2h-2.2v-2.4l-2.7-1.6l-2.4,0.4l-0.4-0.7l-1.3-1.1l3.6-1.1l-8.2,0.2l2,0.7l-4.9,1.3l-4-1.8
			l-6.4,0.9l-0.9-2.2l-4-0.4l-1.3-2.2l-0.7,1.8l1.3-0.2v0.7l-1.1-0.2l-4.9,2.4l1.1,2.4l0.7,0.7l-0.2,1.3l-2.2,0.9l-1.3-2.2l0.4-0.4
			l1.6-2.2l-1.3-2.7l3.1-1.6l-2-1.1l-5.6,3.8l-2.9,0.2l-0.4,1.1l-1.8-0.2l-1.6,0.9l-1.6,2.2v0.4l0.2,1.6l-4.4,3.1l0.4,2l-3.6-3.3
			l-3.6-0.9h-2l-1.3,0.9l-3.6,2.2l-2.7-0.9l0.2,0.7h-1.3l-2-2.7l-2.7-3.6l3.1-9.1l-0.4-2.7l-4.7-1.3l-9.6,2.4l-2.4-0.2l2.7-3.3
			l1.1-4h-0.9l1.3-1.6l0.2,1.8l2-4l-0.9-0.2l3.6-4.9h-3.8l-6.4,2.7l-2.2,4.7l-2.9,3.1l-2.2-0.2l-6,3.1L93,86.4l-1.8,0.4l-2.7-7.8
			v-1.3l1.8-5.1l0.7-2l1.3-0.7l-0.7,1.1l1.8-2.7l0.4-3.1l1.3-2.2l2.4-1.1l-0.4-0.7l1.6-0.2l-0.7,0.7l3.3-2.2l0.9-1.6h1.1l-0.9,0.7
			l2.7-1.1l0.1-0.2l3.7-0.4l1.6-0.9l1.8,1.3l1.3-0.9l0.9,0.2v-0.9h1.1l0.4,1.1l1.3-0.9l-1.6-0.4l1.6-1.1h-1.3h-1.6l6.2-1.3l0.7-1.1
			l0.2,0.7l-0.7,0.4l2.9-1.3l-0.7,0.7l2.9-0.7l-0.9,0.4l2.4-0.2v0.7v0.7l2.7-1.1l0.9-0.4l0.9,0.2h0.4l2.4,2l-1.3,2.4l1.3-0.4
			l-1.1,1.3l0.7,1.3l1.1-0.4v2.4l2,0.7l-0.4,1.1l1.6-0.2v0.4l2.4-4.7l-1.6-7.1l-0.4-2.7l3.3-2.4l-0.2-0.7l0.2,0.4l2.2-1.1l4-2.7
			l7.3-2.9l-1.8-0.2l1.6-0.4l-1.3-0.4l2.2,0.2l1.3-0.9l-0.2-0.7l-0.7,0.9l0.2-0.9l-2,0.4l1.8-0.9l0.9,0.2v-1.1l0.7,1.8l-0.7-2.2
			l-2.4-0.2h1.3l-0.2-0.2l0.9-0.7l-0.2-0.1l0.4-0.6l-2.7-0.4l0.7-0.7l2,0.9l-0.2-2.2l2.2-0.7l-1.8,1.3l1.6,1.6l-1.3,1.6l3.1-2.4
			l-0.7-2.4l1.3,1.3l2.4-1.6v-1.3l0.8-0.4h0.1l0.2-0.1l-0.3,0l1.2-0.6l5.6-0.9l0.4-0.9l0.4,0.7l3.1-0.4v-0.7l-0.9,0.7l-1.6-1.1
			l2.4-2.2l1.3-0.2v-0.4l1.3,0.2l1.3-1.1l-0.2,0.4l1.6-0.4l0.4,0.2l2.9-0.7l-0.4-0.7l1.8,0.2l5.3-1.3l-1.8,0.9l4-0.2l-1.8,0.7
			l-1.1-0.4l-4,1.3l-0.4,0.9l1.8,0.7l3.1-1.8h1.6v-0.4l6-0.7l0.7-0.2l-2.2-0.7l-3.3,0.2l-3.3-0.9l-0.2-0.9h-1.3l1.6-1.1l-2,0.4
			l-0.4-0.4h-2.2l3.6-0.2l2.2-0.7l-0.4-0.7l-3.6-0.2l-4.7,0.9l-7.8,2.9l3.3-1.6v-0.4l6.4-1.8l1.6-0.9l0.7-0.2l14.4-0.2h0.2l2.7-1.1
			l3.8-0.2l2.4-0.7l-1.3-0.2h1.3l-2-0.2h1.8l-0.9-0.2l0.7-0.4l-1.6-0.7L207.1,9l0.4-0.4l-2.2-0.4l-3.8,0.7l3.3-0.7l-2.4,0.2l4.4-0.4
			l-1.8-0.2l0.7-0.2h-2.2V7.2l-0.9,0.2l0.4-0.2l-1.3,0.4l0.9-0.4h-1.1l-1.3,0.2l0.7-0.7h-0.7l0.2-0.2h-2.4l0.9-0.2h-0.4l-1.3-0.2
			h1.1l-1.6-0.2h1.6l0.7-0.2l-2.2-0.4h1.1L196.4,5l0.4-0.2L195.1,5l1.6-0.4l-2,0.2l1.6-0.2l-0.4-0.4l-1.8,0.2l1.3-0.2l-2.2-0.4
			l0.7-0.2h-0.9l-1.3,0.4l0.9,0.2h-1.3l0.7,0.2l-1.3,0.2v0.2l-0.7-0.2l-2.4,0.7l-0.4-0.4l-1.6,0.4l0.9-0.4h-2h-1.3l0.9-0.2l0.4,0.2
			l0.7-0.4h-0.9l0.4-0.2h-2l2.2-0.2l0.7-0.4h-3.6l0.4-0.2l-1.3,0.2L179.3,3l-1.8,0.4h-4l-1.6,0.4l0.4,0.2l-1.8,0.4h1.1V5l-3.6,1.1
			l2.2,0.2L170,7.5l0.4-0.1l0.4,0.2h-0.9l-3.1,1.1l-4.7,1.1l1.1,0.2l-0.4,2l-1.8,0.7v0.4l-0.4-0.4l-1.6,0.9h-0.4h-1.1l0.4-0.4
			l-2.2-1.1l2.2-2.2l-5.1,0.7l-7.1-0.2l-3.8,1.1l1.3-0.7l0.9-0.9l-1.3,0.2l-0.9,0.4v-0.4l2.9-1.1l4.2-1.3h-0.2l3.3-0.9h-0.2l0.7-0.2
			l-1.1,0.2l0.2-0.2l0.7-0.2l1.1-0.2l-1.8,0.4h0.9l0.7-0.2l1.6-0.2h-0.7l-1.1,0.2l0.6-0.2l1.6-0.3l2-0.7l2.4-0.4l3.1-0.7l-2.7,0.4
			h-0.4l0.8-0.2l-0.9,0.1L157.3,5l-0.8,0.2h-0.3l-1.8,0.4h-0.2l-0.2,0.2l-2.2,0.4l-0.8,0.2h-0.3l-0.4,0.2h0l-0.1,0h-0.4l-0.2,0.1
			L148.9,7h-0.1 M165.7,27.3l3.3-0.4l1.1-0.7L165.7,27.3z M174.4,308.5l-0.7,1.3l0.9,0.2L174.4,308.5z M165.2,291.3l-0.2,0.1l0,0
			L165.2,291.3z M165.1,291.5l-0.2,0.2l0.9,0.4L165.1,291.5z M133.7,144.8l0.4,0.9l0.2-0.7l0.4-0.4l-0.4,0.2H133.7z M159.6,4.5
			l1-0.2h-0.2L159.6,4.5z M160.6,4.3L160.6,4.3h0.1H160.6z M160.7,4.3h0.1l0.4-0.1L160.7,4.3z M163.6,3.7l1.5-0.3l-1.3,0.2
			L163.6,3.7z M165.1,3.6l0.9-0.1l0.7-0.2l-1.1,0.2L165.1,3.6z M172.6,3.2l0.4,0.2l0.9-0.2H172.6z M169.9,3.9l-1.3,0.4l1.3-0.2V3.9z
			 M167.1,4.1l-1.8,0.2l-1.8,0.4V5L167.1,4.1z M248.6,6.7l0.9,0.2l0,0l1.5,0.3l1,0.3l0.2,0.1l-0.1,0l0.2,0.1l0.1,0l0.1,0l0,0
			l0.4,0.1l-0.2-0.1l-0.1-0.1l1,0.2L252,7.5l0.1,0l-0.1,0h0.1l-0.3-0.1l0.2,0.1l-0.4-0.1l-2-0.7h-0.2l0.2,0.2L248.6,6.7z M253.5,7.9
			h-0.4l-0.4-0.1l1.2,0.3h-0.1l0.4,0.1l0.2,0.1L254,8.1h0.2L253.8,8L253.5,7.9z M254.4,8.2l0.2,0.1h-0.4l3.6,0.9L257.3,9l-0.5-0.1
			l-0.1-0.1h-0.1l-0.8-0.2l0.7,0.2l-0.7-0.1l-0.2-0.1l-0.1-0.1l0.3,0.1l-0.4-0.1l-0.3-0.1h-0.3L254.4,8.2z M165.1,7.9l-2,0.9
			l1.6-0.4L165.1,7.9z M164.6,8.3l-0.2,0.2l1.1-0.4L164.6,8.3z M184.6,9l-0.4,0.4 M259.7,9.9l1.3,0.4l0.9,0.2h0.2l-2-0.7H259.7z
			 M210.6,11l-3.1,0.9l-0.2,0.9l-0.2,0.7h-1.3l0.9,0.4l-1.1-0.2l-2,0.9h2.2l-2.4,0.7l0.4,0.4l2-0.2l3.6,0.4l2.4-0.4l-0.7,0.4h3.1
			l-2.7,0.9h1.8l2.4-1.1l0.7,0.7l-0.7,0.7l1.3-0.4v0.9h1.1l1.1-1.1l-0.7-0.4l-0.9,0.2l0.4-0.7l-1.1,0.7l-1.1-0.4l0.7-0.2l-0.9-0.2
			l2.2-0.4l-2.7,0.2l1.3-1.1h-2.2l-0.2-0.4l-1.8,0.7l0.2-0.7h-2l1.3-0.7h-1.8l0.2-0.2l-0.4,0.2l-1.1,0.4l0.7-0.4l1.6-1.3l-0.9-0.2
			h1.3L210.6,11z M158.4,11.6l-2,0.4h2.2L158.4,11.6z M191.5,12.7l5.8,0.9l0.2-0.2l-1.8-0.4L191.5,12.7z M192.4,16.3l-1.1,0.7
			l3.6,0.9l2.2-0.7h-4.7V16.3z M200.8,16.3l-2.7,1.6l0.7,0.7l1-0.2h-0.8l1.8-0.9V16.3z M199.9,18.3L199.9,18.3l0.1,0L199.9,18.3z
			 M200,18.3l2-0.4h0.4l-0.4-0.2l-0.7-0.2L200,18.3z M140.8,17.2l0.2,0.2l-1.6,0.9l-0.9-0.2l0.4-0.2l0.4-0.2L140.8,17.2z
			 M163.1,21.6l-1.6,0.7v0.9l-2,0.7l-6.9,0.7l2-1.1l4.9-0.4l0.9-0.4h-1.8L163.1,21.6 M175.1,17.4v0.2 M142.8,18.5l0.4,0.9l2-0.4
			l-0.7,2l7.8-0.2l1.1,0.9l0.7,0.4l-1.1,0.4l-0.2,0.2h-2l-1.1-0.7l0.4,0.7l-2.2,2.2l-1.8,0.9v-1.6l-3.1,0.9l2-1.3l0.9-1.3l-3.1-0.2
			l-2.2,1.8l0.4-0.9l-2.2,1.1l-1.8,2.9l-2,2l-2,0.7l0.4-2.4l3.1-2.9l-1.6,0.4l3.6-2.2l0.4,0.4l2.9-1.3l3.6-0.2l-0.4-0.7l-1.6,0.2
			l0.4-0.4l-5.6,1.3l-0.4-0.4l-1.8,0.4l0.2-0.7l-4.4,1.8h-1.1l0.7-0.4l-2.9,0.7l8.4-3.6h0.7l1.1-0.9l-0.7,0.7l0.9-0.2l0.4-0.7
			L142.8,18.5z M284.8,19.6l0.4,0.2l0.7,0.2L284.8,19.6z M286.6,20.5l1.5,0.7l0.9,0.5v-0.1l-0.4-0.2l-0.4-0.2l-0.2-0.1L286.6,20.5z
			 M289.1,21.7v0.1l2.7,1.3l-1.1-0.4l0.2,0.2l1.3,0.7l-2-0.9l1.8,0.9v0.2l2,1.1l0.2,0.2l1.3,0.4l-1.3-0.2l1.1,0.4h-0.2l0.9,0.4h-0.2
			l0.9,0.2v0.2l1.6,0.4l1.3,0.4l-4.2-2.4l-2.1-1.4l1.7,0.9l0.9,0.4l-0.7-0.2l2.2,1.1l1.6,0.9l1.3,0.9l-0.4-0.2l0.2,0.2l0.7,0.2
			l0.9,0.7v0.2l3.3,1.8h0.2l-0.1-0.1l0.2,0.1h-0.1l0.7,0.7l-1.3-0.9l0.7,0.9l2.2,1.1l-0.9-0.7l2.4,1.3l0,0l0.3,0.3h0.2l0.2,0.1
			l-0.2-0.1l0.3,0.2l0,0l0,0l0.2,0.1l0.4,0.3l-0.4-0.2l0.1,0.1l-0.9-0.6l2.9,2l-0.9-0.7l0.4,0.2l-0.3-0.2h0.1l-2-1.3l-0.7-0.4
			l0.2,0.2l-1.3-0.9l-0.4-0.2l-0.2-0.2l-0.1-0.1l-0.1-0.1l-0.6-0.4l-0.4-0.2l-0.2-0.2l-0.4-0.2h-0.1l-0.3-0.2l-0.2-0.2l-1.1-0.7
			l-0.1-0.1l-1.6-1l0.2,0.2l0.6,0.4l0.3,0.3l-0.9-0.7l-2.2-1.3l-4.2-2.4l-1.3-0.7l-0.9-0.6l-1.7-0.8l-0.4-0.2l-0.4-0.2l-0.9-0.4
			l-0.4-0.2L289.1,21.7z M315,37.1l-0.6-0.4l0.2,0.2L315,37.1h-0.1l-0.7-0.4l-0.4-0.4l-0.4-0.2l-0.6-0.4l0.4,0.2l-0.7-0.4l-0.9-0.7
			l0.3,0.3l-0.2-0.1l0.3,0.2l0.2,0.2l1.3,0.9l-3.1-2l3.1,2.2l-1.3-0.7l-1.3-0.9l-1.1-0.4l0.7,0.4l1.3,1.1l3.1,1.8l2.9,2.2l1.3,0.9
			l1.1,1.1l0.4,0.2l4,3.8l-7.8-4l-1.6-1.1l-1.1,0.2l2.4,2l3.8,4.2l1.1,2.2h0.7l0.4,0.9l1.1,0.4h-0.4l2,2.7l3.1,1.1l4.2,3.8l0.7-0.7
			l3.3,2l-0.2-1.3l0.7,0.4l-1.1-1.3l0.2-0.2v-0.2l-0.7-0.7l-0.7-0.4l-1.1-1.3v-0.2l-1.1-1.6h0.9 M334.2,52.9l-0.4-0.7l0.2,0.2
			l0.1,0.1l-0.6-0.5 M334.1,52.5l0.1,0.1v0.1l2.7,2.4l0.2,0.2l0.4,0.4l0.4,0.4l-0.1-0.2l0,0l-0.1-0.1v0h0l-0.2-0.3h-0.1l-1.6-1.6
			l-1.3-1.3l-0.2-0.2v0.1L334.1,52.5z M337.7,55.9l0.3,0.3L338,56L337.7,55.9z M338.1,56.2L338.1,56.2L338.1,56.2l0.1,0.2l0,0
			l1.1,1.1l0.9,0.7l0.1,0.1v0l-0.2-0.2l-0.7-0.7l-0.9-0.9l-0.2-0.1l0.2,0.2l-0.3-0.2l1.4,1.3l-1.6-1.4l0.1,0.1l0.1,0h0L338.1,56.2z
			 M310.1,33.8l-0.3-0.2l-0.2-0.1L310.1,33.8z M150.4,21l-3.6,0.4l2.7,0.2L150.4,21z M292,23.2l0.6,0.4l-0.6-0.1v-0.1l0.2,0.1
			L292,23.2z M292.4,23.4l0.4,0.2l-0.1,0l0,0L292.4,23.4z M154.6,24.7l-0.9,0.7l-2.4,0.9l-4.9,1.8l-4,0.2l2.7-2l0.4,0.4l-1.3,0.4
			l-0.2,0.4l3.6-1.3l3.8-0.4h-0.9l1.3-0.4L154.6,24.7z M148.6,56.9l1.1,0.9l-0.9,1.3l0.4,0.2l0.9-1.8L148.6,56.9z M337.5,56.9
			l-0.2,0.2l1.3,1.1l-0.2-0.4L337.5,56.9z M61.5,58.7l-0.9,1.1v-0.4L61.5,58.7z M362.5,84l-7.4-9.1l-2.4-2.9l-0.2-0.3l0.4,0.5
			l2.2,2.7l-2-2.5l0.5,0.3l-1.6-1.8l-0.2-0.2l-0.1-0.1l-0.1-0.1l-0.7-0.9l-0.2-0.2l0.5,0.6l-0.3-0.3l0.6,0.7l-0.3-0.3l-0.3-0.3
			l0,0.1l-0.2-0.2l0.9,1.1l-2-2.2l-0.7-0.4l-2-1.8h-0.4l-2-1.8l-2.9-1.6l-0.2,0.7l-1.1-0.7l-0.2,0.7l-1.3-0.7l-0.9-0.9l-2.2-0.9
			l-2.4-2.2l-0.7-0.2L334,62l-2.2,1.6l0.7,2.4l2.2,3.3v1.3l-1.3,1.6l-2.2-0.2v2.7l-1.3,0.7l0.7,3.6l-1.3,1.6l0.2-0.2l-0.7,4.7
			l0.4,2.7l0.2-0.7l2.4,3.1v2l2.4,5.1v3.8l0.4-0.4l0.2,0l0.1,0 M334.8,100.4l-0.6,0.4v1.8l-1.6,2l2.9,3.3l0.4,1.6l2,0.2l-1.6,0.2
			l-1.1-0.9l0.4,2.7l1.3,0.2l-1.3,0.2l2,0.9l-0.9,0.4l1.3,0.7v0.7h2.2l-1.3,0.2l1.3,0.9l-1.1,0.4l0.9,1.3l0.4-0.4v0.9l0.9-0.2
			l0.9,2.9l1.1,0.9l1.1,1.1l-0.2,0.7l1.1,0.9l0.7,2.7l0.7,0.2H346l2,2.9v1.1l3.1,3.1l6,8.4l2.9,2.7l2.4-0.7l4,1.1l4,3.8l3.1-0.7
			l2.2-0.4l3.6,1.1l-0.4,0.4l1.3,1.1l1.1,2.7l0.4-0.4l-0.2,0.7l0.7,0.7l-0.7-0.2l0.4,0.9l0.4-0.2l-0.4,0.9l1.1,3.3l0.9,0.9v-0.9
			l0.2,0.9l-0.2-1.1l0.4,1.3v-1.1l0.4,1.1l1.1,0.9l-0.2-1.3l0.7,1.8l0.2-0.7l0.7,3.1h0.4l0.2,1.1l-0.2-0.4l0.7,2.9l-0.7,5.5l0.4,0.7
			v2l-0.4-0.4l0.2,0.4l0.7,1.3H388v-1.3l-0.4,3.3l-0.4-0.7l0.9,6.7l2,9.3v4.7l0.4,1.6l-0.4-0.2l0.2,8.7l-0.9,2v3.3l-0.2,4l-1.1,3.8
			l-1.8,2.4l-2.9,7.1l-2,6.9l-2.9,17.5l-4.9,12.2l-4.4,13.3l-2.4,6l-1.3,2.7l-0.9,0.2l-2.4,4.9l0.7-0.2l-0.9,3.1v0.2h2.7v2.9
			l1.6,0.4l4.4-3.3l2.2-2.7l0.9-1.1l1.3-1.6l3.8-6.4l0.4-0.9l1.8-2.2l2.7-5.5 M350.6,69.5l-0.9-1.1l-0.3-0.4l0.2,0.3l-0.5-0.6
			l0.1,0.1l-1.5-1.6l-0.2-0.2l2.9,3.3L350.6,69.5z M347.7,66.2l1.1,1.1l-1.2-1.2L347.7,66.2z M347.7,66.1l-0.2-0.3l-0.3-0.1
			L347.7,66.1z M347.2,65.6l-0.3-0.3l0,0.1l0,0l0.1,0.1L347.2,65.6z M347,65.4l-0.3-0.3L347,65.4l-0.1-0.3l-0.9-0.9l-0.4-0.4l0,0
			l0.9,1L347,65.4z M348.8,67.3l0.3,0.3l-0.1-0.1L348.8,67.3z M349.7,68.3l0.3,0.3l0.4,0.4L349.7,68.3z M350.4,69.1l0.3,0.4
			l-0.1-0.1L350.4,69.1z M350.7,69.5l-0.7-0.8l-0.2-0.2l1.1,1.2L350.7,69.5L350.7,69.5z M340.6,58.9l4.4,4.7l0.4,0.2l-0.4-0.4
			l-0.3-0.3l-0.2-0.4l-0.2-0.1l-0.4-0.5l0-0.1l-0.1,0l-0.2-0.2l-1.1-1.1l-0.4-0.4l-0.9-0.9l-0.2-0.2h0l-0.1,0L340.6,58.9z M150.6,60
			l1.6,1.1l-0.2,1.1l0.4-1.3L150.6,60z M342,60.1l0.8,0.8l-0.1-0.1l0.4,0.4l-0.1,0l0.5,0.5l0.1,0.1l0.1,0.1l0.4,0.4l-0.4-0.4
			l-0.4-0.4l-0.2-0.2l0.1,0.1l-0.2-0.3l0.1,0.1L342,60.1z M145.9,61.3l-1.1,1.6l1.3,0.4l0.9-0.9L145.9,61.3z M147.3,63.3l-0.9,0.4
			l0.3,0.4L147.3,63.3z M146.7,64.1L146.7,64.1L146.7,64.1L146.7,64.1z M146.7,64.2l0.4,0.5l0.4-0.7L146.7,64.2z M136.2,67.3
			l-8.9,2.4l-1.1,2l-2,0.7l2.7-0.4l4.2-2.7l2.7-0.2l0.7,0.2l-1.6,0.4l0.9,0.4l5.3,0.2l3.8,0.2l1.6,2h2.7l0.4,0.9l-2.2,1.6l8.7-1.1
			l2.9-1.1l-4.9-0.7l0.2-1.1l-3.8-0.2l-8.2-3.3h-0.7L136.2,67.3z M322,68l0.9,0.9l0.7-0.9H322z M328.2,68.4l-0.2,0.4h0.7L328.2,68.4
			z M324.8,69.3v0.4l0.9,0.2L324.8,69.3z M328,69.3l-0.4,1.1h0.9L328,69.3z M160.6,69.8l-2.2,0.9h1.8L160.6,69.8z M63.3,71.3
			L62.6,72l0.2,0.4L63.3,71.3z M129.9,71.3l-0.2,1.3l1.6-0.4l-0.4-0.9H129.9z M161.1,73.3l-2.2,0.9l2.4,0.4l-0.4,1.1l1.3,1.3h-6
			l-0.9,0.9l1.8,0.9l6-1.1l2,1.8l0.9-1.1l1.8-1.3l6.4,0.2l1.1-1.1l-4.2-1.1l1.8-0.7l-2,0.2l-0.7-1.1L161.1,73.3z M184.2,76.4
			l-5.3,0.2l0.2,1.1l3.8-0.2L184.2,76.4z M147.5,78.6l-4.7,0.7l1.8,1.1l2.4-0.2l2.7-0.4L147.5,78.6z M197.9,81.3l-1.1,0.7l0.7,0.9
			l1.3-0.7L197.9,81.3z M199.7,97.9l-2.4,0.2l0.7,1.3l-1.6,0.7l3.1-0.2L199.7,97.9z M316.2,98.2l0.2,1.1h0.9L316.2,98.2z
			 M238.8,132.1l-2.4,0.2l1.3,1.1L238.8,132.1z M98.4,140.8l-0.7,0.7l1.6,1.8l-1.3,1.1h1.3l0.9-0.9L98.4,140.8z M386.9,164.5
			l-0.4,0.7l0.4,0.9V164.5z M168.4,272.8l0.9,0.7l-0.9,0.4V272.8z M165.7,275.7v4.9l1.1,0.2l1.1-0.9l-0.9-4.2H165.7z M169.7,283.7
			l-0.9,0.9l1.1,0.7L169.7,283.7z M167.1,289.9l0.9,0.2l-0.4,0.9L167.1,289.9z M167.9,295.6l-0.4,1.6h1.3L167.9,295.6z M171.9,296.1
			l0.9,1.3v-1.1l1.1,2l-2-0.4V296.1z M168.2,297.4l0.2,2h-1.6l1.3,1.8l0.7-2l-0.2,2.2l1.1-0.7L168.2,297.4z M172.2,301.2l2.9,0.2
			l-2.2,0.7l0.2,0.9L172.2,301.2z M167.5,301.6l0.4,1.1l0.4-1.1H167.5z M203.9,303.9v1.6l2.7-0.2l-0.4-0.9l-0.7,0.9L203.9,303.9z
			 M203.9,305.4l-1.8,1.1l0.9,0.7l0.7-0.9l0.9-0.2L203.9,305.4z M200.2,304.1l1.6,1.1l-1.6-0.2l1.1,0.4l-1.8,0.9l2.2-0.2l1.8-1.8
			h-1.8L200.2,304.1z M183.1,308.1l-3.3,0.9l0.2,1.8h2.2l-1.1,1.8l2.4,1.1l-0.7,0.7l-0.4-0.9l-0.4,0.7l-2.7-1.1l1.8,1.1l-1.1,0.2
			l-0.2-0.9l-2.2,1.1l10.7,0.4l3.1-1.1l-5.8-2.2L183.1,308.1z M175.1,309l-0.4,1.6l1.1,0.7l-0.4-0.7l2-1.6H175.1z M170.8,309.4
			l1.6,1.1l2.2,0.4L170.8,309.4z M174.6,311l-1.1,1.1l1.3,0.9l0.9-0.7l-0.7,0.7l1.6-0.9L174.6,311z M179.9,311.2l-0.7,1.3l1.6,0.7
			L179.9,311.2z M177.7,312.5l0.2,0.7l1.3,0.2L177.7,312.5z M184.6,315l-3.1,0.7l1.6,1.1l-0.4-0.9h1.3v0.7l1.8,0.4l-2.2-1.6
			L184.6,315z M245.3,315.2l2.9,2.7l-0.2-2L245.3,315.2z M207.3,336.9l-0.7,0.7l2.2-0.2L207.3,336.9z M261.1,390.2l1.1-0.2l0.9-0.4
			l0.9-0.2l1.1-0.4l0.9-0.2l0.9-0.4l-3.9,0l2.4-1.1l0.7-0.4l3.1-1.3l0.9-0.2l3.8-2l0.4-0.9l-2.7,0.9l2-1.1h-0.7l-0.9,0.4h-0.7l2-1.1
			l-1.1,0.2l-1.1-1.3h-1.8l-2.4,0.4h-0.2l0.4-0.2l1.6-0.7l-0.2-0.2l3.8-2.4h-0.7l-2.2,0.7v-0.4l1.8-1.1l-2.4,0.2L268,376l-1.8-0.9
			l0.9-2l0.2-0.2l0.4-1.3l-1.1-0.7l1.6-0.9l-2.9,0.2h-0.2l-1.8-2.2h-0.2l-1.3,0.2l-2-2.7l2.3-1.9l0.1-0.1l0.2-0.2l-0.7-0.2l-1.6,1.3
			l-2,0.2h-0.9l-4.7-0.9l-0.2-0.9l-4.9,0.9l-2,0.9l-1.8-0.4l-3.1,0.4l-0.9-0.7l-2.9,1.6l-1.1,0.4l-8,1.8l-1.3,1.1l-4.9,1.1h-1.8
			l-2.4,1.1l-2.7-0.9l-0.7-0.2l-0.7,0.2l-0.2-0.4l-2.4,0.7l-10.2-6l-1.8-0.7l2-3.3v-1.3l-0.9-5.3l0.4-0.7l0.7-1.1l1.3-2.7l-1.3-0.2
			l-1.3-3.5l1.3-2.7l2.4-4l0.9-0.3l-0.6,0.5l0.4,0.9l1.6-0.4l-1-1l1.7-0.5l-0.9-0.9l-4.2,1.3l-1.6,0.7l-3.1,2.7l-1.1-0.2l0.4,1.1
			l-2.7,1.6v1.3h-1.3l0.4,1.6l-1.6-0.7v1.3l1.6-0.2l-0.9,1.1l0.9,0.7l-2.2,2.7l0.7,0.9l-0.9,0.4l-2.2-2.7l-1.8,0.9l0.7,0.7h-1.1
			l0.2,0.7l-4.2,0.4l1.3,0.7l1.6,0.9l-1.1,0.9l2.7,0.2l-2,1.6l3.6,0.9l1.1,2.2l-5.8-1.3l-1.3,1.1l1.3,1.1l-1.8-0.9h-0.4l-7.8,1.1
			l-0.7-1.1l-6.2,2l-1.3-0.2l0.4-0.4l-1.8-0.9l-2.7,0.9l-1.3,0.7l-0.7,1.3l2.2,1.3h2.7l-1.1,0.4l3.8,2.4l-2.9,0.2l0.9,0.9l-2.2-1.8
			l-1.6,0.4l0.4,1.3l-5.6-0.2l-2.7,1.3l-0.9,0.2l-4,0.7l1.6,3.1v2.9h-1.3l2,1.1l0.4,0.2l0.4,2l1.6,0.2l0.2,2h1.3l1.8,0.9l-0.7,1.3
			l2.7,0.4l0.4,0.4l1.8,1.1l1.3,0.2l2.4,2.9v0.4l0.4,1.3l2.7,1.6l1.8-0.2l1.3,0.4l-1.1,0.4h-3.8l-1.1-0.2v0.2l-1.8-0.2l-0.9-0.2
			h-0.9l-0.9-0.2l-2.7-0.4l-0.9-0.4l-3.6-0.4l-1.8-0.4v0.9l3.3,1.1v0.2v0.2h0.2l3.1,0.9l0.4,0.2 M197.1,339.1l-0.2,1.1l1.1-0.9
			L197.1,339.1z M195.9,339.6l-1.3,1.1l1.8-0.2h0.2L195.9,339.6z M190.4,345.6l-1.6,2.4l1.3-0.4L190.4,345.6z M157.1,367.1l1.3,1.1
			l1.8,0.2l-0.9-0.9L157.1,367.1z"/>
	</g>
</g>
</svg>
