<?xml version="1.0" encoding="utf-8"?>
<!-- Generator: Adobe Illustrator 23.0.0, SVG Export Plug-In . SVG Version: 6.00 Build 0)  -->
<svg version="1.0" id="Layer_1" xmlns="http://www.w3.org/2000/svg" xmlns:xlink="http://www.w3.org/1999/xlink" x="0px" y="0px"
	 width="50px" height="50px" viewBox="0 0 50 50" enable-background="new 0 0 50 50" xml:space="preserve">
<g>
	<g>
		<path opacity="0.1" fill="#FFC000" enable-background="new    " d="M17.7,16.4c0.1,0.7,0.1,1.3,0.2,2c2,0.3,3,0.4,5.2,0.8
			c0.1,0,0.2,0.1,0.3,0.3c0.4,0.2-1.6,1.1-1.6,1.1c-1.4-0.3-2.1-0.4-3.6-0.6c0.2,1.9,0.5,3.5,0.7,4.6c0.2,0.9,0.7,1.8,1.5,2.6
			c0.1,0.1,0.1,0.1,0.2,0.2c0.6,0.6,1.2,1,1.9,1.3c0.1-0.3,0.4-0.5,0.7-0.5c0.4,0,0.8,0.3,0.8,0.6c0,0.3,0,0.4,0,0.7
			c0.1,4.2,0.2,6,0.3,9.2c0.3,0.1,0.6,0.1,0.9,0.1V16.4C22.8,16.4,20.6,16.4,17.7,16.4z"/>
	</g>
	<g>
		<path fill="none" d="M17.5,18.4c2.1,0.2,3.1,0.4,5.2,0.8c0.1,0,0.2,0.1,0.3,0.3c0.4,0.2-1.6,1.1-1.6,1.1c-1.4-0.2-2.1-0.3-3.6-0.6
			c0.2,1.9,0.5,3.5,0.7,4.6c0.3,0.9,0.7,1.8,1.5,2.6c0.1,0.1,0.1,0.1,0.2,0.2c0.5,0.6,1.1,1,1.9,1.3c0.1-0.3,0.4-0.5,0.7-0.5
			c0.4,0,0.8,0.2,0.8,0.6c0,0.3,0,0.4,0,0.7c0.1,4.2,0.2,6,0.3,9.2c0.4,0.1,0.9,0.2,1.3,0.1V16.4c-2.3,0-4.6,0-7.7,0
			C17.4,17.1,17.4,17.7,17.5,18.4z"/>
		<path fill="none" d="M22.9,7.4c0.4,0.9,0.6,1.3,0.9,2.2c0.1,0,0.1,0.1,0.1,0.2c0.1,1.1,0.2,1.5,0.4,2.6c0.1,0.4-0.2,0.8-0.6,0.9
			c-0.5,0-0.8-0.3-0.8-0.7c-0.2-1-0.2-1.5-0.4-2.5c-0.3-0.5-0.3-0.7-0.6-1.2c-1.7,0.1-3.2,0.4-4.8,0.9c0,1,0.2,2.8,0.5,5
			c3,0,5.2,0.1,7.4,0.1V6.5c0,0,0,0,0,0C23.3,6.5,22.9,6.6,22.9,7.4z"/>
		<path opacity="0.2" fill="#FFC000" enable-background="new    " d="M23.7,38.7c-0.1-3.2-0.2-5-0.3-9.2c0-0.3,0-0.4,0-0.7
			c0-0.4-0.4-0.6-0.8-0.6c-0.3,0-0.6,0.2-0.7,0.5c-0.8-0.3-1.4-0.7-1.9-1.3c-0.1-0.1-0.1-0.1-0.2-0.2c-0.8-0.8-1.2-1.7-1.5-2.6
			c-0.2-1.1-0.5-2.7-0.7-4.6c1.5,0.3,2.2,0.4,3.6,0.6c0,0,2-0.9,1.6-1.1c-0.1-0.2-0.2-0.3-0.3-0.3c-2.1-0.4-3.1-0.6-5.2-0.8
			c-0.1-0.7-0.1-1.3-0.2-2c3.1,0,5.4,0,7.7,0v-1.5c-2.2,0-4.4,0-7.4-0.1c-0.3-2.2-0.5-4-0.5-5c1.6-0.5,3.1-0.8,4.8-0.9
			c0.3,0.5,0.3,0.7,0.6,1.2c0.2,1,0.2,1.5,0.4,2.5c0.1,0.4,0.4,0.7,0.8,0.7c0.4-0.1,0.7-0.5,0.6-0.9c-0.2-1.1-0.3-1.5-0.4-2.6
			c0-0.1,0-0.2-0.1-0.2c-0.4-0.9-0.6-1.3-0.9-2.2c0-0.8,0.4-0.9,2.1-0.9c0,0,0,0,0,0V5c0,0-0.1,0-0.1,0c-0.8-0.1-1.5,0-2.3,0.3
			c-0.8,0.4-1.2,1.2-1.2,2.1c-1.8,0.2-3.6,0.5-5.4,1.1C12,16.1,9.2,19.8,4,28.6c0,0,0,0,0,0.1c0,0.1-0.1,0.2,0,0.4v0.1v0.1v0.1
			c0.1,0.1,0.1,0.2,0.2,0.3c0,0,0,0,0.1,0.1c0.1,0.1,0.2,0.1,0.3,0.1c4.4,0.6,7.2,3.7,7.7,7.1c0.3,1.9,0.5,2.8,0.9,4.4
			c0.2,0.8,0.7,1.5,1.3,2c0,0,0,0.1,0.1,0.1c1.9,1.5,4.4,1.7,6.8,1.3c0.3,0,0.6-0.2,0.5-0.5c-0.8-4.4-1-7.5-1.1-15
			c0.6,0.3,1.2,0.6,1.8,0.8c0.1,4.1,0.2,5.9,0.4,9.1c0,0.2,0.1,0.3,0.3,0.4c0.5,0.2,1.1,0.3,1.7,0.3v-1.1
			C24.6,38.9,24.2,38.8,23.7,38.7z"/>
	</g>
	<g>
		<path fill="none" d="M15.8,11.7c-1.5,2.5-2.2,3.7-3.8,6.5c1.8-0.1,2.6-0.1,4.3-0.1C16.2,15.8,16,13.4,15.8,11.7z"/>
		<path fill="none" d="M18.9,32.4c-2.7,0.1-4.1,0.3-7,0.8c0.4,0.8,0.8,1.7,1,2.5c2.4-0.4,3.6-0.5,6-0.7C19,34,19,33.4,18.9,32.4z"/>
		<path fill="none" d="M17.6,14.8c-0.3-2.2-0.5-3.9-0.5-4.9c0,0-0.1,0-0.1,0C17,10.9,17.2,12.7,17.6,14.8C20.5,15,22.8,15,25,15
			v-0.1C22.8,14.9,20.6,14.9,17.6,14.8z"/>
		<path fill="none" d="M17.2,24.8c-0.1-0.1-0.1-0.4-0.2-0.7c-3.5,0.2-5.4,0.2-9.1,0.6c-0.8,1.4-1.2,2.1-2.1,3.5
			c5.2-0.8,7.5-1,12.3-1.2C17.7,26.4,17.3,25.6,17.2,24.8z"/>
		<path fill="none" d="M13.9,40.5c0,0.2,0,0.4,0.1,0.6c0.1,0.4,0.5,1,0.9,1.3c1.9-0.6,2.9-0.7,4.8-1c-0.2-0.7-0.2-1.1-0.3-2
			C17.2,39.7,16.2,39.9,13.9,40.5z"/>
		<path fill="none" d="M17.6,18.3c2.1,0.2,3.1,0.4,5.2,0.8c0.1,0,0.2,0.1,0.3,0.3c0.4,0.2-1.6,1.1-1.6,1.1c-1.4-0.2-2.1-0.3-3.6-0.6
			c0.2,1.9,0.5,3.5,0.7,4.6c0.3,0.9,0.7,1.8,1.5,2.6c0.1,0.1,0.1,0.1,0.2,0.2c0.5,0.6,1.1,1,1.9,1.3c0.1-0.3,0.4-0.5,0.7-0.5
			c0.4,0,0.8,0.2,0.8,0.6c0,0.3,0,0.4,0,0.7c0.1,4.2,0.2,6,0.3,9.2c0.4,0.1,0.8,0.2,1.2,0.1V16.3c-2.3,0-4.5,0-7.6,0
			C17.5,17,17.5,17.6,17.6,18.3z"/>
		<path fill="none" d="M24.2,12.5c-0.1-1.1-0.2-1.5-0.4-2.6c0-0.1,0-0.2-0.1-0.2c-0.4-0.8-0.6-1.3-0.9-2.2c0-0.2,0-0.4,0.1-0.5
			c-0.1,0.1-0.2,0.3-0.2,0.6c0.4,0.9,0.6,1.3,0.9,2.2c0.1,0,0.1,0.1,0.1,0.2C23.8,11.1,23.9,11.5,24.2,12.5
			c-0.1,0.3-0.1,0.5-0.2,0.6C24.1,13,24.2,12.7,24.2,12.5z"/>
		<path opacity="0.5" fill="#7C6427" enable-background="new    " d="M23.8,38.6c-0.1-3.2-0.2-5-0.3-9.2c0-0.3,0-0.4,0-0.7
			c0-0.4-0.4-0.6-0.8-0.6c-0.3,0-0.6,0.2-0.7,0.5c-0.8-0.3-1.4-0.7-1.9-1.3c-0.1-0.1-0.1-0.1-0.2-0.2c-0.8-0.8-1.2-1.7-1.5-2.6
			c-0.2-1.1-0.5-2.7-0.7-4.6c1.5,0.3,2.2,0.4,3.6,0.6c0,0,2-0.9,1.6-1.1c-0.1-0.2-0.2-0.3-0.3-0.3c-2.1-0.4-3.1-0.6-5.2-0.8
			c-0.1-0.7-0.1-1.3-0.2-2c3.1,0,5.3,0,7.6,0V15c-2.2,0-4.5,0-7.5-0.1c-0.3-2.2-0.5-4-0.5-5c0,0,0.1,0,0.1,0c0,0,0,0,0-0.1
			c1.6-0.5,3.2-0.8,4.8-0.9c0.3,0.5,0.3,0.7,0.6,1.2c0.2,1,0.2,1.5,0.4,2.5c0.1,0.4,0.5,0.7,0.8,0.7c0.2,0,0.3-0.1,0.4-0.3
			c0.1-0.2,0.1-0.4,0.1-0.5c-0.2-1.1-0.3-1.5-0.4-2.6c0-0.1,0-0.2-0.1-0.2c-0.4-0.9-0.6-1.3-0.9-2.2c0-0.3,0.1-0.5,0.2-0.6
			c0.2-0.3,0.7-0.4,2-0.4c0,0,0,0,0,0V5c0,0-0.1,0-0.1,0c-0.8-0.1-1.5,0-2.3,0.3c-0.8,0.4-1.2,1.2-1.2,2.1c-1.8,0.2-3.6,0.5-5.4,1.1
			C12,16.1,9.2,19.8,4,28.6c0,0,0,0,0,0.1c0,0.1-0.1,0.2,0,0.4v0.1v0.1v0.1c0.1,0.1,0.1,0.2,0.2,0.3c0,0,0,0,0.1,0.1
			c0.1,0.1,0.2,0.1,0.3,0.1c4.4,0.6,7.2,3.7,7.7,7.1c0.3,1.9,0.5,2.8,0.9,4.4c0.2,0.8,0.7,1.5,1.3,2c0,0,0,0.1,0.1,0.1
			c1.9,1.5,4.4,1.7,6.8,1.3c0.3,0,0.6-0.2,0.5-0.5c-0.8-4.4-1-7.5-1.1-15c0.6,0.3,1.2,0.6,1.8,0.8c0.1,4.1,0.2,5.9,0.4,9.1
			c0,0.2,0.1,0.3,0.3,0.4c0.5,0.2,1.1,0.3,1.7,0.3v-1.2C24.6,38.8,24.2,38.7,23.8,38.6z M15.8,11.7c0.2,1.7,0.4,4.1,0.6,6.4
			c-1.7,0-2.5,0-4.3,0.1C13.6,15.4,14.3,14.2,15.8,11.7z M5.8,28.2c0.8-1.4,1.3-2.1,2.1-3.5c3.8-0.4,5.7-0.4,9.1-0.6
			c0.1,0.3,0.1,0.6,0.2,0.7c0.1,0.8,0.5,1.6,0.9,2.2C13.4,27.2,11,27.4,5.8,28.2z M13,35.7c-0.2-0.8-0.7-1.7-1-2.5
			c2.8-0.5,4.2-0.7,7-0.8C19,33.4,19,34,19,35C16.6,35.2,15.4,35.3,13,35.7z M15,42.4c-0.5-0.3-0.8-0.9-0.9-1.3
			c-0.1-0.2-0.1-0.4-0.1-0.6c2.3-0.6,3.3-0.8,5.6-1.1c0.1,0.9,0.1,1.3,0.3,2C17.9,41.7,16.9,41.8,15,42.4z"/>
		<path opacity="0.5" fill="#7C6427" enable-background="new    " d="M22.8,7c0.3-0.2,0.8-0.3,1.9-0.3c0.1,0,0.1,0,0.1,0V6.6
			c0,0,0,0,0,0C23.5,6.6,23,6.7,22.8,7z"/>
		<path opacity="0.5" fill="#7C6427" enable-background="new    " d="M22.8,7c0.3-0.2,0.8-0.3,1.9-0.3c0.1,0,0.1,0,0.1,0V6.6
			c0,0,0,0,0,0C23.5,6.6,23,6.7,22.8,7z"/>
		<path opacity="0.5" fill="#7C6427" enable-background="new    " d="M22.4,10.2c0.2,1,0.2,1.5,0.4,2.5c0.1,0.4,0.4,0.7,0.8,0.7
			c0.2,0,0.4-0.2,0.5-0.4c-0.1,0.1-0.2,0.2-0.4,0.3c-0.4,0-0.8-0.3-0.8-0.7C22.7,11.6,22.7,11.1,22.4,10.2c-0.2-0.6-0.2-0.8-0.5-1.3
			c-1.6,0.1-3.2,0.4-4.8,0.9c0,0,0,0,0,0.1c1.6-0.6,3.1-0.8,4.7-0.9C22.1,9.5,22.1,9.7,22.4,10.2z"/>
		<path opacity="0.5" fill="#7C6427" enable-background="new    " d="M22.4,10.2c0.2,1,0.2,1.5,0.4,2.5c0.1,0.4,0.4,0.7,0.8,0.7
			c0.2,0,0.4-0.2,0.5-0.4c-0.1,0.1-0.2,0.2-0.4,0.3c-0.4,0-0.8-0.3-0.8-0.7C22.7,11.6,22.7,11.1,22.4,10.2c-0.2-0.6-0.2-0.8-0.5-1.3
			c-1.6,0.1-3.2,0.4-4.8,0.9c0,0,0,0,0,0.1c1.6-0.6,3.1-0.8,4.7-0.9C22.1,9.5,22.1,9.7,22.4,10.2z"/>
	</g>
	<g>
		<path fill="none" d="M19,32.4c-2.7,0.2-4.1,0.3-7,0.8c0.4,0.8,0.8,1.7,1,2.5c2.4-0.5,3.6-0.6,5.9-0.8C18.9,33.9,18.9,33.4,19,32.4
			z"/>
		<path fill="none" d="M15.7,43.2c1.3,0.8,2.8,0.9,4.4,0.8c-0.1-0.7-0.3-1-0.4-1.7C18.2,42.5,17.3,42.8,15.7,43.2z"/>
		<path fill="none" d="M19.1,36c-2.4,0.3-3.5,0.4-5.8,0.9c0.1,1,0.2,1.5,0.4,2.4c2.3-0.5,3.4-0.7,5.7-1C19.2,37.5,19.1,37,19.1,36z"
			/>
		<path fill="none" d="M19.6,39.3c-2.3,0.3-3.3,0.5-5.6,1.1c0,0.2,0,0.4,0.1,0.6c0.1,0.5,0.5,1,0.8,1.4c1.9-0.5,2.9-0.7,4.8-1
			C19.5,40.6,19.5,40.2,19.6,39.3z"/>
		<path fill="none" d="M18.9,28.4c-4.3,0.2-6.5,0.4-11.1,1.1c1,0.6,1.9,1.2,2.7,2c0.1,0.2,0.3,0.3,0.5,0.5c3.2-0.6,4.9-0.7,7.9-0.9
			C18.8,30.1,18.8,29.4,18.9,28.4z"/>
		<path fill="none" d="M17.6,18.4c2.1,0.2,3.1,0.4,5.2,0.8c0.1,0,0.2,0.1,0.3,0.3c0.4,0.2-1.6,1.1-1.6,1.1c-1.4-0.2-2.1-0.3-3.6-0.6
			c0.2,1.9,0.5,3.5,0.7,4.6c0.3,0.9,0.7,1.8,1.5,2.6c0.1,0.1,0.1,0.1,0.2,0.2c0.5,0.6,1.1,1,1.9,1.3c0.1-0.3,0.4-0.5,0.7-0.5
			c0.4,0,0.8,0.2,0.8,0.6c0,0.3,0,0.4,0,0.7c0.1,4.2,0.2,6,0.3,9.2c0.4,0.1,0.8,0.2,1.2,0.1V16.4c-2.3,0-4.5,0-7.6,0
			C17.5,17.1,17.5,17.7,17.6,18.4z"/>
		<path fill="none" d="M17.1,24.8c-0.1-0.1-0.1-0.4-0.2-0.7c-3.5,0.2-5.4,0.2-9.1,0.6c-0.8,1.4-1.2,2.1-2,3.3
			c5.2-0.7,7.4-0.9,12.2-1.1C17.6,26.3,17.3,25.5,17.1,24.8z"/>
		<path fill="none" d="M22.8,7.5c0.4,0.9,0.6,1.3,0.9,2.2c0.1,0,0.1,0.1,0.1,0.2c0.1,1.1,0.2,1.5,0.4,2.6c0.1,0.4-0.2,0.8-0.6,0.9
			c-0.5,0-0.8-0.3-0.8-0.7c-0.2-1-0.2-1.5-0.4-2.5c-0.3-0.5-0.3-0.7-0.6-1.2c-1.6,0.1-3.2,0.3-4.8,0.9c0,1,0.2,2.8,0.5,5
			c3,0.1,5.2,0.1,7.5,0.1V6.6c0,0-0.1,0-0.1,0C23.2,6.6,22.8,6.7,22.8,7.5z"/>
		<path fill="none" d="M16.5,19.6c-2.2,0-3.2,0.1-5.5,0.1c-0.8,1.4-1.2,2-2.1,3.3c3.3-0.2,4.8-0.4,7.9-0.4
			C16.7,21.7,16.6,20.6,16.5,19.6z"/>
		<path fill="none" d="M15.8,11.7c-1.5,2.5-2.2,3.7-3.8,6.5c1.8-0.1,2.5-0.1,4.3-0.1C16.2,15.8,16,13.4,15.8,11.7z"/>
		<path fill="#FFC000" d="M23.8,38.7c-0.1-3.2-0.2-5-0.3-9.2c0-0.3,0-0.4,0-0.7c0-0.4-0.4-0.6-0.8-0.6c-0.3,0-0.6,0.2-0.7,0.5
			c-0.8-0.3-1.4-0.7-1.9-1.3c-0.1-0.1-0.1-0.1-0.2-0.2c-0.8-0.8-1.2-1.7-1.5-2.6c-0.2-1.1-0.5-2.7-0.7-4.6c1.5,0.3,2.2,0.4,3.6,0.6
			c0,0,2-0.9,1.6-1.1c-0.1-0.2-0.2-0.3-0.3-0.3c-2.1-0.4-3.1-0.6-5.2-0.8c-0.1-0.7-0.1-1.3-0.2-2c3.1,0,5.3,0,7.6,0V15
			c-2.2,0-4.5,0-7.5-0.1c-0.3-2.2-0.5-4-0.5-5c1.6-0.6,3.2-0.8,4.8-0.9c0.3,0.5,0.3,0.7,0.6,1.2c0.2,1,0.2,1.5,0.4,2.5
			c0.1,0.4,0.4,0.7,0.8,0.7c0.4-0.1,0.7-0.5,0.6-0.9c-0.2-1.1-0.3-1.5-0.4-2.6c0-0.1,0-0.2-0.1-0.2c-0.4-0.9-0.6-1.3-0.9-2.2
			c0-0.8,0.4-0.9,2.1-0.9c0.1,0,0.1,0,0.1,0V5c0,0-0.1,0-0.1,0c-0.8-0.1-1.5,0-2.3,0.3c-0.8,0.4-1.2,1.2-1.2,2.1
			c-1.8,0.2-3.6,0.5-5.4,1.1C12,16.1,9.2,19.8,4,28.6c0,0,0,0,0,0.1c0,0.1-0.1,0.2,0,0.4v0.1v0.1v0.1c0.1,0.1,0.1,0.2,0.2,0.3
			c0,0,0,0,0.1,0.1c0.1,0.1,0.2,0.1,0.3,0.1c4.3,0.5,7.2,3.7,7.7,7.1c0.3,1.9,0.5,2.8,0.9,4.4c0.2,0.8,0.7,1.5,1.3,2
			c0,0,0,0.1,0.1,0.1c1.9,1.5,4.4,1.7,6.8,1.3c0.3,0,0.6-0.2,0.5-0.5c-0.8-4.4-1-7.5-1.1-15c0.6,0.3,1.2,0.6,1.8,0.8
			c0.1,4.1,0.2,5.9,0.4,9.1c0,0.2,0.1,0.3,0.3,0.4c0.5,0.2,1.1,0.3,1.7,0.3v-1.1C24.6,38.9,24.2,38.8,23.8,38.7z M15.8,11.7
			c0.2,1.7,0.4,4.1,0.6,6.4c-1.8,0-2.5,0-4.3,0.1C13.6,15.4,14.3,14.2,15.8,11.7z M11,19.7c2.3,0,3.3-0.1,5.5-0.1
			c0.1,1,0.2,2.1,0.4,3c-3.1,0-4.6,0.2-7.9,0.4C9.8,21.7,10.3,21.1,11,19.7z M7.8,24.7c3.8-0.4,5.7-0.4,9.1-0.6
			c0.1,0.3,0.1,0.6,0.2,0.7c0.2,0.7,0.5,1.5,0.9,2.1C13.3,27.1,11,27.3,5.8,28C6.6,26.8,7.1,26.1,7.8,24.7z M10.5,31.5
			c-0.8-0.8-1.7-1.4-2.7-2c4.6-0.7,6.8-0.9,11.1-1.1c-0.1,1-0.1,1.7,0,2.7c-3,0.2-4.7,0.3-7.9,0.9C10.8,31.8,10.6,31.7,10.5,31.5z
			 M13.1,35.7c-0.2-0.8-0.7-1.7-1-2.5c2.8-0.5,4.2-0.6,7-0.8c-0.1,1-0.1,1.5,0,2.5C16.7,35.1,15.4,35.2,13.1,35.7z M13.3,36.9
			c2.4-0.5,3.5-0.6,5.8-0.9c0,1,0.1,1.5,0.2,2.3c-2.3,0.3-3.4,0.5-5.7,1C13.5,38.4,13.4,37.9,13.3,36.9z M14.1,41
			C14,40.8,14,40.6,14,40.4c2.3-0.6,3.3-0.8,5.6-1.1c-0.1,0.9-0.1,1.3,0.1,2.1c-1.9,0.3-2.9,0.5-4.8,1C14.6,42,14.2,41.5,14.1,41z
			 M15.7,43.2c1.6-0.4,2.4-0.7,4.1-0.9c0.1,0.7,0.3,1,0.4,1.7C18.5,44.1,17,44,15.7,43.2z"/>
	</g>
</g>
<g>
	<g>
		<path opacity="0.1" fill="#FFC000" enable-background="new    " d="M32.3,16.4c-0.1,0.7-0.1,1.3-0.2,2c-2,0.3-3,0.4-5.2,0.8
			c-0.1,0-0.2,0.1-0.3,0.3c-0.4,0.2,1.6,1.1,1.6,1.1c1.4-0.3,2.1-0.4,3.6-0.6c-0.2,1.9-0.5,3.5-0.7,4.6c-0.2,0.9-0.7,1.8-1.5,2.6
			c-0.1,0.1-0.1,0.1-0.2,0.2c-0.6,0.6-1.2,1-1.9,1.3c-0.1-0.3-0.4-0.5-0.7-0.5c-0.4,0-0.8,0.3-0.8,0.6c0,0.3,0,0.4,0,0.7
			c-0.1,4.2-0.2,6-0.3,9.2c-0.3,0.1-0.6,0.1-0.9,0.1V16.4C27.2,16.4,29.4,16.4,32.3,16.4z"/>
	</g>
	<g>
		<path fill="none" d="M32.5,18.4c-2.1,0.2-3.1,0.4-5.2,0.8c-0.1,0-0.2,0.1-0.3,0.3c-0.4,0.2,1.6,1.1,1.6,1.1
			c1.4-0.2,2.1-0.3,3.6-0.6c-0.2,1.9-0.5,3.5-0.7,4.6c-0.3,0.9-0.7,1.8-1.5,2.6c-0.1,0.1-0.1,0.1-0.2,0.2c-0.5,0.6-1.1,1-1.9,1.3
			c-0.1-0.3-0.4-0.5-0.7-0.5c-0.4,0-0.8,0.2-0.8,0.6c0,0.3,0,0.4,0,0.7c-0.1,4.2-0.2,6-0.3,9.2c-0.4,0.1-0.9,0.2-1.3,0.1V16.4
			c2.3,0,4.6,0,7.7,0C32.6,17.1,32.6,17.7,32.5,18.4z"/>
		<path fill="none" d="M27.1,7.4c-0.4,0.9-0.6,1.3-0.9,2.2c-0.1,0-0.1,0.1-0.1,0.2c-0.1,1.1-0.2,1.5-0.4,2.6
			c-0.1,0.4,0.2,0.8,0.6,0.9c0.5,0,0.8-0.3,0.8-0.7c0.2-1,0.2-1.5,0.4-2.5c0.3-0.5,0.3-0.7,0.6-1.2c1.7,0.1,3.2,0.4,4.8,0.9
			c0,1-0.2,2.8-0.5,5c-3,0-5.2,0.1-7.4,0.1V6.5c0,0,0,0,0,0C26.7,6.5,27.1,6.6,27.1,7.4z"/>
		<path opacity="0.2" fill="#FFC000" enable-background="new    " d="M26.3,38.7c0.1-3.2,0.2-5,0.3-9.2c0-0.3,0-0.4,0-0.7
			c0-0.4,0.4-0.6,0.8-0.6c0.3,0,0.6,0.2,0.7,0.5c0.8-0.3,1.4-0.7,1.9-1.3c0.1-0.1,0.1-0.1,0.2-0.2c0.8-0.8,1.2-1.7,1.5-2.6
			c0.2-1.1,0.5-2.7,0.7-4.6c-1.5,0.3-2.2,0.4-3.6,0.6c0,0-2-0.9-1.6-1.1c0.1-0.2,0.2-0.3,0.3-0.3c2.1-0.4,3.1-0.6,5.2-0.8
			c0.1-0.7,0.1-1.3,0.2-2c-3.1,0-5.4,0-7.7,0v-1.5c2.2,0,4.4,0,7.4-0.1c0.3-2.2,0.5-4,0.5-5c-1.6-0.5-3.1-0.8-4.8-0.9
			c-0.3,0.5-0.3,0.7-0.6,1.2c-0.2,1-0.2,1.5-0.4,2.5c-0.1,0.4-0.4,0.7-0.8,0.7c-0.4-0.1-0.7-0.5-0.6-0.9c0.2-1.1,0.3-1.5,0.4-2.6
			c0-0.1,0-0.2,0.1-0.2c0.4-0.9,0.6-1.3,0.9-2.2c0-0.8-0.4-0.9-2.1-0.9c0,0,0,0,0,0V5c0,0,0.1,0,0.1,0c0.8-0.1,1.5,0,2.3,0.3
			c0.8,0.4,1.2,1.2,1.2,2.1c1.8,0.2,3.6,0.5,5.4,1.1c4.1,7.6,6.8,11.3,12,20.1c0,0,0,0,0,0.1c0,0.1,0.1,0.2,0,0.4v0.1v0.1v0.1
			c-0.1,0.1-0.1,0.2-0.2,0.3c0,0,0,0-0.1,0.1c-0.1,0.1-0.2,0.1-0.3,0.1c-4.4,0.6-7.2,3.7-7.7,7.1c-0.3,1.9-0.5,2.8-0.9,4.4
			c-0.2,0.8-0.7,1.5-1.3,2c0,0,0,0.1-0.1,0.1c-1.9,1.5-4.4,1.7-6.8,1.3c-0.3,0-0.6-0.2-0.5-0.5c0.8-4.4,1-7.5,1.1-15
			c-0.6,0.3-1.2,0.6-1.8,0.8c-0.1,4.1-0.2,5.9-0.4,9.1c0,0.2-0.1,0.3-0.3,0.4c-0.5,0.2-1.1,0.3-1.7,0.3v-1.1
			C25.4,38.9,25.8,38.8,26.3,38.7z"/>
	</g>
	<g>
		<path fill="none" d="M34.2,11.7c1.5,2.5,2.2,3.7,3.8,6.5c-1.8-0.1-2.6-0.1-4.3-0.1C33.8,15.8,34,13.4,34.2,11.7z"/>
		<path fill="none" d="M31.1,32.4c2.7,0.1,4.1,0.3,7,0.8c-0.4,0.8-0.8,1.7-1,2.5c-2.4-0.4-3.6-0.5-6-0.7C31,34,31,33.4,31.1,32.4z"
			/>
		<path fill="none" d="M32.4,14.8c0.3-2.2,0.5-3.9,0.5-4.9c0,0,0.1,0,0.1,0C33,10.9,32.8,12.7,32.4,14.8C29.5,15,27.2,15,25,15v-0.1
			C27.2,14.9,29.4,14.9,32.4,14.8z"/>
		<path fill="none" d="M32.8,24.8c0.1-0.1,0.1-0.4,0.2-0.7c3.5,0.2,5.4,0.2,9.1,0.6c0.8,1.4,1.2,2.1,2.1,3.5
			c-5.2-0.8-7.5-1-12.3-1.2C32.3,26.4,32.7,25.6,32.8,24.8z"/>
		<path fill="none" d="M36.1,40.5c0,0.2,0,0.4-0.1,0.6c-0.1,0.4-0.5,1-0.9,1.3c-1.9-0.6-2.9-0.7-4.8-1c0.2-0.7,0.2-1.1,0.3-2
			C32.8,39.7,33.8,39.9,36.1,40.5z"/>
		<path fill="none" d="M32.4,18.3c-2.1,0.2-3.1,0.4-5.2,0.8c-0.1,0-0.2,0.1-0.3,0.3c-0.4,0.2,1.6,1.1,1.6,1.1
			c1.4-0.2,2.1-0.3,3.6-0.6c-0.2,1.9-0.5,3.5-0.7,4.6c-0.3,0.9-0.7,1.8-1.5,2.6c-0.1,0.1-0.1,0.1-0.2,0.2c-0.5,0.6-1.1,1-1.9,1.3
			c-0.1-0.3-0.4-0.5-0.7-0.5c-0.4,0-0.8,0.2-0.8,0.6c0,0.3,0,0.4,0,0.7c-0.1,4.2-0.2,6-0.3,9.2c-0.4,0.1-0.8,0.2-1.2,0.1V16.3
			c2.3,0,4.5,0,7.6,0C32.5,17,32.5,17.6,32.4,18.3z"/>
		<path fill="none" d="M25.7,12.4c0.1-1.1,0.2-1.5,0.4-2.6c0-0.1,0-0.2,0.1-0.2c0.4-0.8,0.6-1.3,0.9-2.2c0-0.2,0-0.4-0.1-0.5
			c0.1,0.1,0.2,0.3,0.2,0.6c-0.4,0.9-0.6,1.3-0.9,2.2c-0.1,0-0.1,0.1-0.1,0.2C26.1,11,26,11.4,25.7,12.4c0.1,0.3,0.1,0.5,0.2,0.6
			C25.7,12.9,25.7,12.7,25.7,12.4z"/>
		<path opacity="0.5" fill="#7C6427" enable-background="new    " d="M25,38.8V40c0.6,0,1.2-0.1,1.7-0.3c0.2-0.1,0.3-0.2,0.3-0.4
			c0.2-3.2,0.3-5,0.4-9.1c0.6-0.2,1.2-0.5,1.8-0.8c-0.1,7.5-0.4,10.6-1.1,15c-0.1,0.3,0.2,0.5,0.5,0.5c2.4,0.4,4.9,0.2,6.8-1.3
			c0.1,0,0.1-0.1,0.1-0.1c0.7-0.5,1.1-1.2,1.3-2c0.5-1.6,0.7-2.5,0.9-4.4c0.6-3.4,3.3-6.5,7.7-7.1c0.1,0,0.2,0,0.3-0.1
			c0.1-0.1,0.1-0.1,0.1-0.1c0.1-0.1,0.1-0.2,0.2-0.3v-0.1v-0.1v-0.1c0.1-0.2,0-0.3,0-0.4c0-0.1,0-0.1,0-0.1
			C40.8,19.8,38,16.1,34,8.5c-1.8-0.6-3.6-0.9-5.4-1.1c0-0.9-0.5-1.7-1.2-2.1C26.6,5,26,4.9,25.1,5c0,0-0.1,0-0.1,0v1.5c0,0,0,0,0,0
			c1.3,0,1.8,0.1,2,0.4c0.1,0.1,0.2,0.3,0.2,0.6c-0.4,0.9-0.6,1.3-0.9,2.2c-0.1,0-0.1,0.1-0.1,0.2c-0.1,1.1-0.2,1.5-0.4,2.6
			c0,0.2,0,0.4,0.1,0.5c0.1,0.1,0.2,0.2,0.4,0.3c0.4,0,0.8-0.3,0.8-0.7c0.2-1,0.2-1.5,0.4-2.5c0.3-0.5,0.3-0.7,0.6-1.2
			c1.6,0.1,3.2,0.4,4.8,0.9c0,0,0,0,0,0.1c0,0,0.1,0,0.1,0c0,1-0.2,2.8-0.5,5C29.5,15,27.2,15,25,15v1.3c2.3,0,4.5,0,7.6,0
			c-0.1,0.7-0.1,1.3-0.2,2c-2.1,0.2-3.1,0.4-5.2,0.8c-0.1,0-0.2,0.1-0.3,0.3c-0.4,0.2,1.6,1.1,1.6,1.1c1.4-0.2,2.1-0.3,3.6-0.6
			c-0.2,1.9-0.5,3.5-0.7,4.6c-0.3,0.9-0.7,1.8-1.5,2.6c-0.1,0.1-0.1,0.1-0.2,0.2c-0.5,0.6-1.1,1-1.9,1.3c-0.1-0.3-0.4-0.5-0.7-0.5
			c-0.4,0-0.8,0.2-0.8,0.6c0,0.3,0,0.4,0,0.7c-0.1,4.2-0.2,6-0.3,9.2C25.8,38.7,25.4,38.8,25,38.8z M38,18.2
			c-1.8-0.1-2.6-0.1-4.3-0.1c0.2-2.3,0.4-4.7,0.6-6.4C35.7,14.2,36.4,15.4,38,18.2z M31.8,27c0.5-0.6,0.8-1.4,0.9-2.2
			c0.1-0.1,0.1-0.4,0.2-0.7c3.5,0.2,5.4,0.2,9.1,0.6c0.8,1.4,1.2,2.1,2.1,3.5C39,27.4,36.6,27.2,31.8,27z M31,35c0-1,0-1.6,0.1-2.6
			c2.7,0.1,4.1,0.3,7,0.8c-0.4,0.8-0.8,1.7-1,2.5C34.6,35.3,33.4,35.2,31,35z M30.2,41.4c0.2-0.7,0.2-1.1,0.3-2
			c2.3,0.3,3.3,0.5,5.6,1.1c0,0.2,0,0.4-0.1,0.6c-0.1,0.4-0.5,1-0.9,1.3C33.1,41.8,32.1,41.7,30.2,41.4z"/>
		<path opacity="0.5" fill="#7C6427" enable-background="new    " d="M28.2,9c-0.3,0.5-0.3,0.7-0.6,1.2c-0.2,1-0.2,1.5-0.4,2.5
			c-0.1,0.4-0.4,0.7-0.8,0.7c-0.2,0-0.4-0.2-0.5-0.4c-0.1-0.2-0.2-0.4-0.2-0.6c0.1-1.1,0.2-1.5,0.4-2.6c0-0.1,0-0.2,0.1-0.2
			c0.4-0.8,0.6-1.3,0.9-2.2c0-0.2,0-0.4-0.1-0.5c-0.3-0.2-0.8-0.3-1.9-0.3c-0.1,0-0.1,0-0.1,0c0,0-0.1,0-0.1,0c-1.1,0-1.6,0-1.9,0.3
			c-0.1,0.1-0.1,0.3-0.1,0.5c0.4,0.9,0.6,1.4,0.9,2.2c0.1,0,0.1,0.1,0.1,0.2c0.2,1.1,0.3,1.5,0.4,2.6c0.1,0.2,0,0.5-0.2,0.6
			c-0.1,0.2-0.3,0.4-0.5,0.4c-0.5,0-0.8-0.3-0.8-0.7c-0.2-1-0.2-1.5-0.4-2.5c-0.3-0.5-0.3-0.7-0.6-1.2c-1.6,0.1-3.1,0.3-4.7,0.9
			c0,1,0.2,2.8,0.5,4.9c3,0,5.2,0.1,7.4,0.1s4.4,0,7.4-0.1c0.3-2.2,0.5-3.9,0.5-4.9C31.3,9.3,29.7,9.1,28.2,9z"/>
		<path opacity="0.5" fill="#7C6427" enable-background="new    " d="M27,6.9c-0.3-0.2-0.8-0.3-1.9-0.3c-0.1,0-0.1,0-0.1,0V6.5
			c0,0,0,0,0,0C26.3,6.5,26.8,6.6,27,6.9z"/>
		<path opacity="0.5" fill="#7C6427" enable-background="new    " d="M27,6.9c-0.3-0.2-0.8-0.3-1.9-0.3c-0.1,0-0.1,0-0.1,0V6.5
			c0,0,0,0,0,0C26.3,6.5,26.8,6.6,27,6.9z"/>
		<path opacity="0.5" fill="#7C6427" enable-background="new    " d="M27.6,10.2c-0.2,1-0.2,1.5-0.4,2.5c-0.1,0.4-0.4,0.7-0.8,0.7
			c-0.2,0-0.4-0.2-0.5-0.4c0.1,0.1,0.2,0.2,0.4,0.3c0.4,0,0.8-0.3,0.8-0.7C27.3,11.6,27.3,11.1,27.6,10.2c0.2-0.6,0.2-0.8,0.5-1.3
			c1.6,0.1,3.2,0.4,4.8,0.9c0,0,0,0,0,0.1c-1.6-0.6-3.1-0.8-4.7-0.9C27.9,9.5,27.9,9.7,27.6,10.2z"/>
		<path opacity="0.5" fill="#7C6427" enable-background="new    " d="M27.6,10.2c-0.2,1-0.2,1.5-0.4,2.5c-0.1,0.4-0.4,0.7-0.8,0.7
			c-0.2,0-0.4-0.2-0.5-0.4c0.1,0.1,0.2,0.2,0.4,0.3c0.4,0,0.8-0.3,0.8-0.7C27.3,11.6,27.3,11.1,27.6,10.2c0.2-0.6,0.2-0.8,0.5-1.3
			c1.6,0.1,3.2,0.4,4.8,0.9c0,0,0,0,0,0.1c-1.6-0.6-3.1-0.8-4.7-0.9C27.9,9.5,27.9,9.7,27.6,10.2z"/>
	</g>
	<g>
		<path fill="none" d="M31,32.4c2.7,0.2,4.1,0.3,7,0.8c-0.4,0.8-0.8,1.7-1,2.5c-2.4-0.5-3.6-0.6-5.9-0.8
			C31.1,33.9,31.1,33.4,31,32.4z"/>
		<path fill="none" d="M34.3,43.2C33,44,31.5,44.1,29.9,44c0.1-0.7,0.3-1,0.4-1.7C31.8,42.5,32.7,42.8,34.3,43.2z"/>
		<path fill="none" d="M30.9,36c2.4,0.3,3.5,0.4,5.8,0.9c-0.1,1-0.2,1.5-0.4,2.4c-2.3-0.5-3.4-0.7-5.7-1C30.8,37.5,30.9,37,30.9,36z
			"/>
		<path fill="none" d="M30.4,39.3c2.3,0.3,3.3,0.5,5.6,1.1c0,0.2,0,0.4-0.1,0.6c-0.1,0.5-0.5,1-0.8,1.4c-1.9-0.5-2.9-0.7-4.8-1
			C30.5,40.6,30.5,40.2,30.4,39.3z"/>
		<path fill="none" d="M31.1,28.4c4.3,0.2,6.5,0.4,11.1,1.1c-1,0.6-1.9,1.2-2.7,2c-0.1,0.2-0.3,0.3-0.5,0.5
			c-3.2-0.6-4.9-0.7-7.9-0.9C31.2,30.1,31.2,29.4,31.1,28.4z"/>
		<path fill="none" d="M32.4,18.4c-2.1,0.2-3.1,0.4-5.2,0.8c-0.1,0-0.2,0.1-0.3,0.3c-0.4,0.2,1.6,1.1,1.6,1.1
			c1.4-0.2,2.1-0.3,3.6-0.6c-0.2,1.9-0.5,3.5-0.7,4.6c-0.3,0.9-0.7,1.8-1.5,2.6c-0.1,0.1-0.1,0.1-0.2,0.2c-0.5,0.6-1.1,1-1.9,1.3
			c-0.1-0.3-0.4-0.5-0.7-0.5c-0.4,0-0.8,0.2-0.8,0.6c0,0.3,0,0.4,0,0.7c-0.1,4.2-0.2,6-0.3,9.2c-0.4,0.1-0.8,0.2-1.2,0.1V16.4
			c2.3,0,4.5,0,7.6,0C32.5,17.1,32.5,17.7,32.4,18.4z"/>
		<path fill="none" d="M32.9,24.8c0.1-0.1,0.1-0.4,0.2-0.7c3.5,0.2,5.4,0.2,9.1,0.6c0.8,1.4,1.2,2.1,2,3.3
			c-5.2-0.7-7.4-0.9-12.2-1.1C32.4,26.3,32.7,25.5,32.9,24.8z"/>
		<path fill="none" d="M27.2,7.5c-0.4,0.9-0.6,1.3-0.9,2.2c-0.1,0-0.1,0.1-0.1,0.2c-0.1,1.1-0.2,1.5-0.4,2.6
			c-0.1,0.4,0.2,0.8,0.6,0.9c0.5,0,0.8-0.3,0.8-0.7c0.2-1,0.2-1.5,0.4-2.5c0.3-0.5,0.3-0.7,0.6-1.2c1.6,0.1,3.2,0.3,4.8,0.9
			c0,1-0.2,2.8-0.5,5C29.5,15,27.2,15,25,15V6.6c0,0,0.1,0,0.1,0C26.8,6.6,27.2,6.7,27.2,7.5z"/>
		<path fill="none" d="M33.5,19.6c2.2,0,3.2,0.1,5.5,0.1c0.8,1.4,1.2,2,2.1,3.3c-3.3-0.2-4.8-0.4-7.9-0.4
			C33.3,21.7,33.4,20.6,33.5,19.6z"/>
		<path fill="none" d="M34.2,11.7c1.5,2.5,2.2,3.7,3.8,6.5c-1.8-0.1-2.5-0.1-4.3-0.1C33.8,15.8,34,13.4,34.2,11.7z"/>
		<path fill="#FFC000" d="M25,38.9V40c0.6,0,1.2-0.1,1.7-0.3c0.2-0.1,0.3-0.2,0.3-0.4c0.2-3.2,0.3-5,0.4-9.1
			c0.6-0.2,1.2-0.5,1.8-0.8c-0.1,7.5-0.4,10.6-1.1,15c-0.1,0.3,0.2,0.5,0.5,0.5c2.4,0.4,4.9,0.2,6.8-1.3c0.1,0,0.1-0.1,0.1-0.1
			c0.7-0.5,1.1-1.2,1.3-2c0.5-1.6,0.7-2.5,0.9-4.4c0.6-3.4,3.4-6.6,7.7-7.1c0.1,0,0.2,0,0.3-0.1c0.1-0.1,0.1-0.1,0.1-0.1
			c0.1-0.1,0.1-0.2,0.2-0.3v-0.1v-0.1v-0.1c0.1-0.2,0-0.3,0-0.4c0-0.1,0-0.1,0-0.1C40.8,19.8,38,16.1,34,8.5
			c-1.8-0.6-3.6-0.9-5.4-1.1c0-0.9-0.5-1.7-1.2-2.1C26.6,5,26,4.9,25.1,5c0,0-0.1,0-0.1,0v1.6c0,0,0.1,0,0.1,0
			c1.7,0,2.1,0.1,2.1,0.9c-0.4,0.9-0.6,1.3-0.9,2.2c-0.1,0-0.1,0.1-0.1,0.2c-0.1,1.1-0.2,1.5-0.4,2.6c-0.1,0.4,0.2,0.8,0.6,0.9
			c0.5,0,0.8-0.3,0.8-0.7c0.2-1,0.2-1.5,0.4-2.5c0.3-0.5,0.3-0.7,0.6-1.2c1.6,0.1,3.2,0.3,4.8,0.9c0,1-0.2,2.8-0.5,5
			C29.5,15,27.2,15,25,15v1.4c2.3,0,4.5,0,7.6,0c-0.1,0.7-0.1,1.3-0.2,2c-2.1,0.2-3.1,0.4-5.2,0.8c-0.1,0-0.2,0.1-0.3,0.3
			c-0.4,0.2,1.6,1.1,1.6,1.1c1.4-0.2,2.1-0.3,3.6-0.6c-0.2,1.9-0.5,3.5-0.7,4.6c-0.3,0.9-0.7,1.8-1.5,2.6c-0.1,0.1-0.1,0.1-0.2,0.2
			c-0.5,0.6-1.1,1-1.9,1.3c-0.1-0.3-0.4-0.5-0.7-0.5c-0.4,0-0.8,0.2-0.8,0.6c0,0.3,0,0.4,0,0.7c-0.1,4.2-0.2,6-0.3,9.2
			C25.8,38.8,25.4,38.9,25,38.9z M38,18.2c-1.8-0.1-2.5-0.1-4.3-0.1c0.2-2.3,0.4-4.7,0.6-6.4C35.7,14.2,36.4,15.4,38,18.2z M41.1,23
			c-3.3-0.2-4.8-0.4-7.9-0.4c0.2-0.9,0.3-2,0.4-3c2.2,0,3.2,0.1,5.5,0.1C39.7,21.1,40.2,21.7,41.1,23z M44.2,28
			c-5.2-0.7-7.4-0.9-12.2-1.1c0.5-0.6,0.8-1.4,0.9-2.1c0.1-0.1,0.1-0.4,0.2-0.7c3.5,0.2,5.4,0.2,9.1,0.6
			C42.9,26.1,43.4,26.8,44.2,28z M39,32c-3.2-0.6-4.9-0.7-7.9-0.9c0.1-1,0.1-1.7,0-2.7c4.3,0.2,6.5,0.4,11.1,1.1
			c-1,0.6-1.9,1.2-2.7,2C39.4,31.7,39.2,31.8,39,32z M31,34.9c0.1-1,0.1-1.5,0-2.5c2.7,0.2,4.1,0.3,7,0.8c-0.4,0.8-0.8,1.7-1,2.5
			C34.6,35.2,33.3,35.1,31,34.9z M36.4,39.3c-2.3-0.5-3.4-0.7-5.7-1c0.1-0.8,0.2-1.3,0.2-2.3c2.4,0.3,3.5,0.4,5.8,0.9
			C36.6,37.9,36.5,38.4,36.4,39.3z M35.1,42.4c-1.9-0.5-2.9-0.7-4.8-1c0.2-0.8,0.2-1.2,0.1-2.1c2.3,0.3,3.3,0.5,5.6,1.1
			c0,0.2,0,0.4-0.1,0.6C35.8,41.5,35.4,42,35.1,42.4z M29.9,44c0.1-0.7,0.3-1,0.4-1.7c1.6,0.2,2.4,0.5,4.1,0.9
			C33,44,31.5,44.1,29.9,44z"/>
	</g>
</g>
</svg>
