<?xml version="1.0" encoding="utf-8"?>
<!-- Generator: Adobe Illustrator 23.0.0, SVG Export Plug-In . SVG Version: 6.00 Build 0)  -->
<svg version="1.0" id="Layer_1" xmlns="http://www.w3.org/2000/svg" xmlns:xlink="http://www.w3.org/1999/xlink" x="0px" y="0px"
	 width="50px" height="50px" viewBox="0 0 50 50" enable-background="new 0 0 50 50" xml:space="preserve">
<g id="New_Symbol_47">
</g>
<path opacity="0.5" fill="#FFFFFF" d="M47.5,17.8c-0.1-2.7-2.3-5-5.2-5.2c-2.4-0.1-3.8-0.2-6-0.3c-1.2-1.2-2.1-2.1-3.5-3.5
	c-1-1-2.3-1.5-3.6-1.6c-1.7,0-2.5,0-4.2,0c0,0,0,0,0,0c-1.7,0-2.5,0-4.2,0c-1.4,0-2.7,0.6-3.6,1.6c-1.4,1.4-2.3,2.3-3.5,3.5
	c-2.1,0.1-3.6,0.1-6,0.3c-2.8,0.2-5.1,2.4-5.2,5.2c-0.2,7.8,0.2,11.9,1.8,19.7C4.9,40,7.1,42,9.5,42.3c0,0,0,0,0.1,0
	c5.2,0.3,10.3,0.5,15.4,0.5s10.2-0.2,15.4-0.5c0,0,0,0,0.1,0c2.4-0.2,4.7-2.2,5.2-4.7C47.3,29.7,47.6,25.7,47.5,17.8z M25,34.8
	L25,34.8v-1.4c-2.9,0-5.6-2.8-5.7-5.9c-0.1-1.4,0.5-2.8,1.5-3.9c1.1-1.1,2.6-1.8,4.2-1.8c1.6,0,3.1,0.7,4.2,1.8
	c1,1.1,1.6,2.5,1.5,3.9c-0.1,3.2-2.8,5.9-5.7,5.9L25,34.8L25,34.8z M25,18.9L25,18.9L25,18.9L25,18.9z"/>
<path fill="#FFFFFF" d="M44.6,16.5c0-1.2-1.2-2.3-2.5-2.4c-2.8-0.2-4.2-0.2-7-0.3c-1.7-1.7-2.6-2.6-4.3-4.3
	c-0.5-0.5-1.1-0.7-1.7-0.7c-1.6,0-2.5,0-4.1,0c-1.6,0-2.5,0-4.1,0c-0.6,0-1.2,0.3-1.7,0.7c-1.7,1.7-2.6,2.6-4.3,4.3
	c-2.8,0.1-4.2,0.2-7,0.3c-1.3,0.1-2.4,1.2-2.5,2.4c-0.2,7.6,0.2,11.4,1.8,19.1c0.3,1.2,1.4,2.3,2.6,2.4C20,38.7,30,38.7,40.2,38
	c1.2-0.1,2.4-1.2,2.6-2.4C44.4,27.9,44.8,24.1,44.6,16.5z M25,34.8c-4.5,0-8.4-4-8.6-8.7s3.8-8.6,8.6-8.6c4.8,0,8.8,3.9,8.6,8.6
	C33.4,30.8,29.5,34.8,25,34.8z M41.3,18.7c-0.9,0-1.6-0.7-1.6-1.5c0-0.8,0.7-1.5,1.5-1.4c0.9,0,1.6,0.7,1.6,1.6
	C42.9,18.1,42.2,18.7,41.3,18.7z"/>
</svg>
