<?xml version="1.0" encoding="utf-8"?>
<!-- Generator: Adobe Illustrator 23.0.0, SVG Export Plug-In . SVG Version: 6.00 Build 0)  -->
<svg version="1.0" id="follow_x5F_icon" xmlns="http://www.w3.org/2000/svg" xmlns:xlink="http://www.w3.org/1999/xlink" x="0px"
	 y="0px" width="50px" height="50px" viewBox="0 0 50 50" enable-background="new 0 0 50 50" xml:space="preserve">
<g>
	<g id="front_x5F_flyer_2_" opacity="0.5">
		<path id="shawod1_2_" opacity="0.25" enable-background="new    " d="M44.3,38.7c-2.1,1-8,3.3-10.2,4.3c-2.1,1-4.5-0.4-5.1-2.7
			c-3-10.4-5.8-23.8-5.8-26.8c0-1.4,0.6-2.4,2.1-2.8c1.5-0.5,11-2.4,12.3-2.7c1.3-0.2,2.5,1.1,2.8,2.4c1.3,5.4,3.5,12.9,6.9,23.4
			C47.9,35.4,46.4,37.7,44.3,38.7z"/>
		<path id="slide1_2_" fill="#FFFFFF" d="M42.9,38.2c-4.1,1.6-6.1,2.7-10.2,4.1c-2,0.6-3.9,0-5.1-2.8C26.5,36.6,22,17.3,22,12.7
			c0-1.7,1-2.8,2-3.2c1.1-0.5,7.7-2,12.3-2.7c1.2-0.2,2.4,1.1,2.7,2.4c2.7,10.3,5.8,21.7,6.4,23.9C46.1,35.4,44.9,37.2,42.9,38.2z"
			/>
		<path id="button1_2_" opacity="0.75" enable-background="new    " d="M44.9,33.4c0.5,1.5-0.8,3.3-2.4,4.1
			c-1.6,0.7-3.7-0.2-4.1-1.6c-0.4-1.5,0.7-3.3,2.4-4.1C42.5,31.1,44.5,31.8,44.9,33.4z"/>
	</g>
	<g opacity="0.6667">
		<path opacity="0.25" enable-background="new    " d="M37.8,38.7c-2.1,1-8,3.3-10.2,4.3c-2.1,1-4.5-0.4-5.1-2.7
			c-3-10.4-5.8-23.8-5.8-26.8c0-1.4,0.6-2.4,2.1-2.8c1.5-0.5,11-2.4,12.3-2.7c1.3-0.2,2.5,1.1,2.8,2.4c1.3,5.4,3.5,12.9,6.9,23.4
			C41.4,35.4,39.9,37.7,37.8,38.7z"/>
		<path fill="#FFFFFF" d="M36.4,38.2c-4.1,1.6-6.1,2.7-10.2,4.1c-2,0.6-3.9,0-5.1-2.8c-1.2-2.8-5.7-22.2-5.7-26.8c0-1.7,1-2.8,2-3.2
			c1.1-0.5,7.7-2,12.3-2.7c1.2-0.2,2.4,1.1,2.7,2.4c2.7,10.3,5.8,21.7,6.4,23.9C39.6,35.4,38.4,37.2,36.4,38.2z"/>
		<path opacity="0.75" enable-background="new    " d="M38.4,33.4c0.5,1.5-0.8,3.3-2.4,4.1c-1.6,0.7-3.7-0.2-4.1-1.6
			c-0.4-1.5,0.7-3.3,2.4-4.1C36,31.1,38,31.8,38.4,33.4z"/>
	</g>
	<g opacity="0.8333">
		<path opacity="0.25" enable-background="new    " d="M31.3,38.7c-2.1,1-8,3.3-10.2,4.3c-2.1,1-4.5-0.4-5.1-2.7
			c-3-10.4-5.8-23.8-5.8-26.8c0-1.4,0.6-2.4,2.1-2.8c1.5-0.5,11-2.4,12.3-2.7c1.3-0.2,2.5,1.1,2.8,2.4c1.3,5.4,3.5,12.9,6.9,23.4
			C34.9,35.4,33.4,37.7,31.3,38.7z"/>
		<path fill="#FFFFFF" d="M29.9,38.2c-4.1,1.6-6.1,2.7-10.2,4.1c-2,0.6-3.9,0-5.1-2.8C13.5,36.6,9,17.3,9,12.7c0-1.7,1-2.8,2-3.2
			c1.1-0.5,7.7-2,12.3-2.7c1.2-0.2,2.4,1.1,2.7,2.4c2.7,10.3,5.8,21.7,6.4,23.9C33.1,35.4,31.9,37.2,29.9,38.2z"/>
		<path opacity="0.75" enable-background="new    " d="M31.9,33.4c0.5,1.5-0.8,3.3-2.4,4.1s-3.7-0.2-4.1-1.6
			c-0.4-1.5,0.7-3.3,2.4-4.1C29.5,31.1,31.5,31.8,31.9,33.4z"/>
	</g>
	<g id="front_x5F_flyer_1_">
		<path id="shawod1_1_" opacity="0.25" enable-background="new    " d="M24.8,38.7c-2.1,1-8,3.3-10.2,4.3c-2.1,1-4.5-0.4-5.1-2.7
			c-3-10.4-5.8-23.8-5.8-26.8c0-1.4,0.6-2.4,2.1-2.8c1.5-0.5,11-2.4,12.3-2.7c1.3-0.2,2.5,1.1,2.8,2.4c1.3,5.4,3.5,12.9,6.9,23.4
			C28.4,35.4,26.9,37.7,24.8,38.7z"/>
		<path id="slide1_1_" fill="#FFFFFF" d="M23.5,38.2c-4.1,1.6-6.1,2.7-10.2,4.1c-2,0.6-3.9,0-5.1-2.8C7,36.6,2.5,17.3,2.5,12.7
			c0-1.7,1-2.8,2-3.2c1.1-0.5,7.7-2,12.3-2.7c1.2-0.2,2.4,1.1,2.7,2.4c2.7,10.3,5.8,21.7,6.4,23.9C26.6,35.4,25.4,37.2,23.5,38.2z"
			/>
		<path id="button1_1_" opacity="0.75" enable-background="new    " d="M25.4,33.4c0.5,1.5-0.8,3.3-2.4,4.1s-3.7-0.2-4.1-1.6
			c-0.4-1.5,0.7-3.3,2.4-4.1C23,31.1,25,31.8,25.4,33.4z"/>
	</g>
</g>
</svg>
