<?xml version="1.0" encoding="utf-8"?>
<!-- Generator: Adobe Illustrator 23.0.0, SVG Export Plug-In . SVG Version: 6.00 Build 0)  -->
<svg version="1.0" id="follow_x5F_icon" xmlns="http://www.w3.org/2000/svg" xmlns:xlink="http://www.w3.org/1999/xlink" x="0px"
	 y="0px" width="50px" height="50px" viewBox="0 0 50 50" enable-background="new 0 0 50 50" xml:space="preserve">
<g id="back_x5F_flyer">
	<path id="shadow2_1_" opacity="0.25" enable-background="new    " d="M42.1,43.3c-5,2.5-7.5,3.8-12.6,6c-2.5,1.3-5.5,0-6-3
		C20,33.8,18,27.3,15.9,14c-0.8-1.5,0.5-3.3,2-3.5c6.3-1.5,9.5-2,15.3-2.3c1.5,0,3,1.3,3.5,3c3.8,11.8,6,17.3,9,26.6
		C46.3,39.3,44.6,42.1,42.1,43.3z"/>
	<path id="slide2_1_" fill="#FFFFFF" d="M40.3,42.8c-5,2.3-7.5,3.5-12.6,5.8c-2.5,1.3-5.5-0.3-6-3c-3.5-12.8-5.5-19.3-7.5-32.8
		c-0.3-1.5,0.8-3.3,2.3-3.5c6.3-1.5,9.5-2,15.3-2.3c1.5,0,3,1.3,3.5,3c3.8,12.3,5.8,17.5,8.8,27.3C44.6,39.1,42.8,41.6,40.3,42.8z"
		/>
	<path id="button2_1_" opacity="0.75" enable-background="new    " d="M42.8,37.3c0.5,1.8-0.8,3.8-3,4.5c-2,0.8-4.3,0.3-4.5-1.8
		c-0.5-1.8,0.8-4,3-4.5C40.3,34.8,42.3,35.6,42.8,37.3z"/>
</g>
<g id="front_x5F_flyer">
	<path id="shawod1_1_" opacity="0.25" enable-background="new    " d="M31.5,39.6c-5,2.3-7.5,3.3-12.6,5.3c-2.5,1.3-5.5-0.5-6.3-3.3
		c-3.8-13-5.5-20-7.3-33.3C5.1,6.8,6.2,5,7.9,4.8c6.3-1.8,9.5-2.3,15.3-3.3c1.5-0.3,3,1.3,3.5,3C30,17,32.3,23,35.3,33.6
		C35.8,35.6,34,38.6,31.5,39.6z"/>
	<path id="slide1_1_" fill="#FFFFFF" d="M29.8,39.1c-5,2-7.5,3.3-12.6,5c-2.5,0.8-5.5-0.5-6.3-3.5c-3.8-13-5.5-20-7-33.3
		c-0.3-1.8,1.3-3.5,2.5-4c6.3-1.8,9.5-2.5,15.3-3.3c1.5-0.3,3,1.3,3.3,3c3.3,12.8,5.3,18.8,8,29.8C34,35.1,32.3,37.8,29.8,39.1z"/>
	<path id="button1_1_" opacity="0.75" enable-background="new    " d="M32.3,33.1c0.5,1.8-0.8,4-3,5c-2,0.8-4.3,0-5-2
		c-0.5-2,0.8-4.3,3-5C29.5,30.1,31.8,31.3,32.3,33.1z"/>
</g>
</svg>
