<?xml version="1.0" encoding="utf-8"?>
<!-- Generator: Adobe Illustrator 23.0.0, SVG Export Plug-In . SVG Version: 6.00 Build 0)  -->
<svg version="1.0" id="Layer_1" xmlns="http://www.w3.org/2000/svg" xmlns:xlink="http://www.w3.org/1999/xlink" x="0px" y="0px"
	 width="100px" height="100px" viewBox="0 0 100 100" enable-background="new 0 0 100 100" xml:space="preserve">
<g>
	<defs>
		<rect id="SVGID_1_" width="100" height="100"/>
	</defs>
	<clipPath id="SVGID_2_">
		<use xlink:href="#SVGID_1_"  overflow="visible"/>
	</clipPath>
	<g clip-path="url(#SVGID_2_)">
		<path fill="#009E49" d="M-28,0h166.7v100H-28V0z"/>
		<path fill="#FFFFFF" d="M-28,0l166.7,50L-28,100V0z"/>
		<path fill="#FCD116" d="M-28,4.3L124,50L-28,95.7V4.3z"/>
		<path d="M-28,0l83.3,50L-28,100V0z"/>
		<path fill="#CE1126" d="M-28,5.8L45.6,50L-28,94.2V5.8z"/>
	</g>
</g>
<path id="flag_x5F_shadow" opacity="0.2" d="M10.4,74.2V25.8C10.4,13.4,18.8,3,30.2,0H0v100h30.2C18.8,97,10.4,86.6,10.4,74.2z"/>
<path id="flag_x5F_highlight" opacity="0.1" fill="#FFFFFF" d="M89.6,25.8v48.5c0,12.4-8.4,22.7-19.9,25.8H100V0H69.8
	C81.2,3,89.6,13.4,89.6,25.8z"/>
</svg>
