<?xml version="1.0" encoding="utf-8"?>
<!-- Generator: Adobe Illustrator 23.0.0, SVG Export Plug-In . SVG Version: 6.00 Build 0)  -->
<svg version="1.0" id="globes" xmlns="http://www.w3.org/2000/svg" xmlns:xlink="http://www.w3.org/1999/xlink" x="0px" y="0px"
	 viewBox="0 0 400 400" enable-background="new 0 0 400 400" xml:space="preserve">
<path id="path6968_2_" opacity="0.5" fill="#86CAD9" d="M399.8,200.1c0.5-68.8-37.4-136-96.4-171.1C243.8-7.8,164.8-9.4,103.7,24.8
	C42.8,57.5,1.6,124,0.1,193.3C-3.4,266.2,37.5,339,101.4,374.1c60.6,35.2,140,34.5,200-1.8C361.7,337.7,400.4,269.7,399.8,200.1
	L399.8,200.1z"/>
<g id="Land_2_">
	
		<path id="path5584" opacity="0.5" fill="#FFFFFF" stroke="#000000" stroke-width="0.25" stroke-linecap="round" stroke-linejoin="round" d="
		M193.5,0.1L193,0.3h0.2L193.5,0.1L193.5,0.1z M102.4,98.7l2,0.9l-0.7-1.1l-0.2-0.4l0.6,0.2h0.2l-0.2-0.4h1.1l-0.9-0.4l0.9-0.2v-0.7
		l1.6,0.2l5.8-4l0.9-3.8l0.9-0.2l-0.7-6.9l-1.6-2l-3.1-1.3l-3.3-4.4l1.3-2.7l2.2-1.6l0.2-1.1h0.7l-0.5-0.6l2.2-0.5l1.6-1.6l2-0.4
		l0.4-1.1l1.3,0.9l1.6-1.1l0.9,0.7l-1.1,1.3l0.2,1.8l1.1-0.2l0.9-3.1l0.2,0.6l3.6-1.6l0.2-0.7l2-0.2l0.2-0.7h1.5l0.5-1.6l0.2,0.9
		l0.7-0.7l0.7,0.2v-2.2l2.4,1.8l-0.2-0.7l2-1.1v0.7l1.6-0.9l0.7,0.5l2.9-1.1l0.9-0.9l-0.6-0.4l2.4-0.7l0.4-0.9l0.7,0.4l1.8-1.3
		l-0.9-0.4l2.7-0.4l-0.2-0.9h1.3l-0.2-0.9h1.3l0.2-0.9l0.9,0.4l-0.2-1.6l1.6-0.9h-1.1l0.7-0.2l-0.7-0.7l1.3,0.2h0.4l2.7-3.1
		l-0.6-0.2l3.1-0.7l-0.7-0.9l1.3-0.6l-0.9-0.5l1.6-0.2l0.2-0.9l-1.8,0.5l2.5-1.1h-0.7l-1.8-0.5l-3.3,0.5l5.6-2l-2.9-1.6h3.1
		l-2.7-1.3l-0.7-3.1l-0.7-0.2l-2.2-0.2l0.2-0.4l2.7-1.6l0.9-0.6l-0.4-0.2l1.5-0.2l0.5-0.9l3.5-0.9h1.3l0.9-0.9l-5.1-0.2l-2.2,0.9
		l-2.4,0.9l-0.2-1.8h-2.9l0.7-1.1l3.3-0.7l3.1-1.6l2.9-1.6l2.5-0.4l0.7,0.7l-3.1,2l1.8-0.2l-2.4,1.3l7.1-2.4h4.9l-1.3,1.3l1.1,0.2
		l-1.8,0.2l-0.9,0.9l1.6-0.2l-0.9,0.5l1.6-0.2l0.2-0.2l2.4,0.5l0.7,1.6l-0.9-0.4l-1.3,0.6l0.9,0.5l0.2-0.5l-0.2,0.9h1.1l-2,2
		l0.9,0.7l-1.1,0.2l0.6,0.4l2.2-1.1l0.2,0.7l0.4-0.9l0.9,0.7l-0.2-0.9l2,0.4l0.7-0.9l1.3,0.2l1.6-1.8l-0.2-1.8l-2.4-2.4l-2.7-0.9
		l0.6-0.6l6-2l0.4-1.3l2.4-0.9v-0.4h1.6l1.3-1.1l3.3,0.9l5.3-1.1l7.1-3.5l4.2-2.5L211,9V8.1l-0.2-0.7l2-1.3l-2.2-0.9v0l1.2,0.2
		l0.1,0l0.5-0.2L209,4.5l0.1,0.1l-0.1,0c0,0-0.2-0.4-0.4-0.3c-0.2,0.1-2.2,0-2.2,0l-0.2,0.2l-2.3,0.3l0.5-0.4l-1.6,0.2l0-0.4l-2.3,0
		l-0.6-0.3l5.3-0.8l3.4-0.7l4-0.4l5.6,0.2l0.9,0.2l0.4-0.2l4.4,0.5h0.4l5.3,0.6l-2-0.2l0.7,0.2l4.2,0.5l-0.2-0.2h2.2l4.7,0.7h0.4
		v0.2h0.7l0.6,0.2h0.2l1.2,0.2l-1.8-0.4l-0.1-0.1l-1.7-0.4l-0.9-0.1h0l-0.2-0.1h-0.2l-0.4-0.2h-0.2l-1.1-0.2l0,0h-0.2L234.4,3
		L234.3,3H234l-1.2-0.2h0l0,0h-0.1l-0.8-0.1h0l-0.1-0.1h-0.9l-0.3,0l-0.1-0.1l0.9,0.2l-0.9-0.2l-1.5-0.2l0,0h-0.4l-1-0.2l-0.1,0H227
		l-1.5-0.1l-0.3-0.1h-1.3l-0.7-0.2h-1.1l-0.7-0.2h-1.3l-0.7-0.2h-1.3l-0.7-0.2h-2l-0.7-0.2h-3.1L211,0.3h-3.8l-0.7-0.2h-0.2v0.1
		l-6.4,0.3l-0.7,0.4H199l0.9-0.4h-0.1l-3.4-0.3c0,0-5.1,0.1-6.5,0.2c0,0-0.1,0-0.1,0l6.5-0.2l-5.8,0.2l0.4,0.2l-2.5,0.2l-8,0.9
		l9.1-1.1l0.9-0.2h-2l-3.8,0.2h-0.2l-0.1,0h-0.1l-0.1,0h-1.6l-0.5,0.2l-0.1,0l-0.3,0h-1.8L180.1,1l-0.6,0.2h-1.3l-0.2,0.1h0
		l-0.4,0.1h-1.1L176,1.5l-0.6,0.1h-1.1l-0.7,0.2h-1.1l-0.8,0.2h-0.5l-0.7,0.2h-0.9l-1.2,0.2h-0.4l-0.7,0.2H167L166.3,3h-0.6L165,3.2
		h-0.4l-0.7,0.2h-0.7l-0.4,0.2h-0.7l-0.4,0.2H161l-0.7,0.2h-0.4l-0.5,0.2l-0.4,0h-0.2l-0.2,0.1l-1.1,0.2l1-0.1L158,4.5l0.3,0
		l-0.2,0.1h-0.4L157,4.7h-0.4L155.9,5h-0.4L155,5.2h-0.2l-0.4,0.2h-0.4l-0.7,0.2h-0.4l-0.4,0.2h-0.7l-0.2,0.1L151,6.1l-0.7,0.2h-0.2
		l-0.3,0.2l-0.2,0h-0.4l-0.7,0.2L147.9,7h-0.2L147,7.2h-0.2l-0.5,0.2h-0.4l-0.4,0.2H145l-0.7,0.2l-0.2,0.2h-0.4l-0.2,0.2h-0.7
		l-0.4,0.2l-0.5,0.2h-0.4L141,9h-0.2l-0.4,0.2h-0.4l-0.2,0.2h-0.4l-0.4,0.2h-0.2l-0.4,0.2H138l-0.4,0.2l-0.1,0l-0.3,0.2l0,0l0,0
		h-0.2l-0.3,0.2l-0.1,0l0,0h-0.3l0.3-0.1l-0.3,0.1H136l0,0l-0.5,0.2h-0.1l-0.4,0.2l-0.1,0h-0.2l-0.4,0.2l0,0h0l-0.6,0.2l-0.6,0.2
		h-0.3l-0.1,0.1h0l-0.6,0.1l-1.1,0.4l-1.1,0.4l-0.6,0.2l-0.5,0.2l-0.6,0.2l-0.6,0.2l0.5-0.2l-0.2,0.2l0,0h-0.4l-0.4,0.2l-0.1,0l0,0
		l-0.1,0.1l-0.3,0.1h0l0.5-0.2l-0.6,0.2l-0.9,0.4l0.8-0.3l-0.1,0.1l-0.4,0.2h-0.4l-0.1,0.1l0,0l-0.1,0.1h-0.1l-0.5,0.2h-0.1
		l-0.6,0.2l-0.4,0.2h0l-0.4,0.2l-0.1,0l-0.6,0.2H122l-0.4,0.2l-0.1,0.1h0l-0.2,0.1H121l0.5-0.2h-0.2l-0.5,0.2l-0.9,0.4l-0.4,0.2
		l-0.1,0l-0.1,0l-0.4,0.2h-0.1l-0.4,0.2l-0.4,0.2h-0.2l-1.3,0.7l-0.1,0.1l-0.2,0.1l0.3-0.2l-0.4,0.2l0,0l-0.3,0.1l-0.1,0l0.4-0.2
		l-0.7,0.2l-0.2,0.2l0,0l-0.6,0.3l-0.3,0.2H114l-0.1,0.1l-1.1,0.5l0.4-0.2l-0.4,0.2h-0.1l-0.4,0.2l-0.1,0.1l0,0l-0.5,0.2l-0.2,0.1
		h-0.1l-0.5,0.2l0,0.1h0l0,0l-0.3,0.1h0.1l0.2-0.1l0,0.1l0,0h-0.1l-0.4,0.2H110l-0.4,0.2l-1.3,0.7l-0.4,0.2l-1.3,0.6h0l0,0l-0.4,0.2
		l-0.2,0.2l-0.2,0.2l-0.4,0.2h-0.2l-0.4,0.2l-0.1,0.1l-0.1,0.1l-0.4,0.2l-0.2,0.2h-0.5l-0.2,0.2l-0.4,0.2l-0.1,0.1l-0.1,0.1
		l-0.4,0.2l-0.4,0.2h-0.2l-0.2,0.2l-0.4,0.2l-0.2,0.2l0,0L99.8,27l-0.9,0.4l-0.4,0.2l-0.2,0.2L98,28.1l0,0l-0.4,0.2l-0.2,0.2l0,0
		l-0.4,0.2L96.4,29h-0.2L96,29.2l0,0l-0.4,0.2l-0.2,0.2l-0.4,0.2l-0.2,0.2l-0.2,0.2L94,30.5l0,0l-0.4,0.2l-0.2,0.2l0,0l-0.4,0.2
		L92,31.6L91.6,32l0,0l-0.2,0.2h-0.2l-0.2,0.2l-0.4,0.2l-0.9,0.4l-0.2,0.3l-0.3,0.1l-0.2,0.2h0L88,34.3l-0.2,0.2l-0.4,0.2l-0.4,0.4
		h-0.2l-0.2,0.2L86,35.6l-0.2,0.2l0,0l-0.5,0.2l-0.4,0.4l-0.4,0.2L84.2,37l-0.4,0.2l-0.1,0.2l-0.1,0.1l-0.5,0.4l-0.4,0.2l-0.4,0.2
		l-0.2,0.3l1.2-0.7l2.5-1.8L84,37.4l-0.7,0.5l-2.2,1.5l-1.3,0.9l-1.6,1.4l-2.4,1.8l2.6-2.1l-0.2,0.1l-0.4,0.2l-0.1,0.1l-0.2,0.1
		l-0.4,0.4l-0.4,0.2l-0.2,0.3L76.2,43l-0.7,0.4l-0.4,0.4l-0.4,0.2l-0.2,0.2l0,0l-0.9,0.9l-0.5,0.2l-0.9,0.9l-0.4,0.2l-1.1,1.1
		l-0.4,0.2L70,48.1l-0.4,0.2l-0.2,0.4L69.1,49l-0.5,0.2l-0.9,0.9l-0.4,0.2l-0.2,0.2l-0.2,0.4l-0.4,0.2h0l0,0l-0.1,0.1l-0.1,0.1l0,0
		l-0.4,0.2l-0.1,0.3l0.5-0.4l-0.6,0.6l0.1-0.2l-0.8,0.6l0.4-0.2l-1.1,0.9L60.5,57l-0.7,0.4l-2.9,2.9l-0.2,0.4l-0.4,0.2L56,61.4
		l-0.4,0.2l-0.2,0.4l-0.4,0.2l-0.2,0.4l-1.6,1.6l-0.2,0.5L52.5,65l-0.2,0.4l-0.4,0.2l-0.2,0.4L50.7,67l-0.2,0.4L50,67.6l-0.2,0.5
		l-0.6,0.6l-0.2,0.5L48,70.1l-0.2,0.4l-0.4,0.2l-0.2,0.4l-0.9,0.9L46,72.5l-0.7,0.6l-0.2,0.5l-0.7,0.6l-0.2,0.5l-0.9,0.9l-0.2,0.4
		l-0.6,0.7l-0.2,0.4L42,77.4l-0.2,0.4l-0.7,0.7L40.9,79l-0.2,0.2l-0.2,0.4l-0.7,0.7l-0.4,0.9l-0.4,0.2l-0.2,0.4l-0.2,0.2L38.1,83
		l-0.5,0.2l-0.4,0.9l-0.2,0.2l-0.5,0.9L36,85.4l-0.4,0.9l-0.2,0.2L35.2,87l-0.2,0.4l-0.2,0.2l-0.5,0.5l-0.2,0.4l-0.2,0.2l-0.4,0.7
		l-0.3,0.2l-0.2,0.4l-0.2,0.2v0.2l-0.2,0.2l-0.2,0.4L32,91.4l-0.2,0.4l-0.2,0.2l-0.2,0.5v0.2L31.2,93l-0.2,0.2l-0.2,0.4l0,0
		l-0.2,0.2l-0.2,0.4L30,94.5v0.2L29.8,95l-0.2,0.4l-0.2,0.5l-0.2,0.2l-0.2,0.2v0.2L28.7,97l-0.2,0.2l-0.2,0.4l-0.2,0.2l-0.2,0.4
		l-0.2,0.4L27.4,99l-0.2,0.4v0.2l-0.2,0.4l-0.5,0.4v0.4l-0.2,0.2l-0.4,0.4v0.4l-0.3,0.6l0,0l-0.1,0.1l-0.2,0.5l0,0l-0.6,1l0.9-1.8
		l-1.2,2.4l0,0l-0.1,0.3l0.1-0.1l0.2-0.3l-0.2,0.4l0.9-1.6l1.1-1.3l5.6-7.5l-0.9,2l0.7-0.7l-0.9,2l0.2-0.2l0.4-0.7v0.2l0.4-0.4
		l-0.7,1.3l1.1-1.6l-0.9,1.3V99l2-1.8l-0.9,1.6l-2,2l0.6,2.2l2.5-2.9l1.6-3.3l0.9-0.4l-1.1,1.1l-0.2,0.9l0.7-0.4l-0.9,1.3l-0.2,1.1
		l-1.3,2.9l-2.4,9.8l0.4,11.5v5.8l1.6,1.3l1.1-1.6l0.7-2.2l1.8-1.8l-0.5-0.2l0.7-2l0.4-0.9l1.1-0.7l0.7-4l0.7-2.2l0.2-0.4v-0.1
		l1.1-2.6l0.6-4.6l0-0.1v-0.2l0.9-2l1.3-0.9l1.1-2l2.2-2l0.5-1.3l4.9-5.3l2.7-4l3.3-2.9L60,85l0.2-1.6l2.4-1.8l0.9-1.6l-0.2,1.6
		l1.3-1.8l0.4,0.9l0.4-1.3l0.2,0.7l0.9-1.1l0.4,0.4l0.7-1.6l0.2,1.3l1.5-2.5l-0.4,1.3l0.6-0.5l0.2-1.6l1.8-0.7l0.9,5.6l1.1-1.3
		l-0.7,1.3l1.8-0.2l0.2,1.2l0-0.1v4.4l-2,4.7l1.3-1.1l-0.9,1.3l0.6-0.9l0.7,0.6l0.7-1.1l0.7,0.7l0.9-1.6l1.8-1.1L78.5,87l0.7,0.6
		l1.3-1.3l0.4-1.8l0.7,2.2l1.1-0.4l-0.9,4.7l0.2,3.6l0.5-1.3l0.9,2.9l-1.1,2.7l0.9,0.5l-1.6,3.1v2l0.7-1.1l-0.2,1.1l-1.8,5.6
		l1.1-0.9l3.3,4l0.2,0.4l0.9,6.4l2,4L94,127l1.3-1.6l1.1,0.7l-2.4-3.8l0.2-5.3l-0.6-2.2l-4.4-3.3l-3.1-0.2l-0.9-4.2l-0.2-1.6
		l-1.8,0.5l0.2-2v-1.1l3.1-5.8v-0.3l0.1-0.3v0l0.2-0.3v-0.4l0.2-2l2.9-1.3l-0.6,2.5l2.7-0.9l2.2,0.9l0.9,3.3l1.3-1.1v2l0.7-0.9
		l3.3,1.1l-1.1,3.8l1.3-0.2l2.9-2.4l-0.8-1.6 M240.4,4.1l1.4,0.3h0.2L240.4,4.1L240.4,4.1L240.4,4.1z M240.3,4.1L240.3,4.1L240,4
		L240.3,4.1L240.3,4.1z M242.3,4.6l0.4,0.1l0.9,0.2l-0.6-0.2L242.3,4.6z M243.5,4.8l1.2,0.3l1.6,0.4L244,5.1h-1.3l-1.6,0.2l-2.2-0.2
		l-0.4,0.4l0.7,0.9l6.4,4l2.2-0.7l-0.9-0.9l2.9,0.7h0.2l-1.1-0.9l-0.4-0.2h0.2l3.1,0.4L250,7.8l2,0.4l-2.7-1.1h0.4l-2.7-0.7V6
		l4.4,0.9l0.9,0.2L252,6.9l-0.6-0.2h-0.5l-5.1-1.4l-0.6-0.2L243.5,4.8L243.5,4.8z M75.2,82l0-0.1L75.1,82L75.2,82L75.2,82z M75.1,82
		l-1.2,0.4l0.7,0.9L75.1,82L75.1,82z M24.1,105.1l-0.8,1.3l0.2-0.2L24.1,105.1L24.1,105.1z M23.5,106.2l-0.2,0.4l0,0.1l-0.2,0.4
		l-0.2,0.2l-0.2,0.7l-0.3,0.6l-0.1,0.1l-0.7,1.2l0.4-0.6l-0.4,0.9l1.2-2.3l0.3-0.6l0.2-0.4v0l0.3-0.8L23.5,106.2L23.5,106.2z
		 M23.6,106.1l-0.1,0.3l0.2-0.4L23.6,106.1L23.6,106.1z M21.5,110l-0.5,0.9l0.1-0.1L21.5,110L21.5,110z M21.1,110.8l-0.3,0.6v0.2
		l-0.1,0.2l-1,1.9l-1.3,2.9l1.1-2.2l-0.1,0.2l-1.2,2.5v0.2l0.8-1.8l-0.2,0.4l-0.6,1.3v0.2l-2,4v0.4l-0.4,0.9l-0.2,0.7l-0.6,1.3v0.4
		l-1.1,2.2v0.4l-0.7,1.3v0.4l-0.2,0.4l-0.2,0.7l0.6-1.6l1.1-2.9l1.1-2.2l1.3-3.6l0.7-1.6v0.2l3.3-6.9l0.9-2.2l-0.3,0.3l0,0.1
		L21.1,110.8L21.1,110.8z M12.6,130.7l-0.5,0.9v0.4L12.6,130.7L12.6,130.7z M80,40.2l1.2-1.1l-0.4,0.2L80.1,40L80,40.2L80,40.2
		L80,40.2z M79.9,40.2l-0.4,0.2l-0.2,0.2L79.9,40.2L79.9,40.2z M110.1,21.3l0.5-0.2h0L110.1,21.3L110.1,21.3z M124.8,14.7l0.3-0.1
		L124.8,14.7L124.8,14.7L124.8,14.7z M136.5,10.3l-0.2,0.1l0.6-0.2h-0.2L136.5,10.3L136.5,10.3z M137.6,10h-0.2l-0.3,0.2L137.6,10
		L137.6,10z M184.9,0.6l3.1-0.2l0.6-0.2l-0.9,0.2l-2.4,0.1L184.9,0.6L184.9,0.6z M185.4,0.6l1.1-0.1H186l-0.9,0.1L185.4,0.6
		L185.4,0.6z M185.1,0.6H185l-0.1,0L185.1,0.6L185.1,0.6z M186,0.4h-0.7l-0.3,0.1L186,0.4z M225.7,1.7l1.2,0.1H226L225.7,1.7
		L225.7,1.7z M229.2,2.1l1,0.1h-0.5L229.2,2.1z M232.5,3.6l1.9,0.2l-0.7-0.2H232.5L232.5,3.6z M213.8,4.4l1.2,0.4l-0.3-0.4H213.8
		L213.8,4.4z M215,4.8L215,4.8l0.1,0L215,4.8L215,4.8z M215.1,4.9l-1.9,0.2V6l1.6,1.1l0.2,0.9l0.9,4.4l0.9-0.9l2.2,0.4l0.2,0.7
		l0.4-0.4l-3.1-1.8l0.7-1.3h2.2l2,0.6l-2.2-1.6l-2.5-1.3L215.1,4.9L215.1,4.9z M248.7,6.4l0.5,0.2l1.1,0.2L248.7,6.4z M252.5,7.1
		l1.1,0.2l-0.5-0.2H252.5L252.5,7.1z M253.7,7.4l0.5,0.2h0.2L253.7,7.4L253.7,7.4z M254.4,7.5l1.2,0.4l-1-0.4H254.4L254.4,7.5z
		 M254.7,7.5l0.6,0.2l-0.4-0.2H254.7z M150.7,7.8h0.7l-2.7,1.3l-2.7,0.9h0.7l-6.2,2l-1.6,0.7l-2.7,0.9l-1.6,0.2l3.1-0.9l3.6-1.3
		l4.7-1.8L150.7,7.8L150.7,7.8z M255.8,8l0.6,0.2L256,8H255.8L255.8,8z M256.4,8.2l0.7,0.2l-0.4-0.2l0.2,0.1l0.6,0.2l-0.4-0.2h-0.3
		L256.2,8H256l0.6,0.2H256.4L256.4,8.2z M257.4,8.4l1.3,0.4l-0.4-0.2l-0.2,0L257.4,8.4L257.4,8.4z M258.2,8.7l1.1,0.3V8.9L258.2,8.7
		L258.2,8.7z M259.3,9L259.3,9l3.1,1l-1.1-0.4L259.3,9L259.3,9z M262.5,10l1.8,0.7l-0.2-0.2L262.5,10L262.5,10z M259.3,9.1l-0.7-0.2
		L259.3,9.1L259.3,9.1z M244.5,10.2l-1.1,0.4h1.3L244.5,10.2L244.5,10.2z M135.9,10.6L135.9,10.6l-0.2,0L135.9,10.6L135.9,10.6z
		 M132.6,11.7L132.6,11.7L132,12h-0.1l-0.2,0.1h0l-0.4,0.1h-0.1l0.7-0.2L132.6,11.7L132.6,11.7z M130.8,12.3L130.8,12.3L130.8,12.3
		l-0.8,0.3H130l0.6-0.2h0L130.8,12.3L130.8,12.3z M129.8,12.7L129.8,12.7l-0.3,0.1h-0.1L129.8,12.7L129.8,12.7z M215.6,12.9
		l-0.7,2.9l-2.7-0.2l0.7,0.7l-1.3,0.2l-0.4,0.2l0.7,1.6V18l2.9-0.2l-2.2-0.7l0.2-0.4l1.6,0.4l1.6-0.4l4.2,1.1l1.6-1.1l4.4-0.4h-1.3
		l-0.2-1.3l-1.3,0.4l-2.4-0.2L215.6,12.9L215.6,12.9z M128.6,13.2l-0.3,0.2h-0.1L128.6,13.2L128.6,13.2z M230.2,14l-1.8,1.1l4-0.9
		L230.2,14L230.2,14z M226.2,14.9l-0.9,0.7l-0.2,0.4l2.2-0.9L226.2,14.9L226.2,14.9z M123.7,15.2l-0.3,0.2h-0.1L123.7,15.2
		L123.7,15.2z M117.7,17.7L117.7,17.7l-0.5,0.3l-0.1,0.1l-0.3,0.1h-0.2L117.7,17.7L117.7,17.7z M214,18.4l0.9,0.9l-2.2-0.7l-0.9,0.5
		l-0.2,0.4l-0.2,0.9h0.9l0.2,0.4l-0.2,0.5l-1.6,2l-5.6,2.2l-1.3-0.7l1.3-0.7l-1.6,0.2l-2,2.9l-8.4,0.2l-6.4,2.5v0.7l3.6,0.2l0.9-1.1
		l0.4,0.7l4.7-1.3h3.3l-0.9,1.6l2,0.7l0.9-0.5L204,30l-1.1-0.9l0.7-0.7l0.4,0.7l0.2-0.5l1.1,0.2l-0.9,0.4h3.3l1.5-0.9l0.2,0.9
		l0.9-1.1l1.6,0.2l0.2-0.9l0.4,0.2h0.4l-0.2,0.7l-0.2,0.4h0.2l2.2-1.3l-0.9-0.9l1.1-1.3l-0.4-2h1.6l1.1-2l-2-2.9H214L214,18.4z
		 M114.7,19.2l-0.1,0.1h-0.1L114.7,19.2L114.7,19.2z M195.4,29.8l-2.2,0.9l-0.4-0.4l-2.9,1.6l1.3-0.2l0.4,1.3l1.1-0.4l1.8-1.1
		l1.8,0.4l1.6-1.1l-0.4-0.7L195.4,29.8L195.4,29.8z M186.9,30.9l-4.2,1.1l1.3,0.9l-1.1-0.4l0.2,0.9l1.8-0.2l-0.7-0.9l1.1-0.2
		l0.5,1.1l-1.8,2.5l1.3,0.7l0.7-1.1l-0.4,1.3l2-0.9l2.5-3.1L186.9,30.9L186.9,30.9z M182.3,41.5l-1.8,0.7l0.7,0.4L182.3,41.5
		L182.3,41.5z M156.5,50.4l-5.1,4.4l-0.5,1.3l2.2,2.4l4.7-7.5L156.5,50.4L156.5,50.4z M151.4,67.3l-1.3,6.4l-1.3-0.4h-0.2l-0.7,1.1
		l0.7,2.5l0.2,0.6l1.1,0.9l0.5-1.1l1.1,0.2l-1.1,2.5l2,0.4l1.6-1.3l2.7,2v-2.2l2.5,2.5h2.2l0.2,1.1l0.4-1.6l-1.3,0.2l-0.7-1.3
		l1.3-0.4l-0.7-0.7l-1.6-0.2l-0.7,1.1l-0.9-1.6l-1.8,0.2l-0.2,1.1l-1.8-1.3l-0.7-2.5l4-4.4l-0.9-2.2l0.7-1.6H151.4L151.4,67.3z
		 M121.9,68l-4.9,1.1l-2.2,2l0.6,2.2l1.6,0.2l2.7-1.8l2.4-2.9L121.9,68L121.9,68z M232,79.1l-1.1,0.2l0.2,0.7L232,79.1L232,79.1z
		 M149.2,80.9l1.3,1.3l0.9,2l1.1-0.2l0.6-2.5L149.2,80.9L149.2,80.9z M164.9,82l-2.9,0.2l2.5,2.2l-0.2,1.2l0-0.1l-2.2-0.4l0.2,1.8
		l2,2.7l-0.2-1.1h1.1l-0.8-2.6l2.6,0.6l-0.9-3.3L164.9,82L164.9,82z M158.5,82.6l-0.2,1.8l1.3-0.9L158.5,82.6L158.5,82.6z
		 M154.1,84.9v4.2l4-2.5v-1.3l-0.9,0.7L154.1,84.9L154.1,84.9z M161.2,86l-2,4l-0.9,1.6l1-1.6h0.1v-0.2l1.6-1.1L161.2,86L161.2,86z
		 M146.1,87.1l-0.2,2l-0.9-0.5V90l-1.6,1.6l-5.6,5.6l2.9-2l2.7-3.3l0.2-0.2l2.9-1.8L146.1,87.1L146.1,87.1z M158.3,87.1l-1.3,2.7
		l-0.5,0.5l-1.1,0.4l2,2.2l0.9-0.9l-0.2-2l1.3-2.5L158.3,87.1L158.3,87.1z M161.4,89.3l-0.7,0.4l-0.7,0.7l0.7,0.4l2-0.4v-0.9
		L161.4,89.3L161.4,89.3z M165.6,90l0.2,2.5h-2.5l-0.2,1.6l-1.3-0.2l-2.5,2l0.7-1.3l-1.5-0.9l-4,2.7l-1.1,2.7l0.9,0.4l1.6-2.7
		l2.7,1.1l0.9-1.6l2,1.1l-0.7,3.1l3.1,1.3l0.9-0.7l0.4,1.6l0.9-1.3l-0.9-2.2l1.1-1.8l1.5,2.9v-1.8l1.6-1.3l-0.7-3.5l-1.1-0.2l0.7-2
		L165.6,90L165.6,90z M153.6,100v1.1l1.1-0.9L153.6,100L153.6,100z M68.3,100.9l-0.9,0.9l0.4,0.7L68.3,100.9L68.3,100.9z
		 M136.3,101.1l-3.1,4.9l-1.5,0.7l0.7,0.4l-0.9,1.1L127,110l-3.1,4.9l-5.3,2.2l-0.9,4.4l-4-0.2l-0.7-1.1l-2.5,3.3v2.7l1.1,0.7
		l-0.4,1.8l1.5,0.5h-1.1l1.3,0.9l-0.7,1.1l1.6-0.9l1.1,5.8l4.4-1.3l0.7,2.2l3.6-2.7l2,0.5v1.1l2.9-0.9l0.4,2.7l1.3-0.6l4-3.6
		l-0.6-0.9l0.9,0.2l0.9-2.7l-1.6-0.9l1.8-2.7l0.7,0.5l2.4-1.8l-0.6-2.7l2-2.5l-0.4-1.1l1.5,0.9l2-0.9l-3.8-2.2l-0.2-1.1l1.1-0.4
		l-3.6-3.6l2.5-0.4l-1.1-1.6l3.8-1.1l-1.3-1.3l3.8-2l-2.9-0.9l-1.3,0.5l0.2-1.1l-1.6,0.6l0.7-1.6l-1.8-1.6l-1.1,1.6L136.3,101.1
		L136.3,101.1z M370.2,102.2l0.6,1.1l0.5,0.4l-0.9-1.6H370.2L370.2,102.2z M372.8,106l0.9,1.3l0.2,0.2L372.8,106L372.8,106z
		 M374.6,108.9l1.6,3.8l0.7-0.2L374.6,108.9L374.6,108.9z M175.8,110.9l-0.9,2l0.9-0.2V110.9z M173.8,112.2l-2,4l0.9,4l2.7,2l-1.3-2
		l-0.4-2.2l3.5,0.4l-2.7-1.6l1.8-1.1l0.2-1.6l-3.8,2.2l1.3-1.3L173.8,112.2L173.8,112.2z M108.8,114.4l-0.9,0.9l0.4,0.9l0.7-1.1
		L108.8,114.4L108.8,114.4z M164.3,114.7l-4.2,2.9l-10.4-0.6l-0.9,2l-1.1-0.4l-0.9,0.9l-0.2,0.4l-0.4,2.2l-0.7-0.2l0.9,2.7l-0.7-0.7
		l-1.3,1.8l0.2,2.5l-2,3.1l0.6,2.5l2-0.2v4.7l-0.2,2l2-0.2h1.5l-1.1-8.7l1.8-1.3l1.1,0.2l-0.5,2.9l2.2,1.3v2.2l1.6,0.5l0.2-1.6
		l2.7-0.4l-2.4-2.4l1.1-1.6l-4.2-3.8l1.3,0.2l6-4.4l-6.2,0.7l-1.8,2.2H149l-2.2-2.2l0.9-3.3l13.6-1.3L164.3,114.7L164.3,114.7z
		 M67.9,117.1l0.2,1.1l0.4-0.9L67.9,117.1L67.9,117.1z M77.5,119.3l-6,1.1l0.6,2.7l3.3,1.8l2.2,3.6l2.9,0.9l0.9,4.4l2.4,1.8l1.1,0.7
		l3.8,6.7l7.3,5.1l1.8,1.6l-0.2-1.3l2,0.4l0.2-1.3l1.3,1.3l0.9-9.1l-1.6-2.5l-2.2,0.2l-0.4,1.1l0.4-1.8H97l-0.2-3.1l-3.3-0.2
		l1.3-3.3l-1.1-0.7l-2,1.6l1.3-1.1l-0.7-0.6l-1.3,0.2l-4-3.8l-0.2,1.8l-2.7-2.7l-0.7-0.7l-4.4-1.6l0.4-1.1L77.5,119.3L77.5,119.3z
		 M92.3,129.1h0.4l-0.9-0.7l-0.7-0.2l-0.2,0.9H92.3L92.3,129.1z M185.4,119.3l-3.8,0.4l2.7,0.2L185.4,119.3L185.4,119.3z
		 M189.4,119.8l-4.2,1.8l-1.1,2h3.8l1.1,2.7l5.8-0.9l-1.1,2.2l-1.6-1.1l-1.8,1.3h-2.7l3.1,1.6l0.2,2.7l2-0.9l1.1-3.1l-0.7,2l1.3,1.1
		l3.3,0.2l-1.1,0.6l2,1.1l10.2,3.1l-0.2,1.1l1.1-0.2v2.2l1.8,1.8l-1.3,0.4l2.5,0.7l-2,0.2l1.8,1.1L212,146l3.6-0.9l3.8,4.2l3.8-0.2
		l1.3,0.9l2.7-1.8l-4-2.2l5.1,0.4l-1.1-1.1l2,0.5l-1.1-2l3.1,1.6l-0.4-1.3l0.4,0.9l0.9-0.9l0.2,1.1l4.2,1.6l4.9,6.7l0.4,0.4l6.7,1.6
		l1.3,1.3l2.5-1.3l-2.9-0.9l-0.4-0.2l-0.4-0.6l0.9-0.7l-2.4-0.7v-1.8l-2.2,0.2l-1.3-3.6l-3.1-2.4l-0.9-2.5h3.1l-0.7-1.8l-6.2-2.7v-2
		l-4.2-3.8l-15.5-6l-7.3-2.7l-2.9,1.1l0.2,1.1l-2.7,0.2l-2.2,2.9l-2.2,0.9l-1.8-2.9l-0.5,1.3l-1.1-1.8l-0.6-5.3L189.4,119.8
		L189.4,119.8z M172.5,120.4l-1.1,0.4v0.2l0.6,1.1l1.6-0.2L172.5,120.4L172.5,120.4z M199.6,120.7l2.2,1.8l1.3-0.2L199.6,120.7
		L199.6,120.7z M184.5,121.8l-1.3,0.2l1.1,1.1L184.5,121.8L184.5,121.8z M38.2,123.1l-0.5,0.5l-0.2,0.2h0.2l0.7,0.2h-0.7l-0.2,1.3
		l-0.1,0.4l-0.1,0.3v0.3l-0.7,3l-0.2-0.7l0.2,3.3l0.2,2.9l2.2-2l1.3-3.1l-0.5-3.8L38.2,123.1z M172.7,123.8l-0.9,0.9h2.7l-0.4-0.5
		L172.7,123.8L172.7,123.8z M199.8,123.8l2,0.7h3.1L199.8,123.8L199.8,123.8z M156.5,124.4l0.2,1.1l2-1.1H156.5L156.5,124.4z
		 M182,124.4l-2.2,0.7l2,0.2L182,124.4L182,124.4z M162.1,125.3l-0.4,1.3l3.1-0.9L162.1,125.3L162.1,125.3z M97.4,126.2l-1.1,0.9H97
		l0.4,0.4V126.2L97.4,126.2z M241.4,126.9l-3.1,0.2l1.6,0.2L241.4,126.9L241.4,126.9z M90.3,127.5l0.2,1.1v0.2l0.7-1.1L90.3,127.5
		L90.3,127.5z M177.6,128.2l-3.1,0.9l1.1,1.3l4.9-0.7l3.3,1.6l-1.8-2.9L177.6,128.2L177.6,128.2z M174.5,129.1L174.5,129.1
		L174.5,129.1L174.5,129.1L174.5,129.1z M174.5,129.2l-0.4,0.1l-0.4,1.6L174.5,129.2L174.5,129.2z M73,128.4l-0.9,0.2l2.2,0.7
		L73,128.4L73,128.4z M169.8,129.5l-2.7,0.9l2.2,1.6l2-0.9L169.8,129.5L169.8,129.5z M256.1,132.5l1.7,1.5l1.8,4l0.4-2.2
		L256.1,132.5L256.1,132.5z M97,130.2v0.9l1.6-0.2L97,130.2L97,130.2z M76.6,131.1l-0.6,0.7l0.9,1.1l1.1,0.7l0.2-1.3L76.6,131.1
		L76.6,131.1z M12.1,132l-0.6,1.3v0.4L12.1,132L12.1,132z M11.5,133.8l-0.5,0.9v0.4L11.5,133.8L11.5,133.8z M101.9,134.2l-2.2,0.7
		l-0.7,1.6l2-0.2l0.7,2l2.2,0.2l0.4-1.6l-1.8-0.2L101.9,134.2L101.9,134.2z M157.2,134.7l-0.9,2.2l-0.4,2.4l1.8-1.6l-0.9-0.4
		L157.2,134.7L157.2,134.7z M11,135.2l-0.4,0.8l-0.2,0.7v0.2L11,135.2L11,135.2z M10.4,136.9l-0.2,0.6l0.2-0.4V136.9z M254.9,135.3
		l0.7,2.2l-2.7,1.8l-2.7-0.2v-1.6l-0.9,1.6l-5.1-0.2l4.2,2.7l4.9-0.4l3.6-1.6l-0.5-1.3l1.6-2l-0.9-0.7L254.9,135.3L254.9,135.3z
		 M156.1,135.8l-1.3,0.4l-0.2,2l1.1,0.2l0.2-1.6L156.1,135.8L156.1,135.8z M106.8,136.2l-0.2,2.2h1.3v-0.2l0.9-1.8L106.8,136.2
		L106.8,136.2z M196.9,136.2l-1.3,1.1l0.2,0.9l-0.5,3.1l2-2.2L196.9,136.2L196.9,136.2z M10.2,137.5L9.9,138v0.3L10.2,137.5
		L10.2,137.5z M9.9,138.2l-0.2,0.6l0.2-0.4V138.2L9.9,138.2z M81,137.8l-0.9,1.1l1.8,1.3L81,137.8L81,137.8z M9.7,138.9l-0.2,0.4
		v0.3L9.7,138.9L9.7,138.9z M9.5,139.6L9.4,140l0.1-0.3V139.6L9.5,139.6z M9.4,140l-0.3,0.6v0.4L9.4,140L9.4,140z M9.1,141l-0.2,0.7
		L9.1,141L9.1,141L9.1,141z M8.8,141.8l-0.2,0.4l-0.2,0.9L8.8,141.8L8.8,141.8z M8.4,143.1l-1.6,5.4l-0.7,2.7l-0.7,3.4l-0.2,0.2
		l-0.9,4l-0.1,0.9l0.1-0.2l0-0.3v0.1l0,0.1l-0.1,0.4l0.1-0.4l-0.2,0.9l-0.1,0.3l0.1-0.4l-0.1,0.5l0-0.1v0L4,160.9l0,0.1l0.1-0.4
		l-0.1,0.2v0.3l-0.1,0.6L3.7,162v0.2l-0.2,1.1l-0.1,0.9l0.1-0.6v0.3l-0.1,0.3l0,0.1l0,0.1l0,0v0.3l-0.2,1l0,0.1v0.2L3,166.6l0.1-0.5
		v0.3L3,166.6l0,0l0,0.1l-0.1,0.2v0.4l-0.2,0.9l0.2-0.9v0.7l-0.2,0.2v1.1l-0.2,0.4v0.9l-0.2,0.4v1.3L2,172.6v1.1l-0.2,0.4v1.3
		l-0.2,0.7v1.3L1.3,178v1.8L1,180.4v1.8l2.6-19l0.1-0.2v-0.4l-0.1,0.5l-0.1,0.1l0.1-0.5v0l0.2-0.9l0-0.2l0.2-0.9v-0.2l1.1-4.9
		l1.1-5.1l2-7.1L8.4,143.1L8.4,143.1z M1,182.2l-0.2,0.4v1.6L1,182.2L1,182.2z M0.8,184.2l-0.1,1.1l0.1-0.2V184.2L0.8,184.2z
		 M0.7,185.3l-0.1,0.2v0.9L0.7,185.3L0.7,185.3z M0.6,186.4l-0.1,2.2l0.1-0.2V186.4L0.6,186.4z M0.5,188.6l-0.1,0.3v2.7L0.5,188.6
		L0.5,188.6z M0.4,191.5l0,1.6l0-0.1V191.5L0.4,191.5z M0.4,193.2l-0.2,0.4v6.9L0.4,193.2z M0.2,200.4v6.2l0.2,0.4v4.2l0.2,0.4
		L0.2,200.4L0.2,200.4z M0.6,211.7l0,0.5L0.6,211.7L0.6,211.7L0.6,211.7z M4.2,159.5l-0.1,0.2v0.2l0-0.1L4.2,159.5L4.2,159.5z
		 M265.6,140.7l0.9,2.9l1.6,2.2h1.3L265.6,140.7L265.6,140.7z M84.6,142.6l0.9,1.6v-1.1L84.6,142.6L84.6,142.6z M209.4,143.3l-2,2.9
		h1.3l3.3-1.1l0.5-1.6L209.4,143.3L209.4,143.3z M167.2,144.9l-0.4,1.1l3.6-1.1H167.2L167.2,144.9z M271.1,145.5l1.5,2.5l1.8,0.6
		L271.1,145.5L271.1,145.5z M162.3,146.6l-0.4,1.1l2.2-0.4l0.2-0.7H162.3L162.3,146.6z M117.9,146.9l-2,2l-4.7,0.7l-2-1.6l-6.9,0.2
		l-0.7,2.2l-1.8,1.3l4-0.2l-0.2,1.3l4.4,0.2l3.1-0.9l5.8,0.7l10.6-0.4l2,0.2l-0.4-2l-0.2-1.1l-4.2,0.4l-2-2.7L117.9,146.9
		L117.9,146.9z M129.2,150.7l2,2l2-1.8l-2.4-0.2H129.2L129.2,150.7z M127.6,147.1l-4.2,0.7l2.5,0.4L127.6,147.1L127.6,147.1z
		 M156.7,147.1l-1.3,1.8l1.8-0.9L156.7,147.1L156.7,147.1z M155.4,148.9l-3.1,0.4l-3.8-0.9l-1.3,1.3l-0.7,0.7h0.7l5.6-0.2
		L155.4,148.9L155.4,148.9z M161.6,147.1l-1.1,0.4l0.7,0.7L161.6,147.1L161.6,147.1z M171.8,147.1l-7.3,1.3l-4.9,3.5l-0.2,1.3
		l-0.4,1.3l1.8-0.5l1.8-1.1L171.8,147.1L171.8,147.1z M7.3,147.8l-0.4,1.6v0.2L7.3,147.8z M140.3,148.9l-0.7,0.7l2,1.1l-4-0.4
		l-1.1,1.1l0.9,1.3l7.1-2.4L140.3,148.9L140.3,148.9z M277.1,149.5l1.8,2.2l2.9,2.2L277.1,149.5L277.1,149.5z M135,150.2l-0.9,1.8
		l2,0.2l0.2-2H135L135,150.2z M273.8,150.7l-0.7,0.9l2,1.6L273.8,150.7L273.8,150.7z M147.2,152l-3.3,1.3l3.3,1.3h0.2l1.6,0.6
		l1.1-1.1l-2.7-2L147.2,152L147.2,152z M283.8,153.5l1.1,3.3l1.1,1.6L283.8,153.5L283.8,153.5z M224,154.4l-1.3,0.9l-0.2,3.6
		l-1.8,1.8l1.3,0.2l-1.8,4.2l0.4,4.2l-3.8,8.7l-2-0.2h-1.3l-1.8-2.2L204,172l-4.2-3.5l2.2-4.2l-0.6-1.3l2-0.2v-1.6l1.8-1.6l-1.5-1.6
		l-1.8,2.2v-1.6l-1.3,0.5l0.9-0.9l-2.2,1.3l-1.8-1.3l-2,0.9l-0.6-1.6l-1.6,0.5l-5.1-2.5l-0.7,0.7l3.1,1.1l0.2,1.8l-4.4,0.4l-0.7-0.7
		l-1.5,1.1l0.7,0.9l-1.3-0.9l0.4,1.1h-1.3v2.2l-1.8,0.7l-1.3,2.9l2.2,1.1l-1.3,1.8l-1.1-1.1l-0.5,1.6l-0.2-1.3l-1.8-0.4l-1.1,1.1
		l0.4,1.6l-0.7-1.1l-0.4,1.1l0.7-2.7l-2.9-2.7l-1.8-0.5l-0.9,1.8l-0.2-1.1l-1.1,1.1l-0.6-1.1l-0.2,2.7l-1.1-1.3l-1.6,1.8l1.3,1.3
		l-2.2,0.2l1.6,1.3l-2-1.1l-0.9,1.6l0.4,1.1l0.7-0.7l-0.9,2h1.8l-1.8,0.7l-2.9-1.1v1.8l1.5,0.4v1.6l-1.3-0.9l0.2,2.2l-2.5-4.2
		l-2.2,3.3l0.9,2.9l-3.8,5.3l-3.3,1.1l-2.9,1.1l-5.1,3.3l-1.8-0.5l-6,5.3l-0.7,2.7l-1.3-2.2l-0.4,9.1l3.3,6.2l-1.1-1.1l-0.4,0.8
		l0.6,1.4l-2.2-1.3l6.7,9.6l0.9,2.9l0.4,1.8l3.3,4.7l0.2,4.7l-1.8,0.9l0.9,2.9l4.6,1.8l3.6-0.2l4.6-4.9h0.2l10-0.9l1.8-3.3l4.6-2.9
		l15.1-3.5l9.1,3.3l-0.4,1.6l2,0.9l2.2,4.9l-1.1-0.2l2.5,1.6v-1.6l5.3-5.3v-1.8l0.4,3.8l-1.6,2v2.5h-1.1l-0.7,1.3l2.7-0.5l1.1-3.3
		l1.3,2.2l-1.5,2.9l2.2-0.4l1.8,1.6l0.4,1.1l-0.2-0.4l0.2,3.6l0.7,0.9l1.6,2l7.8,3.3l4-3.3l0.4,1.1l-1.3,0.5h2.5l-0.4,0.9l2.2,1.8
		v-1.1l4.9-2.2l-1.3,0.4l0.7-0.7l6.4-0.7l1.3-6l2.2-2l-0.7-0.7l2.5-4.4l4.4-3.1l-0.4-1.1l2.7-3.6l1.1-3.6l1.8-4.4l-1.1-4.9l1.1-4.7
		l-3.6-7.1l-2.7-2.2v-4l-0.2,1.1l-1.8-2.2v2l-0.6-1.1l-0.7,0.7l-2-8.4l-7.8-5.3l-0.6-6.9l-1.8-1.8l0.2-5.1l-2.7-2.9l-2.7,0.6
		l-0.4-5.6L224,154.4L224,154.4z M133.5,212.8l-0.9-2.1L133.5,212.8L133.5,212.8L133.5,212.8z M182.5,156l2,2.5l2-1.8l-1.8-0.2
		l-0.7,0.7L182.5,156L182.5,156z M280.9,156.2l-0.4,0.7l1.3,0.6l2.4,1.3l-2.4-2L280.9,156.2L280.9,156.2z M182.5,156.4l-1.1,1.6
		l2-0.2L182.5,156.4L182.5,156.4z M285.5,160.2l2,2.4l1.3,0.4L285.5,160.2L285.5,160.2z M384.1,162l-0.2,0.2l0.4,1.1L384.1,162
		L384.1,162z M204.2,164l-1.1,1.3l-0.2,0.9l2,0.2L204.2,164L204.2,164z M3.3,165.1v0.2l-0.1,0.2L3.3,165.1L3.3,165.1z M300,178.9
		l-0.2,1.1l0.2,2.5l1.3-0.2L300,178.9L300,178.9z M300.8,184l0.5,1.8l0.9,0.4l-0.7-2.2H300.8L300.8,184z M304.9,194.2l-0.4,0.7v0.2
		l0.9,0.2L304.9,194.2L304.9,194.2z M334.6,195.1l-4,0.9l3.3,1.1l0.2-1.1l-1.1,0.4L334.6,195.1L334.6,195.1z M289.5,195.5l2,5.1
		l5.1,4.7L289.5,195.5L289.5,195.5z M329.5,197.3l-2.9,1.3l1.3,1.6l2-0.2L329.5,197.3L329.5,197.3z M255.3,206l-1.1,2.5l0.2,1.1
		L255.3,206L255.3,206z M0.6,213.5v0.9l0.1,0.2L0.6,213.5L0.6,213.5z M0.7,214.6l0.1,1.6v-1.3L0.7,214.6L0.7,214.6z M0.8,216.2v1.1
		l0.2,0.4L0.8,216.2L0.8,216.2z M5.1,233.8l0.2,1.1l0.7,2.9l0.2,2L6,239.5l0.6,2l-0.2,0.2l0.9,3.1l-0.4-1.3l0.4,2.2l0.2,0.6v0.9
		L7.3,246l0.2,1.6l0.4,1.3l-0.2-0.4l0.5,4l1.3,4.7l2.7,6.7l1.8,5.3l1.3,3.3l3.8,6.7l0.7,0.2l-0.7-4.2l-8.4-23.6l-1.1-2.9l-0.2-1.6
		l-1.3-3.8v-0.7l0.7,1.3l-0.4-2.2L6,235.1L5.1,233.8L5.1,233.8z M4.2,238.9l0.4,1.6v-0.2L4.2,238.9L4.2,238.9z M4.6,240.2l0.2,0.2
		l-0.2-0.9V240.2L4.6,240.2z M4.4,240.6v0.7l0.2,0.1l0.1,0.4v-0.3l-0.1-0.2L4.4,240.6L4.4,240.6z M4.6,241.9v0.6l0.2,0.3v0l0.1,0.3
		v-0.4l-0.1-0.1L4.6,241.9L4.6,241.9z M4.8,243.1v0.2l0.2,0.9v-0.6L4.8,243.1L4.8,243.1z M5.1,244.2l0.2,1v0.1l0,0.1l0.2,0.7v0.1
		l0,0.1l0.2,0.8v-0.7L5.5,246v-0.7l-0.2-0.4v-0.2L5.1,244.2L5.1,244.2z M5.7,247.1v0.2l0.4,1.5v0l0.1,0.1l0.2,0.5v0.2l0.1,0.3l0,0.1
		l0,0.2v0.3l0.2,0.4v0.4l0.2,0.4v0.2l0.1,0.1l0.1,0.5v0.1l0.1,0.1l0.2,0.6v0.1l0.1,0.2l0.1,0.5v0.2l0.2,0.3l0.1,0.2v0.4l0.2,0.4v0.4
		l0.4,0.9v0.2l0.2,0.5v0.4l0.3,0.6l0,0l0.1,0.3l-0.2-0.9l-0.2-0.8v-0.1l-0.1-0.1l-1.2-4.3l-0.7-2.2v0l-0.2-0.7V250l-0.1-0.2
		l-0.1-0.3v-0.2l-0.1-0.2l-0.1-0.4v-0.3L6,248v-0.5L5.7,247.1L5.7,247.1z M9.3,259.3v0.4l0.2,0.5v0.4l0.4,0.9v0.4l0.5,0.9L9.3,259.3
		L9.3,259.3z M10.4,262.9v0.4l0.4,0.8L10.4,262.9z M10.8,264.1l0.1,0.2v-0.1L10.8,264.1L10.8,264.1z M10.8,264.2v0.4l0.3,0.6
		L10.8,264.2L10.8,264.2z M11.2,265.3l0.3,1.1V266L11.2,265.3L11.2,265.3z M11.5,266.4v0.2l0.2,0.5L11.5,266.4L11.5,266.4z
		 M11.7,267.1l0.2,0.6l0.2,0.6V268L11.7,267.1L11.7,267.1z M12.2,268.3v0.1l0.1,0.3L12.2,268.3L12.2,268.3z M12.3,268.7l0.5,1.4
		v-0.4L12.3,268.7L12.3,268.7z M12.8,270.1L12.8,270.1l0.1,0.3L12.8,270.1L12.8,270.1z M12.9,270.4l0.3,0.9l0.2,0.6v-0.3L12.9,270.4
		L12.9,270.4z M13.5,271.9L13.5,271.9l0.2,0.5L13.5,271.9L13.5,271.9z M13.7,272.4l0.5,1.1v-0.2L13.7,272.4L13.7,272.4z M14.2,273.5
		v0.2l0.6,1.2L14.2,273.5L14.2,273.5z M14.8,275l0.3,0.7v-0.1L14.8,275L14.8,275z M15,275.6v0.3l0.2,0.2L15,275.6L15,275.6z M15,276
		l0.9,2v-0.4l-0.5-0.9l-0.2-0.2L15,276L15,276z M203.1,240.6l1.1,1.1l3.1-0.9L203.1,240.6L203.1,240.6z M16.4,246.4l0.4,1.8v-1.1
		L16.4,246.4L16.4,246.4z M299.7,249.7l0.5,7.3l0.2-1.3l1.1,1.3l-0.7,1.1l-0.4-0.7v2l0.9,0.4l-0.9-0.2v2.7l-2.2,2.9l-2.4,0.9
		l1.8,2.9l-1.6,3.3h-0.2l-0.9,0.6l0.7,1.6l2-0.7l5.3-5.8l2,0.4l3.1-4l-0.9-0.9l-2.4,0.9l-1.8-2l0.4-4l-0.9,2.5l-1.3-2l1.1-1.3
		l-0.7-2.2l0.9-2l-0.7,0.2l-0.9-2.2l-0.6,0.7l0.2-2.2L299.7,249.7L299.7,249.7z M16.2,251.7v0.9l0.7,0.2L16.2,251.7L16.2,251.7z
		 M233.1,255.5v1.3l0.9,0.4L233.1,255.5L233.1,255.5z M224.2,258.2l-0.2,2.5l1.8,3.3l-0.9-0.7v1.3l1.6,2.4l2,1.3l1.3-2.9l1.8,1.8
		l1.1-4.2l0.2,0.9v-4.9l-4,1.3L224.2,258.2L224.2,258.2z M292.4,269.5l-0.9,0.2v0.1L292.4,269.5L292.4,269.5z M291.5,269.8l-1.3,0.4
		l-6,6.2l-4.2,1.8l-2-0.4l-4.4,2.9v1.1l-0.5-0.7l-1.6,2.7l2.2,0.2l2,2.4l2.4-0.9l2.2-0.7l3.8-5.3l2,0.2l1.8,0.2l-0.7-0.9l1.1-1.6
		l5.1-3.3l0.6-1.6h-0.9l1.3-0.7l-2.9,0.5L291.5,269.8L291.5,269.8z M16.1,278.3l0.7,1.6v-0.1L16.1,278.3L16.1,278.3z M16.8,279.9
		v0.3l0.4,0.9l0.2,0.2l-0.2-0.4L16.8,279.9L16.8,279.9z M17.4,281.2l0.3,0.7l0.5,0.9v-0.3L17.4,281.2L17.4,281.2L17.4,281.2z
		 M18.2,282.9v0.2l0.6,1.3l0.1,0.1L18.2,282.9L18.2,282.9z M19,284.5l0.5,1.1v-0.1L19,284.5L19,284.5L19,284.5z M19.5,285.6v0.3
		l0.7,1.3l0.2,0.2L19.5,285.6L19.5,285.6z M273.3,285.8l-1.6,1.6l1.3-0.2L273.3,285.8L273.3,285.8z M306.9,286.9l-0.2,0.6l1.3-0.4
		L306.9,286.9L306.9,286.9z M21.5,289.7v0.2l0.9,1.8l0.2,0.2L21.5,289.7L21.5,289.7z M81.5,315.5l-0.7,1.3l-0.4-0.9l-0.2,0.9
		l-1.1-1.1l2.5,2.7l-0.2-0.9l1.3-0.2l-1.3-0.2l0.9-0.7L81.5,315.5L81.5,315.5z M199.2,331.7l-0.7,2.4l-6.9-0.4l0.7,2.5l-2,0.7
		l-3.1-2l-2.9-0.2l-1.3,2l-3.3-2.9l1.1,2.9l-1.8,0.4l-2.7,0.7l-3.1-1.1l-1.8,0.4l-2.7-1.6l-2,1.1l-2,3.1l-10-2.9l0.4,1.6l-2.7-0.2
		l-0.2,0.9l-0.2,0.9l-5.8-0.9l1.8,2.7l-0.2,1.6l-2.7,0.7l-1.8,1.8l-3.3-1.1l-2.5,2.9l-3.8-0.6l1.1,1.1l3.1,1.6l0.6,1.6l-0.4,1.1
		l-0.2,0.9l1.8,2v1.8l-1.3-0.5l0.7,1.6l-3.1-0.7l-2,0.4l-3.1-1.3l-5.1,4.4l-0.5,0.5l-2.2,0.6l-1.3-0.9l-2.7,0.9l1.1,2.7l2.4,0.9
		l-1.3,0.2l1.1,1.1l0.4-0.5l1.1,1.1l-1.3,0.2l1.3,0.9l3.1,3.8l2.2,1.1l2.7,1.3l0.5,0.2h-0.5l-1.3-0.2l0.7,0.7l-2.9,0.4l0.9,0.7
		l2.2,0.4l0.4,0.7l-1.3,0.2l2.9,1.3l1.6,1.1l2.4,1.6l0.5,1.3v0.2l0.4,0.9l1.8,1.1l-1.3-0.2l3.6,1.3h0.2l3.3,2v0.2h0.2l1.5,0.4l3.8,2
		h-2l1.1,0.4h1.1l1.8,0.4l1.1,0.2l5.8,1.6l0.7,0.4l4.7,0.7h1.8l2.2,0.4l3.1,0.4l1.1,0.2h10.7l0.9-0.2l4.2-0.2h1.8l2-0.5l3.1,0.5h0.9
		l0.5-0.2l0.4,0.2l2.2-0.2l12.9,1.1h2l-0.2,0.9l0.5,0.2l3.1,0.7l-0.2,0.2l-0.2,0.2l1.3-0.2h2.2v0.1l1.6-0.1l1.3-0.2l1.5-0.2h0.2
		l1.3-0.2l1.1-0.2h-0.5l1.1-0.2h0.7l-0.4-0.2l-1.3,0.2H228l0.9-0.4H228l0.6-0.2h3.1l1.3-0.5h-0.9l1.1-0.2h-0.4l3.5-0.9l-1.3,0.2
		l-2,0.2l0.7-0.2l-2.7,0.4l1.3-0.7l-3.8,0.7l-2-0.2l6-0.9l0.7-0.4h-1.6l2-0.2l0.2-0.2l6.7-2h0.9l4.7-2.4l1.3-0.2l-0.2,0.2l2-0.4
		l2-1.1l0.9-0.7l-0.2-0.7l-2.7,0.4l-2.2,0.9l0.9-0.5l-4.7,0.5l2.2-1.1l-1.1-0.2h2.9l1.1-0.9h0.9l2.2-0.7h-1.8l-1.5,0.6l-0.9-0.2
		l4.7-2l1.6-2l0.4-0.4l3.1-2.5l-3.3-1.1l-1.8-2l0.9-0.9l-2.5,0.2H250l-2-1.8l-1.3,0.7l-1.8-2l-0.9,0.9h-2l-0.6-2l-2.7,0.9l-0.9-0.2
		l-2.2-0.7l-1.1,0.4l-5.1-3.3l-0.4-0.9l-2-2.5l-3.8-1.8l-1.3,1.3h-1.5l0.2-2.5l2.7-2.9l1.3,0.7l-0.4-1.1l1.3-0.9l1.1,0.2l0.5-1.3
		l1.1,0.2l2.4-1.1l1.1,0.5l2.9-2.5l1.8-0.2l0.4-1.3l-0.7,0.7l-1.6-3.3l-4.4-1.3l-0.7-1.1l-0.4-1.1l-0.4-0.9l-4.2-1.6l-1.1-1.8
		l-6.9-0.7l0.7-1.3l-4-1.1l2-0.9v-0.9l-2.4,0.7l-6.2-1.3l-4.9-1.1L199.2,331.7L199.2,331.7z M228,398l-0.9,0.2l1.8-0.2H228L228,398z
		 M222,398.7l-2,0.1l-1.1,0.2l2.5-0.2h0.6V398.7L222,398.7z M231.6,397.1l-0.9,0.2h0.4l0.7-0.2H231.6L231.6,397.1z"/>
</g>
<g id="Oceania">
	<path id="path5584_2_" fill="#FEC010" stroke="#000000" stroke-linecap="round" stroke-linejoin="round" d="M370,102.3l0.6,1.1
		l0.5,0.4l-0.9-1.6H370L370,102.3z M372.7,106l0.9,1.3l0.2,0.2L372.7,106L372.7,106z M374.5,108.9l1.6,3.8l0.7-0.2L374.5,108.9
		L374.5,108.9z M219.2,149.4l3.8-0.2l1.3,0.9l2.7-1.8l-4-2.2l5.1,0.4l-1.1-1.1l2,0.5l-1.1-2l3.1,1.6l-0.4-1.3l0.4,0.9l0.9-0.9
		l0.2,1.1l4.2,1.6l4.9,6.7l0.4,0.4l6.7,1.6l1.3,1.3l2.5-1.3l-2.9-0.9l-0.4-0.2l-0.4-0.6l0.9-0.7l-2.4-0.7v-1.8l-2.2,0.2l-1.3-3.6
		l-3.1-2.4l-0.9-2.5h3.1l-0.7-1.8l-6.2-2.7v-2l-4.2-3.8l-8.2-3.1l-2.2-0.8L219.2,149.4L219.2,149.4z M179.7,125.2l2,0.2
		 M241.2,126.9l-3.1,0.2l1.6,0.2L241.2,126.9L241.2,126.9z M180.3,129.8l3.3,1.6l-1.8-2.9 M252.5,129.8l5.1,4.2l1.8,4l0.4-2.2
		L252.5,129.8L252.5,129.8z M254.7,135.4l0.7,2.2l-2.7,1.8l-2.7-0.2v-1.6l-0.9,1.6l-5.1-0.2l4.2,2.7l4.9-0.4l3.6-1.6l-0.5-1.3l1.6-2
		l-0.9-0.7L254.7,135.4L254.7,135.4z M265.4,140.7l0.9,2.9l1.6,2.2h1.3L265.4,140.7L265.4,140.7z M271,145.6l1.6,2.5l1.8,0.6
		L271,145.6L271,145.6z M277,149.6l1.8,2.2l2.9,2.2L277,149.6L277,149.6z M273.6,150.7l-0.7,0.9l2,1.6L273.6,150.7L273.6,150.7z
		 M283.6,153.6l1.1,3.3l1.1,1.6L283.6,153.6L283.6,153.6z M223.9,154.5l-1.3,0.9l-0.2,3.6l-1.8,1.8l1.3,0.2l-1.8,4.2l0.4,4.2
		l-3.8,8.7l-2-0.2h-1.3l-1.8-2.2l-7.8-3.6l-4.2-3.5l2.2-4.2l-0.6-1.3l2-0.2v-1.6l1.8-1.6l-1.6-1.6l-1.8,2.2v-1.6l-1.3,0.5l0.9-0.9
		l-2.2,1.3l-1.8-1.3l-2,0.9l-0.6-1.6l-1.6,0.5l-5.1-2.5l-0.7,0.7l3.1,1.1l0.2,1.8l-4.4,0.4l-0.7-0.7l-1.6,1.1l0.7,0.9l-1.3-0.9
		l0.4,1.1h-1.3v2.2l-1.8,0.7l-1.3,2.9l2.2,1.1l-1.3,1.8l-1.1-1.1l-0.5,1.6l-0.2-1.3l-1.8-0.4l-1.1,1.1l0.4,1.6l-0.7-1.1l-0.4,1.1
		l0.7-2.7l-2.9-2.7l-1.8-0.5l-0.9,1.8l-0.2-1.1l-1.1,1.1l-0.6-1.1l-0.2,2.7l-1.1-1.3l-1.6,1.8l1.3,1.3l-2.2,0.2l1.6,1.3l-2-1.1
		l-0.9,1.6l0.4,1.1l0.7-0.7l-0.9,2h1.8l-1.8,0.7l-2.9-1.1v1.8l1.6,0.4v1.6l-1.3-0.9l0.2,2.2l-2.5-4.2l-2.2,3.3l0.9,2.9l-3.8,5.3
		l-3.3,1.1l-2.9,1.1l-5.1,3.3l-1.8-0.5l-6,5.3l-0.7,2.7l-1.3-2.2l-0.4,9.1l3.3,6.2l-1.1-1.1l-0.4,0.8l0.6,1.4l-2.2-1.3l6.7,9.6
		l0.9,2.9l0.4,1.8l3.3,4.7l0.2,4.7l-1.8,0.9l0.9,2.9l4.6,1.8l3.6-0.2l4.6-4.9h0.2l10-0.9l1.8-3.3l4.6-2.9l15.1-3.5l9.1,3.3l-0.4,1.6
		l2,0.9l2.2,4.9l-1.1-0.2l2.5,1.6v-1.6l5.3-5.3v-1.8l0.4,3.8l-1.6,2v2.5h-1.1l-0.7,1.3l2.7-0.5l1.1-3.3l1.3,2.2l-1.6,2.9l2.2-0.4
		l1.8,1.6l0.4,1.1l-0.2-0.4l0.2,3.6l0.7,0.9l1.6,2l7.8,3.3l4-3.3l0.4,1.1l-1.3,0.5h2.5l-0.4,0.9l2.2,1.8v-1.1l4.9-2.2l-1.3,0.4
		l0.7-0.7l6.4-0.7l1.3-6l2.2-2l-0.7-0.7l2.5-4.4l4.4-3.1l-0.4-1.1l2.7-3.6l1.1-3.6l1.8-4.4l-1.1-4.9l1.1-4.7l-3.6-7.1l-2.7-2.2v-4
		l-0.2,1.1l-1.8-2.2v2l-0.6-1.1l-0.7,0.7l-2-8.4l-7.8-5.3l-0.6-6.9l-1.8-1.8l0.2-5.1l-2.7-2.9l-2.7,0.6l-0.4-5.6L223.9,154.5
		L223.9,154.5z M133.3,212.8l-0.9-2.1L133.3,212.8L133.3,212.8L133.3,212.8z M182.4,156l2,2.5l2-1.8l-1.8-0.2l-0.7,0.7L182.4,156
		L182.4,156z M280.7,156.3l-0.4,0.7l1.3,0.6l2.4,1.3l-2.4-2L280.7,156.3L280.7,156.3z M182.4,156.5l-1.1,1.6l2-0.2L182.4,156.5
		L182.4,156.5z M285.4,160.3l2,2.4l1.3,0.4L285.4,160.3L285.4,160.3z M384,162l-0.2,0.2l0.4,1.1L384,162L384,162z M204.1,164
		l-1.1,1.3l-0.2,0.9l2,0.2L204.1,164L204.1,164z M299.8,178.9l-0.2,1.1l0.2,2.5l1.3-0.2L299.8,178.9L299.8,178.9z M300.7,184
		l0.5,1.8l0.9,0.4l-0.7-2.2H300.7L300.7,184z M304.7,194.3l-0.4,0.7v0.2l0.9,0.2L304.7,194.3L304.7,194.3z M334.5,195.2l-4,0.9
		l3.3,1.1l0.2-1.1l-1.1,0.4L334.5,195.2L334.5,195.2z M289.4,195.6l2,5.1l5.1,4.7L289.4,195.6L289.4,195.6z M329.4,197.4l-2.9,1.3
		l1.3,1.6l2-0.2L329.4,197.4L329.4,197.4z M255.2,206l-1.1,2.5l0.2,1.1L255.2,206L255.2,206z M203,240.7l1.1,1.1l3.1-0.9L203,240.7
		L203,240.7z M299.6,249.8l0.5,7.3l0.2-1.3l1.1,1.3l-0.7,1.1l-0.4-0.7v2l0.9,0.4l-0.9-0.2v2.7l-2.2,2.9l-2.4,0.9l1.8,2.9l-1.6,3.3
		h-0.2l-0.9,0.6l0.7,1.6l2-0.7l5.3-5.8l2,0.4l3.1-4l-0.9-0.9l-2.4,0.9l-1.8-2l0.4-4l-0.9,2.5l-1.3-2l1.1-1.3l-0.7-2.2l0.9-2
		l-0.7,0.2l-0.9-2.2l-0.6,0.7l0.2-2.2L299.6,249.8L299.6,249.8z M233,255.6v1.3l0.9,0.4L233,255.6L233,255.6z M224.1,258.3l-0.2,2.5
		l1.8,3.3l-0.9-0.7v1.3l1.5,2.4l2,1.3l1.3-2.9l1.8,1.8l1.1-4.2l0.2,0.9v-4.9l-4,1.3L224.1,258.3L224.1,258.3z M292.3,269.6l-0.9,0.2
		v0.1L292.3,269.6L292.3,269.6z M291.4,269.9l-1.3,0.4l-6,6.2l-4.2,1.8l-2-0.4l-4.4,2.9v1.1l-0.5-0.7l-1.6,2.7l2.2,0.2l2,2.4
		l2.4-0.9l2.2-0.7l3.8-5.3l2,0.2l1.8,0.2l-0.7-0.9l1.1-1.6l5.1-3.3l0.6-1.6h-0.9l1.3-0.7l-2.9,0.5L291.4,269.9L291.4,269.9z
		 M273.2,285.8l-1.6,1.6l1.3-0.2L273.2,285.8L273.2,285.8z M306.7,286.9l-0.2,0.6l1.3-0.4L306.7,286.9L306.7,286.9z"/>
</g>
<g id="Disputed_borders_2_" opacity="0.25">
	<polyline fill="none" stroke="#656666" stroke-width="0.6569" stroke-dasharray="0.6569" points="91.3,57.3 88.8,57.3 88.8,56.3 
		84.8,58.3 77.3,62.3 	"/>
	<polyline fill="none" stroke="#656666" stroke-width="0.6569" stroke-dasharray="0.6569" points="77.3,65.3 81.3,62.3 85.3,60.3 
		87.3,60.3 	"/>
	<polyline fill="none" stroke="#656666" stroke-width="0.6569" stroke-dasharray="0.6569" points="60.9,58.8 62.4,61.3 56.4,66.8 	
		"/>
	<polyline fill="none" stroke="#656666" stroke-width="0.6569" stroke-dasharray="0.6569" points="53.4,68.3 53.4,66.3 55.4,63.3 
		60.9,58.8 	"/>
	<line fill="none" stroke="#656666" stroke-width="0.6569" stroke-dasharray="0.6569" x1="56.2" y1="66.9" x2="53.4" y2="68.3"/>
	<line fill="none" stroke="#656666" stroke-width="0.6569" stroke-dasharray="0.6569" x1="56.4" y1="66.8" x2="56.2" y2="66.9"/>
</g>
<g id="borders_2_" opacity="0.25">
	<line fill="none" stroke="#656666" stroke-width="0.6569" x1="220.2" y1="128.3" x2="219.2" y2="149.2"/>
	<polyline fill="none" stroke="#656666" stroke-width="0.6569" points="127.1,109.6 128.6,111.6 129.6,108.6 131.1,109.6 
		131.1,107.6 	"/>
	<polyline fill="none" stroke="#656666" stroke-width="0.6569" points="112.2,121.5 114.7,123.5 119.6,122.5 121.6,120 122.6,121 
		127.6,119.5 133.1,110.1 138.5,110.1 	"/>
	<polyline fill="none" stroke="#656666" stroke-width="0.6569" points="90.8,113.1 88.8,115.6 87.3,115.6 85.3,113.6 83.3,112.6 	
		"/>
	<polyline fill="none" stroke="#656666" stroke-width="0.6569" points="81.8,103.6 84.8,98.1 84.8,93.6 82.3,90.2 85.3,86.2 
		82.3,82.2 84.8,80.7 84.8,78.7 89.3,75.7 91.3,75.2 94.7,71.7 91.8,71.7 90.8,68.3 90.8,65.8 87.8,66.3 88.8,65.3 93.2,60.8 
		93.2,57.8 92.3,55.8 89.8,58.8 88.3,60.3 83.8,62.8 79.3,69.7 76.8,71.7 72.3,78.7 	"/>
	<polyline fill="none" stroke="#656666" stroke-width="0.6569" points="66.4,79.7 65.9,74.2 68.4,71.7 71.8,70.2 74.8,69.7 
		72.8,72.7 71.3,74.2 73.8,73.7 74.3,75.2 	"/>
	<polygon fill="none" stroke="#656666" stroke-width="0.6569" points="71.3,65.8 77.3,62.3 77.3,65.3 71.3,67.7 	"/>
	<polygon fill="none" stroke="#656666" stroke-width="0.6569" points="71.3,65.8 67.4,69.7 64.4,70.7 62.4,71.7 61.4,70.2 
		59.4,71.7 55.9,71.7 58.9,67.2 61.9,66.3 63.9,67.2 66.9,66.8 	"/>
	<polyline fill="none" stroke="#656666" stroke-width="0.6569" points="174.9,24.9 177.4,23.9 181.4,23.9 	"/>
	<polygon fill="none" stroke="#656666" stroke-width="0.6569" points="161.9,13 161.9,14.5 155.5,15 147.5,17.4 142,17.9 141,21.9 
		131.1,24.4 123.6,26.9 116.1,26.9 107.2,30.4 107.2,28.9 103.2,29.4 101.7,29.9 103.2,27.4 103.2,25.4 114.7,19.9 118.1,20.4 
		127.1,13.5 133.1,16.5 137.1,15 145,14 153,11.5 156.5,10.5 154.5,13 	"/>
	<polyline fill="none" stroke="#656666" stroke-width="0.6569" points="169.4,21.9 173.9,20.4 177.4,18.9 181.4,17.9 184.3,17 
		188.3,17 188.3,14 194.3,13.5 197.3,10 188.3,10.5 187.3,9.5 181.9,8.5 178.9,6 171.4,6 168.4,8 164.4,10 158.5,11 156.5,10.5 	"/>
	
		<line fill="none" stroke="#656666" stroke-width="0.6569" stroke-linecap="square" stroke-linejoin="round" stroke-opacity="0.4667" x1="56.4" y1="66.8" x2="58.9" y2="67.2"/>
	<polyline fill="none" stroke="#656666" stroke-width="0.6569" points="103.2,25.4 96.2,29.4 82.3,39.4 76.3,43.8 61.9,57.3 
		60.9,58.8 	"/>
	<polyline fill="none" stroke="#656666" stroke-width="0.6569" points="31,96.6 37,92.2 37,87.7 40.5,83.2 47.5,74.2 53.4,68.3 	"/>
	<line fill="none" stroke="#656666" stroke-width="0.6569" x1="162.9" y1="149.4" x2="163.9" y2="152.4"/>
	<polyline fill="none" stroke="#656666" stroke-width="0.6569" points="94.7,71.7 96.7,72.2 96.7,67.7 100.7,68.7 104.2,65.3 
		108.7,62.3 111.2,63.8 111.2,65.8 115.1,65.8 	"/>
	<polyline fill="none" stroke="#656666" stroke-width="0.6569" points="97.7,99.1 101.7,96.6 103.7,93.6 108.7,90.2 108.7,85.2 
		108.7,81.2 105.2,76.7 101.2,73.7 104.2,72.2 102.7,71.2 99.2,70.7 99.2,68.3 	"/>
	<polyline fill="none" stroke="#656666" stroke-width="0.6569" points="90.3,75.2 93.8,76.7 91.8,81.2 95.7,79.2 100.2,77.2 
		103.2,83.2 103.7,86.7 	"/>
	<polyline fill="none" stroke="#656666" stroke-width="0.6569" points="93.2,94.1 93.8,89.2 103.2,86.7 109.2,83.7 	"/>
</g>
<g id="Coast_4_">
	<path id="path5584_1_" fill="none" stroke="#1878AC" stroke-width="0.4379" stroke-linecap="square" stroke-linejoin="round" d="
		M27.8,98.3l-0.2,0.4l-0.2,0.2l-0.2,0.4v0.2l-0.2,0.4l-0.5,0.4v0.4l-0.2,0.2l-0.4,0.4v0.4l-0.3,0.6l0,0l-0.1,0.1l-0.2,0.5l0,0
		l-0.6,1l0.9-1.8l-1.2,2.4l0,0l-0.1,0.3l0.1-0.1l0.2-0.3l-0.2,0.4l0.9-1.6l1.1-1.3l5.6-7.5l-0.9,2l0.7-0.7l-0.9,2l0.2-0.2l0.4-0.7
		v0.2l0.4-0.4l-0.7,1.3l1.1-1.6l-0.9,1.3v0.9l2-1.8l-0.9,1.6l-2,2l0.6,2.2l2.5-2.9l1.6-3.3l0.9-0.4l-1.1,1.1l-0.2,0.9l0.7-0.4
		l-0.9,1.3l-0.2,1.1l-1.3,2.9l-2.4,9.8l0.4,11.5v5.8l1.6,1.3l1.1-1.6l0.7-2.2l1.8-1.8l-0.5-0.2l0.7-2l0.4-0.9l1.1-0.7l0.7-4l0.7-2.2
		l0.2-0.4v-0.1l1.1-2.6l0.6-4.6l0-0.1v-0.2l0.9-2l1.3-0.9l1.1-2l2.2-2l0.5-1.3l4.9-5.3l2.7-4l3.3-2.9l2.2-2.7l0.2-1.6l2.4-1.8
		l0.9-1.6l-0.2,1.6l1.3-1.8l0.4,0.9l0.4-1.3l0.2,0.7l0.9-1.1l0.4,0.4l0.7-1.6l0.2,1.3l1.6-2.5l-0.4,1.3l0.6-0.5L70,76l1.8-0.7
		l0.9,5.6l1.1-1.3l-0.7,1.3l1.8-0.2l0.2,1.2l0-0.1v4.4l-2,4.7l1.3-1.1l-0.9,1.3l0.6-0.9l0.7,0.6l0.7-1.1l0.7,0.7l0.9-1.6l1.8-1.1
		l-0.4-0.9l0.7,0.6l1.3-1.3l0.4-1.8l0.7,2.2l1.1-0.4l-0.9,4.7l0.2,3.6l0.5-1.3l0.9,2.9l-1.1,2.7l0.9,0.5l-1.6,3.1v2l0.7-1.1
		l-0.2,1.1l-1.8,5.6l1.1-0.9l3.3,4l0.2,0.4l0.9,6.4l2,4l6.2,3.1l1.3-1.6l1.1,0.7l-2.4-3.8l0.2-5.3l-0.6-2.2l-4.4-3.3l-3.1-0.2
		l-0.9-4.2l-0.2-1.6l-1.8,0.5l0.2-2v-1.1l3.1-5.8v-0.3l0.1-0.3v0l0.2-0.3v-0.4l0.2-2l2.9-1.3l-0.6,2.5l2.7-0.9l2.2,0.9l0.9,3.3
		l1.3-1.1v2l0.7-0.9l3.3,1.1l-1.1,3.8l1.3-0.2l2.9-2.4l-0.9-1.6 M102.4,98.7l2,0.9l-0.7-1.1l-0.2-0.4l0.6,0.2h0.2l-0.2-0.4h1.1
		l-0.9-0.4l0.9-0.2v-0.7l1.6,0.2l5.8-4l0.9-3.8l0.9-0.2l-0.7-6.9l-1.6-2l-3.1-1.3l-3.3-4.4l1.3-2.7l2.2-1.6l0.2-1.1h0.7l-0.5-0.6
		l2.2-0.5l1.6-1.6l2-0.4l0.4-1.1l1.3,0.9l1.6-1.1l0.9,0.7l-1.1,1.3l0.2,1.8l1.1-0.2l0.9-3.1l0.2,0.6l3.6-1.6l0.2-0.7l2-0.2l0.2-0.7
		h1.5l0.5-1.6l0.2,0.9l0.7-0.7l0.7,0.2v-2.2l2.4,1.8l-0.2-0.7l2-1.1v0.7l1.6-0.9l0.7,0.5l2.9-1.1l0.9-0.9l-0.6-0.4l2.4-0.7l0.4-0.9
		l0.7,0.4l1.8-1.3l-0.9-0.4l2.7-0.4l-0.2-0.9h1.3l-0.2-0.9h1.3l0.2-0.9l0.9,0.4l-0.2-1.6l1.6-0.9h-1.1l0.7-0.2l-0.7-0.7l1.3,0.2h0.4
		l2.7-3.1l-0.6-0.2l3.1-0.7l-0.7-0.9l1.3-0.6l-0.9-0.5l1.6-0.2l0.2-0.9l-1.8,0.5l2.5-1.1h-0.7l-1.8-0.5l-3.3,0.5l5.6-2l-2.9-1.6h3.1
		l-2.7-1.3l-0.7-3.1l-0.7-0.2l-2.2-0.2l0.2-0.4l2.7-1.6l0.9-0.6l-0.4-0.2l1.5-0.2l0.5-0.9l3.5-0.9h1.3l0.9-0.9l-5.1-0.2l-2.2,0.9
		l-2.4,0.9l-0.2-1.8h-2.9l0.7-1.1l3.3-0.7l3.1-1.6l2.9-1.6l2.5-0.4l0.7,0.7l-3.1,2l1.8-0.2l-2.4,1.3l7.1-2.4h4.9l-1.3,1.3l1.1,0.2
		l-1.8,0.2l-0.9,0.9l1.6-0.2l-0.9,0.5l1.6-0.2l0.2-0.2l2.4,0.5l0.7,1.6l-0.9-0.4l-1.3,0.6l0.9,0.5l0.2-0.5l-0.2,0.9h1.1l-2,2
		l0.9,0.7l-1.1,0.2l0.6,0.4l2.2-1.1l0.2,0.7l0.4-0.9l0.9,0.7l-0.2-0.9l2,0.4l0.7-0.9l1.3,0.2l1.6-1.8l-0.2-1.8l-2.4-2.4l-2.7-0.9
		l0.6-0.6l6-2l0.4-1.3l2.4-0.9v-0.4h1.6l1.3-1.1l3.3,0.9l5.3-1.1l7.1-3.5l4.2-2.5l0.7-0.4V8.1l-0.2-0.7l2-1.3l-2.2-0.9v0l1.2,0.2
		l0.1,0l0.5-0.2L209,4.5l0.1,0.1l-0.1,0c0,0-0.2-0.4-0.4-0.3c-0.2,0.1-2.2,0-2.2,0l-0.2,0.2l-2.3,0.3l0.5-0.4l-1.6,0.2l0-0.4l-2.3,0
		l-0.6-0.3l5.3-0.8l3.4-0.7l4-0.4l5.6,0.2l0.9,0.2l0.4-0.2l4.4,0.5h0.4l5.3,0.6l-2-0.2l0.7,0.2l4.2,0.5l-0.2-0.2h2.2l4.7,0.7h0.4
		v0.2h0.7l0.6,0.2h0.2l1.2,0.2l-1.8-0.4l-0.1-0.1l-1.7-0.4l-0.9-0.1h0l-0.2-0.1h-0.2l-0.4-0.2h-0.2l-1.1-0.2l0,0h-0.2L234.4,3
		l-0.1-0.1H234l-1.2-0.2h0l0,0h-0.1l-0.8-0.1h0l-0.1-0.1h-0.9 M240.2,4.2l1.4,0.3h0.2L240.2,4.2L240.2,4.2L240.2,4.2z M240.2,4.1
		L240.2,4.1l-0.3-0.1L240.2,4.1L240.2,4.1z M242.1,4.7l0.4,0.1l0.9,0.2l-0.6-0.2L242.1,4.7z M243.4,4.9l1.2,0.3l1.5,0.4l-2.2-0.4
		h-1.3L241,5.4l-2.2-0.2l-0.4,0.4l0.7,0.9l6.4,4l2.2-0.7l-0.9-0.9l2.9,0.7h0.2l-1.1-0.9l-0.4-0.2h0.2l3.1,0.4l-1.8-1.1l2,0.4
		l-2.7-1.1h0.4L247,6.5V6l4.4,0.9l0.9,0.2l-0.4-0.2l-0.6-0.2h-0.5l-5.1-1.4L245,5.2L243.4,4.9L243.4,4.9z M75.1,82l0-0.1L75,82.1
		L75.1,82L75.1,82z M75,82.1l-1.2,0.4l0.7,0.9L75,82.1L75,82.1z M23.9,105.2l-0.8,1.3l0.2-0.2L23.9,105.2L23.9,105.2z M22.6,108
		l0.3-0.6l0.2-0.4v0l0.3-0.8l-0.1,0.1l-0.2,0.4l0,0.1l-0.2,0.4l-0.2,0.2l-0.2,0.7l-0.3,0.6l-0.1,0.1 M23.4,106.1l-0.1,0.3l0.2-0.4
		L23.4,106.1L23.4,106.1z M232.4,3.6l1.9,0.2l-0.7-0.2H232.4L232.4,3.6z M213.6,4.5l1.2,0.4l-0.3-0.4H213.6L213.6,4.5z M214.9,4.9
		L214.9,4.9l0.1,0L214.9,4.9L214.9,4.9z M214.9,4.9L213,5.2V6l1.6,1.1l0.2,0.9l0.9,4.4l0.9-0.9l2.2,0.4l0.2,0.7l0.4-0.4l-3.1-1.8
		l0.7-1.3h2.2l2,0.6L219,8.3l-2.5-1.3L214.9,4.9L214.9,4.9z M248.5,6.5l0.5,0.2l1.1,0.2L248.5,6.5z M252.3,7.2l1.1,0.2l-0.5-0.2
		H252.3L252.3,7.2z M253.5,7.4l0.5,0.2h0.2L253.5,7.4L253.5,7.4z M254.3,7.6l1.3,0.4l-1-0.4H254.3L254.3,7.6z M254.5,7.6l0.6,0.2
		l-0.4-0.2H254.5z M150.6,7.8h0.7l-2.7,1.3l-2.7,0.9h0.7l-6.2,2l-1.6,0.7l-2.7,0.9l-1.6,0.2l3.1-0.9l3.6-1.3l4.7-1.8L150.6,7.8
		L150.6,7.8z M255.7,8.1l0.6,0.2l-0.4-0.2H255.7L255.7,8.1z M256.3,8.3l0.7,0.2l-0.4-0.2l0.2,0.1l0.6,0.2L257,8.3h-0.3l-0.5-0.2
		h-0.2l0.6,0.2H256.3L256.3,8.3z M257.2,8.5l1.3,0.4l-0.4-0.2l-0.2,0L257.2,8.5L257.2,8.5z M244.3,10.3l-1.1,0.4h1.3L244.3,10.3
		L244.3,10.3z M215.4,12.9l-0.7,2.9l-2.7-0.2l0.7,0.7l-1.3,0.2l-0.4,0.2l0.7,1.6v-0.2l2.9-0.2l-2.2-0.7l0.2-0.4l1.5,0.4l1.6-0.4
		l4.2,1.1l1.6-1.1l4.4-0.4h-1.3l-0.2-1.3l-1.3,0.4l-2.4-0.2L215.4,12.9L215.4,12.9z M230.1,14l-1.8,1.1l4-0.9L230.1,14L230.1,14z
		 M226.1,14.9l-0.9,0.7L225,16l2.2-0.9L226.1,14.9L226.1,14.9z M213.9,18.5l0.9,0.9l-2.2-0.7l-0.9,0.5l-0.2,0.4l-0.2,0.9h0.9
		l0.2,0.4l-0.2,0.5l-1.5,2l-5.6,2.2l-1.3-0.7l1.3-0.7l-1.6,0.2l-2,2.9l-8.4,0.2l-6.4,2.5v0.7l3.6,0.2l0.9-1.1l0.4,0.7l4.7-1.3h3.3
		l-0.9,1.6l2,0.7l0.9-0.5l2.5-0.9l-1.1-0.9l0.7-0.7l0.4,0.7l0.2-0.5l1.1,0.2l-0.9,0.4h3.3l1.6-0.9l0.2,0.9l0.9-1.1l1.5,0.2l0.2-0.9
		l0.4,0.2h0.4l-0.2,0.7l-0.2,0.4h0.2l2.2-1.3l-0.9-0.9l1.1-1.3l-0.4-2h1.6l1.1-2l-2-2.9H213.9L213.9,18.5z M195.2,29.8l-2.2,0.9
		l-0.4-0.4l-2.9,1.6l1.3-0.2l0.4,1.3l1.1-0.4l1.8-1.1l1.8,0.4l1.6-1.1l-0.4-0.7L195.2,29.8L195.2,29.8z M186.8,30.9l-4.2,1.1
		l1.3,0.9l-1.1-0.4l0.2,0.9l1.8-0.2l-0.7-0.9l1.1-0.2l0.5,1.1l-1.8,2.5l1.3,0.7l0.7-1.1l-0.4,1.3l2-0.9l2.5-3.1L186.8,30.9
		L186.8,30.9z M182.1,41.6l-1.8,0.7l0.7,0.4L182.1,41.6L182.1,41.6z M156.3,50.5l-5.1,4.4l-0.5,1.3l2.2,2.4l4.7-7.5L156.3,50.5
		L156.3,50.5z M151.3,67.4l-1.3,6.4l-1.3-0.4h-0.2l-0.7,1.1l0.7,2.5l0.2,0.6l1.1,0.9l0.5-1.1l1.1,0.2l-1.1,2.5l2,0.4l1.6-1.3l2.7,2
		v-2.2l2.5,2.5h2.2l0.2,1.1l0.4-1.6l-1.3,0.2l-0.7-1.3l1.3-0.4l-0.7-0.7l-1.6-0.2l-0.7,1.1l-0.9-1.6l-1.8,0.2l-0.2,1.1l-1.8-1.3
		l-0.7-2.5l4-4.4l-0.9-2.2l0.7-1.6H151.3L151.3,67.4z M121.7,68l-4.9,1.1l-2.2,2l0.6,2.2l1.6,0.2l2.7-1.8l2.4-2.9L121.7,68L121.7,68
		z M231.9,79.2l-1.1,0.2L231,80L231.9,79.2L231.9,79.2z M149,80.9l1.3,1.3l0.9,2l1.1-0.2l0.6-2.5L149,80.9L149,80.9z M164.8,82
		l-2.9,0.2l2.5,2.2l-0.2,1.2l0-0.1l-2.2-0.4l0.2,1.8l2,2.7l-0.2-1.1h1.1l-0.8-2.6l2.6,0.6l-0.9-3.3L164.8,82L164.8,82z M158.4,82.7
		l-0.2,1.8l1.3-0.9L158.4,82.7L158.4,82.7z M153.9,84.9v4.2l4-2.5v-1.3L157,86L153.9,84.9L153.9,84.9z M161,86l-2,4l-0.9,1.6l1-1.6
		h0.1v-0.2l1.6-1.1L161,86L161,86z M145.9,87.1l-0.2,2l-0.9-0.5V90l-1.6,1.6l-5.6,5.6l2.9-2l2.7-3.3l0.2-0.2l2.9-1.8L145.9,87.1
		L145.9,87.1z M158.1,87.1l-1.3,2.7l-0.5,0.5l-1.1,0.4l2,2.2l0.9-0.9l-0.2-2l1.3-2.5L158.1,87.1L158.1,87.1z M161.2,89.4l-0.7,0.4
		l-0.7,0.7l0.7,0.4l2-0.4v-0.9L161.2,89.4L161.2,89.4z M165.5,90l0.2,2.5h-2.5L163,94l-1.3-0.2l-2.5,2l0.7-1.3l-1.6-0.9l-4,2.7
		l-1.1,2.7l0.9,0.4l1.6-2.7l2.7,1.1l0.9-1.6l2,1.1l-0.7,3.1l3.1,1.3l0.9-0.7l0.4,1.6l0.9-1.3l-0.9-2.2l1.1-1.8l1.5,2.9v-1.8l1.6-1.3
		l-0.7-3.5l-1.1-0.2l0.7-2L165.5,90L165.5,90z M153.5,100v1.1l1.1-0.9L153.5,100L153.5,100z M68.2,100.9l-0.9,0.9l0.4,0.7
		L68.2,100.9L68.2,100.9z M136.1,101.1L133,106l-1.5,0.7l0.7,0.4l-0.9,1.1l-4.4,1.8l-3.1,4.9l-5.3,2.2l-0.9,4.4l-4-0.2l-0.7-1.1
		l-2.5,3.3v2.7l1.1,0.7l-0.4,1.8l1.6,0.5h-1.1l1.3,0.9l-0.7,1.1l1.6-0.9l1.1,5.8l4.4-1.3l0.7,2.2l3.6-2.7l2,0.5v1.1l2.9-0.9l0.4,2.7
		l1.3-0.6l4-3.6l-0.6-0.9l0.9,0.2l0.9-2.7l-1.6-0.9l1.8-2.7l0.7,0.5l2.4-1.8l-0.6-2.7l2-2.5l-0.4-1.1l1.5,0.9l2-0.9l-3.8-2.2
		l-0.2-1.1l1.1-0.4l-3.6-3.6l2.5-0.4l-1.1-1.6l3.8-1.1l-1.3-1.3l3.8-2l-2.9-0.9l-1.3,0.5l0.2-1.1l-1.6,0.6l0.7-1.6l-1.8-1.6
		l-1.1,1.6L136.1,101.1L136.1,101.1z M370,102.3l0.6,1.1l0.5,0.4l-0.9-1.6H370L370,102.3z M372.7,106l0.9,1.3l0.2,0.2L372.7,106
		L372.7,106z M374.4,108.9l1.6,3.8l0.7-0.2L374.4,108.9L374.4,108.9z M175.7,110.9l-0.9,2l0.9-0.2V110.9z M173.7,112.3l-2,4l0.9,4
		l2.7,2l-1.3-2l-0.4-2.2l3.5,0.4l-2.7-1.6l1.8-1.1l0.2-1.6l-3.8,2.2l1.3-1.3L173.7,112.3L173.7,112.3z M108.6,114.5l-0.9,0.9
		l0.4,0.9l0.7-1.1L108.6,114.5L108.6,114.5z M164.1,114.7l-4.2,2.9l-10.4-0.6l-0.9,2l-1.1-0.4l-0.9,0.9l-0.2,0.4l-0.4,2.2l-0.7-0.2
		l0.9,2.7l-0.7-0.7l-1.3,1.8l0.2,2.5l-2,3.1l0.6,2.5l2-0.2v4.7l-0.2,2l2-0.2h1.5l-1.1-8.7l1.8-1.3l1.1,0.2l-0.5,2.9l2.2,1.3v2.2
		l1.6,0.5l0.2-1.6l2.7-0.4l-2.4-2.4l1.1-1.6l-4.2-3.8l1.3,0.2l6-4.4l-6.2,0.7l-1.8,2.2h-1.3l-2.2-2.2l0.9-3.3l13.6-1.3L164.1,114.7
		L164.1,114.7z M67.7,117.1l0.2,1.1l0.4-0.9L67.7,117.1L67.7,117.1z M77.3,119.4l-6,1.1l0.6,2.7l3.3,1.8l2.2,3.6l2.9,0.9l0.9,4.4
		l2.4,1.8l1.1,0.7l3.8,6.7l7.3,5.1l1.8,1.6l-0.2-1.3l2,0.4l0.2-1.3l1.3,1.3l0.9-9.1l-1.5-2.5l-2.2,0.2l-0.4,1.1l0.4-1.8h-1.3
		l-0.2-3.1l-3.3-0.2l1.3-3.3l-1.1-0.7l-2,1.6l1.3-1.1l-0.7-0.6l-1.3,0.2l-4-3.8l-0.2,1.8l-2.7-2.7l-0.7-0.7l-4.4-1.6l0.4-1.1
		L77.3,119.4L77.3,119.4z M92.2,129.2h0.4l-0.9-0.7l-0.7-0.2l-0.2,0.9H92.2L92.2,129.2z M185.2,119.4l-3.8,0.4l2.7,0.2L185.2,119.4
		L185.2,119.4z M189.2,119.8l-4.2,1.8l-1.1,2h3.8l1.1,2.7l5.8-0.9l-1.1,2.2l-1.6-1.1l-1.8,1.3h-2.7l3.1,1.6l0.2,2.7l2-0.9l1.1-3.1
		l-0.7,2l1.3,1.1l3.3,0.2l-1.1,0.6l2,1.1l10.2,3.1l-0.2,1.1l1.1-0.2v2.2l1.8,1.8l-1.3,0.4l2.5,0.7l-2,0.2l1.8,1.1l-0.7,2.4l3.6-0.9
		l3.8,4.2l3.8-0.2l1.3,0.9l2.7-1.8l-4-2.2l5.1,0.4l-1.1-1.1l2,0.5l-1.1-2l3.1,1.6l-0.4-1.3l0.4,0.9l0.9-0.9l0.2,1.1l4.2,1.6l4.9,6.7
		l0.4,0.4l6.7,1.6l1.3,1.3l2.5-1.3l-2.9-0.9l-0.4-0.2l-0.4-0.6l0.9-0.7l-2.4-0.7v-1.8l-2.2,0.2l-1.3-3.6l-3.1-2.4l-0.9-2.5h3.1
		l-0.7-1.8l-6.2-2.7v-2l-4.2-3.8l-15.5-6l-7.3-2.7l-2.9,1.1l0.2,1.1l-2.7,0.2l-2.2,2.9l-2.2,0.9l-1.8-2.9l-0.5,1.3l-1.1-1.8
		l-0.6-5.3L189.2,119.8L189.2,119.8z M172.3,120.5l-1.1,0.4v0.2l0.6,1.1l1.6-0.2L172.3,120.5L172.3,120.5z M199.4,120.7l2.2,1.8
		l1.3-0.2L199.4,120.7L199.4,120.7z M184.3,121.8L183,122l1.1,1.1L184.3,121.8L184.3,121.8z M38,123.1l-0.5,0.5l-0.2,0.2h0.2
		l0.7,0.2h-0.7l-0.2,1.3l-0.1,0.4l-0.1,0.3v0.3l-0.7,3l-0.2-0.7l0.2,3.3l0.2,2.9l2.2-2l1.3-3.1l-0.5-3.8L38,123.1z M172.6,123.8
		l-0.9,0.9h2.7l-0.4-0.5L172.6,123.8L172.6,123.8z M199.6,123.8l2,0.7h3.1L199.6,123.8L199.6,123.8z M156.3,124.5l0.2,1.1l2-1.1
		H156.3L156.3,124.5z M181.9,124.5l-2.2,0.7l2,0.2L181.9,124.5L181.9,124.5z M161.9,125.4l-0.4,1.3l3.1-0.9L161.9,125.4L161.9,125.4
		z M97.3,126.3l-1.1,0.9h0.7l0.4,0.4V126.3L97.3,126.3z M241.2,126.9l-3.1,0.2l1.5,0.2L241.2,126.9L241.2,126.9z M90.2,127.6
		l0.2,1.1v0.2l0.7-1.1L90.2,127.6L90.2,127.6z M177.4,128.3l-3.1,0.9l1.1,1.3l4.9-0.7l3.3,1.6l-1.8-2.9L177.4,128.3L177.4,128.3z
		 M174.4,129.2L174.4,129.2L174.4,129.2L174.4,129.2L174.4,129.2z M174.3,129.2l-0.4,0.1l-0.4,1.6L174.3,129.2L174.3,129.2z
		 M72.9,128.5l-0.9,0.2l2.2,0.7L72.9,128.5L72.9,128.5z M169.7,129.6l-2.7,0.9l2.2,1.6l2-0.9L169.7,129.6L169.7,129.6z M255.9,132.6
		l1.7,1.5l1.8,4l0.4-2.2L255.9,132.6L255.9,132.6z M96.8,130.3v0.9l1.6-0.2L96.8,130.3L96.8,130.3z M76.4,131.1l-0.6,0.7l0.9,1.1
		l1.1,0.7l0.2-1.3L76.4,131.1L76.4,131.1z M101.7,134.2l-2.2,0.7l-0.7,1.6l2-0.2l0.7,2l2.2,0.2l0.4-1.6l-1.8-0.2L101.7,134.2
		L101.7,134.2z M157,134.7l-0.9,2.2l-0.4,2.4l1.8-1.6l-0.9-0.4L157,134.7L157,134.7z M254.7,135.4l0.7,2.2l-2.7,1.8l-2.7-0.2v-1.6
		l-0.9,1.6l-5.1-0.2l4.2,2.7l4.9-0.4l3.6-1.6l-0.5-1.3l1.6-2l-0.9-0.7L254.7,135.4L254.7,135.4z M155.9,135.8l-1.3,0.4l-0.2,2
		l1.1,0.2l0.2-1.6L155.9,135.8L155.9,135.8z M106.6,136.3l-0.2,2.2h1.3v-0.2l0.9-1.8L106.6,136.3L106.6,136.3z M196.8,136.3
		l-1.3,1.1l0.2,0.9l-0.5,3.1l2-2.2L196.8,136.3L196.8,136.3z M80.8,137.8l-0.9,1.1l1.8,1.3L80.8,137.8L80.8,137.8z M265.4,140.7
		l0.9,2.9l1.6,2.2h1.3L265.4,140.7L265.4,140.7z M84.4,142.7l0.9,1.6v-1.1L84.4,142.7L84.4,142.7z M209.2,143.4l-2,2.9h1.3l3.3-1.1
		l0.5-1.6L209.2,143.4L209.2,143.4z M167,144.9l-0.4,1.1l3.6-1.1H167L167,144.9z M270.9,145.6l1.6,2.5l1.8,0.6L270.9,145.6
		L270.9,145.6z M162.1,146.7l-0.4,1.1l2.2-0.4l0.2-0.7L162.1,146.7L162.1,146.7z M117.7,146.9l-2,2l-4.7,0.7l-2-1.6l-6.9,0.2
		l-0.7,2.2l-1.8,1.3l4-0.2l-0.2,1.3l4.4,0.2l3.1-0.9l5.8,0.7l10.6-0.4l2,0.2l-0.4-2l-0.2-1.1l-4.2,0.4l-2-2.7L117.7,146.9
		L117.7,146.9z M129,150.7l2,2l2-1.8l-2.4-0.2H129L129,150.7z M127.5,147.1l-4.2,0.7l2.5,0.4L127.5,147.1L127.5,147.1z M156.6,147.1
		l-1.3,1.8l1.8-0.9L156.6,147.1L156.6,147.1z M155.2,148.9l-3.1,0.4l-3.8-0.9l-1.3,1.3l-0.7,0.7h0.7l5.6-0.2L155.2,148.9
		L155.2,148.9z M161.5,147.1l-1.1,0.4l0.7,0.7L161.5,147.1L161.5,147.1z M171.7,147.1l-7.3,1.3l-4.9,3.5l-0.2,1.3l-0.4,1.3l1.8-0.5
		l1.8-1.1L171.7,147.1L171.7,147.1z M140.2,148.9l-0.7,0.7l2,1.1l-4-0.4l-1.1,1.1l0.9,1.3l7.1-2.4L140.2,148.9L140.2,148.9z
		 M276.9,149.6l1.8,2.2l2.9,2.2L276.9,149.6L276.9,149.6z M134.8,150.3l-0.9,1.8l2,0.2l0.2-2H134.8L134.8,150.3z M273.6,150.7
		l-0.7,0.9l2,1.6L273.6,150.7L273.6,150.7z M147,152l-3.3,1.3l3.3,1.3h0.2l1.6,0.6l1.1-1.1l-2.7-2L147,152L147,152z M283.6,153.6
		l1.1,3.3l1.1,1.6L283.6,153.6L283.6,153.6z M223.9,154.5l-1.3,0.9l-0.2,3.6l-1.8,1.8l1.3,0.2l-1.8,4.2l0.4,4.2l-3.8,8.7l-2-0.2
		h-1.3l-1.8-2.2l-7.8-3.6l-4.2-3.5l2.2-4.2l-0.6-1.3l2-0.2v-1.6l1.8-1.6l-1.5-1.6l-1.8,2.2v-1.6l-1.3,0.5l0.9-0.9l-2.2,1.3l-1.8-1.3
		l-2,0.9l-0.6-1.6L193,158l-5.1-2.5l-0.7,0.7l3.1,1.1l0.2,1.8l-4.4,0.4l-0.7-0.7l-1.5,1.1l0.7,0.9l-1.3-0.9l0.4,1.1h-1.3v2.2
		l-1.8,0.7l-1.3,2.9l2.2,1.1l-1.3,1.8l-1.1-1.1l-0.5,1.6l-0.2-1.3l-1.8-0.4l-1.1,1.1l0.4,1.6l-0.7-1.1l-0.4,1.1l0.7-2.7l-2.9-2.7
		l-1.8-0.5l-0.9,1.8l-0.2-1.1l-1.1,1.1l-0.6-1.1l-0.2,2.7l-1.1-1.3l-1.5,1.8l1.3,1.3l-2.2,0.2l1.6,1.3l-2-1.1l-0.9,1.6l0.4,1.1
		l0.7-0.7l-0.9,2h1.8l-1.8,0.7l-2.9-1.1v1.8l1.6,0.4v1.6l-1.3-0.9l0.2,2.2l-2.5-4.2l-2.2,3.3l0.9,2.9l-3.8,5.3l-3.3,1.1l-2.9,1.1
		l-5.1,3.3l-1.8-0.5l-6,5.3l-0.7,2.7l-1.3-2.2l-0.4,9.1l3.3,6.2l-1.1-1.1l-0.4,0.8l0.6,1.4l-2.2-1.3l6.7,9.6l0.9,2.9l0.4,1.8
		l3.3,4.7l0.2,4.7l-1.8,0.9l0.9,2.9l4.6,1.8l3.6-0.2l4.7-4.9h0.2l10-0.9l1.8-3.3l4.6-2.9l15.1-3.5l9.1,3.3l-0.4,1.6l2,0.9l2.2,4.9
		l-1.1-0.2l2.5,1.6v-1.6l5.3-5.3v-1.8l0.4,3.8l-1.6,2v2.5h-1.1l-0.7,1.3l2.7-0.5l1.1-3.3l1.3,2.2l-1.6,2.9l2.2-0.4l1.8,1.6l0.4,1.1
		l-0.2-0.4l0.2,3.6l0.7,0.9l1.5,2l7.8,3.3l4-3.3l0.4,1.1l-1.3,0.5h2.5l-0.4,0.9l2.2,1.8v-1.1l4.9-2.2l-1.3,0.4l0.7-0.7l6.4-0.7
		l1.3-6l2.2-2l-0.7-0.7l2.5-4.4l4.4-3.1l-0.4-1.1l2.7-3.6l1.1-3.6l1.8-4.4l-1.1-4.9l1.1-4.7l-3.6-7.1l-2.7-2.2v-4l-0.2,1.1l-1.8-2.2
		v2l-0.6-1.1l-0.7,0.7l-2-8.4l-7.8-5.3l-0.6-6.9l-1.8-1.8l0.2-5.1l-2.7-2.9l-2.7,0.6l-0.4-5.6L223.9,154.5L223.9,154.5z
		 M133.3,212.8l-0.9-2.1L133.3,212.8L133.3,212.8L133.3,212.8z M182.3,156l2,2.5l2-1.8l-1.8-0.2l-0.7,0.7L182.3,156L182.3,156z
		 M280.7,156.3l-0.4,0.7l1.3,0.6l2.4,1.3l-2.4-2L280.7,156.3L280.7,156.3z M182.3,156.5l-1.1,1.6l2-0.2L182.3,156.5L182.3,156.5z
		 M285.4,160.3l2,2.4l1.3,0.4L285.4,160.3L285.4,160.3z M384,162l-0.2,0.2l0.4,1.1L384,162L384,162z M204.1,164l-1.1,1.3l-0.2,0.9
		l2,0.2L204.1,164L204.1,164z M299.8,178.9l-0.2,1.1l0.2,2.5l1.3-0.2L299.8,178.9L299.8,178.9z M300.7,184l0.5,1.8l0.9,0.4l-0.7-2.2
		H300.7L300.7,184z M304.7,194.2l-0.4,0.7v0.2l0.9,0.2L304.7,194.2L304.7,194.2z M334.5,195.1l-4,0.9l3.3,1.1l0.2-1.1l-1.1,0.4
		L334.5,195.1L334.5,195.1z M289.4,195.6l2,5.1l5.1,4.7L289.4,195.6L289.4,195.6z M329.4,197.4l-2.9,1.3l1.3,1.6l2-0.2L329.4,197.4
		L329.4,197.4z M255.2,206l-1.1,2.5l0.2,1.1L255.2,206L255.2,206z M4.9,233.8l0.2,1.1l0.7,2.9l0.2,2l-0.2-0.2l0.6,2l-0.2,0.2
		l0.9,3.1l-0.4-1.3l0.4,2.2l0.2,0.6v0.9L7.1,246l0.2,1.6l0.4,1.3l-0.2-0.4l0.5,4l1.3,4.7l2.7,6.7l1.8,5.3l1.3,3.3l3.8,6.7l0.7,0.2
		l-0.7-4.2l-8.4-23.6l-1.1-2.9l-0.2-1.6l-1.3-3.8v-0.7l0.7,1.3L8,241.8l-2.2-6.7L4.9,233.8L4.9,233.8z M4.2,240.7v0.7l0.2,0.1
		l0.1,0.4v-0.3l-0.1-0.2L4.2,240.7L4.2,240.7z M4.5,241.9v0.6l0.2,0.3v0l0.1,0.3v-0.4l-0.1-0.1L4.5,241.9L4.5,241.9z M4.7,243.1v0.2
		l0.2,0.9v-0.6L4.7,243.1L4.7,243.1z M4.9,244.2l0.2,1v0.1l0,0.1l0.2,0.7v0.1l0,0.1l0.2,0.8v-0.7L5.3,246v-0.7l-0.2-0.4v-0.2
		L4.9,244.2L4.9,244.2z M5.6,247.1v0.2l0.4,1.5v0l0.1,0.1l0.2,0.5v0.2l0.1,0.3l0,0.1l0,0.2v0.3l0.2,0.4v0.4l0.2,0.4v0.2l0.1,0.1
		l0.1,0.5v0.1l0.1,0.1l0.2,0.6v0.1l0.1,0.2l0.1,0.5v0.2l0.2,0.3l0.1,0.2v0.4L8,256v0.4l0.4,0.9v0.2l0.2,0.5v0.4L9,259l0,0l0.1,0.3
		l-0.2-0.9l-0.2-0.8v-0.1l-0.1-0.1l-1.2-4.3l-0.7-2.2v0l-0.2-0.7V250l-0.1-0.2l-0.1-0.3v-0.2l-0.1-0.2L6,248.7v-0.3L5.8,248v-0.5
		L5.6,247.1L5.6,247.1z M9.1,259.3v0.4l0.2,0.5v0.4l0.4,0.9v0.4l0.5,0.9L9.1,259.3L9.1,259.3z M10.2,262.9v0.4l0.4,0.8L10.2,262.9z
		 M10.6,264.1l0.1,0.2v-0.1L10.6,264.1L10.6,264.1z M10.7,264.3v0.4l0.3,0.6L10.7,264.3L10.7,264.3z M11,265.3l0.3,1.1V266L11,265.3
		L11,265.3z M11.3,266.5v0.2l0.2,0.5L11.3,266.5L11.3,266.5z M11.6,267.2l0.2,0.6l0.2,0.6V268L11.6,267.2L11.6,267.2z M12,268.4v0.1
		l0.1,0.3L12,268.4L12,268.4z M12.1,268.8l0.5,1.4v-0.4L12.1,268.8L12.1,268.8z M12.7,270.2L12.7,270.2l0.1,0.3L12.7,270.2
		L12.7,270.2z M12.8,270.5l0.3,0.9l0.2,0.6v-0.3L12.8,270.5L12.8,270.5z M13.3,271.9L13.3,271.9l0.2,0.5L13.3,271.9L13.3,271.9z
		 M13.5,272.4l0.5,1.1v-0.2L13.5,272.4L13.5,272.4z M14,273.6v0.2l0.6,1.2L14,273.6L14,273.6z M14.6,275l0.3,0.7v-0.1L14.6,275
		L14.6,275z M14.9,275.7v0.3l0.2,0.2L14.9,275.7L14.9,275.7z M14.9,276l0.9,2v-0.4l-0.5-0.9l-0.2-0.2L14.9,276L14.9,276z M203,240.7
		l1.1,1.1l3.1-0.9L203,240.7L203,240.7z M16.2,246.5l0.4,1.8v-1.1L16.2,246.5L16.2,246.5z M299.6,249.8l0.5,7.3l0.2-1.3l1.1,1.3
		l-0.7,1.1l-0.4-0.7v2l0.9,0.4l-0.9-0.2v2.7l-2.2,2.9l-2.4,0.9l1.8,2.9l-1.6,3.3h-0.2l-0.9,0.6l0.7,1.6l2-0.7l5.3-5.8l2,0.4l3.1-4
		l-0.9-0.9l-2.4,0.9l-1.8-2l0.4-4l-0.9,2.5l-1.3-2l1.1-1.3l-0.7-2.2l0.9-2l-0.7,0.2l-0.9-2.2l-0.6,0.7l0.2-2.2L299.6,249.8
		L299.6,249.8z M16,251.8v0.9l0.7,0.2L16,251.8L16,251.8z M233,255.6v1.3l0.9,0.4L233,255.6L233,255.6z M224.1,258.2l-0.2,2.5
		l1.8,3.3l-0.9-0.7v1.3l1.5,2.4l2,1.3l1.3-2.9l1.8,1.8l1.1-4.2l0.2,0.9v-4.9l-4,1.3L224.1,258.2L224.1,258.2z M292.3,269.6l-0.9,0.2
		v0.1L292.3,269.6L292.3,269.6z M291.4,269.9l-1.3,0.4l-6,6.2l-4.2,1.8l-2-0.4l-4.4,2.9v1.1l-0.5-0.7l-1.5,2.7l2.2,0.2l2,2.4
		l2.4-0.9l2.2-0.7l3.8-5.3l2,0.2l1.8,0.2l-0.7-0.9l1.1-1.6l5.1-3.3l0.6-1.6h-0.9l1.3-0.7l-2.9,0.5L291.4,269.9L291.4,269.9z
		 M15.9,278.3l0.7,1.6v-0.1L15.9,278.3L15.9,278.3z M16.7,279.9v0.3l0.4,0.9l0.2,0.2l-0.2-0.4L16.7,279.9L16.7,279.9z M17.3,281.3
		l0.3,0.7L18,283v-0.3L17.3,281.3L17.3,281.3L17.3,281.3z M18,283v0.2l0.6,1.3l0.1,0.1L18,283L18,283z M18.8,284.6l0.5,1.1v-0.1
		L18.8,284.6L18.8,284.6L18.8,284.6z M19.3,285.7v0.3l0.7,1.3l0.2,0.2L19.3,285.7L19.3,285.7z M273.2,285.8l-1.6,1.6l1.3-0.2
		L273.2,285.8L273.2,285.8z M306.7,286.9l-0.2,0.6l1.3-0.4L306.7,286.9L306.7,286.9z M81.3,315.6l-0.7,1.3l-0.4-0.9l-0.2,0.9
		l-1.1-1.1l2.5,2.7l-0.2-0.9l1.3-0.2l-1.3-0.2l0.9-0.7L81.3,315.6L81.3,315.6z M199,331.8l-0.7,2.4l-6.9-0.4l0.7,2.5l-2,0.7l-3.1-2
		l-2.9-0.2l-1.3,2l-3.3-2.9l1.1,2.9l-1.8,0.4l-2.7,0.7l-3.1-1.1l-1.8,0.4l-2.7-1.6l-2,1.1l-2,3.1l-10-2.9l0.4,1.6l-2.7-0.2l-0.2,0.9
		l-0.2,0.9l-5.8-0.9l1.8,2.7l-0.2,1.6L145,344l-1.8,1.8l-3.3-1.1l-2.5,2.9l-3.8-0.6l1.1,1.1l3.1,1.6l0.6,1.6l-0.4,1.1l-0.2,0.9
		l1.8,2v1.8l-1.3-0.5l0.7,1.6l-3.1-0.7l-2,0.4l-3.1-1.3l-5.1,4.4l-0.5,0.5L123,362l-1.3-0.9L119,362l1.1,2.7l2.4,0.9l-1.3,0.2
		l1.1,1.1l0.4-0.5l1.1,1.1l-1.3,0.2l1.3,0.9l3.1,3.8l2.2,1.1l2.7,1.3l0.5,0.2h-0.5l-1.3-0.2l0.7,0.7l-2.9,0.4l0.9,0.7l2.2,0.4
		l0.4,0.7l-1.3,0.2l2.9,1.3l1.6,1.1l2.4,1.6l0.5,1.3v0.2l0.4,0.9l1.8,1.1l-1.3-0.2l3.6,1.3h0.2l3.3,2v0.2h0.2l1.6,0.4l3.8,2h-2
		l1.1,0.4h1.1l1.8,0.4l1.1,0.2l5.8,1.6l0.7,0.4l4.7,0.7h1.8l2.2,0.4l3.1,0.4l1.1,0.2h10.7l0.9-0.2l4.2-0.2h1.8l2-0.5l3.1,0.5h0.9
		l0.5-0.2l0.4,0.2l2.2-0.2l12.9,1.1h2l-0.2,0.9l0.5,0.2l3.1,0.7l-0.2,0.2l-0.2,0.2l1.3-0.2h2.2v0.1l1.6-0.1l1.3-0.2l1.5-0.2h0.2
		l1.3-0.2l1.1-0.2h-0.5l1.1-0.2h0.7l-0.4-0.2l-1.3,0.2h-0.6l0.9-0.4h-0.9l0.6-0.2h3.1l1.3-0.5h-0.9l1.1-0.2h-0.4l3.5-0.9l-1.3,0.2
		l-2,0.2l0.7-0.2L231,396l1.3-0.7l-3.8,0.7l-2-0.2l6-0.9l0.7-0.4h-1.5l2-0.2l0.2-0.2l6.7-2h0.9l4.7-2.4l1.3-0.2l-0.2,0.2l2-0.4
		l2-1.1l0.9-0.7l-0.2-0.7l-2.7,0.4l-2.2,0.9l0.9-0.5l-4.7,0.5l2.2-1.1l-1.1-0.2h2.9l1.1-0.9h0.9l2.2-0.7h-1.8l-1.5,0.6l-0.9-0.2
		l4.6-2l1.6-2l0.4-0.4l3.1-2.5l-3.3-1.1l-1.8-2l0.9-0.9l-2.5,0.2h-0.4l-2-1.8l-1.3,0.7l-1.8-2l-0.9,0.9h-2l-0.6-2l-2.7,0.9l-0.9-0.2
		l-2.2-0.7l-1.1,0.4l-5.1-3.3l-0.4-0.9l-2-2.5l-3.8-1.8l-1.3,1.3h-1.5l0.2-2.5l2.7-2.9l1.3,0.7l-0.4-1.1l1.3-0.9l1.1,0.2l0.5-1.3
		l1.1,0.2l2.4-1.1l1.1,0.5l2.9-2.5l1.8-0.2l0.4-1.3l-0.7,0.7l-1.5-3.3l-4.4-1.3l-0.7-1.1l-0.4-1.1l-0.4-0.9l-4.2-1.6l-1.1-1.8
		l-6.9-0.7l0.7-1.3l-4-1.1l2-0.9v-0.9l-2.4,0.7l-6.2-1.3l-4.9-1.1L199,331.8L199,331.8z M227.9,398l-0.9,0.2l1.8-0.2H227.9
		L227.9,398z M221.9,398.8l-2,0.1l-1.1,0.2l2.5-0.2h0.6V398.8L221.9,398.8z M231.4,397.1l-0.9,0.2h0.4l0.7-0.2H231.4L231.4,397.1z"
		/>
</g>
</svg>
