<?xml version="1.0" encoding="utf-8"?>
<!-- Generator: Adobe Illustrator 23.0.0, SVG Export Plug-In . SVG Version: 6.00 Build 0)  -->
<svg version="1.0" id="Layer_1" xmlns="http://www.w3.org/2000/svg" xmlns:xlink="http://www.w3.org/1999/xlink" x="0px" y="0px"
	 width="50px" height="50px" viewBox="0 0 50 50" enable-background="new 0 0 50 50" xml:space="preserve">
<path fill="#FFFFFF" d="M40.7,35C35.4,34.4,27,37,21.3,40.2c-2.9,1.8-4.3,2.7-7.1,4.3c-1.8,1.1-4.3,0.3-5.7-1.7
	c-1.9-2.6-2.9-3.9-5-6.4c-1.5-1.9-1.4-4.3,0.6-5.5c2.5-1.5,3.8-2.2,6.4-3.9c0.4-0.2,2.3-1.6,2.7-1.9C18.7,20.9,23.8,15,28.8,7.9
	c2.5-3.4,5.8-3.6,7.4-1.5c2.8,4,8,17.2,8.5,22.2S43.8,35.3,40.7,35z M46.8,19.6c1.6-4.1,0.5-8-2.9-8.7c-1.1-0.2-2.3,1.2-2,2.2
	c0.9,2.3,1.8,4.6,2.5,7.2C44.8,21.3,46.3,20.9,46.8,19.6z"/>
</svg>
