<?xml version="1.0" encoding="utf-8"?>
<!-- Generator: Adobe Illustrator 23.0.0, SVG Export Plug-In . SVG Version: 6.00 Build 0)  -->
<svg version="1.0" id="follow_x5F_icon" xmlns="http://www.w3.org/2000/svg" xmlns:xlink="http://www.w3.org/1999/xlink" x="0px"
	 y="0px" width="50px" height="50px" viewBox="0 0 50 50" enable-background="new 0 0 50 50" xml:space="preserve">
<g id="front_x5F_flyer">
	<path id="shawod1_1_" opacity="0.25" enable-background="new    " d="M36.8,41.9c-2.6,1.2-9.9,4.1-12.5,5.3s-5.5-0.5-6.3-3.3
		c-3.8-12.9-7.3-29.4-7.3-33.1c0-1.7,0.7-2.9,2.6-3.5s13.6-3,15.2-3.3s3.1,1.3,3.5,3c1.6,6.7,4.3,15.9,8.5,28.9
		C41.2,37.9,39.4,40.7,36.8,41.9z"/>
	<path id="slide1_1_" fill="#FFFFFF" d="M35.1,41.4c-5,2-7.5,3.3-12.5,5c-2.5,0.8-4.8,0-6.3-3.5s-7-27.4-7-33.1c0-2.1,1.2-3.4,2.5-4
		S21.3,3.3,27,2.5c1.6-0.2,2.9,1.3,3.3,3c3.3,12.7,7.1,26.8,7.9,29.6S37.5,40.1,35.1,41.4z"/>
	<path id="button1_1_" opacity="0.75" enable-background="new    " d="M37.5,35.4c0.6,1.9-1,4.1-3,5s-4.5-0.2-5-2s0.9-4.1,3-5
		S37,33.5,37.5,35.4z"/>
</g>
<g>
	<path fill="#FFFFFF" d="M34.9,20.7c-0.4,0-0.8-0.1-1-0.3c-0.3-0.2-0.5-0.5-0.5-0.8c-0.1-1.2-0.2-2-0.2-3.6l0,0l0,0
		c-1.5,0-2.2-0.1-3.5-0.2c-0.4,0-0.7-0.2-0.9-0.5c-0.2-0.3-0.3-0.7-0.3-1c0-1.6,0-2.4,0-4.1c0-0.4,0.1-0.8,0.4-1.1
		c0.2-0.3,0.5-0.4,0.8-0.5c1.2-0.1,2-0.2,3.5-0.2l0,0l0,0c0.1-1.6,0.1-2.3,0.2-3.6c0-0.4,0.2-0.7,0.5-0.9c0.3-0.2,0.6-0.3,1-0.3
		c1.7,0,2.6,0,4.3,0c0.5,0,0.8,0.2,1.1,0.3c0.2,0.1,0.4,0.4,0.5,0.8C40.9,6,41,6.7,41,8.3l0,0c1.5,0,2.2,0.1,3.5,0.2
		c0.4,0,0.7,0.3,0.8,0.5s0.3,0.5,0.3,1.1c0,1.6,0,2.4,0,4.1c0,0.4-0.1,0.7-0.3,1s-0.5,0.5-0.9,0.5c-1.2,0.1-2,0.2-3.5,0.2l0,0
		l-0.2,3.6c0,0.3-0.2,0.6-0.4,0.8c-0.3,0.2-0.7,0.4-1.1,0.4C37.4,20.7,36.6,20.7,34.9,20.7z"/>
	<path opacity="0.5" enable-background="new    " d="M46.5,9.1c0-0.1-0.1-0.1-0.2-0.2c-0.2-0.3-0.4-0.4-0.8-0.7
		c-0.5-0.3-0.8-0.3-1.2-0.3c-0.9-0.1-1.4-0.1-2.3-0.2c0-0.2-0.1-1-0.1-1.2c0-0.5-0.1-1-0.1-1.7c0-0.6-0.4-1.1-0.8-1.4
		C40.5,3.1,39.9,3,39.3,3c-1.8,0-2.8,0-4.6,0c-0.6,0-1.2,0.1-1.7,0.5s-0.8,0.8-0.8,1.4c0,0.7-0.1,1.2-0.1,1.7c0,0.2-0.1,0.9-0.1,1.2
		c-0.9,0-1.4,0.1-2.3,0.2c-0.4,0-0.7,0-1.2,0.3c-0.4,0.2-0.6,0.4-0.8,0.7c0,0.1-0.1,0.1-0.2,0.2c-0.4,0.5-0.5,1.1-0.5,1.7l0,0
		c0,1.8,0,2.7,0,4.4l0,0l0,0c0,0.6,0.1,1.2,0.4,1.6c0.3,0.5,0.8,0.8,1.4,0.9c1.1,0.1,1.7,0.2,3.1,0.3c0,0.1,0.2,2.4,0.3,3.1
		c0,0.5,0.3,1,0.8,1.3c0.5,0.4,1.1,0.5,1.7,0.5c2,0,2.7,0,4.6,0c0.7,0,1.3-0.2,1.7-0.5c0.4-0.4,0.7-0.8,0.8-1.3
		c0.1-0.8,0.3-3.1,0.3-3.1c1.3-0.1,2-0.1,3.1-0.3c0.6,0,1.1-0.4,1.4-0.9c0.3-0.5,0.4-1,0.4-1.6l0,0l0,0c0-1.8,0-2.7,0-4.4l0,0
		C47,10.1,46.9,9.5,46.5,9.1z M45,14.2L45,14.2c0,0.2,0,0.4-0.2,0.6c-0.1,0.1-0.3,0.2-0.4,0.3c-1.2,0.1-2,0.1-3.4,0.2
		c-0.2,0-0.4,0.1-0.6,0.2s-0.2,0.4-0.2,0.6c0,1.2-0.1,1.9-0.1,2.7c0,0.3,0,0.5-0.1,0.8c0,0.1,0,0.2-0.1,0.4c0,0,0,0-0.1,0.1
		s-0.4,0.2-0.5,0.2c-0.9,0-1.5,0-2.2,0s-1.3,0-2.2,0c-0.2,0-0.4,0-0.5-0.2c0,0-0.1,0-0.1-0.1c-0.1-0.1-0.1-0.2-0.1-0.4
		c0-0.3,0-0.6-0.1-0.8c0-0.8-0.1-1.5-0.1-2.7c0-0.2-0.1-0.4-0.2-0.6c-0.1-0.1-0.4-0.2-0.6-0.2c-1.5,0-2.2-0.1-3.5-0.2
		c-0.2,0-0.4-0.1-0.4-0.3C29,14.7,29,14.5,29,14.3l0,0c0-1.6,0-2.5,0-4.2l0,0c0-0.2,0-0.6,0.3-0.6c1.3-0.1,2-0.1,3.6-0.2
		c0,0,0,0,0.1,0l0,0c0.1,0,0.2,0,0.3-0.1l0,0c0.1-0.1,0.3-0.2,0.4-0.3l0,0c0.1-0.2,0.2-0.4,0.2-0.6c0-1.6,0.1-2.3,0.2-3.6
		c0-0.2,0.1-0.4,0.3-0.4c0.1-0.1,0.3-0.2,0.5-0.2c0.4,0,0.8,0,1.2,0s0.7,0,1,0s0.7,0,1,0c0.4,0,0.8,0,1.2,0c0.2,0,0.4,0,0.5,0.2
		C39.9,4.4,40,4.6,40,4.7c0.1,1.2,0.1,2,0.2,3.6c0,0.2,0.1,0.4,0.2,0.6l0,0c0.1,0.1,0.2,0.2,0.4,0.3l0,0c0.1,0,0.2,0,0.3,0.1l0,0
		c0,0,0,0,0.1,0c1.6,0,2.3,0.1,3.6,0.2c0.3,0,0.3,0.4,0.3,0.6C45,10.1,45.1,12.6,45,14.2z"/>
</g>
</svg>
