<?xml version="1.0" encoding="utf-8"?>
<!-- Generator: Adobe Illustrator 23.0.0, SVG Export Plug-In . SVG Version: 6.00 Build 0)  -->
<svg version="1.0" id="Layer_1" xmlns="http://www.w3.org/2000/svg" xmlns:xlink="http://www.w3.org/1999/xlink" x="0px" y="0px"
	 width="50px" height="50px" viewBox="0 0 50 50" enable-background="new 0 0 50 50" xml:space="preserve">
<g id="Group_791" transform="translate(-124.26 -608.26)">
	<g transform="matrix(1, 0, 0, 1, 124.26, 608.26)">
		<path id="Path_6856-2" fill="#FFFFFF" d="M3.3,37.4c-1.6-1.6-1.6-4.1,0-5.6c0,0,0,0,0,0l7.2-7.2c0,0,0,0,0.1-0.1c0,0,0,0-0.1-0.1
			l-7-7c-0.8-0.8-1.2-1.8-1.2-2.9c0-1.1,0.4-2.1,1.2-2.8l8.1-8.1c0.8-0.8,1.8-1.2,2.9-1.2c1.1,0,2.1,0.5,2.8,1.3l7,7
			c0,0,0,0,0.1,0.1c0,0,0,0,0.1-0.1l7.3-7.3c0.8-0.8,1.8-1.2,2.9-1.2c1,0,2,0.5,2.7,1.2l8.5,8.5c1.6,1.4,1.7,3.9,0.2,5.4
			c-0.1,0.1-0.1,0.1-0.2,0.2l-7.3,7.3l0,0.1l7.1,7.1c1.6,1.4,1.6,3.9,0.2,5.4c-0.1,0.1-0.1,0.1-0.2,0.2l-8.1,8.1
			c-0.7,0.7-1.7,1.2-2.7,1.2c-1.1,0-2.2-0.4-2.9-1.2l-7.1-7.1c0,0,0,0-0.1-0.1c0,0-7.3,7.3-7.3,7.3c-0.7,0.7-1.7,1.2-2.7,1.2
			c-1.1,0-2.2-0.4-2.9-1.2L3.3,37.4L3.3,37.4z"/>
	</g>
</g>
</svg>
