<?xml version="1.0" encoding="utf-8"?>
<!-- Generator: Adobe Illustrator 23.0.0, SVG Export Plug-In . SVG Version: 6.00 Build 0)  -->
<svg version="1.0" id="Layer_1" xmlns="http://www.w3.org/2000/svg" xmlns:xlink="http://www.w3.org/1999/xlink" x="0px" y="0px"
	 width="50px" height="50px" viewBox="0 0 50 50" enable-background="new 0 0 50 50" xml:space="preserve">
<path fill="#FFFFFF" d="M41.3,11.5c-1.1,0-1.6-0.1-2.7-0.1c-0.7,0-1.3-0.6-1.3-1.4c-0.1-1.5-1.3-2.7-2.6-2.7C26.9,7,23.1,7,15.3,7.3
	c-1.3,0-2.5,1.3-2.6,2.7c-0.1,0.7-0.6,1.4-1.3,1.4c-1.1,0-1.6,0.1-2.7,0.1c-2.8,0.1-5.5,2.7-5.7,5.7C2.4,25,2.3,29,2.8,36.8
	c0.2,3,2.8,5.6,5.7,5.8c11.1,0.4,21.9,0.4,33,0c2.9-0.2,5.5-2.8,5.7-5.8C47.7,29,47.6,25,47,17.2C46.7,14.2,44.1,11.6,41.3,11.5z
	 M35,28.3c-0.7,4.4-4.2,8-8.3,8.8c-6.9,1.2-13-5.1-11.7-12.4c0.7-4.4,4.2-8,8.3-8.8C30.1,14.7,36.2,21,35,28.3z M41.8,20.1
	c-1.6,0-3-1.4-3.1-3.1c-0.1-1.7,1.1-3,2.7-3c1.6,0.1,3,1.5,3.1,3.1C44.7,18.8,43.5,20.1,41.8,20.1z M30.2,24.9
	c1.1,4.3-2.6,8.2-6.7,7c-1.8-0.5-3.3-2-3.7-3.9c-1.1-4.3,2.6-8.2,6.6-7C28.2,21.5,29.7,23,30.2,24.9z"/>
</svg>
