<?xml version="1.0" encoding="utf-8"?>
<!-- Generator: Adobe Illustrator 23.0.0, SVG Export Plug-In . SVG Version: 6.00 Build 0)  -->
<svg version="1.0" id="follow_x5F_icon" xmlns="http://www.w3.org/2000/svg" xmlns:xlink="http://www.w3.org/1999/xlink" x="0px"
	 y="0px" width="50px" height="50px" viewBox="0 0 50 50" enable-background="new 0 0 50 50" xml:space="preserve">
<g id="front_x5F_flyer_2_">
	<path id="shawod1_2_" opacity="0.25" enable-background="new    " d="M45.4,28.3c-1.1,0.5-4.2,1.7-5.3,2.2
		c-1.1,0.5-2.3-0.2-2.7-1.4c-1.6-5.4-3-12.4-3-13.9c0-0.7,0.3-1.2,1.1-1.5s5.7-1.3,6.4-1.4c0.7-0.1,1.3,0.5,1.5,1.3
		c0.7,2.8,1.8,6.7,3.6,12.2C47.2,26.6,46.5,27.8,45.4,28.3z"/>
	<path id="slide1_2_" fill="#FFFFFF" d="M44.7,28.1c-2.1,0.8-3.2,1.4-5.3,2.1c-1.1,0.3-2,0-2.7-1.5s-3-11.5-3-13.9
		c0-0.9,0.5-1.4,1.1-1.7c0.5-0.3,4-1.1,6.4-1.4c0.6-0.1,1.3,0.5,1.4,1.3c1.4,5.4,3,11.3,3.3,12.5C46.3,26.6,45.7,27.5,44.7,28.1z"/>
	<path id="button1_2_" opacity="0.75" enable-background="new    " d="M45.7,25.5c0.3,0.8-0.4,1.7-1.3,2.1c-0.8,0.4-1.9-0.1-2.1-0.8
		c-0.2-0.8,0.4-1.7,1.3-2.1C44.5,24.3,45.5,24.7,45.7,25.5z"/>
</g>
<g id="front_x5F_flyer_1_">
	<path id="shawod1_1_" opacity="0.25" enable-background="new    " d="M38.2,34.5c-1.7,0.8-6.4,2.7-8.1,3.4s-3.6-0.3-4.1-2.1
		c-2.4-8.3-4.7-19-4.7-21.4c0-1.1,0.5-1.9,1.7-2.3s8.8-1.9,9.9-2.1c1-0.2,2,0.8,2.3,1.9c1,4.4,2.8,10.3,5.5,18.7
		C41.1,31.9,39.9,33.7,38.2,34.5z"/>
	<path id="slide1_1_" fill="#FFFFFF" d="M37.1,34.1c-3.3,1.3-4.9,2.1-8.1,3.2c-1.6,0.5-3.1,0-4.1-2.3c-1-2.3-4.6-17.7-4.6-21.4
		c0-1.4,0.8-2.2,1.6-2.6c0.8-0.4,6.2-1.6,9.9-2.1c1-0.2,2,0.8,2.1,1.9c2.1,8.3,4.6,17.4,5.1,19.2C39.6,31.9,38.7,33.3,37.1,34.1z"/>
	<path id="button1_1_" opacity="0.75" enable-background="new    " d="M38.7,30.2c0.4,1.2-0.7,2.7-2,3.2s-2.9-0.1-3.3-1.3
		c-0.3-1.2,0.6-2.7,2-3.2C36.8,28.4,38.3,29,38.7,30.2z"/>
</g>
<g id="front_x5F_flyer_3_">
	<path id="shawod1_3_" opacity="0.25" enable-background="new    " d="M30.5,41.8c-2.6,1.2-9.9,4.1-12.5,5.3s-5.5-0.5-6.3-3.3
		C8,31,4.5,14.5,4.5,10.8c0-1.7,0.7-2.9,2.6-3.5s13.6-3,15.2-3.3s3.1,1.3,3.5,3c1.6,6.7,4.3,15.9,8.5,28.8
		C34.9,37.8,33.1,40.6,30.5,41.8z"/>
	<path id="slide1_3_" fill="#FFFFFF" d="M28.8,41.3c-5,2-7.5,3.3-12.5,5c-2.5,0.8-4.8,0-6.3-3.5c-1.5-3.5-7-27.3-7-33
		c0-2.1,1.2-3.4,2.5-4S15,3.3,20.7,2.5c1.5-0.3,3,1.3,3.3,3c3.3,12.7,7.1,26.8,7.9,29.5C32.7,37.8,31.2,40,28.8,41.3z"/>
	<path id="button1_3_" opacity="0.75" enable-background="new    " d="M31.2,35.3c0.6,1.9-1,4.1-3,5c-2,0.9-4.5-0.2-5-2s0.9-4.1,3-5
		C28.3,32.5,30.7,33.4,31.2,35.3z"/>
</g>
</svg>
