<?xml version="1.0" encoding="utf-8"?>
<!-- Generator: Adobe Illustrator 23.0.0, SVG Export Plug-In . SVG Version: 6.00 Build 0)  -->
<svg version="1.0" id="follow_x5F_icon" xmlns="http://www.w3.org/2000/svg" xmlns:xlink="http://www.w3.org/1999/xlink" x="0px"
	 y="0px" width="50px" height="50px" viewBox="0 0 50 50" enable-background="new 0 0 50 50" xml:space="preserve">
<g id="front_x5F_flyer">
	<path id="shawod1_1_" opacity="0.25" enable-background="new    " d="M21,23.2c-1.5,0.3-5.5,0.9-6.9,1.2s-2.7-0.9-2.8-2.4
		C10.9,15.3,11,6.8,11.4,5c0.2-0.8,0.7-1.4,1.7-1.4c1-0.1,7.2,0.1,8.1,0.1c0.8,0,1.4,1,1.4,1.9c0,3.4,0.3,8.3,1,15.1
		C23.7,21.7,22.5,22.9,21,23.2z"/>
	<path id="slide1_1_" fill="#FFFFFF" d="M20.2,22.7c-2.8,0.4-4.2,0.8-6.9,1.1c-1.4,0.1-2.4-0.5-2.8-2.5s-0.3-14.2,0.3-17
		c0.2-1,1-1.6,1.7-1.7c0.7-0.2,5.1-0.2,8.1,0.1c0.8,0,1.4,1,1.3,1.9c0.2,6.6,0.5,14,0.6,15.4C22.6,21.4,21.6,22.3,20.2,22.7z"/>
	<path id="button1_1_" opacity="0.75" enable-background="new    " d="M22.1,20c0.1,1-1,1.9-2.1,2.2c-1.1,0.2-2.2-0.6-2.3-1.6
		c0-1,0.9-1.9,2.1-2.2C21,18.3,22.1,19,22.1,20z"/>
</g>
<g id="front_x5F_flyer_1_">
	<path id="shawod1_2_" opacity="0.25" enable-background="new    " d="M24.4,45.4c-1.5,0.5-5.3,1.5-6.7,2s-2.8-0.6-3.1-2
		c-1.2-6.6-2.2-15.1-2-16.9c0.1-0.8,0.5-1.5,1.5-1.6c1-0.2,7.2-0.8,8.1-0.9c0.8-0.1,1.5,0.8,1.6,1.7c0.4,3.4,1.3,8.2,2.9,14.9
		C26.9,43.6,25.9,44.9,24.4,45.4z"/>
	<path id="slide1_2_" fill="#FFFFFF" d="M23.6,45c-2.7,0.7-4.1,1.3-6.7,1.9c-1.4,0.3-2.4-0.2-3.1-2.1c-0.6-1.9-2.1-14-1.8-16.9
		c0.1-1,0.8-1.7,1.5-1.9c0.7-0.3,5-0.8,8.1-0.9c0.8-0.1,1.5,0.8,1.5,1.7c1,6.5,2.2,13.8,2.5,15.2C25.8,43.4,24.9,44.4,23.6,45z"/>
	<path id="button1_2_" opacity="0.75" enable-background="new    " d="M25.1,42.1c0.2,1-0.8,2-1.8,2.4c-1.1,0.3-2.3-0.3-2.5-1.3
		c-0.1-1,0.7-2,1.8-2.4C23.8,40.5,25,41.2,25.1,42.1z"/>
</g>
<g id="front_x5F_flyer_2_">
	<path id="shawod1_3_" opacity="0.25" enable-background="new    " d="M37.6,41.6c-1.3,0.4-4.9,1.5-6.1,1.9
		c-1.2,0.4-2.5-0.4-2.8-1.7c-1.2-5.8-2.2-13.2-2.1-14.8c0.1-0.7,0.5-1.3,1.4-1.4c0.9-0.2,6.5-0.8,7.3-0.9c0.7-0.1,1.4,0.7,1.5,1.4
		c0.4,3,1.3,7.1,2.8,13C39.9,40,39,41.2,37.6,41.6z"/>
	<path id="slide1_3_" fill="#FFFFFF" d="M36.9,41.3c-2.5,0.7-3.7,1.2-6.1,1.8c-1.3,0.3-2.2-0.1-2.8-1.8S25.9,29.1,26,26.5
		c0.1-0.9,0.7-1.5,1.3-1.7c0.6-0.3,4.6-0.8,7.3-0.9c0.7-0.1,1.4,0.7,1.4,1.5c1,5.7,2.2,12.1,2.5,13.3C38.9,39.9,38.1,40.8,36.9,41.3
		z"/>
	<path id="button1_3_" opacity="0.75" enable-background="new    " d="M38.2,38.8c0.2,0.8-0.7,1.8-1.6,2.1c-1,0.3-2.1-0.2-2.3-1.1
		c-0.1-0.9,0.6-1.7,1.6-2.1C37,37.4,38.1,37.9,38.2,38.8z"/>
</g>
<g id="front_x5F_flyer_3_">
	<path id="shawod1_4_" opacity="0.25" enable-background="new    " d="M34.2,21.6c-1.4,0.2-5,0.6-6.3,0.8c-1.3,0.2-2.4-0.9-2.5-2.2
		C25.2,14.4,25.6,6.9,26,5.3c0.2-0.7,0.7-1.2,1.6-1.2c0.9-0.1,6.6,0.3,7.4,0.3c0.7,0,1.2,0.9,1.2,1.7c-0.1,3,0,7.3,0.4,13.3
		C36.7,20.4,35.5,21.4,34.2,21.6z"/>
	<path id="slide1_4_" fill="#FFFFFF" d="M33.4,21.2c-2.6,0.3-3.9,0.6-6.3,0.7c-1.3,0-2.2-0.5-2.5-2.2c-0.3-1.7,0.2-12.4,0.8-14.9
		c0.2-0.9,1-1.3,1.6-1.4c0.6-0.2,4.7,0,7.4,0.3c0.7,0,1.2,0.9,1.1,1.7c0,5.8,0,12.3,0.1,13.6C35.7,20.1,34.7,20.9,33.4,21.2z"/>
	<path id="button1_4_" opacity="0.75" enable-background="new    " d="M35.3,18.9c0.1,0.9-1,1.6-2,1.8c-1,0.1-2-0.6-2-1.5
		c0-0.9,0.9-1.6,2-1.8C34.3,17.3,35.3,18,35.3,18.9z"/>
</g>
</svg>
