<?xml version="1.0" encoding="utf-8"?>
<!-- Generator: Adobe Illustrator 23.0.0, SVG Export Plug-In . SVG Version: 6.00 Build 0)  -->
<svg version="1.0" id="_x30_" xmlns="http://www.w3.org/2000/svg" xmlns:xlink="http://www.w3.org/1999/xlink" x="0px" y="0px"
	 viewBox="0 0 50 50" enable-background="new 0 0 50 50" xml:space="preserve">
<path fill="#FFFFFF" d="M2.5,28.4c0-0.1,0-0.3,0-0.4c0-0.2,0.1-0.3,0.2-0.3c1.3,0,2.5,0,3.8,0c0.1,0,0.2,0.1,0.3,0.2
	c0,0.1,0.1,0.3,0.1,0.4c0,0.1,0,0.2,0,0.2c0,0.1-0.1,0.1-0.2,0.1c-1.3,0-2.6,0-3.9,0C2.7,28.7,2.5,28.6,2.5,28.4z M2.9,31.9
	c1.6,0,3.3,0.1,4.9,0.1c0.1,0,0.2,0,0.2-0.1c0-0.1,0-0.2,0-0.3c-0.1-0.1-0.1-0.3-0.2-0.4c0-0.1-0.1-0.2-0.2-0.2
	c-1.6,0-3.2,0-4.8-0.1c-0.1,0-0.2,0.1-0.2,0.3c0,0.1,0,0.3,0,0.4C2.7,31.8,2.8,31.9,2.9,31.9z M2.8,30.3c1.4,0,2.9,0,4.3,0.1
	c0.1,0,0.2,0,0.2-0.1c0-0.1,0.1-0.2,0-0.3c0-0.1-0.1-0.3-0.1-0.4c0-0.1-0.1-0.2-0.2-0.2c-1.4,0-2.8,0-4.2-0.1
	c-0.1,0-0.2,0.1-0.2,0.3c0,0.1,0,0.3,0,0.4C2.6,30.2,2.7,30.3,2.8,30.3z M2.8,27.1c1.2,0,2.4,0,3.6,0c0.1,0,0.1,0,0.2-0.1
	c0-0.1,0.1-0.1,0.1-0.2c0-0.1,0-0.3,0-0.4c0-0.2-0.1-0.3-0.3-0.3c-1.2,0-2.4,0-3.6,0c-0.1,0-0.3,0.1-0.3,0.3c0,0.1,0,0.3,0,0.4
	C2.5,27,2.6,27.1,2.8,27.1z M2.8,25.5c1.2,0,2.4,0,3.5,0c0.1,0,0.1,0,0.2-0.1s0.1-0.1,0.1-0.2c0-0.1,0-0.3,0-0.4
	c0-0.1,0-0.1-0.1-0.2c0-0.1-0.1-0.1-0.2-0.1c-1.2,0-2.4,0-3.5,0c-0.1,0-0.3,0.1-0.3,0.3c0,0.1,0,0.3,0,0.4
	C2.5,25.4,2.6,25.5,2.8,25.5z M2.5,23.2c0,0.1,0,0.3,0,0.4c0,0.2,0.1,0.3,0.3,0.3c1.2,0,2.4,0,3.6,0c0.1,0,0.2-0.1,0.3-0.3
	c0-0.1,0-0.3,0-0.4c0-0.1,0-0.2-0.1-0.2c0-0.1-0.1-0.1-0.2-0.1c-1.2,0-2.4,0-3.6,0C2.6,22.9,2.5,23,2.5,23.2z M2.5,21.6
	c0,0.1,0,0.3,0,0.4c0,0.2,0.1,0.3,0.2,0.3c1.3,0,2.5,0,3.8,0c0.1,0,0.2-0.1,0.3-0.2c0-0.1,0.1-0.3,0.1-0.4c0-0.1,0-0.2,0-0.2
	c0-0.1-0.1-0.1-0.2-0.1c-1.3,0-2.6,0-3.9,0C2.7,21.3,2.5,21.4,2.5,21.6z M2.6,18.4c0,0.1,0,0.3,0,0.4c0,0.2,0.1,0.3,0.2,0.3
	C4.5,19,6,19,7.6,19c0.1,0,0.2-0.1,0.2-0.2c0.1-0.1,0.1-0.3,0.2-0.4c0-0.1,0-0.2,0-0.3C8,18,7.9,18,7.9,18c-1.6,0-3.3,0.1-4.9,0.1
	C2.8,18.1,2.7,18.2,2.6,18.4z M2.6,20c0,0.1,0,0.3,0,0.4c0,0.2,0.1,0.3,0.2,0.3c1.4,0,2.8,0,4.2-0.1c0.1,0,0.2-0.1,0.2-0.2
	c0-0.1,0.1-0.3,0.1-0.4c0-0.1,0-0.2,0-0.3s-0.1-0.1-0.2-0.1c-1.4,0-2.9,0-4.3,0.1C2.7,19.7,2.6,19.8,2.6,20z M5.3,16.8
	c-0.1-2.3-0.6-4.6-1.2-6.7C4.1,10,4,10,3.9,10c-0.2,0-0.3,0-0.4,0c-0.1,0-0.3,0.1-0.3,0.3C3,13,2.9,14.4,2.7,17.2
	c0,0.2,0.1,0.3,0.2,0.3c0.9,0,1.3,0,2.1,0c0.1,0,0.3-0.1,0.3-0.3c0,0,0,0,0,0C5.3,17,5.3,16.9,5.3,16.8z M14.1,10.9
	C10.9,11,8.1,13,6,17C6,17.1,6,17.2,6,17.2c0,0.1,0.1,0.1,0.2,0.1c0.6,0,1.2,0,1.8,0c0.1,0,0.2,0,0.2-0.1c1.6-2.6,3.6-3.9,5.8-4
	c7.8-0.1,15.6-0.1,23.4,0c5,0.1,8,4,8,11.7c0,7.7-2.9,11.6-8,11.7c-7.8,0.2-15.6,0.2-23.4,0c-2.2,0-4.2-1.4-5.8-4
	c-0.1-0.1-0.1-0.1-0.2-0.1c-0.6,0-1.2,0-1.8,0c-0.1,0-0.2,0-0.2,0.1c0,0.1,0,0.2,0,0.3c2.1,3.9,4.8,6,8.1,6c7.7,0.2,15.5,0.1,23.2,0
	c7.3-0.1,10.1-8,10.1-14c0-6.1-2.8-13.9-10.1-14C29.6,10.8,21.9,10.8,14.1,10.9z M5.4,32.9c0-0.2-0.1-0.3-0.2-0.3c0,0,0,0,0,0
	c-0.9,0-1.3,0-2.1,0c-0.1,0-0.2,0.1-0.2,0.3C2.9,35.6,3,37,3.2,39.7c0,0.2,0.1,0.3,0.3,0.3c0.2,0,0.3,0,0.4,0C4,40,4.1,40,4.1,39.9
	c0.6-2,1.1-4.4,1.2-6.7C5.3,33.1,5.3,33,5.4,32.9z"/>
</svg>
