<?xml version="1.0" encoding="utf-8"?>
<!-- Generator: Adobe Illustrator 23.0.0, SVG Export Plug-In . SVG Version: 6.00 Build 0)  -->
<svg version="1.0" id="_x30_" xmlns="http://www.w3.org/2000/svg" xmlns:xlink="http://www.w3.org/1999/xlink" x="0px" y="0px"
	 viewBox="0 0 50 50" enable-background="new 0 0 50 50" xml:space="preserve">
<g>
	<g id="SPLINE_19_">
		<path fill="#FFFFFF" d="M2.8,28.7c1.3,0,2.6,0,3.9,0c0.1,0,0.1,0,0.2-0.1c0-0.1,0.1-0.2,0-0.2c0-0.1-0.1-0.3-0.1-0.4
			c0-0.1-0.1-0.2-0.3-0.2c-1.3,0-2.5,0-3.8,0c-0.1,0-0.3,0.1-0.2,0.3c0,0.1,0,0.3,0,0.4C2.5,28.6,2.7,28.7,2.8,28.7z"/>
	</g>
	<g id="SPLINE_18_">
		<path fill="#FFFFFF" d="M2.9,31.9c1.6,0,3.3,0.1,4.9,0.1c0.1,0,0.2,0,0.2-0.1c0-0.1,0-0.2,0-0.3c-0.1-0.1-0.1-0.3-0.2-0.4
			c0-0.1-0.1-0.2-0.2-0.2c-1.6,0-3.2,0-4.8-0.1c-0.1,0-0.2,0.1-0.2,0.3c0,0.1,0,0.3,0,0.4C2.7,31.8,2.8,31.9,2.9,31.9z"/>
	</g>
	<g id="SPLINE_17_">
		<path fill="#FFFFFF" d="M2.8,30.3c1.4,0,2.9,0,4.3,0.1c0.1,0,0.2,0,0.2-0.1c0-0.1,0.1-0.2,0-0.3c0-0.1-0.1-0.3-0.1-0.4
			c0-0.1-0.1-0.2-0.2-0.2c-1.4,0-2.8,0-4.2-0.1c-0.1,0-0.2,0.1-0.2,0.3c0,0.1,0,0.3,0,0.4C2.6,30.2,2.7,30.3,2.8,30.3z"/>
	</g>
	<g id="SPLINE_16_">
		<path fill="#FFFFFF" d="M2.8,27.1c1.2,0,2.4,0,3.6,0c0.1,0,0.1,0,0.2-0.1c0-0.1,0.1-0.1,0.1-0.2c0-0.1,0-0.3,0-0.4
			c0-0.2-0.1-0.3-0.3-0.3c-1.2,0-2.4,0-3.6,0c-0.1,0-0.3,0.1-0.3,0.3c0,0.1,0,0.3,0,0.4C2.5,27,2.6,27.1,2.8,27.1z"/>
	</g>
	<g id="SPLINE_15_">
		<path fill="#FFFFFF" d="M2.8,25.5c1.2,0,2.4,0,3.5,0c0.1,0,0.1,0,0.2-0.1s0.1-0.1,0.1-0.2c0-0.1,0-0.3,0-0.4c0-0.1,0-0.1-0.1-0.2
			c0-0.1-0.1-0.1-0.2-0.1c-1.2,0-2.4,0-3.5,0c-0.1,0-0.3,0.1-0.3,0.3c0,0.1,0,0.3,0,0.4C2.5,25.4,2.6,25.5,2.8,25.5z"/>
	</g>
	<g id="SPLINE_14_">
		<path fill="#FFFFFF" d="M2.8,22.9c1.2,0,2.4,0,3.6,0c0.1,0,0.1,0,0.2,0.1c0,0.1,0.1,0.1,0.1,0.2c0,0.1,0,0.3,0,0.4
			c0,0.2-0.1,0.3-0.3,0.3c-1.2,0-2.4,0-3.6,0c-0.1,0-0.3-0.1-0.3-0.3c0-0.1,0-0.3,0-0.4C2.5,23,2.6,22.9,2.8,22.9z"/>
	</g>
	<g id="SPLINE_13_">
		<path fill="#FFFFFF" d="M2.8,21.3c1.3,0,2.6,0,3.9,0c0.1,0,0.1,0,0.2,0.1c0,0.1,0.1,0.2,0,0.2c0,0.1-0.1,0.3-0.1,0.4
			c0,0.1-0.1,0.2-0.3,0.2c-1.3,0-2.5,0-3.8,0c-0.1,0-0.3-0.1-0.2-0.3c0-0.1,0-0.3,0-0.4C2.5,21.4,2.7,21.3,2.8,21.3z"/>
	</g>
	<g id="SPLINE_12_">
		<path fill="#FFFFFF" d="M2.9,18.1c1.6,0,3.3-0.1,4.9-0.1c0.1,0,0.2,0,0.2,0.1c0,0.1,0,0.2,0,0.3c-0.1,0.1-0.1,0.3-0.2,0.4
			c0,0.1-0.1,0.2-0.2,0.2c-1.6,0-3.2,0-4.8,0.1c-0.1,0-0.2-0.1-0.2-0.3c0-0.1,0-0.3,0-0.4C2.7,18.2,2.8,18.1,2.9,18.1z"/>
	</g>
	<g id="SPLINE_11_">
		<path fill="#FFFFFF" d="M2.8,19.7c1.4,0,2.9,0,4.3-0.1c0.1,0,0.2,0,0.2,0.1s0.1,0.2,0,0.3c0,0.1-0.1,0.3-0.1,0.4
			c0,0.1-0.1,0.2-0.2,0.2c-1.4,0-2.8,0-4.2,0.1c-0.1,0-0.2-0.1-0.2-0.3c0-0.1,0-0.3,0-0.4C2.6,19.8,2.7,19.7,2.8,19.7z"/>
	</g>
	<g id="LWPOLYLINE_3_">
		<path fill="#FFFFFF" d="M5.4,17.1C5.4,17.1,5.4,17.1,5.4,17.1c0,0.2-0.1,0.3-0.3,0.3c-0.9,0-1.3,0-2.1,0c-0.1,0-0.2-0.1-0.2-0.3
			C2.9,14.4,3,13,3.2,10.3c0-0.2,0.1-0.3,0.3-0.3c0.2,0,0.3,0,0.4,0C4,10,4.1,10,4.1,10.1c0.6,2,1.1,4.4,1.2,6.7
			C5.3,16.9,5.3,17,5.4,17.1z"/>
	</g>
	<g id="SPLINE_10_">
		<path fill="#FFFFFF" d="M37.4,11c7.4,0.1,10.1,8,10.1,14c0,6.1-2.8,13.9-10.1,14c-7.7,0.1-15.5,0.2-23.2,0C10.9,39,8.1,37,6,33
			C6,32.9,6,32.8,6,32.8c0-0.1,0.1-0.1,0.2-0.1c0.6,0,1.2,0,1.8,0c0.1,0,0.2,0,0.2,0.1c1.6,2.6,3.6,3.9,5.8,4
			c7.8,0.1,15.6,0.1,23.4,0c5-0.1,8-4,8-11.7c0-7.7-2.9-11.6-8-11.7c-7.8-0.2-15.6-0.2-23.4,0c-2.2,0-4.2,1.4-5.8,4
			c-0.1,0.1-0.1,0.1-0.2,0.1c-0.6,0-1.2,0-1.8,0c-0.1,0-0.2,0-0.2-0.1c0-0.1,0-0.2,0-0.3c2.1-3.9,4.8-6,8.1-6
			C21.9,10.8,29.6,10.8,37.4,11z"/>
	</g>
	<g id="LWPOLYLINE_2_">
		<path fill="#FFFFFF" d="M5.4,32.9c0-0.2-0.1-0.3-0.2-0.3c0,0,0,0,0,0c-0.9,0-1.3,0-2.1,0c-0.1,0-0.2,0.1-0.2,0.3
			C2.9,35.6,3,37,3.2,39.7c0,0.2,0.1,0.3,0.3,0.3c0.2,0,0.3,0,0.4,0C4,40,4.1,40,4.1,39.9c0.6-2,1.1-4.4,1.2-6.7
			C5.3,33.1,5.3,33,5.4,32.9z"/>
	</g>
</g>
</svg>
