<?xml version="1.0" encoding="utf-8"?>
<!-- Generator: Adobe Illustrator 23.0.0, SVG Export Plug-In . SVG Version: 6.00 Build 0)  -->
<svg version="1.0" id="Layer_1" xmlns="http://www.w3.org/2000/svg" xmlns:xlink="http://www.w3.org/1999/xlink" x="0px" y="0px"
	 width="50px" height="50px" viewBox="0 0 50 50" enable-background="new 0 0 50 50" xml:space="preserve">
<g id="circle">
	<path fill="#FFFFFF" d="M2.5,25C2.5,12.6,12.6,2.5,25,2.5S47.5,12.6,47.5,25S37.4,47.5,25,47.5S2.5,37.4,2.5,25L2.5,25z"/>
</g>
<g id="pyramid">
	<g>
		<defs>
			<path id="SVGID_1_" d="M47.5,25C47.5,12.6,37.4,2.5,25,2.5c-11.8,0-21.5,9.1-22.4,20.6l24,24.3C38.3,46.6,47.5,36.9,47.5,25z"/>
		</defs>
		<clipPath id="SVGID_2_">
			<use xlink:href="#SVGID_1_"  overflow="visible"/>
		</clipPath>
		<polygon clip-path="url(#SVGID_2_)" fill="#0F0F0F" points="24.4,17.9 10,32.1 18,32.1 40,32.1 		"/>
	</g>
</g>
<g id="crease">
	<path fill="#FFFFFF" d="M25.7,45.1L5,24.1C16.3,24.5,25.4,33.7,25.7,45.1z"/>
	<path d="M7.6,25.4c8.7,1.5,15.5,8.4,16.8,17L7.6,25.4 M4.2,23.1c-0.5,0-1.1,0-1.6,0.1l24,24.3c0.1-0.6,0.1-1.2,0.1-1.9
		C26.7,33.2,16.6,23.1,4.2,23.1L4.2,23.1z"/>
</g>
<path id="back" opacity="0.25" enable-background="new    " d="M2.5,25c0,12.4,10.1,22.5,22.5,22.5c0.5,0,1.1,0,1.6-0.1l-24-24.3
	C2.5,23.8,2.5,24.4,2.5,25z"/>
<path id="base_borders" d="M25,4.5c11.3,0,20.5,9.2,20.5,20.5c0,10.4-7.9,19.2-18.1,20.4l-22.7-23C6,12.3,14.7,4.5,25,4.5 M25,2.5
	c-11.8,0-21.5,9.1-22.4,20.6l24,24.3C38.3,46.6,47.5,36.9,47.5,25C47.5,12.6,37.4,2.5,25,2.5L25,2.5z"/>
</svg>
