<?xml version="1.0" encoding="utf-8"?>
<!-- Generator: Adobe Illustrator 23.0.0, SVG Export Plug-In . SVG Version: 6.00 Build 0)  -->
<svg version="1.0" id="Layer_1" xmlns="http://www.w3.org/2000/svg" xmlns:xlink="http://www.w3.org/1999/xlink" x="0px" y="0px"
	 viewBox="0 0 50 50" enable-background="new 0 0 50 50" xml:space="preserve">
<path fill="#FFFFFF" d="M26.3,5c1,0.1,2,0.2,3,0.3c2.6,0.4,5,1,7.1,2c0.3,0.1,0.5,0.1,0.8-0.1c0.8-0.8,1.8-1.5,2.7-2.3
	c0.5-0.4,1.1-0.7,1.7-0.6c0.6,0.1,0.8,0.5,0.7,1.1c-0.2,3.9-0.3,7.8-0.2,11.7c0,1-0.7,1.7-1.6,1.6c-3.9-0.4-7.8-0.8-11.7-1.3
	c-0.6-0.1-1-0.3-1.2-0.8c-0.2-0.5,0-1,0.5-1.3c0.8-0.7,1.6-1.4,2.5-2.2c-1.1-0.4-2.2-0.7-3.4-0.9c-4.2-0.5-8,0.2-10.9,2.5
	c-2.6,2-3.9,4.8-4.1,8.3c-0.1,0.7,0,1.4,0,2.1c0,0.9-0.5,1.4-1.3,1.3c-1.6-0.2-3.1-0.5-4.7-0.7c-0.5-0.1-0.8-0.5-1.1-1
	c0-0.4-0.1-0.8-0.1-1.3c0-0.1,0-0.3,0-0.4c-0.1-3.2,0.3-6.3,1.4-8.9c2.4-5.8,7.2-8.2,14.5-9c0.9-0.1,1.8-0.1,2.7-0.2
	C24.4,5,25.3,5,26.3,5z M45.2,25.4c-0.2-0.6-0.5-0.9-1.1-1c-1.4-0.2-2.9-0.4-4.3-0.6c-0.9-0.1-1.6,0.4-1.7,1.4
	c-0.1,0.6-0.1,1.3-0.2,1.9c-0.6,3.4-2.1,6.1-4.6,8.2c-2.9,2.3-6.3,3.2-10.1,2.7c-1-0.1-2.1-0.4-3-0.8c0.1-0.1,0.2-0.2,0.3-0.3
	c0.6-0.6,1.2-1.3,1.8-1.9c0.4-0.4,0.6-0.8,0.4-1.3c-0.2-0.5-0.6-0.8-1.1-0.8c-0.1,0-0.1,0-0.2,0c-1.4-0.2-2.7-0.3-4.1-0.5
	c-2.4-0.3-4.7-0.5-7.1-0.8c-0.8-0.1-1.4,0.6-1.3,1.4c0,0.2,0,0.4,0.1,0.6c0.2,1.3,0.3,2.6,0.4,3.9c0.2,2.7,0.4,5.4,0.5,8
	c0,0.6,0.2,0.9,0.7,1c0.5,0.1,1-0.2,1.4-0.6c0.8-0.8,1.5-1.6,2.3-2.5c0.2-0.3,0.4-0.3,0.7-0.2c2.3,1.2,5,1.8,7.8,2
	c4.2,0.3,8.3-0.3,11.8-2c5.7-2.7,8.6-7.4,10.1-14.3c0.2-0.8,0.3-1.6,0.4-2.4C45.1,26.2,45.1,25.8,45.2,25.4z"/>
</svg>
