<?xml version="1.0" encoding="utf-8"?>
<!-- Generator: Adobe Illustrator 23.0.0, SVG Export Plug-In . SVG Version: 6.00 Build 0)  -->
<svg version="1.0" id="follow_x5F_icon" xmlns="http://www.w3.org/2000/svg" xmlns:xlink="http://www.w3.org/1999/xlink" x="0px"
	 y="0px" viewBox="0 0 50 50" enable-background="new 0 0 50 50" xml:space="preserve">
<g id="front_x5F_flyer">
	<path id="shawod1_1_" opacity="0.25" enable-background="new    " d="M36.8,41.9c-2.6,1.2-9.9,4.1-12.5,5.3s-5.5-0.5-6.3-3.3
		c-3.8-12.9-7.3-29.4-7.3-33.1c0-1.7,0.7-2.9,2.6-3.5s13.6-3,15.2-3.3s3.1,1.3,3.5,3c1.6,6.7,4.3,15.9,8.5,28.9
		C41.2,37.9,39.4,40.7,36.8,41.9z"/>
	<path id="slide1_1_" fill="#FFFFFF" d="M35.1,41.4c-5,2-7.5,3.3-12.5,5c-2.5,0.8-4.8,0-6.3-3.5s-7-27.4-7-33.1c0-2.1,1.2-3.4,2.5-4
		S21.3,3.3,27,2.5c1.5-0.3,3,1.3,3.3,3c3.3,12.7,7.1,26.8,7.9,29.6S37.5,40.1,35.1,41.4z"/>
	<path id="button1_1_" opacity="0.75" enable-background="new    " d="M37.5,35.4c0.6,1.9-1,4.1-3,5s-4.5-0.2-5-2s0.9-4.1,3-5
		S37,33.5,37.5,35.4z"/>
</g>
<g>
	<g id="sa7_icon_1_" transform="translate(6 7)">
		<path id="sa7_1_" fill="#2FBB06" d="M17.1,10.5c0.8-1.7,1.4-2.5,2.3-4.2c2,1.7,3,2.5,4.7,4.2c3.4-5,5.4-7.5,10.6-12.5
			c1.3,1.2,1.9,1.8,3.1,2.9C32.9,5.7,28,11.6,24.6,17.6C22,14.8,20.5,13.4,17.1,10.5z"/>
	</g>
</g>
</svg>
